%TF.GenerationSoftware,KiCad,Pcbnew,8.0.0*%
%TF.CreationDate,2024-09-30T13:32:04+02:00*%
%TF.ProjectId,imp_measure,696d705f-6d65-4617-9375-72652e6b6963,rev?*%
%TF.SameCoordinates,Original*%
%TF.FileFunction,Soldermask,Bot*%
%TF.FilePolarity,Negative*%
%FSLAX46Y46*%
G04 Gerber Fmt 4.6, Leading zero omitted, Abs format (unit mm)*
G04 Created by KiCad (PCBNEW 8.0.0) date 2024-09-30 13:32:04*
%MOMM*%
%LPD*%
G01*
G04 APERTURE LIST*
%ADD10C,1.500000*%
%ADD11R,1.700000X1.700000*%
%ADD12O,1.700000X1.700000*%
%ADD13O,0.800000X0.800000*%
%ADD14O,1.800000X1.150000*%
%ADD15O,2.000000X1.450000*%
%ADD16R,1.500000X1.500000*%
%ADD17C,1.600000*%
%ADD18R,1.200000X1.200000*%
%ADD19C,1.200000*%
%ADD20C,2.000000*%
G04 APERTURE END LIST*
D10*
%TO.C,Y1*%
X128900000Y-79400000D03*
X128900000Y-84280000D03*
%TD*%
D11*
%TO.C,J5*%
X147810000Y-101450000D03*
D12*
X145270000Y-101450000D03*
X142730000Y-101450000D03*
X140190000Y-101450000D03*
X137650000Y-101450000D03*
X135110000Y-101450000D03*
X132570000Y-101450000D03*
X130030000Y-101450000D03*
X127490000Y-101450000D03*
X124950000Y-101450000D03*
%TD*%
D13*
%TO.C,J2*%
X179820000Y-81100000D03*
X179820000Y-76100000D03*
D14*
X182570000Y-82475000D03*
D15*
X178770000Y-82325000D03*
X178770000Y-74875000D03*
D14*
X182570000Y-74725000D03*
%TD*%
D16*
%TO.C,SW1*%
X131560000Y-59700000D03*
D17*
X134100000Y-59700000D03*
X129020000Y-59700000D03*
%TD*%
D11*
%TO.C,J4*%
X152100000Y-59700000D03*
D12*
X149560000Y-59700000D03*
X147020000Y-59700000D03*
X144480000Y-59700000D03*
X141940000Y-59700000D03*
X139400000Y-59700000D03*
%TD*%
D18*
%TO.C,C20*%
X181600000Y-69622600D03*
D19*
X181600000Y-68122600D03*
%TD*%
D11*
%TO.C,J3*%
X147808000Y-97790000D03*
D12*
X145268000Y-97790000D03*
X142728000Y-97790000D03*
X140188000Y-97790000D03*
X137648000Y-97790000D03*
X135108000Y-97790000D03*
X132568000Y-97790000D03*
X130028000Y-97790000D03*
X127488000Y-97790000D03*
X124948000Y-97790000D03*
%TD*%
D20*
%TO.C,H3*%
X100100000Y-101100000D03*
%TD*%
%TO.C,H1*%
X100000000Y-60000000D03*
%TD*%
%TO.C,H4*%
X183900000Y-101200000D03*
%TD*%
%TO.C,H2*%
X184000000Y-60000000D03*
%TD*%
D11*
%TO.C,J1*%
X160889000Y-97800000D03*
D12*
X158349000Y-97800000D03*
X155809000Y-97800000D03*
X153269000Y-97800000D03*
%TD*%
D18*
%TO.C,C24*%
X164300000Y-69900000D03*
D19*
X164300000Y-68400000D03*
%TD*%
M02*
