%TF.GenerationSoftware,KiCad,Pcbnew,8.0.0*%
%TF.CreationDate,2024-09-22T18:34:52+02:00*%
%TF.ProjectId,imp_measure,696d705f-6d65-4617-9375-72652e6b6963,rev?*%
%TF.SameCoordinates,Original*%
%TF.FileFunction,Legend,Top*%
%TF.FilePolarity,Positive*%
%FSLAX46Y46*%
G04 Gerber Fmt 4.6, Leading zero omitted, Abs format (unit mm)*
G04 Created by KiCad (PCBNEW 8.0.0) date 2024-09-22 18:34:52*
%MOMM*%
%LPD*%
G01*
G04 APERTURE LIST*
%ADD10C,0.150000*%
%ADD11C,0.254000*%
%ADD12C,0.120000*%
%ADD13C,0.200000*%
G04 APERTURE END LIST*
D10*
X101123333Y-81345319D02*
X100790000Y-80869128D01*
X100551905Y-81345319D02*
X100551905Y-80345319D01*
X100551905Y-80345319D02*
X100932857Y-80345319D01*
X100932857Y-80345319D02*
X101028095Y-80392938D01*
X101028095Y-80392938D02*
X101075714Y-80440557D01*
X101075714Y-80440557D02*
X101123333Y-80535795D01*
X101123333Y-80535795D02*
X101123333Y-80678652D01*
X101123333Y-80678652D02*
X101075714Y-80773890D01*
X101075714Y-80773890D02*
X101028095Y-80821509D01*
X101028095Y-80821509D02*
X100932857Y-80869128D01*
X100932857Y-80869128D02*
X100551905Y-80869128D01*
X101456667Y-80345319D02*
X102123333Y-80345319D01*
X102123333Y-80345319D02*
X101694762Y-81345319D01*
X162504819Y-76866666D02*
X162028628Y-77199999D01*
X162504819Y-77438094D02*
X161504819Y-77438094D01*
X161504819Y-77438094D02*
X161504819Y-77057142D01*
X161504819Y-77057142D02*
X161552438Y-76961904D01*
X161552438Y-76961904D02*
X161600057Y-76914285D01*
X161600057Y-76914285D02*
X161695295Y-76866666D01*
X161695295Y-76866666D02*
X161838152Y-76866666D01*
X161838152Y-76866666D02*
X161933390Y-76914285D01*
X161933390Y-76914285D02*
X161981009Y-76961904D01*
X161981009Y-76961904D02*
X162028628Y-77057142D01*
X162028628Y-77057142D02*
X162028628Y-77438094D01*
X161504819Y-75961904D02*
X161504819Y-76438094D01*
X161504819Y-76438094D02*
X161981009Y-76485713D01*
X161981009Y-76485713D02*
X161933390Y-76438094D01*
X161933390Y-76438094D02*
X161885771Y-76342856D01*
X161885771Y-76342856D02*
X161885771Y-76104761D01*
X161885771Y-76104761D02*
X161933390Y-76009523D01*
X161933390Y-76009523D02*
X161981009Y-75961904D01*
X161981009Y-75961904D02*
X162076247Y-75914285D01*
X162076247Y-75914285D02*
X162314342Y-75914285D01*
X162314342Y-75914285D02*
X162409580Y-75961904D01*
X162409580Y-75961904D02*
X162457200Y-76009523D01*
X162457200Y-76009523D02*
X162504819Y-76104761D01*
X162504819Y-76104761D02*
X162504819Y-76342856D01*
X162504819Y-76342856D02*
X162457200Y-76438094D01*
X162457200Y-76438094D02*
X162409580Y-76485713D01*
X148423333Y-70304819D02*
X148090000Y-69828628D01*
X147851905Y-70304819D02*
X147851905Y-69304819D01*
X147851905Y-69304819D02*
X148232857Y-69304819D01*
X148232857Y-69304819D02*
X148328095Y-69352438D01*
X148328095Y-69352438D02*
X148375714Y-69400057D01*
X148375714Y-69400057D02*
X148423333Y-69495295D01*
X148423333Y-69495295D02*
X148423333Y-69638152D01*
X148423333Y-69638152D02*
X148375714Y-69733390D01*
X148375714Y-69733390D02*
X148328095Y-69781009D01*
X148328095Y-69781009D02*
X148232857Y-69828628D01*
X148232857Y-69828628D02*
X147851905Y-69828628D01*
X148804286Y-69400057D02*
X148851905Y-69352438D01*
X148851905Y-69352438D02*
X148947143Y-69304819D01*
X148947143Y-69304819D02*
X149185238Y-69304819D01*
X149185238Y-69304819D02*
X149280476Y-69352438D01*
X149280476Y-69352438D02*
X149328095Y-69400057D01*
X149328095Y-69400057D02*
X149375714Y-69495295D01*
X149375714Y-69495295D02*
X149375714Y-69590533D01*
X149375714Y-69590533D02*
X149328095Y-69733390D01*
X149328095Y-69733390D02*
X148756667Y-70304819D01*
X148756667Y-70304819D02*
X149375714Y-70304819D01*
X121372333Y-67764819D02*
X121039000Y-67288628D01*
X120800905Y-67764819D02*
X120800905Y-66764819D01*
X120800905Y-66764819D02*
X121181857Y-66764819D01*
X121181857Y-66764819D02*
X121277095Y-66812438D01*
X121277095Y-66812438D02*
X121324714Y-66860057D01*
X121324714Y-66860057D02*
X121372333Y-66955295D01*
X121372333Y-66955295D02*
X121372333Y-67098152D01*
X121372333Y-67098152D02*
X121324714Y-67193390D01*
X121324714Y-67193390D02*
X121277095Y-67241009D01*
X121277095Y-67241009D02*
X121181857Y-67288628D01*
X121181857Y-67288628D02*
X120800905Y-67288628D01*
X121848524Y-67764819D02*
X122039000Y-67764819D01*
X122039000Y-67764819D02*
X122134238Y-67717200D01*
X122134238Y-67717200D02*
X122181857Y-67669580D01*
X122181857Y-67669580D02*
X122277095Y-67526723D01*
X122277095Y-67526723D02*
X122324714Y-67336247D01*
X122324714Y-67336247D02*
X122324714Y-66955295D01*
X122324714Y-66955295D02*
X122277095Y-66860057D01*
X122277095Y-66860057D02*
X122229476Y-66812438D01*
X122229476Y-66812438D02*
X122134238Y-66764819D01*
X122134238Y-66764819D02*
X121943762Y-66764819D01*
X121943762Y-66764819D02*
X121848524Y-66812438D01*
X121848524Y-66812438D02*
X121800905Y-66860057D01*
X121800905Y-66860057D02*
X121753286Y-66955295D01*
X121753286Y-66955295D02*
X121753286Y-67193390D01*
X121753286Y-67193390D02*
X121800905Y-67288628D01*
X121800905Y-67288628D02*
X121848524Y-67336247D01*
X121848524Y-67336247D02*
X121943762Y-67383866D01*
X121943762Y-67383866D02*
X122134238Y-67383866D01*
X122134238Y-67383866D02*
X122229476Y-67336247D01*
X122229476Y-67336247D02*
X122277095Y-67288628D01*
X122277095Y-67288628D02*
X122324714Y-67193390D01*
X108489333Y-78560819D02*
X108156000Y-78084628D01*
X107917905Y-78560819D02*
X107917905Y-77560819D01*
X107917905Y-77560819D02*
X108298857Y-77560819D01*
X108298857Y-77560819D02*
X108394095Y-77608438D01*
X108394095Y-77608438D02*
X108441714Y-77656057D01*
X108441714Y-77656057D02*
X108489333Y-77751295D01*
X108489333Y-77751295D02*
X108489333Y-77894152D01*
X108489333Y-77894152D02*
X108441714Y-77989390D01*
X108441714Y-77989390D02*
X108394095Y-78037009D01*
X108394095Y-78037009D02*
X108298857Y-78084628D01*
X108298857Y-78084628D02*
X107917905Y-78084628D01*
X109346476Y-77560819D02*
X109156000Y-77560819D01*
X109156000Y-77560819D02*
X109060762Y-77608438D01*
X109060762Y-77608438D02*
X109013143Y-77656057D01*
X109013143Y-77656057D02*
X108917905Y-77798914D01*
X108917905Y-77798914D02*
X108870286Y-77989390D01*
X108870286Y-77989390D02*
X108870286Y-78370342D01*
X108870286Y-78370342D02*
X108917905Y-78465580D01*
X108917905Y-78465580D02*
X108965524Y-78513200D01*
X108965524Y-78513200D02*
X109060762Y-78560819D01*
X109060762Y-78560819D02*
X109251238Y-78560819D01*
X109251238Y-78560819D02*
X109346476Y-78513200D01*
X109346476Y-78513200D02*
X109394095Y-78465580D01*
X109394095Y-78465580D02*
X109441714Y-78370342D01*
X109441714Y-78370342D02*
X109441714Y-78132247D01*
X109441714Y-78132247D02*
X109394095Y-78037009D01*
X109394095Y-78037009D02*
X109346476Y-77989390D01*
X109346476Y-77989390D02*
X109251238Y-77941771D01*
X109251238Y-77941771D02*
X109060762Y-77941771D01*
X109060762Y-77941771D02*
X108965524Y-77989390D01*
X108965524Y-77989390D02*
X108917905Y-78037009D01*
X108917905Y-78037009D02*
X108870286Y-78132247D01*
X136033333Y-64467319D02*
X135700000Y-63991128D01*
X135461905Y-64467319D02*
X135461905Y-63467319D01*
X135461905Y-63467319D02*
X135842857Y-63467319D01*
X135842857Y-63467319D02*
X135938095Y-63514938D01*
X135938095Y-63514938D02*
X135985714Y-63562557D01*
X135985714Y-63562557D02*
X136033333Y-63657795D01*
X136033333Y-63657795D02*
X136033333Y-63800652D01*
X136033333Y-63800652D02*
X135985714Y-63895890D01*
X135985714Y-63895890D02*
X135938095Y-63943509D01*
X135938095Y-63943509D02*
X135842857Y-63991128D01*
X135842857Y-63991128D02*
X135461905Y-63991128D01*
X136366667Y-63467319D02*
X136985714Y-63467319D01*
X136985714Y-63467319D02*
X136652381Y-63848271D01*
X136652381Y-63848271D02*
X136795238Y-63848271D01*
X136795238Y-63848271D02*
X136890476Y-63895890D01*
X136890476Y-63895890D02*
X136938095Y-63943509D01*
X136938095Y-63943509D02*
X136985714Y-64038747D01*
X136985714Y-64038747D02*
X136985714Y-64276842D01*
X136985714Y-64276842D02*
X136938095Y-64372080D01*
X136938095Y-64372080D02*
X136890476Y-64419700D01*
X136890476Y-64419700D02*
X136795238Y-64467319D01*
X136795238Y-64467319D02*
X136509524Y-64467319D01*
X136509524Y-64467319D02*
X136414286Y-64419700D01*
X136414286Y-64419700D02*
X136366667Y-64372080D01*
X103663333Y-81296819D02*
X103330000Y-80820628D01*
X103091905Y-81296819D02*
X103091905Y-80296819D01*
X103091905Y-80296819D02*
X103472857Y-80296819D01*
X103472857Y-80296819D02*
X103568095Y-80344438D01*
X103568095Y-80344438D02*
X103615714Y-80392057D01*
X103615714Y-80392057D02*
X103663333Y-80487295D01*
X103663333Y-80487295D02*
X103663333Y-80630152D01*
X103663333Y-80630152D02*
X103615714Y-80725390D01*
X103615714Y-80725390D02*
X103568095Y-80773009D01*
X103568095Y-80773009D02*
X103472857Y-80820628D01*
X103472857Y-80820628D02*
X103091905Y-80820628D01*
X104234762Y-80725390D02*
X104139524Y-80677771D01*
X104139524Y-80677771D02*
X104091905Y-80630152D01*
X104091905Y-80630152D02*
X104044286Y-80534914D01*
X104044286Y-80534914D02*
X104044286Y-80487295D01*
X104044286Y-80487295D02*
X104091905Y-80392057D01*
X104091905Y-80392057D02*
X104139524Y-80344438D01*
X104139524Y-80344438D02*
X104234762Y-80296819D01*
X104234762Y-80296819D02*
X104425238Y-80296819D01*
X104425238Y-80296819D02*
X104520476Y-80344438D01*
X104520476Y-80344438D02*
X104568095Y-80392057D01*
X104568095Y-80392057D02*
X104615714Y-80487295D01*
X104615714Y-80487295D02*
X104615714Y-80534914D01*
X104615714Y-80534914D02*
X104568095Y-80630152D01*
X104568095Y-80630152D02*
X104520476Y-80677771D01*
X104520476Y-80677771D02*
X104425238Y-80725390D01*
X104425238Y-80725390D02*
X104234762Y-80725390D01*
X104234762Y-80725390D02*
X104139524Y-80773009D01*
X104139524Y-80773009D02*
X104091905Y-80820628D01*
X104091905Y-80820628D02*
X104044286Y-80915866D01*
X104044286Y-80915866D02*
X104044286Y-81106342D01*
X104044286Y-81106342D02*
X104091905Y-81201580D01*
X104091905Y-81201580D02*
X104139524Y-81249200D01*
X104139524Y-81249200D02*
X104234762Y-81296819D01*
X104234762Y-81296819D02*
X104425238Y-81296819D01*
X104425238Y-81296819D02*
X104520476Y-81249200D01*
X104520476Y-81249200D02*
X104568095Y-81201580D01*
X104568095Y-81201580D02*
X104615714Y-81106342D01*
X104615714Y-81106342D02*
X104615714Y-80915866D01*
X104615714Y-80915866D02*
X104568095Y-80820628D01*
X104568095Y-80820628D02*
X104520476Y-80773009D01*
X104520476Y-80773009D02*
X104425238Y-80725390D01*
X183854820Y-86166665D02*
X183378629Y-86499998D01*
X183854820Y-86738093D02*
X182854820Y-86738093D01*
X182854820Y-86738093D02*
X182854820Y-86357141D01*
X182854820Y-86357141D02*
X182902439Y-86261903D01*
X182902439Y-86261903D02*
X182950058Y-86214284D01*
X182950058Y-86214284D02*
X183045296Y-86166665D01*
X183045296Y-86166665D02*
X183188153Y-86166665D01*
X183188153Y-86166665D02*
X183283391Y-86214284D01*
X183283391Y-86214284D02*
X183331010Y-86261903D01*
X183331010Y-86261903D02*
X183378629Y-86357141D01*
X183378629Y-86357141D02*
X183378629Y-86738093D01*
X183854820Y-85214284D02*
X183854820Y-85785712D01*
X183854820Y-85499998D02*
X182854820Y-85499998D01*
X182854820Y-85499998D02*
X182997677Y-85595236D01*
X182997677Y-85595236D02*
X183092915Y-85690474D01*
X183092915Y-85690474D02*
X183140534Y-85785712D01*
X101197333Y-72454819D02*
X100864000Y-71978628D01*
X100625905Y-72454819D02*
X100625905Y-71454819D01*
X100625905Y-71454819D02*
X101006857Y-71454819D01*
X101006857Y-71454819D02*
X101102095Y-71502438D01*
X101102095Y-71502438D02*
X101149714Y-71550057D01*
X101149714Y-71550057D02*
X101197333Y-71645295D01*
X101197333Y-71645295D02*
X101197333Y-71788152D01*
X101197333Y-71788152D02*
X101149714Y-71883390D01*
X101149714Y-71883390D02*
X101102095Y-71931009D01*
X101102095Y-71931009D02*
X101006857Y-71978628D01*
X101006857Y-71978628D02*
X100625905Y-71978628D01*
X102054476Y-71788152D02*
X102054476Y-72454819D01*
X101816381Y-71407200D02*
X101578286Y-72121485D01*
X101578286Y-72121485D02*
X102197333Y-72121485D01*
X124623809Y-80978628D02*
X124623809Y-81454819D01*
X124290476Y-80454819D02*
X124623809Y-80978628D01*
X124623809Y-80978628D02*
X124957142Y-80454819D01*
X125814285Y-81454819D02*
X125242857Y-81454819D01*
X125528571Y-81454819D02*
X125528571Y-80454819D01*
X125528571Y-80454819D02*
X125433333Y-80597676D01*
X125433333Y-80597676D02*
X125338095Y-80692914D01*
X125338095Y-80692914D02*
X125242857Y-80740533D01*
X118526580Y-89058857D02*
X118574200Y-89106476D01*
X118574200Y-89106476D02*
X118621819Y-89249333D01*
X118621819Y-89249333D02*
X118621819Y-89344571D01*
X118621819Y-89344571D02*
X118574200Y-89487428D01*
X118574200Y-89487428D02*
X118478961Y-89582666D01*
X118478961Y-89582666D02*
X118383723Y-89630285D01*
X118383723Y-89630285D02*
X118193247Y-89677904D01*
X118193247Y-89677904D02*
X118050390Y-89677904D01*
X118050390Y-89677904D02*
X117859914Y-89630285D01*
X117859914Y-89630285D02*
X117764676Y-89582666D01*
X117764676Y-89582666D02*
X117669438Y-89487428D01*
X117669438Y-89487428D02*
X117621819Y-89344571D01*
X117621819Y-89344571D02*
X117621819Y-89249333D01*
X117621819Y-89249333D02*
X117669438Y-89106476D01*
X117669438Y-89106476D02*
X117717057Y-89058857D01*
X117621819Y-88725523D02*
X117621819Y-88106476D01*
X117621819Y-88106476D02*
X118002771Y-88439809D01*
X118002771Y-88439809D02*
X118002771Y-88296952D01*
X118002771Y-88296952D02*
X118050390Y-88201714D01*
X118050390Y-88201714D02*
X118098009Y-88154095D01*
X118098009Y-88154095D02*
X118193247Y-88106476D01*
X118193247Y-88106476D02*
X118431342Y-88106476D01*
X118431342Y-88106476D02*
X118526580Y-88154095D01*
X118526580Y-88154095D02*
X118574200Y-88201714D01*
X118574200Y-88201714D02*
X118621819Y-88296952D01*
X118621819Y-88296952D02*
X118621819Y-88582666D01*
X118621819Y-88582666D02*
X118574200Y-88677904D01*
X118574200Y-88677904D02*
X118526580Y-88725523D01*
X117717057Y-87725523D02*
X117669438Y-87677904D01*
X117669438Y-87677904D02*
X117621819Y-87582666D01*
X117621819Y-87582666D02*
X117621819Y-87344571D01*
X117621819Y-87344571D02*
X117669438Y-87249333D01*
X117669438Y-87249333D02*
X117717057Y-87201714D01*
X117717057Y-87201714D02*
X117812295Y-87154095D01*
X117812295Y-87154095D02*
X117907533Y-87154095D01*
X117907533Y-87154095D02*
X118050390Y-87201714D01*
X118050390Y-87201714D02*
X118621819Y-87773142D01*
X118621819Y-87773142D02*
X118621819Y-87154095D01*
X175904819Y-76033333D02*
X176619104Y-76033333D01*
X176619104Y-76033333D02*
X176761961Y-76080952D01*
X176761961Y-76080952D02*
X176857200Y-76176190D01*
X176857200Y-76176190D02*
X176904819Y-76319047D01*
X176904819Y-76319047D02*
X176904819Y-76414285D01*
X176000057Y-75604761D02*
X175952438Y-75557142D01*
X175952438Y-75557142D02*
X175904819Y-75461904D01*
X175904819Y-75461904D02*
X175904819Y-75223809D01*
X175904819Y-75223809D02*
X175952438Y-75128571D01*
X175952438Y-75128571D02*
X176000057Y-75080952D01*
X176000057Y-75080952D02*
X176095295Y-75033333D01*
X176095295Y-75033333D02*
X176190533Y-75033333D01*
X176190533Y-75033333D02*
X176333390Y-75080952D01*
X176333390Y-75080952D02*
X176904819Y-75652380D01*
X176904819Y-75652380D02*
X176904819Y-75033333D01*
X125166667Y-62647200D02*
X125309524Y-62694819D01*
X125309524Y-62694819D02*
X125547619Y-62694819D01*
X125547619Y-62694819D02*
X125642857Y-62647200D01*
X125642857Y-62647200D02*
X125690476Y-62599580D01*
X125690476Y-62599580D02*
X125738095Y-62504342D01*
X125738095Y-62504342D02*
X125738095Y-62409104D01*
X125738095Y-62409104D02*
X125690476Y-62313866D01*
X125690476Y-62313866D02*
X125642857Y-62266247D01*
X125642857Y-62266247D02*
X125547619Y-62218628D01*
X125547619Y-62218628D02*
X125357143Y-62171009D01*
X125357143Y-62171009D02*
X125261905Y-62123390D01*
X125261905Y-62123390D02*
X125214286Y-62075771D01*
X125214286Y-62075771D02*
X125166667Y-61980533D01*
X125166667Y-61980533D02*
X125166667Y-61885295D01*
X125166667Y-61885295D02*
X125214286Y-61790057D01*
X125214286Y-61790057D02*
X125261905Y-61742438D01*
X125261905Y-61742438D02*
X125357143Y-61694819D01*
X125357143Y-61694819D02*
X125595238Y-61694819D01*
X125595238Y-61694819D02*
X125738095Y-61742438D01*
X126071429Y-61694819D02*
X126309524Y-62694819D01*
X126309524Y-62694819D02*
X126500000Y-61980533D01*
X126500000Y-61980533D02*
X126690476Y-62694819D01*
X126690476Y-62694819D02*
X126928572Y-61694819D01*
X127833333Y-62694819D02*
X127261905Y-62694819D01*
X127547619Y-62694819D02*
X127547619Y-61694819D01*
X127547619Y-61694819D02*
X127452381Y-61837676D01*
X127452381Y-61837676D02*
X127357143Y-61932914D01*
X127357143Y-61932914D02*
X127261905Y-61980533D01*
X163783333Y-93109580D02*
X163735714Y-93157200D01*
X163735714Y-93157200D02*
X163592857Y-93204819D01*
X163592857Y-93204819D02*
X163497619Y-93204819D01*
X163497619Y-93204819D02*
X163354762Y-93157200D01*
X163354762Y-93157200D02*
X163259524Y-93061961D01*
X163259524Y-93061961D02*
X163211905Y-92966723D01*
X163211905Y-92966723D02*
X163164286Y-92776247D01*
X163164286Y-92776247D02*
X163164286Y-92633390D01*
X163164286Y-92633390D02*
X163211905Y-92442914D01*
X163211905Y-92442914D02*
X163259524Y-92347676D01*
X163259524Y-92347676D02*
X163354762Y-92252438D01*
X163354762Y-92252438D02*
X163497619Y-92204819D01*
X163497619Y-92204819D02*
X163592857Y-92204819D01*
X163592857Y-92204819D02*
X163735714Y-92252438D01*
X163735714Y-92252438D02*
X163783333Y-92300057D01*
X164164286Y-92300057D02*
X164211905Y-92252438D01*
X164211905Y-92252438D02*
X164307143Y-92204819D01*
X164307143Y-92204819D02*
X164545238Y-92204819D01*
X164545238Y-92204819D02*
X164640476Y-92252438D01*
X164640476Y-92252438D02*
X164688095Y-92300057D01*
X164688095Y-92300057D02*
X164735714Y-92395295D01*
X164735714Y-92395295D02*
X164735714Y-92490533D01*
X164735714Y-92490533D02*
X164688095Y-92633390D01*
X164688095Y-92633390D02*
X164116667Y-93204819D01*
X164116667Y-93204819D02*
X164735714Y-93204819D01*
X154203999Y-95510580D02*
X154156380Y-95558200D01*
X154156380Y-95558200D02*
X154013523Y-95605819D01*
X154013523Y-95605819D02*
X153918285Y-95605819D01*
X153918285Y-95605819D02*
X153775428Y-95558200D01*
X153775428Y-95558200D02*
X153680190Y-95462961D01*
X153680190Y-95462961D02*
X153632571Y-95367723D01*
X153632571Y-95367723D02*
X153584952Y-95177247D01*
X153584952Y-95177247D02*
X153584952Y-95034390D01*
X153584952Y-95034390D02*
X153632571Y-94843914D01*
X153632571Y-94843914D02*
X153680190Y-94748676D01*
X153680190Y-94748676D02*
X153775428Y-94653438D01*
X153775428Y-94653438D02*
X153918285Y-94605819D01*
X153918285Y-94605819D02*
X154013523Y-94605819D01*
X154013523Y-94605819D02*
X154156380Y-94653438D01*
X154156380Y-94653438D02*
X154203999Y-94701057D01*
X154584952Y-94701057D02*
X154632571Y-94653438D01*
X154632571Y-94653438D02*
X154727809Y-94605819D01*
X154727809Y-94605819D02*
X154965904Y-94605819D01*
X154965904Y-94605819D02*
X155061142Y-94653438D01*
X155061142Y-94653438D02*
X155108761Y-94701057D01*
X155108761Y-94701057D02*
X155156380Y-94796295D01*
X155156380Y-94796295D02*
X155156380Y-94891533D01*
X155156380Y-94891533D02*
X155108761Y-95034390D01*
X155108761Y-95034390D02*
X154537333Y-95605819D01*
X154537333Y-95605819D02*
X155156380Y-95605819D01*
X155727809Y-95034390D02*
X155632571Y-94986771D01*
X155632571Y-94986771D02*
X155584952Y-94939152D01*
X155584952Y-94939152D02*
X155537333Y-94843914D01*
X155537333Y-94843914D02*
X155537333Y-94796295D01*
X155537333Y-94796295D02*
X155584952Y-94701057D01*
X155584952Y-94701057D02*
X155632571Y-94653438D01*
X155632571Y-94653438D02*
X155727809Y-94605819D01*
X155727809Y-94605819D02*
X155918285Y-94605819D01*
X155918285Y-94605819D02*
X156013523Y-94653438D01*
X156013523Y-94653438D02*
X156061142Y-94701057D01*
X156061142Y-94701057D02*
X156108761Y-94796295D01*
X156108761Y-94796295D02*
X156108761Y-94843914D01*
X156108761Y-94843914D02*
X156061142Y-94939152D01*
X156061142Y-94939152D02*
X156013523Y-94986771D01*
X156013523Y-94986771D02*
X155918285Y-95034390D01*
X155918285Y-95034390D02*
X155727809Y-95034390D01*
X155727809Y-95034390D02*
X155632571Y-95082009D01*
X155632571Y-95082009D02*
X155584952Y-95129628D01*
X155584952Y-95129628D02*
X155537333Y-95224866D01*
X155537333Y-95224866D02*
X155537333Y-95415342D01*
X155537333Y-95415342D02*
X155584952Y-95510580D01*
X155584952Y-95510580D02*
X155632571Y-95558200D01*
X155632571Y-95558200D02*
X155727809Y-95605819D01*
X155727809Y-95605819D02*
X155918285Y-95605819D01*
X155918285Y-95605819D02*
X156013523Y-95558200D01*
X156013523Y-95558200D02*
X156061142Y-95510580D01*
X156061142Y-95510580D02*
X156108761Y-95415342D01*
X156108761Y-95415342D02*
X156108761Y-95224866D01*
X156108761Y-95224866D02*
X156061142Y-95129628D01*
X156061142Y-95129628D02*
X156013523Y-95082009D01*
X156013523Y-95082009D02*
X155918285Y-95034390D01*
X146951942Y-91486979D02*
X146904323Y-91534599D01*
X146904323Y-91534599D02*
X146761466Y-91582218D01*
X146761466Y-91582218D02*
X146666228Y-91582218D01*
X146666228Y-91582218D02*
X146523371Y-91534599D01*
X146523371Y-91534599D02*
X146428133Y-91439360D01*
X146428133Y-91439360D02*
X146380514Y-91344122D01*
X146380514Y-91344122D02*
X146332895Y-91153646D01*
X146332895Y-91153646D02*
X146332895Y-91010789D01*
X146332895Y-91010789D02*
X146380514Y-90820313D01*
X146380514Y-90820313D02*
X146428133Y-90725075D01*
X146428133Y-90725075D02*
X146523371Y-90629837D01*
X146523371Y-90629837D02*
X146666228Y-90582218D01*
X146666228Y-90582218D02*
X146761466Y-90582218D01*
X146761466Y-90582218D02*
X146904323Y-90629837D01*
X146904323Y-90629837D02*
X146951942Y-90677456D01*
X147904323Y-91582218D02*
X147332895Y-91582218D01*
X147618609Y-91582218D02*
X147618609Y-90582218D01*
X147618609Y-90582218D02*
X147523371Y-90725075D01*
X147523371Y-90725075D02*
X147428133Y-90820313D01*
X147428133Y-90820313D02*
X147332895Y-90867932D01*
X148856704Y-91582218D02*
X148285276Y-91582218D01*
X148570990Y-91582218D02*
X148570990Y-90582218D01*
X148570990Y-90582218D02*
X148475752Y-90725075D01*
X148475752Y-90725075D02*
X148380514Y-90820313D01*
X148380514Y-90820313D02*
X148285276Y-90867932D01*
X141733333Y-91139580D02*
X141685714Y-91187200D01*
X141685714Y-91187200D02*
X141542857Y-91234819D01*
X141542857Y-91234819D02*
X141447619Y-91234819D01*
X141447619Y-91234819D02*
X141304762Y-91187200D01*
X141304762Y-91187200D02*
X141209524Y-91091961D01*
X141209524Y-91091961D02*
X141161905Y-90996723D01*
X141161905Y-90996723D02*
X141114286Y-90806247D01*
X141114286Y-90806247D02*
X141114286Y-90663390D01*
X141114286Y-90663390D02*
X141161905Y-90472914D01*
X141161905Y-90472914D02*
X141209524Y-90377676D01*
X141209524Y-90377676D02*
X141304762Y-90282438D01*
X141304762Y-90282438D02*
X141447619Y-90234819D01*
X141447619Y-90234819D02*
X141542857Y-90234819D01*
X141542857Y-90234819D02*
X141685714Y-90282438D01*
X141685714Y-90282438D02*
X141733333Y-90330057D01*
X142209524Y-91234819D02*
X142400000Y-91234819D01*
X142400000Y-91234819D02*
X142495238Y-91187200D01*
X142495238Y-91187200D02*
X142542857Y-91139580D01*
X142542857Y-91139580D02*
X142638095Y-90996723D01*
X142638095Y-90996723D02*
X142685714Y-90806247D01*
X142685714Y-90806247D02*
X142685714Y-90425295D01*
X142685714Y-90425295D02*
X142638095Y-90330057D01*
X142638095Y-90330057D02*
X142590476Y-90282438D01*
X142590476Y-90282438D02*
X142495238Y-90234819D01*
X142495238Y-90234819D02*
X142304762Y-90234819D01*
X142304762Y-90234819D02*
X142209524Y-90282438D01*
X142209524Y-90282438D02*
X142161905Y-90330057D01*
X142161905Y-90330057D02*
X142114286Y-90425295D01*
X142114286Y-90425295D02*
X142114286Y-90663390D01*
X142114286Y-90663390D02*
X142161905Y-90758628D01*
X142161905Y-90758628D02*
X142209524Y-90806247D01*
X142209524Y-90806247D02*
X142304762Y-90853866D01*
X142304762Y-90853866D02*
X142495238Y-90853866D01*
X142495238Y-90853866D02*
X142590476Y-90806247D01*
X142590476Y-90806247D02*
X142638095Y-90758628D01*
X142638095Y-90758628D02*
X142685714Y-90663390D01*
X120723580Y-95561357D02*
X120771200Y-95608976D01*
X120771200Y-95608976D02*
X120818819Y-95751833D01*
X120818819Y-95751833D02*
X120818819Y-95847071D01*
X120818819Y-95847071D02*
X120771200Y-95989928D01*
X120771200Y-95989928D02*
X120675961Y-96085166D01*
X120675961Y-96085166D02*
X120580723Y-96132785D01*
X120580723Y-96132785D02*
X120390247Y-96180404D01*
X120390247Y-96180404D02*
X120247390Y-96180404D01*
X120247390Y-96180404D02*
X120056914Y-96132785D01*
X120056914Y-96132785D02*
X119961676Y-96085166D01*
X119961676Y-96085166D02*
X119866438Y-95989928D01*
X119866438Y-95989928D02*
X119818819Y-95847071D01*
X119818819Y-95847071D02*
X119818819Y-95751833D01*
X119818819Y-95751833D02*
X119866438Y-95608976D01*
X119866438Y-95608976D02*
X119914057Y-95561357D01*
X119818819Y-95228023D02*
X119818819Y-94608976D01*
X119818819Y-94608976D02*
X120199771Y-94942309D01*
X120199771Y-94942309D02*
X120199771Y-94799452D01*
X120199771Y-94799452D02*
X120247390Y-94704214D01*
X120247390Y-94704214D02*
X120295009Y-94656595D01*
X120295009Y-94656595D02*
X120390247Y-94608976D01*
X120390247Y-94608976D02*
X120628342Y-94608976D01*
X120628342Y-94608976D02*
X120723580Y-94656595D01*
X120723580Y-94656595D02*
X120771200Y-94704214D01*
X120771200Y-94704214D02*
X120818819Y-94799452D01*
X120818819Y-94799452D02*
X120818819Y-95085166D01*
X120818819Y-95085166D02*
X120771200Y-95180404D01*
X120771200Y-95180404D02*
X120723580Y-95228023D01*
X120818819Y-93656595D02*
X120818819Y-94228023D01*
X120818819Y-93942309D02*
X119818819Y-93942309D01*
X119818819Y-93942309D02*
X119961676Y-94037547D01*
X119961676Y-94037547D02*
X120056914Y-94132785D01*
X120056914Y-94132785D02*
X120104533Y-94228023D01*
X136357142Y-72959580D02*
X136309523Y-73007200D01*
X136309523Y-73007200D02*
X136166666Y-73054819D01*
X136166666Y-73054819D02*
X136071428Y-73054819D01*
X136071428Y-73054819D02*
X135928571Y-73007200D01*
X135928571Y-73007200D02*
X135833333Y-72911961D01*
X135833333Y-72911961D02*
X135785714Y-72816723D01*
X135785714Y-72816723D02*
X135738095Y-72626247D01*
X135738095Y-72626247D02*
X135738095Y-72483390D01*
X135738095Y-72483390D02*
X135785714Y-72292914D01*
X135785714Y-72292914D02*
X135833333Y-72197676D01*
X135833333Y-72197676D02*
X135928571Y-72102438D01*
X135928571Y-72102438D02*
X136071428Y-72054819D01*
X136071428Y-72054819D02*
X136166666Y-72054819D01*
X136166666Y-72054819D02*
X136309523Y-72102438D01*
X136309523Y-72102438D02*
X136357142Y-72150057D01*
X137309523Y-73054819D02*
X136738095Y-73054819D01*
X137023809Y-73054819D02*
X137023809Y-72054819D01*
X137023809Y-72054819D02*
X136928571Y-72197676D01*
X136928571Y-72197676D02*
X136833333Y-72292914D01*
X136833333Y-72292914D02*
X136738095Y-72340533D01*
X137690476Y-72150057D02*
X137738095Y-72102438D01*
X137738095Y-72102438D02*
X137833333Y-72054819D01*
X137833333Y-72054819D02*
X138071428Y-72054819D01*
X138071428Y-72054819D02*
X138166666Y-72102438D01*
X138166666Y-72102438D02*
X138214285Y-72150057D01*
X138214285Y-72150057D02*
X138261904Y-72245295D01*
X138261904Y-72245295D02*
X138261904Y-72340533D01*
X138261904Y-72340533D02*
X138214285Y-72483390D01*
X138214285Y-72483390D02*
X137642857Y-73054819D01*
X137642857Y-73054819D02*
X138261904Y-73054819D01*
X180957142Y-66059581D02*
X180909523Y-66107201D01*
X180909523Y-66107201D02*
X180766666Y-66154820D01*
X180766666Y-66154820D02*
X180671428Y-66154820D01*
X180671428Y-66154820D02*
X180528571Y-66107201D01*
X180528571Y-66107201D02*
X180433333Y-66011962D01*
X180433333Y-66011962D02*
X180385714Y-65916724D01*
X180385714Y-65916724D02*
X180338095Y-65726248D01*
X180338095Y-65726248D02*
X180338095Y-65583391D01*
X180338095Y-65583391D02*
X180385714Y-65392915D01*
X180385714Y-65392915D02*
X180433333Y-65297677D01*
X180433333Y-65297677D02*
X180528571Y-65202439D01*
X180528571Y-65202439D02*
X180671428Y-65154820D01*
X180671428Y-65154820D02*
X180766666Y-65154820D01*
X180766666Y-65154820D02*
X180909523Y-65202439D01*
X180909523Y-65202439D02*
X180957142Y-65250058D01*
X181338095Y-65250058D02*
X181385714Y-65202439D01*
X181385714Y-65202439D02*
X181480952Y-65154820D01*
X181480952Y-65154820D02*
X181719047Y-65154820D01*
X181719047Y-65154820D02*
X181814285Y-65202439D01*
X181814285Y-65202439D02*
X181861904Y-65250058D01*
X181861904Y-65250058D02*
X181909523Y-65345296D01*
X181909523Y-65345296D02*
X181909523Y-65440534D01*
X181909523Y-65440534D02*
X181861904Y-65583391D01*
X181861904Y-65583391D02*
X181290476Y-66154820D01*
X181290476Y-66154820D02*
X181909523Y-66154820D01*
X182528571Y-65154820D02*
X182623809Y-65154820D01*
X182623809Y-65154820D02*
X182719047Y-65202439D01*
X182719047Y-65202439D02*
X182766666Y-65250058D01*
X182766666Y-65250058D02*
X182814285Y-65345296D01*
X182814285Y-65345296D02*
X182861904Y-65535772D01*
X182861904Y-65535772D02*
X182861904Y-65773867D01*
X182861904Y-65773867D02*
X182814285Y-65964343D01*
X182814285Y-65964343D02*
X182766666Y-66059581D01*
X182766666Y-66059581D02*
X182719047Y-66107201D01*
X182719047Y-66107201D02*
X182623809Y-66154820D01*
X182623809Y-66154820D02*
X182528571Y-66154820D01*
X182528571Y-66154820D02*
X182433333Y-66107201D01*
X182433333Y-66107201D02*
X182385714Y-66059581D01*
X182385714Y-66059581D02*
X182338095Y-65964343D01*
X182338095Y-65964343D02*
X182290476Y-65773867D01*
X182290476Y-65773867D02*
X182290476Y-65535772D01*
X182290476Y-65535772D02*
X182338095Y-65345296D01*
X182338095Y-65345296D02*
X182385714Y-65250058D01*
X182385714Y-65250058D02*
X182433333Y-65202439D01*
X182433333Y-65202439D02*
X182528571Y-65154820D01*
X157433333Y-91759580D02*
X157385714Y-91807200D01*
X157385714Y-91807200D02*
X157242857Y-91854819D01*
X157242857Y-91854819D02*
X157147619Y-91854819D01*
X157147619Y-91854819D02*
X157004762Y-91807200D01*
X157004762Y-91807200D02*
X156909524Y-91711961D01*
X156909524Y-91711961D02*
X156861905Y-91616723D01*
X156861905Y-91616723D02*
X156814286Y-91426247D01*
X156814286Y-91426247D02*
X156814286Y-91283390D01*
X156814286Y-91283390D02*
X156861905Y-91092914D01*
X156861905Y-91092914D02*
X156909524Y-90997676D01*
X156909524Y-90997676D02*
X157004762Y-90902438D01*
X157004762Y-90902438D02*
X157147619Y-90854819D01*
X157147619Y-90854819D02*
X157242857Y-90854819D01*
X157242857Y-90854819D02*
X157385714Y-90902438D01*
X157385714Y-90902438D02*
X157433333Y-90950057D01*
X158290476Y-90854819D02*
X158100000Y-90854819D01*
X158100000Y-90854819D02*
X158004762Y-90902438D01*
X158004762Y-90902438D02*
X157957143Y-90950057D01*
X157957143Y-90950057D02*
X157861905Y-91092914D01*
X157861905Y-91092914D02*
X157814286Y-91283390D01*
X157814286Y-91283390D02*
X157814286Y-91664342D01*
X157814286Y-91664342D02*
X157861905Y-91759580D01*
X157861905Y-91759580D02*
X157909524Y-91807200D01*
X157909524Y-91807200D02*
X158004762Y-91854819D01*
X158004762Y-91854819D02*
X158195238Y-91854819D01*
X158195238Y-91854819D02*
X158290476Y-91807200D01*
X158290476Y-91807200D02*
X158338095Y-91759580D01*
X158338095Y-91759580D02*
X158385714Y-91664342D01*
X158385714Y-91664342D02*
X158385714Y-91426247D01*
X158385714Y-91426247D02*
X158338095Y-91331009D01*
X158338095Y-91331009D02*
X158290476Y-91283390D01*
X158290476Y-91283390D02*
X158195238Y-91235771D01*
X158195238Y-91235771D02*
X158004762Y-91235771D01*
X158004762Y-91235771D02*
X157909524Y-91283390D01*
X157909524Y-91283390D02*
X157861905Y-91331009D01*
X157861905Y-91331009D02*
X157814286Y-91426247D01*
X136232895Y-85802218D02*
X136232895Y-86611741D01*
X136232895Y-86611741D02*
X136280514Y-86706979D01*
X136280514Y-86706979D02*
X136328133Y-86754599D01*
X136328133Y-86754599D02*
X136423371Y-86802218D01*
X136423371Y-86802218D02*
X136613847Y-86802218D01*
X136613847Y-86802218D02*
X136709085Y-86754599D01*
X136709085Y-86754599D02*
X136756704Y-86706979D01*
X136756704Y-86706979D02*
X136804323Y-86611741D01*
X136804323Y-86611741D02*
X136804323Y-85802218D01*
X137232895Y-85897456D02*
X137280514Y-85849837D01*
X137280514Y-85849837D02*
X137375752Y-85802218D01*
X137375752Y-85802218D02*
X137613847Y-85802218D01*
X137613847Y-85802218D02*
X137709085Y-85849837D01*
X137709085Y-85849837D02*
X137756704Y-85897456D01*
X137756704Y-85897456D02*
X137804323Y-85992694D01*
X137804323Y-85992694D02*
X137804323Y-86087932D01*
X137804323Y-86087932D02*
X137756704Y-86230789D01*
X137756704Y-86230789D02*
X137185276Y-86802218D01*
X137185276Y-86802218D02*
X137804323Y-86802218D01*
X152614333Y-87989580D02*
X152566714Y-88037200D01*
X152566714Y-88037200D02*
X152423857Y-88084819D01*
X152423857Y-88084819D02*
X152328619Y-88084819D01*
X152328619Y-88084819D02*
X152185762Y-88037200D01*
X152185762Y-88037200D02*
X152090524Y-87941961D01*
X152090524Y-87941961D02*
X152042905Y-87846723D01*
X152042905Y-87846723D02*
X151995286Y-87656247D01*
X151995286Y-87656247D02*
X151995286Y-87513390D01*
X151995286Y-87513390D02*
X152042905Y-87322914D01*
X152042905Y-87322914D02*
X152090524Y-87227676D01*
X152090524Y-87227676D02*
X152185762Y-87132438D01*
X152185762Y-87132438D02*
X152328619Y-87084819D01*
X152328619Y-87084819D02*
X152423857Y-87084819D01*
X152423857Y-87084819D02*
X152566714Y-87132438D01*
X152566714Y-87132438D02*
X152614333Y-87180057D01*
X152947667Y-87084819D02*
X153614333Y-87084819D01*
X153614333Y-87084819D02*
X153185762Y-88084819D01*
X117703142Y-78748580D02*
X117655523Y-78796200D01*
X117655523Y-78796200D02*
X117512666Y-78843819D01*
X117512666Y-78843819D02*
X117417428Y-78843819D01*
X117417428Y-78843819D02*
X117274571Y-78796200D01*
X117274571Y-78796200D02*
X117179333Y-78700961D01*
X117179333Y-78700961D02*
X117131714Y-78605723D01*
X117131714Y-78605723D02*
X117084095Y-78415247D01*
X117084095Y-78415247D02*
X117084095Y-78272390D01*
X117084095Y-78272390D02*
X117131714Y-78081914D01*
X117131714Y-78081914D02*
X117179333Y-77986676D01*
X117179333Y-77986676D02*
X117274571Y-77891438D01*
X117274571Y-77891438D02*
X117417428Y-77843819D01*
X117417428Y-77843819D02*
X117512666Y-77843819D01*
X117512666Y-77843819D02*
X117655523Y-77891438D01*
X117655523Y-77891438D02*
X117703142Y-77939057D01*
X118084095Y-77939057D02*
X118131714Y-77891438D01*
X118131714Y-77891438D02*
X118226952Y-77843819D01*
X118226952Y-77843819D02*
X118465047Y-77843819D01*
X118465047Y-77843819D02*
X118560285Y-77891438D01*
X118560285Y-77891438D02*
X118607904Y-77939057D01*
X118607904Y-77939057D02*
X118655523Y-78034295D01*
X118655523Y-78034295D02*
X118655523Y-78129533D01*
X118655523Y-78129533D02*
X118607904Y-78272390D01*
X118607904Y-78272390D02*
X118036476Y-78843819D01*
X118036476Y-78843819D02*
X118655523Y-78843819D01*
X119560285Y-77843819D02*
X119084095Y-77843819D01*
X119084095Y-77843819D02*
X119036476Y-78320009D01*
X119036476Y-78320009D02*
X119084095Y-78272390D01*
X119084095Y-78272390D02*
X119179333Y-78224771D01*
X119179333Y-78224771D02*
X119417428Y-78224771D01*
X119417428Y-78224771D02*
X119512666Y-78272390D01*
X119512666Y-78272390D02*
X119560285Y-78320009D01*
X119560285Y-78320009D02*
X119607904Y-78415247D01*
X119607904Y-78415247D02*
X119607904Y-78653342D01*
X119607904Y-78653342D02*
X119560285Y-78748580D01*
X119560285Y-78748580D02*
X119512666Y-78796200D01*
X119512666Y-78796200D02*
X119417428Y-78843819D01*
X119417428Y-78843819D02*
X119179333Y-78843819D01*
X119179333Y-78843819D02*
X119084095Y-78796200D01*
X119084095Y-78796200D02*
X119036476Y-78748580D01*
X104981642Y-86625580D02*
X104934023Y-86673200D01*
X104934023Y-86673200D02*
X104791166Y-86720819D01*
X104791166Y-86720819D02*
X104695928Y-86720819D01*
X104695928Y-86720819D02*
X104553071Y-86673200D01*
X104553071Y-86673200D02*
X104457833Y-86577961D01*
X104457833Y-86577961D02*
X104410214Y-86482723D01*
X104410214Y-86482723D02*
X104362595Y-86292247D01*
X104362595Y-86292247D02*
X104362595Y-86149390D01*
X104362595Y-86149390D02*
X104410214Y-85958914D01*
X104410214Y-85958914D02*
X104457833Y-85863676D01*
X104457833Y-85863676D02*
X104553071Y-85768438D01*
X104553071Y-85768438D02*
X104695928Y-85720819D01*
X104695928Y-85720819D02*
X104791166Y-85720819D01*
X104791166Y-85720819D02*
X104934023Y-85768438D01*
X104934023Y-85768438D02*
X104981642Y-85816057D01*
X105934023Y-86720819D02*
X105362595Y-86720819D01*
X105648309Y-86720819D02*
X105648309Y-85720819D01*
X105648309Y-85720819D02*
X105553071Y-85863676D01*
X105553071Y-85863676D02*
X105457833Y-85958914D01*
X105457833Y-85958914D02*
X105362595Y-86006533D01*
X106505452Y-86149390D02*
X106410214Y-86101771D01*
X106410214Y-86101771D02*
X106362595Y-86054152D01*
X106362595Y-86054152D02*
X106314976Y-85958914D01*
X106314976Y-85958914D02*
X106314976Y-85911295D01*
X106314976Y-85911295D02*
X106362595Y-85816057D01*
X106362595Y-85816057D02*
X106410214Y-85768438D01*
X106410214Y-85768438D02*
X106505452Y-85720819D01*
X106505452Y-85720819D02*
X106695928Y-85720819D01*
X106695928Y-85720819D02*
X106791166Y-85768438D01*
X106791166Y-85768438D02*
X106838785Y-85816057D01*
X106838785Y-85816057D02*
X106886404Y-85911295D01*
X106886404Y-85911295D02*
X106886404Y-85958914D01*
X106886404Y-85958914D02*
X106838785Y-86054152D01*
X106838785Y-86054152D02*
X106791166Y-86101771D01*
X106791166Y-86101771D02*
X106695928Y-86149390D01*
X106695928Y-86149390D02*
X106505452Y-86149390D01*
X106505452Y-86149390D02*
X106410214Y-86197009D01*
X106410214Y-86197009D02*
X106362595Y-86244628D01*
X106362595Y-86244628D02*
X106314976Y-86339866D01*
X106314976Y-86339866D02*
X106314976Y-86530342D01*
X106314976Y-86530342D02*
X106362595Y-86625580D01*
X106362595Y-86625580D02*
X106410214Y-86673200D01*
X106410214Y-86673200D02*
X106505452Y-86720819D01*
X106505452Y-86720819D02*
X106695928Y-86720819D01*
X106695928Y-86720819D02*
X106791166Y-86673200D01*
X106791166Y-86673200D02*
X106838785Y-86625580D01*
X106838785Y-86625580D02*
X106886404Y-86530342D01*
X106886404Y-86530342D02*
X106886404Y-86339866D01*
X106886404Y-86339866D02*
X106838785Y-86244628D01*
X106838785Y-86244628D02*
X106791166Y-86197009D01*
X106791166Y-86197009D02*
X106695928Y-86149390D01*
X123222142Y-85703580D02*
X123174523Y-85751200D01*
X123174523Y-85751200D02*
X123031666Y-85798819D01*
X123031666Y-85798819D02*
X122936428Y-85798819D01*
X122936428Y-85798819D02*
X122793571Y-85751200D01*
X122793571Y-85751200D02*
X122698333Y-85655961D01*
X122698333Y-85655961D02*
X122650714Y-85560723D01*
X122650714Y-85560723D02*
X122603095Y-85370247D01*
X122603095Y-85370247D02*
X122603095Y-85227390D01*
X122603095Y-85227390D02*
X122650714Y-85036914D01*
X122650714Y-85036914D02*
X122698333Y-84941676D01*
X122698333Y-84941676D02*
X122793571Y-84846438D01*
X122793571Y-84846438D02*
X122936428Y-84798819D01*
X122936428Y-84798819D02*
X123031666Y-84798819D01*
X123031666Y-84798819D02*
X123174523Y-84846438D01*
X123174523Y-84846438D02*
X123222142Y-84894057D01*
X123603095Y-84894057D02*
X123650714Y-84846438D01*
X123650714Y-84846438D02*
X123745952Y-84798819D01*
X123745952Y-84798819D02*
X123984047Y-84798819D01*
X123984047Y-84798819D02*
X124079285Y-84846438D01*
X124079285Y-84846438D02*
X124126904Y-84894057D01*
X124126904Y-84894057D02*
X124174523Y-84989295D01*
X124174523Y-84989295D02*
X124174523Y-85084533D01*
X124174523Y-85084533D02*
X124126904Y-85227390D01*
X124126904Y-85227390D02*
X123555476Y-85798819D01*
X123555476Y-85798819D02*
X124174523Y-85798819D01*
X125126904Y-85798819D02*
X124555476Y-85798819D01*
X124841190Y-85798819D02*
X124841190Y-84798819D01*
X124841190Y-84798819D02*
X124745952Y-84941676D01*
X124745952Y-84941676D02*
X124650714Y-85036914D01*
X124650714Y-85036914D02*
X124555476Y-85084533D01*
X120174142Y-85830580D02*
X120126523Y-85878200D01*
X120126523Y-85878200D02*
X119983666Y-85925819D01*
X119983666Y-85925819D02*
X119888428Y-85925819D01*
X119888428Y-85925819D02*
X119745571Y-85878200D01*
X119745571Y-85878200D02*
X119650333Y-85782961D01*
X119650333Y-85782961D02*
X119602714Y-85687723D01*
X119602714Y-85687723D02*
X119555095Y-85497247D01*
X119555095Y-85497247D02*
X119555095Y-85354390D01*
X119555095Y-85354390D02*
X119602714Y-85163914D01*
X119602714Y-85163914D02*
X119650333Y-85068676D01*
X119650333Y-85068676D02*
X119745571Y-84973438D01*
X119745571Y-84973438D02*
X119888428Y-84925819D01*
X119888428Y-84925819D02*
X119983666Y-84925819D01*
X119983666Y-84925819D02*
X120126523Y-84973438D01*
X120126523Y-84973438D02*
X120174142Y-85021057D01*
X120555095Y-85021057D02*
X120602714Y-84973438D01*
X120602714Y-84973438D02*
X120697952Y-84925819D01*
X120697952Y-84925819D02*
X120936047Y-84925819D01*
X120936047Y-84925819D02*
X121031285Y-84973438D01*
X121031285Y-84973438D02*
X121078904Y-85021057D01*
X121078904Y-85021057D02*
X121126523Y-85116295D01*
X121126523Y-85116295D02*
X121126523Y-85211533D01*
X121126523Y-85211533D02*
X121078904Y-85354390D01*
X121078904Y-85354390D02*
X120507476Y-85925819D01*
X120507476Y-85925819D02*
X121126523Y-85925819D01*
X121507476Y-85021057D02*
X121555095Y-84973438D01*
X121555095Y-84973438D02*
X121650333Y-84925819D01*
X121650333Y-84925819D02*
X121888428Y-84925819D01*
X121888428Y-84925819D02*
X121983666Y-84973438D01*
X121983666Y-84973438D02*
X122031285Y-85021057D01*
X122031285Y-85021057D02*
X122078904Y-85116295D01*
X122078904Y-85116295D02*
X122078904Y-85211533D01*
X122078904Y-85211533D02*
X122031285Y-85354390D01*
X122031285Y-85354390D02*
X121459857Y-85925819D01*
X121459857Y-85925819D02*
X122078904Y-85925819D01*
X117261142Y-80302580D02*
X117213523Y-80350200D01*
X117213523Y-80350200D02*
X117070666Y-80397819D01*
X117070666Y-80397819D02*
X116975428Y-80397819D01*
X116975428Y-80397819D02*
X116832571Y-80350200D01*
X116832571Y-80350200D02*
X116737333Y-80254961D01*
X116737333Y-80254961D02*
X116689714Y-80159723D01*
X116689714Y-80159723D02*
X116642095Y-79969247D01*
X116642095Y-79969247D02*
X116642095Y-79826390D01*
X116642095Y-79826390D02*
X116689714Y-79635914D01*
X116689714Y-79635914D02*
X116737333Y-79540676D01*
X116737333Y-79540676D02*
X116832571Y-79445438D01*
X116832571Y-79445438D02*
X116975428Y-79397819D01*
X116975428Y-79397819D02*
X117070666Y-79397819D01*
X117070666Y-79397819D02*
X117213523Y-79445438D01*
X117213523Y-79445438D02*
X117261142Y-79493057D01*
X117642095Y-79493057D02*
X117689714Y-79445438D01*
X117689714Y-79445438D02*
X117784952Y-79397819D01*
X117784952Y-79397819D02*
X118023047Y-79397819D01*
X118023047Y-79397819D02*
X118118285Y-79445438D01*
X118118285Y-79445438D02*
X118165904Y-79493057D01*
X118165904Y-79493057D02*
X118213523Y-79588295D01*
X118213523Y-79588295D02*
X118213523Y-79683533D01*
X118213523Y-79683533D02*
X118165904Y-79826390D01*
X118165904Y-79826390D02*
X117594476Y-80397819D01*
X117594476Y-80397819D02*
X118213523Y-80397819D01*
X118546857Y-79397819D02*
X119165904Y-79397819D01*
X119165904Y-79397819D02*
X118832571Y-79778771D01*
X118832571Y-79778771D02*
X118975428Y-79778771D01*
X118975428Y-79778771D02*
X119070666Y-79826390D01*
X119070666Y-79826390D02*
X119118285Y-79874009D01*
X119118285Y-79874009D02*
X119165904Y-79969247D01*
X119165904Y-79969247D02*
X119165904Y-80207342D01*
X119165904Y-80207342D02*
X119118285Y-80302580D01*
X119118285Y-80302580D02*
X119070666Y-80350200D01*
X119070666Y-80350200D02*
X118975428Y-80397819D01*
X118975428Y-80397819D02*
X118689714Y-80397819D01*
X118689714Y-80397819D02*
X118594476Y-80350200D01*
X118594476Y-80350200D02*
X118546857Y-80302580D01*
X105727142Y-75543580D02*
X105679523Y-75591200D01*
X105679523Y-75591200D02*
X105536666Y-75638819D01*
X105536666Y-75638819D02*
X105441428Y-75638819D01*
X105441428Y-75638819D02*
X105298571Y-75591200D01*
X105298571Y-75591200D02*
X105203333Y-75495961D01*
X105203333Y-75495961D02*
X105155714Y-75400723D01*
X105155714Y-75400723D02*
X105108095Y-75210247D01*
X105108095Y-75210247D02*
X105108095Y-75067390D01*
X105108095Y-75067390D02*
X105155714Y-74876914D01*
X105155714Y-74876914D02*
X105203333Y-74781676D01*
X105203333Y-74781676D02*
X105298571Y-74686438D01*
X105298571Y-74686438D02*
X105441428Y-74638819D01*
X105441428Y-74638819D02*
X105536666Y-74638819D01*
X105536666Y-74638819D02*
X105679523Y-74686438D01*
X105679523Y-74686438D02*
X105727142Y-74734057D01*
X106679523Y-75638819D02*
X106108095Y-75638819D01*
X106393809Y-75638819D02*
X106393809Y-74638819D01*
X106393809Y-74638819D02*
X106298571Y-74781676D01*
X106298571Y-74781676D02*
X106203333Y-74876914D01*
X106203333Y-74876914D02*
X106108095Y-74924533D01*
X107155714Y-75638819D02*
X107346190Y-75638819D01*
X107346190Y-75638819D02*
X107441428Y-75591200D01*
X107441428Y-75591200D02*
X107489047Y-75543580D01*
X107489047Y-75543580D02*
X107584285Y-75400723D01*
X107584285Y-75400723D02*
X107631904Y-75210247D01*
X107631904Y-75210247D02*
X107631904Y-74829295D01*
X107631904Y-74829295D02*
X107584285Y-74734057D01*
X107584285Y-74734057D02*
X107536666Y-74686438D01*
X107536666Y-74686438D02*
X107441428Y-74638819D01*
X107441428Y-74638819D02*
X107250952Y-74638819D01*
X107250952Y-74638819D02*
X107155714Y-74686438D01*
X107155714Y-74686438D02*
X107108095Y-74734057D01*
X107108095Y-74734057D02*
X107060476Y-74829295D01*
X107060476Y-74829295D02*
X107060476Y-75067390D01*
X107060476Y-75067390D02*
X107108095Y-75162628D01*
X107108095Y-75162628D02*
X107155714Y-75210247D01*
X107155714Y-75210247D02*
X107250952Y-75257866D01*
X107250952Y-75257866D02*
X107441428Y-75257866D01*
X107441428Y-75257866D02*
X107536666Y-75210247D01*
X107536666Y-75210247D02*
X107584285Y-75162628D01*
X107584285Y-75162628D02*
X107631904Y-75067390D01*
X120581666Y-87203509D02*
X120248333Y-87203509D01*
X120248333Y-87727319D02*
X120248333Y-86727319D01*
X120248333Y-86727319D02*
X120724523Y-86727319D01*
X121438809Y-87203509D02*
X121581666Y-87251128D01*
X121581666Y-87251128D02*
X121629285Y-87298747D01*
X121629285Y-87298747D02*
X121676904Y-87393985D01*
X121676904Y-87393985D02*
X121676904Y-87536842D01*
X121676904Y-87536842D02*
X121629285Y-87632080D01*
X121629285Y-87632080D02*
X121581666Y-87679700D01*
X121581666Y-87679700D02*
X121486428Y-87727319D01*
X121486428Y-87727319D02*
X121105476Y-87727319D01*
X121105476Y-87727319D02*
X121105476Y-86727319D01*
X121105476Y-86727319D02*
X121438809Y-86727319D01*
X121438809Y-86727319D02*
X121534047Y-86774938D01*
X121534047Y-86774938D02*
X121581666Y-86822557D01*
X121581666Y-86822557D02*
X121629285Y-86917795D01*
X121629285Y-86917795D02*
X121629285Y-87013033D01*
X121629285Y-87013033D02*
X121581666Y-87108271D01*
X121581666Y-87108271D02*
X121534047Y-87155890D01*
X121534047Y-87155890D02*
X121438809Y-87203509D01*
X121438809Y-87203509D02*
X121105476Y-87203509D01*
X122010238Y-86727319D02*
X122629285Y-86727319D01*
X122629285Y-86727319D02*
X122295952Y-87108271D01*
X122295952Y-87108271D02*
X122438809Y-87108271D01*
X122438809Y-87108271D02*
X122534047Y-87155890D01*
X122534047Y-87155890D02*
X122581666Y-87203509D01*
X122581666Y-87203509D02*
X122629285Y-87298747D01*
X122629285Y-87298747D02*
X122629285Y-87536842D01*
X122629285Y-87536842D02*
X122581666Y-87632080D01*
X122581666Y-87632080D02*
X122534047Y-87679700D01*
X122534047Y-87679700D02*
X122438809Y-87727319D01*
X122438809Y-87727319D02*
X122153095Y-87727319D01*
X122153095Y-87727319D02*
X122057857Y-87679700D01*
X122057857Y-87679700D02*
X122010238Y-87632080D01*
X129257142Y-75359580D02*
X129209523Y-75407200D01*
X129209523Y-75407200D02*
X129066666Y-75454819D01*
X129066666Y-75454819D02*
X128971428Y-75454819D01*
X128971428Y-75454819D02*
X128828571Y-75407200D01*
X128828571Y-75407200D02*
X128733333Y-75311961D01*
X128733333Y-75311961D02*
X128685714Y-75216723D01*
X128685714Y-75216723D02*
X128638095Y-75026247D01*
X128638095Y-75026247D02*
X128638095Y-74883390D01*
X128638095Y-74883390D02*
X128685714Y-74692914D01*
X128685714Y-74692914D02*
X128733333Y-74597676D01*
X128733333Y-74597676D02*
X128828571Y-74502438D01*
X128828571Y-74502438D02*
X128971428Y-74454819D01*
X128971428Y-74454819D02*
X129066666Y-74454819D01*
X129066666Y-74454819D02*
X129209523Y-74502438D01*
X129209523Y-74502438D02*
X129257142Y-74550057D01*
X130209523Y-75454819D02*
X129638095Y-75454819D01*
X129923809Y-75454819D02*
X129923809Y-74454819D01*
X129923809Y-74454819D02*
X129828571Y-74597676D01*
X129828571Y-74597676D02*
X129733333Y-74692914D01*
X129733333Y-74692914D02*
X129638095Y-74740533D01*
X131066666Y-74454819D02*
X130876190Y-74454819D01*
X130876190Y-74454819D02*
X130780952Y-74502438D01*
X130780952Y-74502438D02*
X130733333Y-74550057D01*
X130733333Y-74550057D02*
X130638095Y-74692914D01*
X130638095Y-74692914D02*
X130590476Y-74883390D01*
X130590476Y-74883390D02*
X130590476Y-75264342D01*
X130590476Y-75264342D02*
X130638095Y-75359580D01*
X130638095Y-75359580D02*
X130685714Y-75407200D01*
X130685714Y-75407200D02*
X130780952Y-75454819D01*
X130780952Y-75454819D02*
X130971428Y-75454819D01*
X130971428Y-75454819D02*
X131066666Y-75407200D01*
X131066666Y-75407200D02*
X131114285Y-75359580D01*
X131114285Y-75359580D02*
X131161904Y-75264342D01*
X131161904Y-75264342D02*
X131161904Y-75026247D01*
X131161904Y-75026247D02*
X131114285Y-74931009D01*
X131114285Y-74931009D02*
X131066666Y-74883390D01*
X131066666Y-74883390D02*
X130971428Y-74835771D01*
X130971428Y-74835771D02*
X130780952Y-74835771D01*
X130780952Y-74835771D02*
X130685714Y-74883390D01*
X130685714Y-74883390D02*
X130638095Y-74931009D01*
X130638095Y-74931009D02*
X130590476Y-75026247D01*
X183854819Y-90438094D02*
X182854819Y-90438094D01*
X182854819Y-90438094D02*
X182854819Y-90199999D01*
X182854819Y-90199999D02*
X182902438Y-90057142D01*
X182902438Y-90057142D02*
X182997676Y-89961904D01*
X182997676Y-89961904D02*
X183092914Y-89914285D01*
X183092914Y-89914285D02*
X183283390Y-89866666D01*
X183283390Y-89866666D02*
X183426247Y-89866666D01*
X183426247Y-89866666D02*
X183616723Y-89914285D01*
X183616723Y-89914285D02*
X183711961Y-89961904D01*
X183711961Y-89961904D02*
X183807200Y-90057142D01*
X183807200Y-90057142D02*
X183854819Y-90199999D01*
X183854819Y-90199999D02*
X183854819Y-90438094D01*
X183854819Y-88914285D02*
X183854819Y-89485713D01*
X183854819Y-89199999D02*
X182854819Y-89199999D01*
X182854819Y-89199999D02*
X182997676Y-89295237D01*
X182997676Y-89295237D02*
X183092914Y-89390475D01*
X183092914Y-89390475D02*
X183140533Y-89485713D01*
D11*
X173460237Y-65674318D02*
X173460237Y-64404318D01*
X174790714Y-65553365D02*
X174730238Y-65613842D01*
X174730238Y-65613842D02*
X174548809Y-65674318D01*
X174548809Y-65674318D02*
X174427857Y-65674318D01*
X174427857Y-65674318D02*
X174246428Y-65613842D01*
X174246428Y-65613842D02*
X174125476Y-65492889D01*
X174125476Y-65492889D02*
X174064999Y-65371937D01*
X174064999Y-65371937D02*
X174004523Y-65130032D01*
X174004523Y-65130032D02*
X174004523Y-64948603D01*
X174004523Y-64948603D02*
X174064999Y-64706699D01*
X174064999Y-64706699D02*
X174125476Y-64585746D01*
X174125476Y-64585746D02*
X174246428Y-64464794D01*
X174246428Y-64464794D02*
X174427857Y-64404318D01*
X174427857Y-64404318D02*
X174548809Y-64404318D01*
X174548809Y-64404318D02*
X174730238Y-64464794D01*
X174730238Y-64464794D02*
X174790714Y-64525270D01*
X175274523Y-64525270D02*
X175334999Y-64464794D01*
X175334999Y-64464794D02*
X175455952Y-64404318D01*
X175455952Y-64404318D02*
X175758333Y-64404318D01*
X175758333Y-64404318D02*
X175879285Y-64464794D01*
X175879285Y-64464794D02*
X175939761Y-64525270D01*
X175939761Y-64525270D02*
X176000238Y-64646222D01*
X176000238Y-64646222D02*
X176000238Y-64767175D01*
X176000238Y-64767175D02*
X175939761Y-64948603D01*
X175939761Y-64948603D02*
X175214047Y-65674318D01*
X175214047Y-65674318D02*
X176000238Y-65674318D01*
D10*
X177257142Y-66459580D02*
X177209523Y-66507200D01*
X177209523Y-66507200D02*
X177066666Y-66554819D01*
X177066666Y-66554819D02*
X176971428Y-66554819D01*
X176971428Y-66554819D02*
X176828571Y-66507200D01*
X176828571Y-66507200D02*
X176733333Y-66411961D01*
X176733333Y-66411961D02*
X176685714Y-66316723D01*
X176685714Y-66316723D02*
X176638095Y-66126247D01*
X176638095Y-66126247D02*
X176638095Y-65983390D01*
X176638095Y-65983390D02*
X176685714Y-65792914D01*
X176685714Y-65792914D02*
X176733333Y-65697676D01*
X176733333Y-65697676D02*
X176828571Y-65602438D01*
X176828571Y-65602438D02*
X176971428Y-65554819D01*
X176971428Y-65554819D02*
X177066666Y-65554819D01*
X177066666Y-65554819D02*
X177209523Y-65602438D01*
X177209523Y-65602438D02*
X177257142Y-65650057D01*
X177638095Y-65650057D02*
X177685714Y-65602438D01*
X177685714Y-65602438D02*
X177780952Y-65554819D01*
X177780952Y-65554819D02*
X178019047Y-65554819D01*
X178019047Y-65554819D02*
X178114285Y-65602438D01*
X178114285Y-65602438D02*
X178161904Y-65650057D01*
X178161904Y-65650057D02*
X178209523Y-65745295D01*
X178209523Y-65745295D02*
X178209523Y-65840533D01*
X178209523Y-65840533D02*
X178161904Y-65983390D01*
X178161904Y-65983390D02*
X177590476Y-66554819D01*
X177590476Y-66554819D02*
X178209523Y-66554819D01*
X179066666Y-65554819D02*
X178876190Y-65554819D01*
X178876190Y-65554819D02*
X178780952Y-65602438D01*
X178780952Y-65602438D02*
X178733333Y-65650057D01*
X178733333Y-65650057D02*
X178638095Y-65792914D01*
X178638095Y-65792914D02*
X178590476Y-65983390D01*
X178590476Y-65983390D02*
X178590476Y-66364342D01*
X178590476Y-66364342D02*
X178638095Y-66459580D01*
X178638095Y-66459580D02*
X178685714Y-66507200D01*
X178685714Y-66507200D02*
X178780952Y-66554819D01*
X178780952Y-66554819D02*
X178971428Y-66554819D01*
X178971428Y-66554819D02*
X179066666Y-66507200D01*
X179066666Y-66507200D02*
X179114285Y-66459580D01*
X179114285Y-66459580D02*
X179161904Y-66364342D01*
X179161904Y-66364342D02*
X179161904Y-66126247D01*
X179161904Y-66126247D02*
X179114285Y-66031009D01*
X179114285Y-66031009D02*
X179066666Y-65983390D01*
X179066666Y-65983390D02*
X178971428Y-65935771D01*
X178971428Y-65935771D02*
X178780952Y-65935771D01*
X178780952Y-65935771D02*
X178685714Y-65983390D01*
X178685714Y-65983390D02*
X178638095Y-66031009D01*
X178638095Y-66031009D02*
X178590476Y-66126247D01*
X150396523Y-94924509D02*
X150063190Y-94924509D01*
X150063190Y-95448319D02*
X150063190Y-94448319D01*
X150063190Y-94448319D02*
X150539380Y-94448319D01*
X151253666Y-94924509D02*
X151396523Y-94972128D01*
X151396523Y-94972128D02*
X151444142Y-95019747D01*
X151444142Y-95019747D02*
X151491761Y-95114985D01*
X151491761Y-95114985D02*
X151491761Y-95257842D01*
X151491761Y-95257842D02*
X151444142Y-95353080D01*
X151444142Y-95353080D02*
X151396523Y-95400700D01*
X151396523Y-95400700D02*
X151301285Y-95448319D01*
X151301285Y-95448319D02*
X150920333Y-95448319D01*
X150920333Y-95448319D02*
X150920333Y-94448319D01*
X150920333Y-94448319D02*
X151253666Y-94448319D01*
X151253666Y-94448319D02*
X151348904Y-94495938D01*
X151348904Y-94495938D02*
X151396523Y-94543557D01*
X151396523Y-94543557D02*
X151444142Y-94638795D01*
X151444142Y-94638795D02*
X151444142Y-94734033D01*
X151444142Y-94734033D02*
X151396523Y-94829271D01*
X151396523Y-94829271D02*
X151348904Y-94876890D01*
X151348904Y-94876890D02*
X151253666Y-94924509D01*
X151253666Y-94924509D02*
X150920333Y-94924509D01*
X152348904Y-94781652D02*
X152348904Y-95448319D01*
X152110809Y-94400700D02*
X151872714Y-95114985D01*
X151872714Y-95114985D02*
X152491761Y-95114985D01*
X121126666Y-78391009D02*
X120793333Y-78391009D01*
X120793333Y-78914819D02*
X120793333Y-77914819D01*
X120793333Y-77914819D02*
X121269523Y-77914819D01*
X121983809Y-78391009D02*
X122126666Y-78438628D01*
X122126666Y-78438628D02*
X122174285Y-78486247D01*
X122174285Y-78486247D02*
X122221904Y-78581485D01*
X122221904Y-78581485D02*
X122221904Y-78724342D01*
X122221904Y-78724342D02*
X122174285Y-78819580D01*
X122174285Y-78819580D02*
X122126666Y-78867200D01*
X122126666Y-78867200D02*
X122031428Y-78914819D01*
X122031428Y-78914819D02*
X121650476Y-78914819D01*
X121650476Y-78914819D02*
X121650476Y-77914819D01*
X121650476Y-77914819D02*
X121983809Y-77914819D01*
X121983809Y-77914819D02*
X122079047Y-77962438D01*
X122079047Y-77962438D02*
X122126666Y-78010057D01*
X122126666Y-78010057D02*
X122174285Y-78105295D01*
X122174285Y-78105295D02*
X122174285Y-78200533D01*
X122174285Y-78200533D02*
X122126666Y-78295771D01*
X122126666Y-78295771D02*
X122079047Y-78343390D01*
X122079047Y-78343390D02*
X121983809Y-78391009D01*
X121983809Y-78391009D02*
X121650476Y-78391009D01*
X122602857Y-78010057D02*
X122650476Y-77962438D01*
X122650476Y-77962438D02*
X122745714Y-77914819D01*
X122745714Y-77914819D02*
X122983809Y-77914819D01*
X122983809Y-77914819D02*
X123079047Y-77962438D01*
X123079047Y-77962438D02*
X123126666Y-78010057D01*
X123126666Y-78010057D02*
X123174285Y-78105295D01*
X123174285Y-78105295D02*
X123174285Y-78200533D01*
X123174285Y-78200533D02*
X123126666Y-78343390D01*
X123126666Y-78343390D02*
X122555238Y-78914819D01*
X122555238Y-78914819D02*
X123174285Y-78914819D01*
X169557142Y-66459580D02*
X169509523Y-66507200D01*
X169509523Y-66507200D02*
X169366666Y-66554819D01*
X169366666Y-66554819D02*
X169271428Y-66554819D01*
X169271428Y-66554819D02*
X169128571Y-66507200D01*
X169128571Y-66507200D02*
X169033333Y-66411961D01*
X169033333Y-66411961D02*
X168985714Y-66316723D01*
X168985714Y-66316723D02*
X168938095Y-66126247D01*
X168938095Y-66126247D02*
X168938095Y-65983390D01*
X168938095Y-65983390D02*
X168985714Y-65792914D01*
X168985714Y-65792914D02*
X169033333Y-65697676D01*
X169033333Y-65697676D02*
X169128571Y-65602438D01*
X169128571Y-65602438D02*
X169271428Y-65554819D01*
X169271428Y-65554819D02*
X169366666Y-65554819D01*
X169366666Y-65554819D02*
X169509523Y-65602438D01*
X169509523Y-65602438D02*
X169557142Y-65650057D01*
X169938095Y-65650057D02*
X169985714Y-65602438D01*
X169985714Y-65602438D02*
X170080952Y-65554819D01*
X170080952Y-65554819D02*
X170319047Y-65554819D01*
X170319047Y-65554819D02*
X170414285Y-65602438D01*
X170414285Y-65602438D02*
X170461904Y-65650057D01*
X170461904Y-65650057D02*
X170509523Y-65745295D01*
X170509523Y-65745295D02*
X170509523Y-65840533D01*
X170509523Y-65840533D02*
X170461904Y-65983390D01*
X170461904Y-65983390D02*
X169890476Y-66554819D01*
X169890476Y-66554819D02*
X170509523Y-66554819D01*
X170842857Y-65554819D02*
X171509523Y-65554819D01*
X171509523Y-65554819D02*
X171080952Y-66554819D01*
X132453142Y-74781580D02*
X132405523Y-74829200D01*
X132405523Y-74829200D02*
X132262666Y-74876819D01*
X132262666Y-74876819D02*
X132167428Y-74876819D01*
X132167428Y-74876819D02*
X132024571Y-74829200D01*
X132024571Y-74829200D02*
X131929333Y-74733961D01*
X131929333Y-74733961D02*
X131881714Y-74638723D01*
X131881714Y-74638723D02*
X131834095Y-74448247D01*
X131834095Y-74448247D02*
X131834095Y-74305390D01*
X131834095Y-74305390D02*
X131881714Y-74114914D01*
X131881714Y-74114914D02*
X131929333Y-74019676D01*
X131929333Y-74019676D02*
X132024571Y-73924438D01*
X132024571Y-73924438D02*
X132167428Y-73876819D01*
X132167428Y-73876819D02*
X132262666Y-73876819D01*
X132262666Y-73876819D02*
X132405523Y-73924438D01*
X132405523Y-73924438D02*
X132453142Y-73972057D01*
X133405523Y-74876819D02*
X132834095Y-74876819D01*
X133119809Y-74876819D02*
X133119809Y-73876819D01*
X133119809Y-73876819D02*
X133024571Y-74019676D01*
X133024571Y-74019676D02*
X132929333Y-74114914D01*
X132929333Y-74114914D02*
X132834095Y-74162533D01*
X134024571Y-73876819D02*
X134119809Y-73876819D01*
X134119809Y-73876819D02*
X134215047Y-73924438D01*
X134215047Y-73924438D02*
X134262666Y-73972057D01*
X134262666Y-73972057D02*
X134310285Y-74067295D01*
X134310285Y-74067295D02*
X134357904Y-74257771D01*
X134357904Y-74257771D02*
X134357904Y-74495866D01*
X134357904Y-74495866D02*
X134310285Y-74686342D01*
X134310285Y-74686342D02*
X134262666Y-74781580D01*
X134262666Y-74781580D02*
X134215047Y-74829200D01*
X134215047Y-74829200D02*
X134119809Y-74876819D01*
X134119809Y-74876819D02*
X134024571Y-74876819D01*
X134024571Y-74876819D02*
X133929333Y-74829200D01*
X133929333Y-74829200D02*
X133881714Y-74781580D01*
X133881714Y-74781580D02*
X133834095Y-74686342D01*
X133834095Y-74686342D02*
X133786476Y-74495866D01*
X133786476Y-74495866D02*
X133786476Y-74257771D01*
X133786476Y-74257771D02*
X133834095Y-74067295D01*
X133834095Y-74067295D02*
X133881714Y-73972057D01*
X133881714Y-73972057D02*
X133929333Y-73924438D01*
X133929333Y-73924438D02*
X134024571Y-73876819D01*
X170458095Y-92479819D02*
X170458095Y-93289342D01*
X170458095Y-93289342D02*
X170505714Y-93384580D01*
X170505714Y-93384580D02*
X170553333Y-93432200D01*
X170553333Y-93432200D02*
X170648571Y-93479819D01*
X170648571Y-93479819D02*
X170839047Y-93479819D01*
X170839047Y-93479819D02*
X170934285Y-93432200D01*
X170934285Y-93432200D02*
X170981904Y-93384580D01*
X170981904Y-93384580D02*
X171029523Y-93289342D01*
X171029523Y-93289342D02*
X171029523Y-92479819D01*
X172029523Y-93479819D02*
X171458095Y-93479819D01*
X171743809Y-93479819D02*
X171743809Y-92479819D01*
X171743809Y-92479819D02*
X171648571Y-92622676D01*
X171648571Y-92622676D02*
X171553333Y-92717914D01*
X171553333Y-92717914D02*
X171458095Y-92765533D01*
X118578333Y-64875580D02*
X118530714Y-64923200D01*
X118530714Y-64923200D02*
X118387857Y-64970819D01*
X118387857Y-64970819D02*
X118292619Y-64970819D01*
X118292619Y-64970819D02*
X118149762Y-64923200D01*
X118149762Y-64923200D02*
X118054524Y-64827961D01*
X118054524Y-64827961D02*
X118006905Y-64732723D01*
X118006905Y-64732723D02*
X117959286Y-64542247D01*
X117959286Y-64542247D02*
X117959286Y-64399390D01*
X117959286Y-64399390D02*
X118006905Y-64208914D01*
X118006905Y-64208914D02*
X118054524Y-64113676D01*
X118054524Y-64113676D02*
X118149762Y-64018438D01*
X118149762Y-64018438D02*
X118292619Y-63970819D01*
X118292619Y-63970819D02*
X118387857Y-63970819D01*
X118387857Y-63970819D02*
X118530714Y-64018438D01*
X118530714Y-64018438D02*
X118578333Y-64066057D01*
X119483095Y-63970819D02*
X119006905Y-63970819D01*
X119006905Y-63970819D02*
X118959286Y-64447009D01*
X118959286Y-64447009D02*
X119006905Y-64399390D01*
X119006905Y-64399390D02*
X119102143Y-64351771D01*
X119102143Y-64351771D02*
X119340238Y-64351771D01*
X119340238Y-64351771D02*
X119435476Y-64399390D01*
X119435476Y-64399390D02*
X119483095Y-64447009D01*
X119483095Y-64447009D02*
X119530714Y-64542247D01*
X119530714Y-64542247D02*
X119530714Y-64780342D01*
X119530714Y-64780342D02*
X119483095Y-64875580D01*
X119483095Y-64875580D02*
X119435476Y-64923200D01*
X119435476Y-64923200D02*
X119340238Y-64970819D01*
X119340238Y-64970819D02*
X119102143Y-64970819D01*
X119102143Y-64970819D02*
X119006905Y-64923200D01*
X119006905Y-64923200D02*
X118959286Y-64875580D01*
X129499142Y-89243580D02*
X129451523Y-89291200D01*
X129451523Y-89291200D02*
X129308666Y-89338819D01*
X129308666Y-89338819D02*
X129213428Y-89338819D01*
X129213428Y-89338819D02*
X129070571Y-89291200D01*
X129070571Y-89291200D02*
X128975333Y-89195961D01*
X128975333Y-89195961D02*
X128927714Y-89100723D01*
X128927714Y-89100723D02*
X128880095Y-88910247D01*
X128880095Y-88910247D02*
X128880095Y-88767390D01*
X128880095Y-88767390D02*
X128927714Y-88576914D01*
X128927714Y-88576914D02*
X128975333Y-88481676D01*
X128975333Y-88481676D02*
X129070571Y-88386438D01*
X129070571Y-88386438D02*
X129213428Y-88338819D01*
X129213428Y-88338819D02*
X129308666Y-88338819D01*
X129308666Y-88338819D02*
X129451523Y-88386438D01*
X129451523Y-88386438D02*
X129499142Y-88434057D01*
X130451523Y-89338819D02*
X129880095Y-89338819D01*
X130165809Y-89338819D02*
X130165809Y-88338819D01*
X130165809Y-88338819D02*
X130070571Y-88481676D01*
X130070571Y-88481676D02*
X129975333Y-88576914D01*
X129975333Y-88576914D02*
X129880095Y-88624533D01*
X131356285Y-88338819D02*
X130880095Y-88338819D01*
X130880095Y-88338819D02*
X130832476Y-88815009D01*
X130832476Y-88815009D02*
X130880095Y-88767390D01*
X130880095Y-88767390D02*
X130975333Y-88719771D01*
X130975333Y-88719771D02*
X131213428Y-88719771D01*
X131213428Y-88719771D02*
X131308666Y-88767390D01*
X131308666Y-88767390D02*
X131356285Y-88815009D01*
X131356285Y-88815009D02*
X131403904Y-88910247D01*
X131403904Y-88910247D02*
X131403904Y-89148342D01*
X131403904Y-89148342D02*
X131356285Y-89243580D01*
X131356285Y-89243580D02*
X131308666Y-89291200D01*
X131308666Y-89291200D02*
X131213428Y-89338819D01*
X131213428Y-89338819D02*
X130975333Y-89338819D01*
X130975333Y-89338819D02*
X130880095Y-89291200D01*
X130880095Y-89291200D02*
X130832476Y-89243580D01*
X167733334Y-82459579D02*
X167685715Y-82507199D01*
X167685715Y-82507199D02*
X167542858Y-82554818D01*
X167542858Y-82554818D02*
X167447620Y-82554818D01*
X167447620Y-82554818D02*
X167304763Y-82507199D01*
X167304763Y-82507199D02*
X167209525Y-82411960D01*
X167209525Y-82411960D02*
X167161906Y-82316722D01*
X167161906Y-82316722D02*
X167114287Y-82126246D01*
X167114287Y-82126246D02*
X167114287Y-81983389D01*
X167114287Y-81983389D02*
X167161906Y-81792913D01*
X167161906Y-81792913D02*
X167209525Y-81697675D01*
X167209525Y-81697675D02*
X167304763Y-81602437D01*
X167304763Y-81602437D02*
X167447620Y-81554818D01*
X167447620Y-81554818D02*
X167542858Y-81554818D01*
X167542858Y-81554818D02*
X167685715Y-81602437D01*
X167685715Y-81602437D02*
X167733334Y-81650056D01*
X168685715Y-82554818D02*
X168114287Y-82554818D01*
X168400001Y-82554818D02*
X168400001Y-81554818D01*
X168400001Y-81554818D02*
X168304763Y-81697675D01*
X168304763Y-81697675D02*
X168209525Y-81792913D01*
X168209525Y-81792913D02*
X168114287Y-81840532D01*
X124594580Y-92284857D02*
X124642200Y-92332476D01*
X124642200Y-92332476D02*
X124689819Y-92475333D01*
X124689819Y-92475333D02*
X124689819Y-92570571D01*
X124689819Y-92570571D02*
X124642200Y-92713428D01*
X124642200Y-92713428D02*
X124546961Y-92808666D01*
X124546961Y-92808666D02*
X124451723Y-92856285D01*
X124451723Y-92856285D02*
X124261247Y-92903904D01*
X124261247Y-92903904D02*
X124118390Y-92903904D01*
X124118390Y-92903904D02*
X123927914Y-92856285D01*
X123927914Y-92856285D02*
X123832676Y-92808666D01*
X123832676Y-92808666D02*
X123737438Y-92713428D01*
X123737438Y-92713428D02*
X123689819Y-92570571D01*
X123689819Y-92570571D02*
X123689819Y-92475333D01*
X123689819Y-92475333D02*
X123737438Y-92332476D01*
X123737438Y-92332476D02*
X123785057Y-92284857D01*
X123689819Y-91951523D02*
X123689819Y-91332476D01*
X123689819Y-91332476D02*
X124070771Y-91665809D01*
X124070771Y-91665809D02*
X124070771Y-91522952D01*
X124070771Y-91522952D02*
X124118390Y-91427714D01*
X124118390Y-91427714D02*
X124166009Y-91380095D01*
X124166009Y-91380095D02*
X124261247Y-91332476D01*
X124261247Y-91332476D02*
X124499342Y-91332476D01*
X124499342Y-91332476D02*
X124594580Y-91380095D01*
X124594580Y-91380095D02*
X124642200Y-91427714D01*
X124642200Y-91427714D02*
X124689819Y-91522952D01*
X124689819Y-91522952D02*
X124689819Y-91808666D01*
X124689819Y-91808666D02*
X124642200Y-91903904D01*
X124642200Y-91903904D02*
X124594580Y-91951523D01*
X123689819Y-90713428D02*
X123689819Y-90618190D01*
X123689819Y-90618190D02*
X123737438Y-90522952D01*
X123737438Y-90522952D02*
X123785057Y-90475333D01*
X123785057Y-90475333D02*
X123880295Y-90427714D01*
X123880295Y-90427714D02*
X124070771Y-90380095D01*
X124070771Y-90380095D02*
X124308866Y-90380095D01*
X124308866Y-90380095D02*
X124499342Y-90427714D01*
X124499342Y-90427714D02*
X124594580Y-90475333D01*
X124594580Y-90475333D02*
X124642200Y-90522952D01*
X124642200Y-90522952D02*
X124689819Y-90618190D01*
X124689819Y-90618190D02*
X124689819Y-90713428D01*
X124689819Y-90713428D02*
X124642200Y-90808666D01*
X124642200Y-90808666D02*
X124594580Y-90856285D01*
X124594580Y-90856285D02*
X124499342Y-90903904D01*
X124499342Y-90903904D02*
X124308866Y-90951523D01*
X124308866Y-90951523D02*
X124070771Y-90951523D01*
X124070771Y-90951523D02*
X123880295Y-90903904D01*
X123880295Y-90903904D02*
X123785057Y-90856285D01*
X123785057Y-90856285D02*
X123737438Y-90808666D01*
X123737438Y-90808666D02*
X123689819Y-90713428D01*
X135259580Y-83192857D02*
X135307200Y-83240476D01*
X135307200Y-83240476D02*
X135354819Y-83383333D01*
X135354819Y-83383333D02*
X135354819Y-83478571D01*
X135354819Y-83478571D02*
X135307200Y-83621428D01*
X135307200Y-83621428D02*
X135211961Y-83716666D01*
X135211961Y-83716666D02*
X135116723Y-83764285D01*
X135116723Y-83764285D02*
X134926247Y-83811904D01*
X134926247Y-83811904D02*
X134783390Y-83811904D01*
X134783390Y-83811904D02*
X134592914Y-83764285D01*
X134592914Y-83764285D02*
X134497676Y-83716666D01*
X134497676Y-83716666D02*
X134402438Y-83621428D01*
X134402438Y-83621428D02*
X134354819Y-83478571D01*
X134354819Y-83478571D02*
X134354819Y-83383333D01*
X134354819Y-83383333D02*
X134402438Y-83240476D01*
X134402438Y-83240476D02*
X134450057Y-83192857D01*
X135354819Y-82240476D02*
X135354819Y-82811904D01*
X135354819Y-82526190D02*
X134354819Y-82526190D01*
X134354819Y-82526190D02*
X134497676Y-82621428D01*
X134497676Y-82621428D02*
X134592914Y-82716666D01*
X134592914Y-82716666D02*
X134640533Y-82811904D01*
X134354819Y-81907142D02*
X134354819Y-81240476D01*
X134354819Y-81240476D02*
X135354819Y-81669047D01*
X107350333Y-69066580D02*
X107302714Y-69114200D01*
X107302714Y-69114200D02*
X107159857Y-69161819D01*
X107159857Y-69161819D02*
X107064619Y-69161819D01*
X107064619Y-69161819D02*
X106921762Y-69114200D01*
X106921762Y-69114200D02*
X106826524Y-69018961D01*
X106826524Y-69018961D02*
X106778905Y-68923723D01*
X106778905Y-68923723D02*
X106731286Y-68733247D01*
X106731286Y-68733247D02*
X106731286Y-68590390D01*
X106731286Y-68590390D02*
X106778905Y-68399914D01*
X106778905Y-68399914D02*
X106826524Y-68304676D01*
X106826524Y-68304676D02*
X106921762Y-68209438D01*
X106921762Y-68209438D02*
X107064619Y-68161819D01*
X107064619Y-68161819D02*
X107159857Y-68161819D01*
X107159857Y-68161819D02*
X107302714Y-68209438D01*
X107302714Y-68209438D02*
X107350333Y-68257057D01*
X108207476Y-68495152D02*
X108207476Y-69161819D01*
X107969381Y-68114200D02*
X107731286Y-68828485D01*
X107731286Y-68828485D02*
X108350333Y-68828485D01*
D11*
X115360237Y-74074318D02*
X115360237Y-72804318D01*
X116690714Y-73953365D02*
X116630238Y-74013842D01*
X116630238Y-74013842D02*
X116448809Y-74074318D01*
X116448809Y-74074318D02*
X116327857Y-74074318D01*
X116327857Y-74074318D02*
X116146428Y-74013842D01*
X116146428Y-74013842D02*
X116025476Y-73892889D01*
X116025476Y-73892889D02*
X115964999Y-73771937D01*
X115964999Y-73771937D02*
X115904523Y-73530032D01*
X115904523Y-73530032D02*
X115904523Y-73348603D01*
X115904523Y-73348603D02*
X115964999Y-73106699D01*
X115964999Y-73106699D02*
X116025476Y-72985746D01*
X116025476Y-72985746D02*
X116146428Y-72864794D01*
X116146428Y-72864794D02*
X116327857Y-72804318D01*
X116327857Y-72804318D02*
X116448809Y-72804318D01*
X116448809Y-72804318D02*
X116630238Y-72864794D01*
X116630238Y-72864794D02*
X116690714Y-72925270D01*
X117900238Y-74074318D02*
X117174523Y-74074318D01*
X117537380Y-74074318D02*
X117537380Y-72804318D01*
X117537380Y-72804318D02*
X117416428Y-72985746D01*
X117416428Y-72985746D02*
X117295476Y-73106699D01*
X117295476Y-73106699D02*
X117174523Y-73167175D01*
D10*
X139501666Y-65336009D02*
X139168333Y-65336009D01*
X139168333Y-65859819D02*
X139168333Y-64859819D01*
X139168333Y-64859819D02*
X139644523Y-64859819D01*
X140358809Y-65336009D02*
X140501666Y-65383628D01*
X140501666Y-65383628D02*
X140549285Y-65431247D01*
X140549285Y-65431247D02*
X140596904Y-65526485D01*
X140596904Y-65526485D02*
X140596904Y-65669342D01*
X140596904Y-65669342D02*
X140549285Y-65764580D01*
X140549285Y-65764580D02*
X140501666Y-65812200D01*
X140501666Y-65812200D02*
X140406428Y-65859819D01*
X140406428Y-65859819D02*
X140025476Y-65859819D01*
X140025476Y-65859819D02*
X140025476Y-64859819D01*
X140025476Y-64859819D02*
X140358809Y-64859819D01*
X140358809Y-64859819D02*
X140454047Y-64907438D01*
X140454047Y-64907438D02*
X140501666Y-64955057D01*
X140501666Y-64955057D02*
X140549285Y-65050295D01*
X140549285Y-65050295D02*
X140549285Y-65145533D01*
X140549285Y-65145533D02*
X140501666Y-65240771D01*
X140501666Y-65240771D02*
X140454047Y-65288390D01*
X140454047Y-65288390D02*
X140358809Y-65336009D01*
X140358809Y-65336009D02*
X140025476Y-65336009D01*
X141549285Y-65859819D02*
X140977857Y-65859819D01*
X141263571Y-65859819D02*
X141263571Y-64859819D01*
X141263571Y-64859819D02*
X141168333Y-65002676D01*
X141168333Y-65002676D02*
X141073095Y-65097914D01*
X141073095Y-65097914D02*
X140977857Y-65145533D01*
X140708142Y-71225580D02*
X140660523Y-71273200D01*
X140660523Y-71273200D02*
X140517666Y-71320819D01*
X140517666Y-71320819D02*
X140422428Y-71320819D01*
X140422428Y-71320819D02*
X140279571Y-71273200D01*
X140279571Y-71273200D02*
X140184333Y-71177961D01*
X140184333Y-71177961D02*
X140136714Y-71082723D01*
X140136714Y-71082723D02*
X140089095Y-70892247D01*
X140089095Y-70892247D02*
X140089095Y-70749390D01*
X140089095Y-70749390D02*
X140136714Y-70558914D01*
X140136714Y-70558914D02*
X140184333Y-70463676D01*
X140184333Y-70463676D02*
X140279571Y-70368438D01*
X140279571Y-70368438D02*
X140422428Y-70320819D01*
X140422428Y-70320819D02*
X140517666Y-70320819D01*
X140517666Y-70320819D02*
X140660523Y-70368438D01*
X140660523Y-70368438D02*
X140708142Y-70416057D01*
X141660523Y-71320819D02*
X141089095Y-71320819D01*
X141374809Y-71320819D02*
X141374809Y-70320819D01*
X141374809Y-70320819D02*
X141279571Y-70463676D01*
X141279571Y-70463676D02*
X141184333Y-70558914D01*
X141184333Y-70558914D02*
X141089095Y-70606533D01*
X141993857Y-70320819D02*
X142612904Y-70320819D01*
X142612904Y-70320819D02*
X142279571Y-70701771D01*
X142279571Y-70701771D02*
X142422428Y-70701771D01*
X142422428Y-70701771D02*
X142517666Y-70749390D01*
X142517666Y-70749390D02*
X142565285Y-70797009D01*
X142565285Y-70797009D02*
X142612904Y-70892247D01*
X142612904Y-70892247D02*
X142612904Y-71130342D01*
X142612904Y-71130342D02*
X142565285Y-71225580D01*
X142565285Y-71225580D02*
X142517666Y-71273200D01*
X142517666Y-71273200D02*
X142422428Y-71320819D01*
X142422428Y-71320819D02*
X142136714Y-71320819D01*
X142136714Y-71320819D02*
X142041476Y-71273200D01*
X142041476Y-71273200D02*
X141993857Y-71225580D01*
X107350333Y-66907580D02*
X107302714Y-66955200D01*
X107302714Y-66955200D02*
X107159857Y-67002819D01*
X107159857Y-67002819D02*
X107064619Y-67002819D01*
X107064619Y-67002819D02*
X106921762Y-66955200D01*
X106921762Y-66955200D02*
X106826524Y-66859961D01*
X106826524Y-66859961D02*
X106778905Y-66764723D01*
X106778905Y-66764723D02*
X106731286Y-66574247D01*
X106731286Y-66574247D02*
X106731286Y-66431390D01*
X106731286Y-66431390D02*
X106778905Y-66240914D01*
X106778905Y-66240914D02*
X106826524Y-66145676D01*
X106826524Y-66145676D02*
X106921762Y-66050438D01*
X106921762Y-66050438D02*
X107064619Y-66002819D01*
X107064619Y-66002819D02*
X107159857Y-66002819D01*
X107159857Y-66002819D02*
X107302714Y-66050438D01*
X107302714Y-66050438D02*
X107350333Y-66098057D01*
X107683667Y-66002819D02*
X108302714Y-66002819D01*
X108302714Y-66002819D02*
X107969381Y-66383771D01*
X107969381Y-66383771D02*
X108112238Y-66383771D01*
X108112238Y-66383771D02*
X108207476Y-66431390D01*
X108207476Y-66431390D02*
X108255095Y-66479009D01*
X108255095Y-66479009D02*
X108302714Y-66574247D01*
X108302714Y-66574247D02*
X108302714Y-66812342D01*
X108302714Y-66812342D02*
X108255095Y-66907580D01*
X108255095Y-66907580D02*
X108207476Y-66955200D01*
X108207476Y-66955200D02*
X108112238Y-67002819D01*
X108112238Y-67002819D02*
X107826524Y-67002819D01*
X107826524Y-67002819D02*
X107731286Y-66955200D01*
X107731286Y-66955200D02*
X107683667Y-66907580D01*
X154334380Y-77001666D02*
X154382000Y-77049285D01*
X154382000Y-77049285D02*
X154429619Y-77192142D01*
X154429619Y-77192142D02*
X154429619Y-77287380D01*
X154429619Y-77287380D02*
X154382000Y-77430237D01*
X154382000Y-77430237D02*
X154286761Y-77525475D01*
X154286761Y-77525475D02*
X154191523Y-77573094D01*
X154191523Y-77573094D02*
X154001047Y-77620713D01*
X154001047Y-77620713D02*
X153858190Y-77620713D01*
X153858190Y-77620713D02*
X153667714Y-77573094D01*
X153667714Y-77573094D02*
X153572476Y-77525475D01*
X153572476Y-77525475D02*
X153477238Y-77430237D01*
X153477238Y-77430237D02*
X153429619Y-77287380D01*
X153429619Y-77287380D02*
X153429619Y-77192142D01*
X153429619Y-77192142D02*
X153477238Y-77049285D01*
X153477238Y-77049285D02*
X153524857Y-77001666D01*
X153858190Y-76430237D02*
X153810571Y-76525475D01*
X153810571Y-76525475D02*
X153762952Y-76573094D01*
X153762952Y-76573094D02*
X153667714Y-76620713D01*
X153667714Y-76620713D02*
X153620095Y-76620713D01*
X153620095Y-76620713D02*
X153524857Y-76573094D01*
X153524857Y-76573094D02*
X153477238Y-76525475D01*
X153477238Y-76525475D02*
X153429619Y-76430237D01*
X153429619Y-76430237D02*
X153429619Y-76239761D01*
X153429619Y-76239761D02*
X153477238Y-76144523D01*
X153477238Y-76144523D02*
X153524857Y-76096904D01*
X153524857Y-76096904D02*
X153620095Y-76049285D01*
X153620095Y-76049285D02*
X153667714Y-76049285D01*
X153667714Y-76049285D02*
X153762952Y-76096904D01*
X153762952Y-76096904D02*
X153810571Y-76144523D01*
X153810571Y-76144523D02*
X153858190Y-76239761D01*
X153858190Y-76239761D02*
X153858190Y-76430237D01*
X153858190Y-76430237D02*
X153905809Y-76525475D01*
X153905809Y-76525475D02*
X153953428Y-76573094D01*
X153953428Y-76573094D02*
X154048666Y-76620713D01*
X154048666Y-76620713D02*
X154239142Y-76620713D01*
X154239142Y-76620713D02*
X154334380Y-76573094D01*
X154334380Y-76573094D02*
X154382000Y-76525475D01*
X154382000Y-76525475D02*
X154429619Y-76430237D01*
X154429619Y-76430237D02*
X154429619Y-76239761D01*
X154429619Y-76239761D02*
X154382000Y-76144523D01*
X154382000Y-76144523D02*
X154334380Y-76096904D01*
X154334380Y-76096904D02*
X154239142Y-76049285D01*
X154239142Y-76049285D02*
X154048666Y-76049285D01*
X154048666Y-76049285D02*
X153953428Y-76096904D01*
X153953428Y-76096904D02*
X153905809Y-76144523D01*
X153905809Y-76144523D02*
X153858190Y-76239761D01*
X159857142Y-69759580D02*
X159809523Y-69807200D01*
X159809523Y-69807200D02*
X159666666Y-69854819D01*
X159666666Y-69854819D02*
X159571428Y-69854819D01*
X159571428Y-69854819D02*
X159428571Y-69807200D01*
X159428571Y-69807200D02*
X159333333Y-69711961D01*
X159333333Y-69711961D02*
X159285714Y-69616723D01*
X159285714Y-69616723D02*
X159238095Y-69426247D01*
X159238095Y-69426247D02*
X159238095Y-69283390D01*
X159238095Y-69283390D02*
X159285714Y-69092914D01*
X159285714Y-69092914D02*
X159333333Y-68997676D01*
X159333333Y-68997676D02*
X159428571Y-68902438D01*
X159428571Y-68902438D02*
X159571428Y-68854819D01*
X159571428Y-68854819D02*
X159666666Y-68854819D01*
X159666666Y-68854819D02*
X159809523Y-68902438D01*
X159809523Y-68902438D02*
X159857142Y-68950057D01*
X160238095Y-68950057D02*
X160285714Y-68902438D01*
X160285714Y-68902438D02*
X160380952Y-68854819D01*
X160380952Y-68854819D02*
X160619047Y-68854819D01*
X160619047Y-68854819D02*
X160714285Y-68902438D01*
X160714285Y-68902438D02*
X160761904Y-68950057D01*
X160761904Y-68950057D02*
X160809523Y-69045295D01*
X160809523Y-69045295D02*
X160809523Y-69140533D01*
X160809523Y-69140533D02*
X160761904Y-69283390D01*
X160761904Y-69283390D02*
X160190476Y-69854819D01*
X160190476Y-69854819D02*
X160809523Y-69854819D01*
X161666666Y-69188152D02*
X161666666Y-69854819D01*
X161428571Y-68807200D02*
X161190476Y-69521485D01*
X161190476Y-69521485D02*
X161809523Y-69521485D01*
D11*
X111074237Y-80474318D02*
X111074237Y-79204318D01*
X112404714Y-80353365D02*
X112344238Y-80413842D01*
X112344238Y-80413842D02*
X112162809Y-80474318D01*
X112162809Y-80474318D02*
X112041857Y-80474318D01*
X112041857Y-80474318D02*
X111860428Y-80413842D01*
X111860428Y-80413842D02*
X111739476Y-80292889D01*
X111739476Y-80292889D02*
X111678999Y-80171937D01*
X111678999Y-80171937D02*
X111618523Y-79930032D01*
X111618523Y-79930032D02*
X111618523Y-79748603D01*
X111618523Y-79748603D02*
X111678999Y-79506699D01*
X111678999Y-79506699D02*
X111739476Y-79385746D01*
X111739476Y-79385746D02*
X111860428Y-79264794D01*
X111860428Y-79264794D02*
X112041857Y-79204318D01*
X112041857Y-79204318D02*
X112162809Y-79204318D01*
X112162809Y-79204318D02*
X112344238Y-79264794D01*
X112344238Y-79264794D02*
X112404714Y-79325270D01*
X113493285Y-79627651D02*
X113493285Y-80474318D01*
X113190904Y-79143842D02*
X112888523Y-80050984D01*
X112888523Y-80050984D02*
X113674714Y-80050984D01*
D10*
X143502142Y-71098580D02*
X143454523Y-71146200D01*
X143454523Y-71146200D02*
X143311666Y-71193819D01*
X143311666Y-71193819D02*
X143216428Y-71193819D01*
X143216428Y-71193819D02*
X143073571Y-71146200D01*
X143073571Y-71146200D02*
X142978333Y-71050961D01*
X142978333Y-71050961D02*
X142930714Y-70955723D01*
X142930714Y-70955723D02*
X142883095Y-70765247D01*
X142883095Y-70765247D02*
X142883095Y-70622390D01*
X142883095Y-70622390D02*
X142930714Y-70431914D01*
X142930714Y-70431914D02*
X142978333Y-70336676D01*
X142978333Y-70336676D02*
X143073571Y-70241438D01*
X143073571Y-70241438D02*
X143216428Y-70193819D01*
X143216428Y-70193819D02*
X143311666Y-70193819D01*
X143311666Y-70193819D02*
X143454523Y-70241438D01*
X143454523Y-70241438D02*
X143502142Y-70289057D01*
X144454523Y-71193819D02*
X143883095Y-71193819D01*
X144168809Y-71193819D02*
X144168809Y-70193819D01*
X144168809Y-70193819D02*
X144073571Y-70336676D01*
X144073571Y-70336676D02*
X143978333Y-70431914D01*
X143978333Y-70431914D02*
X143883095Y-70479533D01*
X145311666Y-70527152D02*
X145311666Y-71193819D01*
X145073571Y-70146200D02*
X144835476Y-70860485D01*
X144835476Y-70860485D02*
X145454523Y-70860485D01*
D12*
%TO.C,R7*%
X101062936Y-78513000D02*
X101517064Y-78513000D01*
X101062936Y-79983000D02*
X101517064Y-79983000D01*
%TO.C,R5*%
X161135000Y-76472936D02*
X161135000Y-76927064D01*
X159665000Y-76472936D02*
X159665000Y-76927064D01*
%TO.C,R2*%
X147420000Y-69876936D02*
X147420000Y-70331064D01*
X145950000Y-69876936D02*
X145950000Y-70331064D01*
%TO.C,R9*%
X121766064Y-69823000D02*
X121311936Y-69823000D01*
X121766064Y-68353000D02*
X121311936Y-68353000D01*
%TO.C,R6*%
X108428936Y-79021000D02*
X108883064Y-79021000D01*
X108428936Y-80491000D02*
X108883064Y-80491000D01*
%TO.C,R3*%
X134835000Y-63885436D02*
X134835000Y-64339564D01*
X133365000Y-63885436D02*
X133365000Y-64339564D01*
%TO.C,R8*%
X106597000Y-79852936D02*
X106597000Y-80307064D01*
X105127000Y-79852936D02*
X105127000Y-80307064D01*
%TO.C,R1*%
X180685000Y-86289564D02*
X180685000Y-85835436D01*
X182155000Y-86289564D02*
X182155000Y-85835436D01*
%TO.C,R4*%
X104099000Y-72460436D02*
X104099000Y-72914564D01*
X102629000Y-72460436D02*
X102629000Y-72914564D01*
%TO.C,Y1*%
X126375000Y-78715000D02*
X126375000Y-84965000D01*
X131425000Y-78715000D02*
X131425000Y-84965000D01*
X126375000Y-78715000D02*
G75*
G02*
X131425000Y-78715000I2525000J0D01*
G01*
X131425000Y-84965000D02*
G75*
G02*
X126375000Y-84965000I-2525000J0D01*
G01*
%TO.C,J5*%
X125934000Y-99120000D02*
X125934000Y-97790000D01*
X127264000Y-99120000D02*
X125934000Y-99120000D01*
X128534000Y-96460000D02*
X136214000Y-96460000D01*
X128534000Y-99120000D02*
X128534000Y-96460000D01*
X128534000Y-99120000D02*
X136214000Y-99120000D01*
X136214000Y-99120000D02*
X136214000Y-96460000D01*
%TO.C,C32*%
X117505000Y-91355248D02*
X117505000Y-91877752D01*
X118975000Y-91355248D02*
X118975000Y-91877752D01*
D10*
%TO.C,J2*%
X177795000Y-79675000D02*
X177795000Y-80400000D01*
X177795000Y-80400000D02*
X178220000Y-80400000D01*
X178220000Y-76800000D02*
X178220000Y-75800000D01*
X178220000Y-80400000D02*
X178220000Y-81400000D01*
X179970000Y-82750000D02*
X181370000Y-82750000D01*
X181370000Y-74450000D02*
X179970000Y-74450000D01*
X183770000Y-82750000D02*
X183920000Y-82750000D01*
X183920000Y-74450000D02*
X183770000Y-74450000D01*
X183920000Y-74750000D02*
X183920000Y-74450000D01*
X183920000Y-82450000D02*
X184370000Y-82450000D01*
X183920000Y-82750000D02*
X183920000Y-82450000D01*
X184370000Y-74750000D02*
X183920000Y-74750000D01*
%TO.C,SW1*%
D12*
X136670000Y-61060000D02*
X126450000Y-61060000D01*
X126450000Y-58340000D01*
X136670000Y-58340000D01*
X136670000Y-61060000D01*
%TO.C,C2*%
X165315000Y-91588748D02*
X165315000Y-92111252D01*
X166785000Y-91588748D02*
X166785000Y-92111252D01*
%TO.C,C28*%
X154585605Y-92765000D02*
X155108109Y-92765000D01*
X154585605Y-94235000D02*
X155108109Y-94235000D01*
%TO.C,C11*%
X147856052Y-88712399D02*
X147333548Y-88712399D01*
X147856052Y-90182399D02*
X147333548Y-90182399D01*
%TO.C,C9*%
X142161252Y-88365000D02*
X141638748Y-88365000D01*
X142161252Y-89835000D02*
X141638748Y-89835000D01*
%TO.C,C31*%
X119664000Y-91355248D02*
X119664000Y-91877752D01*
X121134000Y-91355248D02*
X121134000Y-91877752D01*
%TO.C,C12*%
X140182148Y-71912399D02*
X140704652Y-71912399D01*
X140182148Y-73382399D02*
X140704652Y-73382399D01*
%TO.C,J4*%
X138070000Y-58370000D02*
X138070000Y-61030000D01*
X150830000Y-58370000D02*
X138070000Y-58370000D01*
X150830000Y-58370000D02*
X150830000Y-61030000D01*
X150830000Y-61030000D02*
X138070000Y-61030000D01*
X152100000Y-58370000D02*
X153430000Y-58370000D01*
X153430000Y-58370000D02*
X153430000Y-59700000D01*
%TO.C,C20*%
X179520000Y-68832600D02*
X180760000Y-68832600D01*
X179520000Y-68872600D02*
X180760000Y-68872600D01*
X179521000Y-68792600D02*
X180760000Y-68792600D01*
X179523000Y-68752600D02*
X180760000Y-68752600D01*
X179526000Y-68712600D02*
X180760000Y-68712600D01*
X179529000Y-68672600D02*
X180760000Y-68672600D01*
X179533000Y-68632600D02*
X180760000Y-68632600D01*
X179538000Y-68592600D02*
X180760000Y-68592600D01*
X179544000Y-68552600D02*
X180760000Y-68552600D01*
X179550000Y-68512600D02*
X180760000Y-68512600D01*
X179558000Y-68472600D02*
X180760000Y-68472600D01*
X179566000Y-68432600D02*
X180760000Y-68432600D01*
X179575000Y-68392600D02*
X180760000Y-68392600D01*
X179584000Y-68352600D02*
X180760000Y-68352600D01*
X179595000Y-68312600D02*
X180760000Y-68312600D01*
X179606000Y-68272600D02*
X180760000Y-68272600D01*
X179618000Y-68232600D02*
X180760000Y-68232600D01*
X179632000Y-68192600D02*
X180760000Y-68192600D01*
X179646000Y-68151600D02*
X180760000Y-68151600D01*
X179660000Y-68111600D02*
X180760000Y-68111600D01*
X179676000Y-68071600D02*
X180760000Y-68071600D01*
X179693000Y-68031600D02*
X180760000Y-68031600D01*
X179711000Y-67991600D02*
X180760000Y-67991600D01*
X179730000Y-67951600D02*
X180760000Y-67951600D01*
X179749000Y-67911600D02*
X180760000Y-67911600D01*
X179770000Y-67871600D02*
X180760000Y-67871600D01*
X179792000Y-67831600D02*
X180760000Y-67831600D01*
X179815000Y-67791600D02*
X180760000Y-67791600D01*
X179840000Y-67751600D02*
X180760000Y-67751600D01*
X179865000Y-67711600D02*
X180760000Y-67711600D01*
X179892000Y-67671600D02*
X180760000Y-67671600D01*
X179920000Y-67631600D02*
X180760000Y-67631600D01*
X179950000Y-67591600D02*
X180760000Y-67591600D01*
X179981000Y-67551600D02*
X180760000Y-67551600D01*
X180013000Y-67511600D02*
X180760000Y-67511600D01*
X180048000Y-67471600D02*
X180760000Y-67471600D01*
X180084000Y-67431600D02*
X180760000Y-67431600D01*
X180122000Y-67391600D02*
X180760000Y-67391600D01*
X180162000Y-67351600D02*
X180760000Y-67351600D01*
X180204000Y-67311600D02*
X180760000Y-67311600D01*
X180205000Y-70942401D02*
X180605000Y-70942401D01*
X180249000Y-67271600D02*
X182951000Y-67271600D01*
X180296000Y-67231600D02*
X182904000Y-67231600D01*
X180346000Y-67191600D02*
X182854000Y-67191600D01*
X180400000Y-67151600D02*
X182800000Y-67151600D01*
X180405000Y-71142401D02*
X180405000Y-70742401D01*
X180458000Y-67111600D02*
X182742000Y-67111600D01*
X180520000Y-67071600D02*
X182680000Y-67071600D01*
X180587000Y-67031600D02*
X182613000Y-67031600D01*
X180660000Y-66991600D02*
X182540000Y-66991600D01*
X180741000Y-66951600D02*
X182459000Y-66951600D01*
X180832000Y-66911600D02*
X182368000Y-66911600D01*
X180936000Y-66871600D02*
X182264000Y-66871600D01*
X181063000Y-66831600D02*
X182137000Y-66831600D01*
X181230000Y-66791600D02*
X181970000Y-66791600D01*
X182440000Y-67311600D02*
X182996000Y-67311600D01*
X182440000Y-67351600D02*
X183038000Y-67351600D01*
X182440000Y-67391600D02*
X183078000Y-67391600D01*
X182440000Y-67431600D02*
X183116000Y-67431600D01*
X182440000Y-67471600D02*
X183152000Y-67471600D01*
X182440000Y-67511600D02*
X183187000Y-67511600D01*
X182440000Y-67551600D02*
X183219000Y-67551600D01*
X182440000Y-67591600D02*
X183250000Y-67591600D01*
X182440000Y-67631600D02*
X183280000Y-67631600D01*
X182440000Y-67671600D02*
X183308000Y-67671600D01*
X182440000Y-67711600D02*
X183335000Y-67711600D01*
X182440000Y-67751600D02*
X183360000Y-67751600D01*
X182440000Y-67791600D02*
X183385000Y-67791600D01*
X182440000Y-67831600D02*
X183408000Y-67831600D01*
X182440000Y-67871600D02*
X183430000Y-67871600D01*
X182440000Y-67911600D02*
X183451000Y-67911600D01*
X182440000Y-67951600D02*
X183470000Y-67951600D01*
X182440000Y-67991600D02*
X183489000Y-67991600D01*
X182440000Y-68031600D02*
X183507000Y-68031600D01*
X182440000Y-68071600D02*
X183524000Y-68071600D01*
X182440000Y-68111600D02*
X183540000Y-68111600D01*
X182440000Y-68151600D02*
X183554000Y-68151600D01*
X182440000Y-68192600D02*
X183568000Y-68192600D01*
X182440000Y-68232600D02*
X183582000Y-68232600D01*
X182440000Y-68272600D02*
X183594000Y-68272600D01*
X182440000Y-68312600D02*
X183605000Y-68312600D01*
X182440000Y-68352600D02*
X183616000Y-68352600D01*
X182440000Y-68392600D02*
X183625000Y-68392600D01*
X182440000Y-68432600D02*
X183634000Y-68432600D01*
X182440000Y-68472600D02*
X183642000Y-68472600D01*
X182440000Y-68512600D02*
X183650000Y-68512600D01*
X182440000Y-68552600D02*
X183656000Y-68552600D01*
X182440000Y-68592600D02*
X183662000Y-68592600D01*
X182440000Y-68632600D02*
X183667000Y-68632600D01*
X182440000Y-68672600D02*
X183671000Y-68672600D01*
X182440000Y-68712600D02*
X183674000Y-68712600D01*
X182440000Y-68752600D02*
X183677000Y-68752600D01*
X182440000Y-68792600D02*
X183679000Y-68792600D01*
X182440000Y-68832600D02*
X183680000Y-68832600D01*
X182440000Y-68872600D02*
X183680000Y-68872600D01*
X183720000Y-68872600D02*
G75*
G02*
X179480000Y-68872600I-2120000J0D01*
G01*
X179480000Y-68872600D02*
G75*
G02*
X183720000Y-68872600I2120000J0D01*
G01*
%TO.C,C6*%
X154585605Y-90702500D02*
X155108109Y-90702500D01*
X154585605Y-92172500D02*
X155108109Y-92172500D01*
%TO.C,U2*%
X138933400Y-75925000D02*
X138933400Y-76875000D01*
X138933400Y-86145000D02*
X138933400Y-85195000D01*
X139883400Y-75925000D02*
X138933400Y-75925000D01*
X139883400Y-86145000D02*
X138933400Y-86145000D01*
X148203400Y-75925000D02*
X149153400Y-75925000D01*
X148203400Y-86145000D02*
X149153400Y-86145000D01*
X149153400Y-75925000D02*
X149153400Y-76875000D01*
X149153400Y-86145000D02*
X149153400Y-85195000D01*
X138318400Y-76875000D02*
X137978400Y-76405000D01*
X138658400Y-76405000D01*
X138318400Y-76875000D01*
G36*
X138318400Y-76875000D02*
G01*
X137978400Y-76405000D01*
X138658400Y-76405000D01*
X138318400Y-76875000D01*
G37*
%TO.C,C7*%
X150014000Y-88780252D02*
X150014000Y-88257748D01*
X151484000Y-88780252D02*
X151484000Y-88257748D01*
%TO.C,C25*%
X112204748Y-86895000D02*
X112727252Y-86895000D01*
X112204748Y-88365000D02*
X112727252Y-88365000D01*
%TO.C,C18*%
X105127000Y-83304748D02*
X105127000Y-83827252D01*
X106597000Y-83304748D02*
X106597000Y-83827252D01*
%TO.C,C21*%
X122368000Y-82476748D02*
X122368000Y-82999252D01*
X123838000Y-82476748D02*
X123838000Y-82999252D01*
%TO.C,J3*%
X138858000Y-96460000D02*
X138858000Y-99120000D01*
X146538000Y-96460000D02*
X138858000Y-96460000D01*
X146538000Y-96460000D02*
X146538000Y-99120000D01*
X146538000Y-99120000D02*
X138858000Y-99120000D01*
X147808000Y-96460000D02*
X149138000Y-96460000D01*
X149138000Y-96460000D02*
X149138000Y-97790000D01*
%TO.C,C22*%
X120169000Y-82481748D02*
X120169000Y-83004252D01*
X121639000Y-82481748D02*
X121639000Y-83004252D01*
%TO.C,C23*%
X117669000Y-82481748D02*
X117669000Y-83004252D01*
X119139000Y-82481748D02*
X119139000Y-83004252D01*
%TO.C,C19*%
X104091252Y-76227000D02*
X103568748Y-76227000D01*
X104091252Y-77697000D02*
X103568748Y-77697000D01*
%TO.C,FB3*%
X121015378Y-88262500D02*
X121814622Y-88262500D01*
X121015378Y-89382500D02*
X121814622Y-89382500D01*
%TO.C,C16*%
X132265000Y-77861252D02*
X132265000Y-77338748D01*
X133735000Y-77861252D02*
X133735000Y-77338748D01*
%TO.C,D1*%
X180440000Y-88177500D02*
X180440000Y-90862500D01*
X182360000Y-88177500D02*
X180440000Y-88177500D01*
X182360000Y-90862500D02*
X182360000Y-88177500D01*
D13*
%TO.C,IC2*%
X171159000Y-67045000D02*
X174359000Y-67045000D01*
X171159000Y-71945000D02*
X171159000Y-67045000D01*
X174359000Y-67045000D02*
X174359000Y-71945000D01*
X174359000Y-71945000D02*
X171159000Y-71945000D01*
X176234000Y-72100000D02*
X174709000Y-72100000D01*
D12*
%TO.C,C26*%
X177265000Y-68961252D02*
X177265000Y-68438748D01*
X178735000Y-68961252D02*
X178735000Y-68438748D01*
%TO.C,FB4*%
X151619857Y-92883622D02*
X151619857Y-92084378D01*
X152739857Y-92883622D02*
X152739857Y-92084378D01*
%TO.C,FB2*%
X121560378Y-79450000D02*
X122359622Y-79450000D01*
X121560378Y-80570000D02*
X122359622Y-80570000D01*
%TO.C,C27*%
X167065000Y-67938748D02*
X167065000Y-68461252D01*
X168535000Y-67938748D02*
X168535000Y-68461252D01*
%TO.C,C10*%
X135259800Y-76508651D02*
X135259800Y-75986147D01*
X136729800Y-76508651D02*
X136729800Y-75986147D01*
%TO.C,U1*%
X167710000Y-85875000D02*
X167710000Y-89635000D01*
X167710000Y-89635000D02*
X168970000Y-89635000D01*
X174530000Y-85875000D02*
X174530000Y-89635000D01*
X174530000Y-89635000D02*
X173270000Y-89635000D01*
X174760000Y-84835000D02*
X174430000Y-84595000D01*
X174760000Y-84355000D01*
X174760000Y-84835000D01*
G36*
X174760000Y-84835000D02*
G01*
X174430000Y-84595000D01*
X174760000Y-84355000D01*
X174760000Y-84835000D01*
G37*
%TO.C,C5*%
X118010000Y-67190252D02*
X118010000Y-66667748D01*
X119480000Y-67190252D02*
X119480000Y-66667748D01*
%TO.C,C15*%
X132107000Y-87622748D02*
X132107000Y-88145252D01*
X133577000Y-87622748D02*
X133577000Y-88145252D01*
%TO.C,C1*%
X170938748Y-81365000D02*
X171461252Y-81365000D01*
X170938748Y-82835000D02*
X171461252Y-82835000D01*
%TO.C,C30*%
X121820000Y-91380748D02*
X121820000Y-91903252D01*
X123290000Y-91380748D02*
X123290000Y-91903252D01*
%TO.C,C17*%
X132265000Y-81038748D02*
X132265000Y-81561252D01*
X133735000Y-81038748D02*
X133735000Y-81561252D01*
%TO.C,C4*%
X110511252Y-67972000D02*
X109988748Y-67972000D01*
X110511252Y-69442000D02*
X109988748Y-69442000D01*
%TO.C,J1*%
X151939000Y-96714000D02*
X151939000Y-99374000D01*
X159619000Y-96714000D02*
X151939000Y-96714000D01*
X159619000Y-96714000D02*
X159619000Y-99374000D01*
X159619000Y-99374000D02*
X151939000Y-99374000D01*
X160889000Y-96714000D02*
X162219000Y-96714000D01*
X162219000Y-96714000D02*
X162219000Y-98044000D01*
D13*
%TO.C,IC1*%
X113686000Y-69100000D02*
X115086000Y-69100000D01*
X115436000Y-69100000D02*
X117736000Y-69100000D01*
X115436000Y-72100000D02*
X115436000Y-69100000D01*
X117736000Y-69100000D02*
X117736000Y-72100000D01*
X117736000Y-72100000D02*
X115436000Y-72100000D01*
D12*
%TO.C,FB1*%
X140150378Y-66490000D02*
X140949622Y-66490000D01*
X140150378Y-67610000D02*
X140949622Y-67610000D01*
%TO.C,C13*%
X140188748Y-68415000D02*
X140711252Y-68415000D01*
X140188748Y-69885000D02*
X140711252Y-69885000D01*
%TO.C,C3*%
X110511252Y-65622000D02*
X109988748Y-65622000D01*
X110511252Y-67092000D02*
X109988748Y-67092000D01*
%TO.C,C8*%
X151559800Y-76573748D02*
X151559800Y-77096252D01*
X153029800Y-76573748D02*
X153029800Y-77096252D01*
%TO.C,C24*%
X162220000Y-69110000D02*
X163460000Y-69110000D01*
X162220000Y-69150000D02*
X163460000Y-69150000D01*
X162221000Y-69070000D02*
X163460000Y-69070000D01*
X162223000Y-69030000D02*
X163460000Y-69030000D01*
X162226000Y-68990000D02*
X163460000Y-68990000D01*
X162229000Y-68950000D02*
X163460000Y-68950000D01*
X162233000Y-68910000D02*
X163460000Y-68910000D01*
X162238000Y-68870000D02*
X163460000Y-68870000D01*
X162244000Y-68830000D02*
X163460000Y-68830000D01*
X162250000Y-68790000D02*
X163460000Y-68790000D01*
X162258000Y-68750000D02*
X163460000Y-68750000D01*
X162266000Y-68710000D02*
X163460000Y-68710000D01*
X162275000Y-68670000D02*
X163460000Y-68670000D01*
X162284000Y-68630000D02*
X163460000Y-68630000D01*
X162295000Y-68590000D02*
X163460000Y-68590000D01*
X162306000Y-68550000D02*
X163460000Y-68550000D01*
X162318000Y-68510000D02*
X163460000Y-68510000D01*
X162332000Y-68470000D02*
X163460000Y-68470000D01*
X162346000Y-68429000D02*
X163460000Y-68429000D01*
X162360000Y-68389000D02*
X163460000Y-68389000D01*
X162376000Y-68349000D02*
X163460000Y-68349000D01*
X162393000Y-68309000D02*
X163460000Y-68309000D01*
X162411000Y-68269000D02*
X163460000Y-68269000D01*
X162430000Y-68229000D02*
X163460000Y-68229000D01*
X162449000Y-68189000D02*
X163460000Y-68189000D01*
X162470000Y-68149000D02*
X163460000Y-68149000D01*
X162492000Y-68109000D02*
X163460000Y-68109000D01*
X162515000Y-68069000D02*
X163460000Y-68069000D01*
X162540000Y-68029000D02*
X163460000Y-68029000D01*
X162565000Y-67989000D02*
X163460000Y-67989000D01*
X162592000Y-67949000D02*
X163460000Y-67949000D01*
X162620000Y-67909000D02*
X163460000Y-67909000D01*
X162650000Y-67869000D02*
X163460000Y-67869000D01*
X162681000Y-67829000D02*
X163460000Y-67829000D01*
X162713000Y-67789000D02*
X163460000Y-67789000D01*
X162748000Y-67749000D02*
X163460000Y-67749000D01*
X162784000Y-67709000D02*
X163460000Y-67709000D01*
X162822000Y-67669000D02*
X163460000Y-67669000D01*
X162862000Y-67629000D02*
X163460000Y-67629000D01*
X162904000Y-67589000D02*
X163460000Y-67589000D01*
X162905000Y-71219801D02*
X163305000Y-71219801D01*
X162949000Y-67549000D02*
X165651000Y-67549000D01*
X162996000Y-67509000D02*
X165604000Y-67509000D01*
X163046000Y-67469000D02*
X165554000Y-67469000D01*
X163100000Y-67429000D02*
X165500000Y-67429000D01*
X163105000Y-71419801D02*
X163105000Y-71019801D01*
X163158000Y-67389000D02*
X165442000Y-67389000D01*
X163220000Y-67349000D02*
X165380000Y-67349000D01*
X163287000Y-67309000D02*
X165313000Y-67309000D01*
X163360000Y-67269000D02*
X165240000Y-67269000D01*
X163441000Y-67229000D02*
X165159000Y-67229000D01*
X163532000Y-67189000D02*
X165068000Y-67189000D01*
X163636000Y-67149000D02*
X164964000Y-67149000D01*
X163763000Y-67109000D02*
X164837000Y-67109000D01*
X163930000Y-67069000D02*
X164670000Y-67069000D01*
X165140000Y-67589000D02*
X165696000Y-67589000D01*
X165140000Y-67629000D02*
X165738000Y-67629000D01*
X165140000Y-67669000D02*
X165778000Y-67669000D01*
X165140000Y-67709000D02*
X165816000Y-67709000D01*
X165140000Y-67749000D02*
X165852000Y-67749000D01*
X165140000Y-67789000D02*
X165887000Y-67789000D01*
X165140000Y-67829000D02*
X165919000Y-67829000D01*
X165140000Y-67869000D02*
X165950000Y-67869000D01*
X165140000Y-67909000D02*
X165980000Y-67909000D01*
X165140000Y-67949000D02*
X166008000Y-67949000D01*
X165140000Y-67989000D02*
X166035000Y-67989000D01*
X165140000Y-68029000D02*
X166060000Y-68029000D01*
X165140000Y-68069000D02*
X166085000Y-68069000D01*
X165140000Y-68109000D02*
X166108000Y-68109000D01*
X165140000Y-68149000D02*
X166130000Y-68149000D01*
X165140000Y-68189000D02*
X166151000Y-68189000D01*
X165140000Y-68229000D02*
X166170000Y-68229000D01*
X165140000Y-68269000D02*
X166189000Y-68269000D01*
X165140000Y-68309000D02*
X166207000Y-68309000D01*
X165140000Y-68349000D02*
X166224000Y-68349000D01*
X165140000Y-68389000D02*
X166240000Y-68389000D01*
X165140000Y-68429000D02*
X166254000Y-68429000D01*
X165140000Y-68470000D02*
X166268000Y-68470000D01*
X165140000Y-68510000D02*
X166282000Y-68510000D01*
X165140000Y-68550000D02*
X166294000Y-68550000D01*
X165140000Y-68590000D02*
X166305000Y-68590000D01*
X165140000Y-68630000D02*
X166316000Y-68630000D01*
X165140000Y-68670000D02*
X166325000Y-68670000D01*
X165140000Y-68710000D02*
X166334000Y-68710000D01*
X165140000Y-68750000D02*
X166342000Y-68750000D01*
X165140000Y-68790000D02*
X166350000Y-68790000D01*
X165140000Y-68830000D02*
X166356000Y-68830000D01*
X165140000Y-68870000D02*
X166362000Y-68870000D01*
X165140000Y-68910000D02*
X166367000Y-68910000D01*
X165140000Y-68950000D02*
X166371000Y-68950000D01*
X165140000Y-68990000D02*
X166374000Y-68990000D01*
X165140000Y-69030000D02*
X166377000Y-69030000D01*
X165140000Y-69070000D02*
X166379000Y-69070000D01*
X165140000Y-69110000D02*
X166380000Y-69110000D01*
X165140000Y-69150000D02*
X166380000Y-69150000D01*
X166420000Y-69150000D02*
G75*
G02*
X162180000Y-69150000I-2120000J0D01*
G01*
X162180000Y-69150000D02*
G75*
G02*
X166420000Y-69150000I2120000J0D01*
G01*
D13*
%TO.C,IC4*%
X109164000Y-81250000D02*
X112364000Y-81250000D01*
X109164000Y-86150000D02*
X109164000Y-81250000D01*
X112364000Y-81250000D02*
X112364000Y-86150000D01*
X112364000Y-86150000D02*
X109164000Y-86150000D01*
X114239000Y-86305000D02*
X112714000Y-86305000D01*
D12*
%TO.C,C14*%
X142815000Y-67988748D02*
X142815000Y-68511252D01*
X144285000Y-67988748D02*
X144285000Y-68511252D01*
%TD*%
M02*
