M48
; DRILL file {KiCad 8.0.0} date 2024-09-22T18:34:50+0200
; FORMAT={-:-/ absolute / metric / decimal}
; #@! TF.CreationDate,2024-09-22T18:34:50+02:00
; #@! TF.GenerationSoftware,Kicad,Pcbnew,8.0.0
; #@! TF.FileFunction,MixedPlating,1,2
FMAT,2
METRIC
; #@! TA.AperFunction,Plated,PTH,ViaDrill
T1C0.300
; #@! TA.AperFunction,Plated,PTH,ComponentDrill
T2C0.550
; #@! TA.AperFunction,Plated,PTH,ComponentDrill
T3C0.600
; #@! TA.AperFunction,Plated,PTH,ComponentDrill
T4C0.800
; #@! TA.AperFunction,Plated,PTH,ComponentDrill
T5C0.850
; #@! TA.AperFunction,Plated,PTH,ComponentDrill
T6C1.000
; #@! TA.AperFunction,NonPlated,NPTH,ComponentDrill
T7C0.800
; #@! TA.AperFunction,NonPlated,NPTH,ComponentDrill
T8C2.000
%
G90
G05
T1
X98.552Y-71.628
X98.552Y-73.406
X98.552Y-75.438
X98.552Y-77.47
X98.552Y-79.502
X99.06Y-69.596
X99.314Y-80.772
X99.314Y-82.55
X99.314Y-84.074
X99.314Y-86.106
X99.314Y-88.138
X99.314Y-90.424
X99.822Y-92.964
X100.838Y-68.58
X101.6Y-94.742
X102.362Y-85.598
X102.362Y-88.646
X102.87Y-68.58
X103.364Y-75.05
X103.632Y-91.186
X104.14Y-96.52
X104.902Y-68.072
X105.664Y-66.294
X106.172Y-64.262
X106.426Y-97.536
X107.696Y-62.992
X109.664Y-81.788
X109.7Y-64.1
X109.728Y-62.738
X109.728Y-97.536
X111.76Y-62.738
X112.1Y-70.9
X112.268Y-97.536
X113.538Y-62.738
X114.554Y-97.536
X114.9Y-66.5
X114.935Y-83.058
X115.57Y-62.738
X116.459Y-92.329
X117.094Y-62.738
X117.348Y-97.536
X118.412Y-85.005
X118.872Y-62.738
X120.142Y-97.536
X120.396Y-62.738
X120.777Y-65.659
X121.412Y-63.246
X122.682Y-97.536
X122.936Y-64.516
X123.698Y-65.024
X123.952Y-69.85
X123.952Y-86.614
X123.952Y-87.884
X123.952Y-96.52
X124.206Y-75.692
X124.206Y-77.47
X124.206Y-79.248
X124.714Y-65.532
X124.9Y-88.9
X125.476Y-92.71
X127.0Y-69.85
X127.0Y-91.948
X128.8Y-72.6
X129.032Y-91.948
X130.302Y-73.152
X130.81Y-69.85
X131.064Y-91.694
X131.572Y-72.898
X132.891Y-90.227
X132.993Y-75.265
X133.005Y-83.512
X133.3Y-70.2
X133.3Y-72.2
X133.604Y-91.694
X135.128Y-90.678
X135.382Y-87.376
X135.382Y-89.154
X135.636Y-84.328
X135.636Y-85.598
X136.144Y-83.312
X136.398Y-69.85
X136.652Y-82.55
X138.0Y-71.1
X139.954Y-83.058
X141.7Y-79.2
X142.0Y-77.2
X142.0Y-84.2
X143.1Y-77.2
X143.4Y-84.8
X143.51Y-94.488
X143.764Y-73.66
X144.4Y-81.5
X144.526Y-93.726
X145.161Y-71.12
X145.2Y-82.15
X145.288Y-73.787
X146.177Y-67.31
X146.3Y-85.4
X146.304Y-77.724
X146.812Y-93.726
X148.082Y-92.456
X148.3Y-77.6
X149.606Y-67.31
X149.86Y-92.456
X150.749Y-86.233
X152.908Y-70.231
X154.3Y-68.6
X155.956Y-67.818
X156.2Y-63.6
X156.4Y-75.8
X157.1Y-93.5
X159.9Y-89.45
X166.05Y-94.35
X166.7Y-74.6
X166.7Y-80.3
X172.8Y-65.9
X172.9Y-86.2
X173.5Y-81.6
X173.5Y-82.5
X173.9Y-86.2
X175.65Y-77.3
X179.85Y-85.15
T3
X164.3Y-68.4
X164.3Y-69.9
X181.6Y-68.123
X181.6Y-69.623
T4
X128.9Y-79.4
X128.9Y-84.28
X129.02Y-59.7
X131.56Y-59.7
X134.1Y-59.7
T6
X127.264Y-97.79
X129.804Y-97.79
X132.344Y-97.79
X134.884Y-97.79
X139.4Y-59.7
X140.188Y-97.79
X141.94Y-59.7
X142.728Y-97.79
X144.48Y-59.7
X145.268Y-97.79
X147.02Y-59.7
X147.808Y-97.79
X149.56Y-59.7
X152.1Y-59.7
X153.269Y-98.044
X155.809Y-98.044
X158.349Y-98.044
X160.889Y-98.044
T7
X179.82Y-76.1
X179.82Y-81.1
T8
X100.0Y-60.0
X100.0Y-97.5
X184.0Y-60.0
X184.0Y-97.5
T2
G00X182.245Y-74.725
M15
G01X182.895Y-74.725
M16
G05
G00X182.245Y-82.475
M15
G01X182.895Y-82.475
M16
G05
T5
G00X178.495Y-74.875
M15
G01X179.045Y-74.875
M16
G05
G00X178.495Y-82.325
M15
G01X179.045Y-82.325
M16
G05
M30
