M48
; DRILL file {KiCad 8.0.0} date 2024-10-11T15:27:42+0200
; FORMAT={-:-/ absolute / metric / decimal}
; #@! TF.CreationDate,2024-10-11T15:27:42+02:00
; #@! TF.GenerationSoftware,Kicad,Pcbnew,8.0.0
; #@! TF.FileFunction,MixedPlating,1,2
FMAT,2
METRIC
; #@! TA.AperFunction,Plated,PTH,ViaDrill
T1C0.300
; #@! TA.AperFunction,Plated,PTH,ComponentDrill
T2C0.550
; #@! TA.AperFunction,Plated,PTH,ComponentDrill
T3C0.600
; #@! TA.AperFunction,Plated,PTH,ComponentDrill
T4C0.800
; #@! TA.AperFunction,Plated,PTH,ComponentDrill
T5C0.850
; #@! TA.AperFunction,Plated,PTH,ComponentDrill
T6C1.000
; #@! TA.AperFunction,NonPlated,NPTH,ComponentDrill
T7C0.800
; #@! TA.AperFunction,NonPlated,NPTH,ComponentDrill
T8C2.000
%
G90
G05
T1
X91.261Y-64.337
X91.261Y-66.115
X91.261Y-68.147
X91.261Y-70.179
X91.261Y-72.211
X91.3Y-74.948
X91.3Y-76.726
X91.3Y-78.25
X91.3Y-80.282
X91.3Y-82.314
X91.3Y-84.6
X91.769Y-62.305
X92.099Y-87.985
X93.547Y-61.289
X94.462Y-89.966
X94.55Y-77.15
X95.579Y-61.289
X95.8Y-81.5
X96.35Y-84.2
X96.35Y-92.4
X97.611Y-60.781
X97.941Y-93.446
X98.373Y-59.003
X98.678Y-86.588
X98.881Y-56.971
X99.1Y-67.562
X100.405Y-55.701
X100.888Y-88.772
X101.015Y-94.69
X102.409Y-56.809
X102.437Y-55.447
X103.509Y-83.209
X103.75Y-67.0
X104.317Y-94.69
X104.469Y-55.447
X104.495Y-85.876
X104.809Y-63.609
X105.559Y-70.109
X106.247Y-55.447
X106.501Y-88.264
X106.857Y-94.69
X107.609Y-59.209
X108.279Y-55.447
X109.143Y-94.69
X109.168Y-85.038
X109.803Y-55.447
X109.879Y-81.66
X111.581Y-55.447
X111.937Y-94.69
X112.423Y-77.572
X113.105Y-55.447
X113.486Y-58.368
X113.789Y-94.754
X114.121Y-55.955
X115.259Y-65.709
X115.645Y-57.225
X116.026Y-88.086
X116.289Y-94.754
X116.407Y-57.733
X116.659Y-83.109
X116.661Y-62.559
X116.759Y-84.559
X116.989Y-93.554
X117.423Y-58.241
X117.859Y-80.359
X117.909Y-85.059
X118.059Y-67.603
X118.059Y-69.381
X118.059Y-71.159
X118.759Y-81.959
X119.709Y-62.559
X121.509Y-65.309
X122.325Y-83.692
X122.783Y-88.01
X123.011Y-65.861
X123.519Y-62.559
X123.909Y-81.509
X124.281Y-65.607
X124.738Y-90.855
X124.758Y-84.119
X125.702Y-67.974
X125.714Y-76.221
X126.009Y-62.909
X126.009Y-64.909
X126.669Y-85.546
X126.758Y-84.369
X128.091Y-80.085
X128.091Y-81.863
X128.345Y-77.037
X128.345Y-78.307
X128.853Y-76.021
X129.107Y-62.559
X129.107Y-82.041
X129.158Y-83.819
X129.361Y-75.259
X130.709Y-63.809
X132.663Y-75.767
X134.409Y-71.909
X134.709Y-69.909
X134.709Y-76.909
X135.809Y-69.909
X136.109Y-77.509
X136.473Y-66.369
X137.109Y-74.209
X137.109Y-87.559
X137.87Y-63.829
X137.909Y-74.859
X137.997Y-66.496
X138.886Y-60.019
X139.009Y-78.109
X139.013Y-70.433
X139.623Y-85.521
X139.801Y-88.467
X140.105Y-91.718
X140.766Y-89.864
X141.009Y-70.309
X142.137Y-84.581
X142.315Y-60.019
X143.458Y-78.942
X143.534Y-84.098
X145.617Y-62.94
X147.009Y-61.309
X148.665Y-60.527
X148.909Y-56.309
X149.109Y-68.509
X149.809Y-86.209
X153.745Y-82.159
X158.759Y-87.059
X159.409Y-67.309
X159.409Y-73.009
X162.788Y-69.366
X165.509Y-58.609
X165.609Y-78.909
X166.209Y-74.309
X166.209Y-75.209
X166.609Y-78.909
X168.359Y-70.009
X172.559Y-77.859
T3
X157.009Y-61.109
X157.009Y-62.609
X174.309Y-60.832
X174.309Y-62.332
T4
X121.609Y-72.109
X121.609Y-76.989
X121.729Y-52.409
X124.269Y-52.409
X126.809Y-52.409
T6
X120.022Y-100.671
X120.024Y-104.331
X120.025Y-108.0
X122.56Y-96.975
X122.562Y-100.671
X122.564Y-104.331
X122.565Y-108.0
X125.1Y-96.975
X125.102Y-100.671
X125.104Y-104.331
X125.105Y-108.0
X127.64Y-96.975
X127.642Y-100.671
X127.644Y-104.331
X127.645Y-108.0
X129.605Y-89.138
X130.182Y-100.671
X130.184Y-104.331
X130.185Y-108.0
X132.109Y-52.409
X132.145Y-89.138
X132.722Y-100.671
X132.724Y-104.331
X132.725Y-108.0
X134.649Y-52.409
X134.685Y-89.138
X135.262Y-100.671
X135.264Y-104.331
X135.265Y-108.0
X137.189Y-52.409
X137.802Y-100.671
X137.804Y-104.331
X137.805Y-108.0
X139.729Y-52.409
X140.342Y-100.671
X140.344Y-104.331
X140.345Y-108.0
X142.269Y-52.409
X142.882Y-100.671
X142.884Y-104.331
X142.885Y-108.0
X144.809Y-52.409
X156.529Y-93.039
X159.069Y-93.039
X161.609Y-93.039
X164.149Y-93.039
T7
X172.529Y-68.809
X172.529Y-73.809
T8
X93.0Y-108.0
X93.2Y-53.1
X177.0Y-53.0
X177.0Y-108.0
T2
G00X174.954Y-67.434
M15
G01X175.604Y-67.434
M16
G05
G00X174.954Y-75.184
M15
G01X175.604Y-75.184
M16
G05
T5
G00X171.204Y-67.584
M15
G01X171.754Y-67.584
M16
G05
G00X171.204Y-75.034
M15
G01X171.754Y-75.034
M16
G05
M30
