%TF.GenerationSoftware,KiCad,Pcbnew,8.0.0*%
%TF.CreationDate,2024-10-11T15:27:58+02:00*%
%TF.ProjectId,imp_measure,696d705f-6d65-4617-9375-72652e6b6963,rev?*%
%TF.SameCoordinates,Original*%
%TF.FileFunction,Legend,Top*%
%TF.FilePolarity,Positive*%
%FSLAX46Y46*%
G04 Gerber Fmt 4.6, Leading zero omitted, Abs format (unit mm)*
G04 Created by KiCad (PCBNEW 8.0.0) date 2024-10-11 15:27:58*
%MOMM*%
%LPD*%
G01*
G04 APERTURE LIST*
%ADD10C,0.150000*%
%ADD11C,0.254000*%
%ADD12C,0.120000*%
%ADD13C,0.200000*%
G04 APERTURE END LIST*
D10*
X119032997Y-67237816D02*
X119032997Y-67714007D01*
X118699664Y-66714007D02*
X119032997Y-67237816D01*
X119032997Y-67237816D02*
X119366330Y-66714007D01*
X120223473Y-67714007D02*
X119652045Y-67714007D01*
X119937759Y-67714007D02*
X119937759Y-66714007D01*
X119937759Y-66714007D02*
X119842521Y-66856864D01*
X119842521Y-66856864D02*
X119747283Y-66952102D01*
X119747283Y-66952102D02*
X119652045Y-66999721D01*
X145108807Y-104664333D02*
X145823092Y-104664333D01*
X145823092Y-104664333D02*
X145965949Y-104711952D01*
X145965949Y-104711952D02*
X146061188Y-104807190D01*
X146061188Y-104807190D02*
X146108807Y-104950047D01*
X146108807Y-104950047D02*
X146108807Y-105045285D01*
X145108807Y-103711952D02*
X145108807Y-104188142D01*
X145108807Y-104188142D02*
X145584997Y-104235761D01*
X145584997Y-104235761D02*
X145537378Y-104188142D01*
X145537378Y-104188142D02*
X145489759Y-104092904D01*
X145489759Y-104092904D02*
X145489759Y-103854809D01*
X145489759Y-103854809D02*
X145537378Y-103759571D01*
X145537378Y-103759571D02*
X145584997Y-103711952D01*
X145584997Y-103711952D02*
X145680235Y-103664333D01*
X145680235Y-103664333D02*
X145918330Y-103664333D01*
X145918330Y-103664333D02*
X146013568Y-103711952D01*
X146013568Y-103711952D02*
X146061188Y-103759571D01*
X146061188Y-103759571D02*
X146108807Y-103854809D01*
X146108807Y-103854809D02*
X146108807Y-104092904D01*
X146108807Y-104092904D02*
X146061188Y-104188142D01*
X146061188Y-104188142D02*
X146013568Y-104235761D01*
X105553768Y-68726545D02*
X105601388Y-68774164D01*
X105601388Y-68774164D02*
X105649007Y-68917021D01*
X105649007Y-68917021D02*
X105649007Y-69012259D01*
X105649007Y-69012259D02*
X105601388Y-69155116D01*
X105601388Y-69155116D02*
X105506149Y-69250354D01*
X105506149Y-69250354D02*
X105410911Y-69297973D01*
X105410911Y-69297973D02*
X105220435Y-69345592D01*
X105220435Y-69345592D02*
X105077578Y-69345592D01*
X105077578Y-69345592D02*
X104887102Y-69297973D01*
X104887102Y-69297973D02*
X104791864Y-69250354D01*
X104791864Y-69250354D02*
X104696626Y-69155116D01*
X104696626Y-69155116D02*
X104649007Y-69012259D01*
X104649007Y-69012259D02*
X104649007Y-68917021D01*
X104649007Y-68917021D02*
X104696626Y-68774164D01*
X104696626Y-68774164D02*
X104744245Y-68726545D01*
X104649007Y-68393211D02*
X104649007Y-67774164D01*
X104649007Y-67774164D02*
X105029959Y-68107497D01*
X105029959Y-68107497D02*
X105029959Y-67964640D01*
X105029959Y-67964640D02*
X105077578Y-67869402D01*
X105077578Y-67869402D02*
X105125197Y-67821783D01*
X105125197Y-67821783D02*
X105220435Y-67774164D01*
X105220435Y-67774164D02*
X105458530Y-67774164D01*
X105458530Y-67774164D02*
X105553768Y-67821783D01*
X105553768Y-67821783D02*
X105601388Y-67869402D01*
X105601388Y-67869402D02*
X105649007Y-67964640D01*
X105649007Y-67964640D02*
X105649007Y-68250354D01*
X105649007Y-68250354D02*
X105601388Y-68345592D01*
X105601388Y-68345592D02*
X105553768Y-68393211D01*
X104744245Y-67393211D02*
X104696626Y-67345592D01*
X104696626Y-67345592D02*
X104649007Y-67250354D01*
X104649007Y-67250354D02*
X104649007Y-67012259D01*
X104649007Y-67012259D02*
X104696626Y-66917021D01*
X104696626Y-66917021D02*
X104744245Y-66869402D01*
X104744245Y-66869402D02*
X104839483Y-66821783D01*
X104839483Y-66821783D02*
X104934721Y-66821783D01*
X104934721Y-66821783D02*
X105077578Y-66869402D01*
X105077578Y-66869402D02*
X105649007Y-67440830D01*
X105649007Y-67440830D02*
X105649007Y-66821783D01*
X168614007Y-68742521D02*
X169328292Y-68742521D01*
X169328292Y-68742521D02*
X169471149Y-68790140D01*
X169471149Y-68790140D02*
X169566388Y-68885378D01*
X169566388Y-68885378D02*
X169614007Y-69028235D01*
X169614007Y-69028235D02*
X169614007Y-69123473D01*
X168709245Y-68313949D02*
X168661626Y-68266330D01*
X168661626Y-68266330D02*
X168614007Y-68171092D01*
X168614007Y-68171092D02*
X168614007Y-67932997D01*
X168614007Y-67932997D02*
X168661626Y-67837759D01*
X168661626Y-67837759D02*
X168709245Y-67790140D01*
X168709245Y-67790140D02*
X168804483Y-67742521D01*
X168804483Y-67742521D02*
X168899721Y-67742521D01*
X168899721Y-67742521D02*
X169042578Y-67790140D01*
X169042578Y-67790140D02*
X169614007Y-68361568D01*
X169614007Y-68361568D02*
X169614007Y-67742521D01*
X96933333Y-64967319D02*
X96600000Y-64491128D01*
X96361905Y-64967319D02*
X96361905Y-63967319D01*
X96361905Y-63967319D02*
X96742857Y-63967319D01*
X96742857Y-63967319D02*
X96838095Y-64014938D01*
X96838095Y-64014938D02*
X96885714Y-64062557D01*
X96885714Y-64062557D02*
X96933333Y-64157795D01*
X96933333Y-64157795D02*
X96933333Y-64300652D01*
X96933333Y-64300652D02*
X96885714Y-64395890D01*
X96885714Y-64395890D02*
X96838095Y-64443509D01*
X96838095Y-64443509D02*
X96742857Y-64491128D01*
X96742857Y-64491128D02*
X96361905Y-64491128D01*
X97790476Y-64300652D02*
X97790476Y-64967319D01*
X97552381Y-63919700D02*
X97314286Y-64633985D01*
X97314286Y-64633985D02*
X97933333Y-64633985D01*
X117875855Y-55356388D02*
X118018712Y-55404007D01*
X118018712Y-55404007D02*
X118256807Y-55404007D01*
X118256807Y-55404007D02*
X118352045Y-55356388D01*
X118352045Y-55356388D02*
X118399664Y-55308768D01*
X118399664Y-55308768D02*
X118447283Y-55213530D01*
X118447283Y-55213530D02*
X118447283Y-55118292D01*
X118447283Y-55118292D02*
X118399664Y-55023054D01*
X118399664Y-55023054D02*
X118352045Y-54975435D01*
X118352045Y-54975435D02*
X118256807Y-54927816D01*
X118256807Y-54927816D02*
X118066331Y-54880197D01*
X118066331Y-54880197D02*
X117971093Y-54832578D01*
X117971093Y-54832578D02*
X117923474Y-54784959D01*
X117923474Y-54784959D02*
X117875855Y-54689721D01*
X117875855Y-54689721D02*
X117875855Y-54594483D01*
X117875855Y-54594483D02*
X117923474Y-54499245D01*
X117923474Y-54499245D02*
X117971093Y-54451626D01*
X117971093Y-54451626D02*
X118066331Y-54404007D01*
X118066331Y-54404007D02*
X118304426Y-54404007D01*
X118304426Y-54404007D02*
X118447283Y-54451626D01*
X118780617Y-54404007D02*
X119018712Y-55404007D01*
X119018712Y-55404007D02*
X119209188Y-54689721D01*
X119209188Y-54689721D02*
X119399664Y-55404007D01*
X119399664Y-55404007D02*
X119637760Y-54404007D01*
X120542521Y-55404007D02*
X119971093Y-55404007D01*
X120256807Y-55404007D02*
X120256807Y-54404007D01*
X120256807Y-54404007D02*
X120161569Y-54546864D01*
X120161569Y-54546864D02*
X120066331Y-54642102D01*
X120066331Y-54642102D02*
X119971093Y-54689721D01*
X156492521Y-85818768D02*
X156444902Y-85866388D01*
X156444902Y-85866388D02*
X156302045Y-85914007D01*
X156302045Y-85914007D02*
X156206807Y-85914007D01*
X156206807Y-85914007D02*
X156063950Y-85866388D01*
X156063950Y-85866388D02*
X155968712Y-85771149D01*
X155968712Y-85771149D02*
X155921093Y-85675911D01*
X155921093Y-85675911D02*
X155873474Y-85485435D01*
X155873474Y-85485435D02*
X155873474Y-85342578D01*
X155873474Y-85342578D02*
X155921093Y-85152102D01*
X155921093Y-85152102D02*
X155968712Y-85056864D01*
X155968712Y-85056864D02*
X156063950Y-84961626D01*
X156063950Y-84961626D02*
X156206807Y-84914007D01*
X156206807Y-84914007D02*
X156302045Y-84914007D01*
X156302045Y-84914007D02*
X156444902Y-84961626D01*
X156444902Y-84961626D02*
X156492521Y-85009245D01*
X156873474Y-85009245D02*
X156921093Y-84961626D01*
X156921093Y-84961626D02*
X157016331Y-84914007D01*
X157016331Y-84914007D02*
X157254426Y-84914007D01*
X157254426Y-84914007D02*
X157349664Y-84961626D01*
X157349664Y-84961626D02*
X157397283Y-85009245D01*
X157397283Y-85009245D02*
X157444902Y-85104483D01*
X157444902Y-85104483D02*
X157444902Y-85199721D01*
X157444902Y-85199721D02*
X157397283Y-85342578D01*
X157397283Y-85342578D02*
X156825855Y-85914007D01*
X156825855Y-85914007D02*
X157444902Y-85914007D01*
X93107142Y-70629580D02*
X93059523Y-70677200D01*
X93059523Y-70677200D02*
X92916666Y-70724819D01*
X92916666Y-70724819D02*
X92821428Y-70724819D01*
X92821428Y-70724819D02*
X92678571Y-70677200D01*
X92678571Y-70677200D02*
X92583333Y-70581961D01*
X92583333Y-70581961D02*
X92535714Y-70486723D01*
X92535714Y-70486723D02*
X92488095Y-70296247D01*
X92488095Y-70296247D02*
X92488095Y-70153390D01*
X92488095Y-70153390D02*
X92535714Y-69962914D01*
X92535714Y-69962914D02*
X92583333Y-69867676D01*
X92583333Y-69867676D02*
X92678571Y-69772438D01*
X92678571Y-69772438D02*
X92821428Y-69724819D01*
X92821428Y-69724819D02*
X92916666Y-69724819D01*
X92916666Y-69724819D02*
X93059523Y-69772438D01*
X93059523Y-69772438D02*
X93107142Y-69820057D01*
X93440476Y-69724819D02*
X94059523Y-69724819D01*
X94059523Y-69724819D02*
X93726190Y-70105771D01*
X93726190Y-70105771D02*
X93869047Y-70105771D01*
X93869047Y-70105771D02*
X93964285Y-70153390D01*
X93964285Y-70153390D02*
X94011904Y-70201009D01*
X94011904Y-70201009D02*
X94059523Y-70296247D01*
X94059523Y-70296247D02*
X94059523Y-70534342D01*
X94059523Y-70534342D02*
X94011904Y-70629580D01*
X94011904Y-70629580D02*
X93964285Y-70677200D01*
X93964285Y-70677200D02*
X93869047Y-70724819D01*
X93869047Y-70724819D02*
X93583333Y-70724819D01*
X93583333Y-70724819D02*
X93488095Y-70677200D01*
X93488095Y-70677200D02*
X93440476Y-70629580D01*
X94964285Y-69724819D02*
X94488095Y-69724819D01*
X94488095Y-69724819D02*
X94440476Y-70201009D01*
X94440476Y-70201009D02*
X94488095Y-70153390D01*
X94488095Y-70153390D02*
X94583333Y-70105771D01*
X94583333Y-70105771D02*
X94821428Y-70105771D01*
X94821428Y-70105771D02*
X94916666Y-70153390D01*
X94916666Y-70153390D02*
X94964285Y-70201009D01*
X94964285Y-70201009D02*
X95011904Y-70296247D01*
X95011904Y-70296247D02*
X95011904Y-70534342D01*
X95011904Y-70534342D02*
X94964285Y-70629580D01*
X94964285Y-70629580D02*
X94916666Y-70677200D01*
X94916666Y-70677200D02*
X94821428Y-70724819D01*
X94821428Y-70724819D02*
X94583333Y-70724819D01*
X94583333Y-70724819D02*
X94488095Y-70677200D01*
X94488095Y-70677200D02*
X94440476Y-70629580D01*
X96433333Y-70867319D02*
X96100000Y-70391128D01*
X95861905Y-70867319D02*
X95861905Y-69867319D01*
X95861905Y-69867319D02*
X96242857Y-69867319D01*
X96242857Y-69867319D02*
X96338095Y-69914938D01*
X96338095Y-69914938D02*
X96385714Y-69962557D01*
X96385714Y-69962557D02*
X96433333Y-70057795D01*
X96433333Y-70057795D02*
X96433333Y-70200652D01*
X96433333Y-70200652D02*
X96385714Y-70295890D01*
X96385714Y-70295890D02*
X96338095Y-70343509D01*
X96338095Y-70343509D02*
X96242857Y-70391128D01*
X96242857Y-70391128D02*
X95861905Y-70391128D01*
X96766667Y-69867319D02*
X97433333Y-69867319D01*
X97433333Y-69867319D02*
X97004762Y-70867319D01*
X146913187Y-88219768D02*
X146865568Y-88267388D01*
X146865568Y-88267388D02*
X146722711Y-88315007D01*
X146722711Y-88315007D02*
X146627473Y-88315007D01*
X146627473Y-88315007D02*
X146484616Y-88267388D01*
X146484616Y-88267388D02*
X146389378Y-88172149D01*
X146389378Y-88172149D02*
X146341759Y-88076911D01*
X146341759Y-88076911D02*
X146294140Y-87886435D01*
X146294140Y-87886435D02*
X146294140Y-87743578D01*
X146294140Y-87743578D02*
X146341759Y-87553102D01*
X146341759Y-87553102D02*
X146389378Y-87457864D01*
X146389378Y-87457864D02*
X146484616Y-87362626D01*
X146484616Y-87362626D02*
X146627473Y-87315007D01*
X146627473Y-87315007D02*
X146722711Y-87315007D01*
X146722711Y-87315007D02*
X146865568Y-87362626D01*
X146865568Y-87362626D02*
X146913187Y-87410245D01*
X147294140Y-87410245D02*
X147341759Y-87362626D01*
X147341759Y-87362626D02*
X147436997Y-87315007D01*
X147436997Y-87315007D02*
X147675092Y-87315007D01*
X147675092Y-87315007D02*
X147770330Y-87362626D01*
X147770330Y-87362626D02*
X147817949Y-87410245D01*
X147817949Y-87410245D02*
X147865568Y-87505483D01*
X147865568Y-87505483D02*
X147865568Y-87600721D01*
X147865568Y-87600721D02*
X147817949Y-87743578D01*
X147817949Y-87743578D02*
X147246521Y-88315007D01*
X147246521Y-88315007D02*
X147865568Y-88315007D01*
X148436997Y-87743578D02*
X148341759Y-87695959D01*
X148341759Y-87695959D02*
X148294140Y-87648340D01*
X148294140Y-87648340D02*
X148246521Y-87553102D01*
X148246521Y-87553102D02*
X148246521Y-87505483D01*
X148246521Y-87505483D02*
X148294140Y-87410245D01*
X148294140Y-87410245D02*
X148341759Y-87362626D01*
X148341759Y-87362626D02*
X148436997Y-87315007D01*
X148436997Y-87315007D02*
X148627473Y-87315007D01*
X148627473Y-87315007D02*
X148722711Y-87362626D01*
X148722711Y-87362626D02*
X148770330Y-87410245D01*
X148770330Y-87410245D02*
X148817949Y-87505483D01*
X148817949Y-87505483D02*
X148817949Y-87553102D01*
X148817949Y-87553102D02*
X148770330Y-87648340D01*
X148770330Y-87648340D02*
X148722711Y-87695959D01*
X148722711Y-87695959D02*
X148627473Y-87743578D01*
X148627473Y-87743578D02*
X148436997Y-87743578D01*
X148436997Y-87743578D02*
X148341759Y-87791197D01*
X148341759Y-87791197D02*
X148294140Y-87838816D01*
X148294140Y-87838816D02*
X148246521Y-87934054D01*
X148246521Y-87934054D02*
X148246521Y-88124530D01*
X148246521Y-88124530D02*
X148294140Y-88219768D01*
X148294140Y-88219768D02*
X148341759Y-88267388D01*
X148341759Y-88267388D02*
X148436997Y-88315007D01*
X148436997Y-88315007D02*
X148627473Y-88315007D01*
X148627473Y-88315007D02*
X148722711Y-88267388D01*
X148722711Y-88267388D02*
X148770330Y-88219768D01*
X148770330Y-88219768D02*
X148817949Y-88124530D01*
X148817949Y-88124530D02*
X148817949Y-87934054D01*
X148817949Y-87934054D02*
X148770330Y-87838816D01*
X148770330Y-87838816D02*
X148722711Y-87791197D01*
X148722711Y-87791197D02*
X148627473Y-87743578D01*
X139661130Y-84196167D02*
X139613511Y-84243787D01*
X139613511Y-84243787D02*
X139470654Y-84291406D01*
X139470654Y-84291406D02*
X139375416Y-84291406D01*
X139375416Y-84291406D02*
X139232559Y-84243787D01*
X139232559Y-84243787D02*
X139137321Y-84148548D01*
X139137321Y-84148548D02*
X139089702Y-84053310D01*
X139089702Y-84053310D02*
X139042083Y-83862834D01*
X139042083Y-83862834D02*
X139042083Y-83719977D01*
X139042083Y-83719977D02*
X139089702Y-83529501D01*
X139089702Y-83529501D02*
X139137321Y-83434263D01*
X139137321Y-83434263D02*
X139232559Y-83339025D01*
X139232559Y-83339025D02*
X139375416Y-83291406D01*
X139375416Y-83291406D02*
X139470654Y-83291406D01*
X139470654Y-83291406D02*
X139613511Y-83339025D01*
X139613511Y-83339025D02*
X139661130Y-83386644D01*
X140613511Y-84291406D02*
X140042083Y-84291406D01*
X140327797Y-84291406D02*
X140327797Y-83291406D01*
X140327797Y-83291406D02*
X140232559Y-83434263D01*
X140232559Y-83434263D02*
X140137321Y-83529501D01*
X140137321Y-83529501D02*
X140042083Y-83577120D01*
X141565892Y-84291406D02*
X140994464Y-84291406D01*
X141280178Y-84291406D02*
X141280178Y-83291406D01*
X141280178Y-83291406D02*
X141184940Y-83434263D01*
X141184940Y-83434263D02*
X141089702Y-83529501D01*
X141089702Y-83529501D02*
X140994464Y-83577120D01*
X134442521Y-83848768D02*
X134394902Y-83896388D01*
X134394902Y-83896388D02*
X134252045Y-83944007D01*
X134252045Y-83944007D02*
X134156807Y-83944007D01*
X134156807Y-83944007D02*
X134013950Y-83896388D01*
X134013950Y-83896388D02*
X133918712Y-83801149D01*
X133918712Y-83801149D02*
X133871093Y-83705911D01*
X133871093Y-83705911D02*
X133823474Y-83515435D01*
X133823474Y-83515435D02*
X133823474Y-83372578D01*
X133823474Y-83372578D02*
X133871093Y-83182102D01*
X133871093Y-83182102D02*
X133918712Y-83086864D01*
X133918712Y-83086864D02*
X134013950Y-82991626D01*
X134013950Y-82991626D02*
X134156807Y-82944007D01*
X134156807Y-82944007D02*
X134252045Y-82944007D01*
X134252045Y-82944007D02*
X134394902Y-82991626D01*
X134394902Y-82991626D02*
X134442521Y-83039245D01*
X134918712Y-83944007D02*
X135109188Y-83944007D01*
X135109188Y-83944007D02*
X135204426Y-83896388D01*
X135204426Y-83896388D02*
X135252045Y-83848768D01*
X135252045Y-83848768D02*
X135347283Y-83705911D01*
X135347283Y-83705911D02*
X135394902Y-83515435D01*
X135394902Y-83515435D02*
X135394902Y-83134483D01*
X135394902Y-83134483D02*
X135347283Y-83039245D01*
X135347283Y-83039245D02*
X135299664Y-82991626D01*
X135299664Y-82991626D02*
X135204426Y-82944007D01*
X135204426Y-82944007D02*
X135013950Y-82944007D01*
X135013950Y-82944007D02*
X134918712Y-82991626D01*
X134918712Y-82991626D02*
X134871093Y-83039245D01*
X134871093Y-83039245D02*
X134823474Y-83134483D01*
X134823474Y-83134483D02*
X134823474Y-83372578D01*
X134823474Y-83372578D02*
X134871093Y-83467816D01*
X134871093Y-83467816D02*
X134918712Y-83515435D01*
X134918712Y-83515435D02*
X135013950Y-83563054D01*
X135013950Y-83563054D02*
X135204426Y-83563054D01*
X135204426Y-83563054D02*
X135299664Y-83515435D01*
X135299664Y-83515435D02*
X135347283Y-83467816D01*
X135347283Y-83467816D02*
X135394902Y-83372578D01*
X105516330Y-82464007D02*
X105182997Y-81987816D01*
X104944902Y-82464007D02*
X104944902Y-81464007D01*
X104944902Y-81464007D02*
X105325854Y-81464007D01*
X105325854Y-81464007D02*
X105421092Y-81511626D01*
X105421092Y-81511626D02*
X105468711Y-81559245D01*
X105468711Y-81559245D02*
X105516330Y-81654483D01*
X105516330Y-81654483D02*
X105516330Y-81797340D01*
X105516330Y-81797340D02*
X105468711Y-81892578D01*
X105468711Y-81892578D02*
X105421092Y-81940197D01*
X105421092Y-81940197D02*
X105325854Y-81987816D01*
X105325854Y-81987816D02*
X104944902Y-81987816D01*
X106468711Y-82464007D02*
X105897283Y-82464007D01*
X106182997Y-82464007D02*
X106182997Y-81464007D01*
X106182997Y-81464007D02*
X106087759Y-81606864D01*
X106087759Y-81606864D02*
X105992521Y-81702102D01*
X105992521Y-81702102D02*
X105897283Y-81749721D01*
X107325854Y-81797340D02*
X107325854Y-82464007D01*
X107087759Y-81416388D02*
X106849664Y-82130673D01*
X106849664Y-82130673D02*
X107468711Y-82130673D01*
X109766330Y-71968768D02*
X109718711Y-72016388D01*
X109718711Y-72016388D02*
X109575854Y-72064007D01*
X109575854Y-72064007D02*
X109480616Y-72064007D01*
X109480616Y-72064007D02*
X109337759Y-72016388D01*
X109337759Y-72016388D02*
X109242521Y-71921149D01*
X109242521Y-71921149D02*
X109194902Y-71825911D01*
X109194902Y-71825911D02*
X109147283Y-71635435D01*
X109147283Y-71635435D02*
X109147283Y-71492578D01*
X109147283Y-71492578D02*
X109194902Y-71302102D01*
X109194902Y-71302102D02*
X109242521Y-71206864D01*
X109242521Y-71206864D02*
X109337759Y-71111626D01*
X109337759Y-71111626D02*
X109480616Y-71064007D01*
X109480616Y-71064007D02*
X109575854Y-71064007D01*
X109575854Y-71064007D02*
X109718711Y-71111626D01*
X109718711Y-71111626D02*
X109766330Y-71159245D01*
X110099664Y-71064007D02*
X110718711Y-71064007D01*
X110718711Y-71064007D02*
X110385378Y-71444959D01*
X110385378Y-71444959D02*
X110528235Y-71444959D01*
X110528235Y-71444959D02*
X110623473Y-71492578D01*
X110623473Y-71492578D02*
X110671092Y-71540197D01*
X110671092Y-71540197D02*
X110718711Y-71635435D01*
X110718711Y-71635435D02*
X110718711Y-71873530D01*
X110718711Y-71873530D02*
X110671092Y-71968768D01*
X110671092Y-71968768D02*
X110623473Y-72016388D01*
X110623473Y-72016388D02*
X110528235Y-72064007D01*
X110528235Y-72064007D02*
X110242521Y-72064007D01*
X110242521Y-72064007D02*
X110147283Y-72016388D01*
X110147283Y-72016388D02*
X110099664Y-71968768D01*
X111671092Y-72064007D02*
X111099664Y-72064007D01*
X111385378Y-72064007D02*
X111385378Y-71064007D01*
X111385378Y-71064007D02*
X111290140Y-71206864D01*
X111290140Y-71206864D02*
X111194902Y-71302102D01*
X111194902Y-71302102D02*
X111099664Y-71349721D01*
X129066330Y-65668768D02*
X129018711Y-65716388D01*
X129018711Y-65716388D02*
X128875854Y-65764007D01*
X128875854Y-65764007D02*
X128780616Y-65764007D01*
X128780616Y-65764007D02*
X128637759Y-65716388D01*
X128637759Y-65716388D02*
X128542521Y-65621149D01*
X128542521Y-65621149D02*
X128494902Y-65525911D01*
X128494902Y-65525911D02*
X128447283Y-65335435D01*
X128447283Y-65335435D02*
X128447283Y-65192578D01*
X128447283Y-65192578D02*
X128494902Y-65002102D01*
X128494902Y-65002102D02*
X128542521Y-64906864D01*
X128542521Y-64906864D02*
X128637759Y-64811626D01*
X128637759Y-64811626D02*
X128780616Y-64764007D01*
X128780616Y-64764007D02*
X128875854Y-64764007D01*
X128875854Y-64764007D02*
X129018711Y-64811626D01*
X129018711Y-64811626D02*
X129066330Y-64859245D01*
X130018711Y-65764007D02*
X129447283Y-65764007D01*
X129732997Y-65764007D02*
X129732997Y-64764007D01*
X129732997Y-64764007D02*
X129637759Y-64906864D01*
X129637759Y-64906864D02*
X129542521Y-65002102D01*
X129542521Y-65002102D02*
X129447283Y-65049721D01*
X130399664Y-64859245D02*
X130447283Y-64811626D01*
X130447283Y-64811626D02*
X130542521Y-64764007D01*
X130542521Y-64764007D02*
X130780616Y-64764007D01*
X130780616Y-64764007D02*
X130875854Y-64811626D01*
X130875854Y-64811626D02*
X130923473Y-64859245D01*
X130923473Y-64859245D02*
X130971092Y-64954483D01*
X130971092Y-64954483D02*
X130971092Y-65049721D01*
X130971092Y-65049721D02*
X130923473Y-65192578D01*
X130923473Y-65192578D02*
X130352045Y-65764007D01*
X130352045Y-65764007D02*
X130971092Y-65764007D01*
X126729607Y-89471321D02*
X127443892Y-89471321D01*
X127443892Y-89471321D02*
X127586749Y-89518940D01*
X127586749Y-89518940D02*
X127681988Y-89614178D01*
X127681988Y-89614178D02*
X127729607Y-89757035D01*
X127729607Y-89757035D02*
X127729607Y-89852273D01*
X126729607Y-88566559D02*
X126729607Y-88757035D01*
X126729607Y-88757035D02*
X126777226Y-88852273D01*
X126777226Y-88852273D02*
X126824845Y-88899892D01*
X126824845Y-88899892D02*
X126967702Y-88995130D01*
X126967702Y-88995130D02*
X127158178Y-89042749D01*
X127158178Y-89042749D02*
X127539130Y-89042749D01*
X127539130Y-89042749D02*
X127634368Y-88995130D01*
X127634368Y-88995130D02*
X127681988Y-88947511D01*
X127681988Y-88947511D02*
X127729607Y-88852273D01*
X127729607Y-88852273D02*
X127729607Y-88661797D01*
X127729607Y-88661797D02*
X127681988Y-88566559D01*
X127681988Y-88566559D02*
X127634368Y-88518940D01*
X127634368Y-88518940D02*
X127539130Y-88471321D01*
X127539130Y-88471321D02*
X127301035Y-88471321D01*
X127301035Y-88471321D02*
X127205797Y-88518940D01*
X127205797Y-88518940D02*
X127158178Y-88566559D01*
X127158178Y-88566559D02*
X127110559Y-88661797D01*
X127110559Y-88661797D02*
X127110559Y-88852273D01*
X127110559Y-88852273D02*
X127158178Y-88947511D01*
X127158178Y-88947511D02*
X127205797Y-88995130D01*
X127205797Y-88995130D02*
X127301035Y-89042749D01*
X145109819Y-108333333D02*
X145824104Y-108333333D01*
X145824104Y-108333333D02*
X145966961Y-108380952D01*
X145966961Y-108380952D02*
X146062200Y-108476190D01*
X146062200Y-108476190D02*
X146109819Y-108619047D01*
X146109819Y-108619047D02*
X146109819Y-108714285D01*
X145109819Y-107952380D02*
X145109819Y-107285714D01*
X145109819Y-107285714D02*
X146109819Y-107714285D01*
X100216330Y-82764007D02*
X99882997Y-82287816D01*
X99644902Y-82764007D02*
X99644902Y-81764007D01*
X99644902Y-81764007D02*
X100025854Y-81764007D01*
X100025854Y-81764007D02*
X100121092Y-81811626D01*
X100121092Y-81811626D02*
X100168711Y-81859245D01*
X100168711Y-81859245D02*
X100216330Y-81954483D01*
X100216330Y-81954483D02*
X100216330Y-82097340D01*
X100216330Y-82097340D02*
X100168711Y-82192578D01*
X100168711Y-82192578D02*
X100121092Y-82240197D01*
X100121092Y-82240197D02*
X100025854Y-82287816D01*
X100025854Y-82287816D02*
X99644902Y-82287816D01*
X101168711Y-82764007D02*
X100597283Y-82764007D01*
X100882997Y-82764007D02*
X100882997Y-81764007D01*
X100882997Y-81764007D02*
X100787759Y-81906864D01*
X100787759Y-81906864D02*
X100692521Y-82002102D01*
X100692521Y-82002102D02*
X100597283Y-82049721D01*
X102073473Y-81764007D02*
X101597283Y-81764007D01*
X101597283Y-81764007D02*
X101549664Y-82240197D01*
X101549664Y-82240197D02*
X101597283Y-82192578D01*
X101597283Y-82192578D02*
X101692521Y-82144959D01*
X101692521Y-82144959D02*
X101930616Y-82144959D01*
X101930616Y-82144959D02*
X102025854Y-82192578D01*
X102025854Y-82192578D02*
X102073473Y-82240197D01*
X102073473Y-82240197D02*
X102121092Y-82335435D01*
X102121092Y-82335435D02*
X102121092Y-82573530D01*
X102121092Y-82573530D02*
X102073473Y-82668768D01*
X102073473Y-82668768D02*
X102025854Y-82716388D01*
X102025854Y-82716388D02*
X101930616Y-82764007D01*
X101930616Y-82764007D02*
X101692521Y-82764007D01*
X101692521Y-82764007D02*
X101597283Y-82716388D01*
X101597283Y-82716388D02*
X101549664Y-82668768D01*
X155214007Y-69575854D02*
X154737816Y-69909187D01*
X155214007Y-70147282D02*
X154214007Y-70147282D01*
X154214007Y-70147282D02*
X154214007Y-69766330D01*
X154214007Y-69766330D02*
X154261626Y-69671092D01*
X154261626Y-69671092D02*
X154309245Y-69623473D01*
X154309245Y-69623473D02*
X154404483Y-69575854D01*
X154404483Y-69575854D02*
X154547340Y-69575854D01*
X154547340Y-69575854D02*
X154642578Y-69623473D01*
X154642578Y-69623473D02*
X154690197Y-69671092D01*
X154690197Y-69671092D02*
X154737816Y-69766330D01*
X154737816Y-69766330D02*
X154737816Y-70147282D01*
X154214007Y-68671092D02*
X154214007Y-69147282D01*
X154214007Y-69147282D02*
X154690197Y-69194901D01*
X154690197Y-69194901D02*
X154642578Y-69147282D01*
X154642578Y-69147282D02*
X154594959Y-69052044D01*
X154594959Y-69052044D02*
X154594959Y-68813949D01*
X154594959Y-68813949D02*
X154642578Y-68718711D01*
X154642578Y-68718711D02*
X154690197Y-68671092D01*
X154690197Y-68671092D02*
X154785435Y-68623473D01*
X154785435Y-68623473D02*
X155023530Y-68623473D01*
X155023530Y-68623473D02*
X155118768Y-68671092D01*
X155118768Y-68671092D02*
X155166388Y-68718711D01*
X155166388Y-68718711D02*
X155214007Y-68813949D01*
X155214007Y-68813949D02*
X155214007Y-69052044D01*
X155214007Y-69052044D02*
X155166388Y-69147282D01*
X155166388Y-69147282D02*
X155118768Y-69194901D01*
X173666330Y-58768769D02*
X173618711Y-58816389D01*
X173618711Y-58816389D02*
X173475854Y-58864008D01*
X173475854Y-58864008D02*
X173380616Y-58864008D01*
X173380616Y-58864008D02*
X173237759Y-58816389D01*
X173237759Y-58816389D02*
X173142521Y-58721150D01*
X173142521Y-58721150D02*
X173094902Y-58625912D01*
X173094902Y-58625912D02*
X173047283Y-58435436D01*
X173047283Y-58435436D02*
X173047283Y-58292579D01*
X173047283Y-58292579D02*
X173094902Y-58102103D01*
X173094902Y-58102103D02*
X173142521Y-58006865D01*
X173142521Y-58006865D02*
X173237759Y-57911627D01*
X173237759Y-57911627D02*
X173380616Y-57864008D01*
X173380616Y-57864008D02*
X173475854Y-57864008D01*
X173475854Y-57864008D02*
X173618711Y-57911627D01*
X173618711Y-57911627D02*
X173666330Y-57959246D01*
X174047283Y-57959246D02*
X174094902Y-57911627D01*
X174094902Y-57911627D02*
X174190140Y-57864008D01*
X174190140Y-57864008D02*
X174428235Y-57864008D01*
X174428235Y-57864008D02*
X174523473Y-57911627D01*
X174523473Y-57911627D02*
X174571092Y-57959246D01*
X174571092Y-57959246D02*
X174618711Y-58054484D01*
X174618711Y-58054484D02*
X174618711Y-58149722D01*
X174618711Y-58149722D02*
X174571092Y-58292579D01*
X174571092Y-58292579D02*
X173999664Y-58864008D01*
X173999664Y-58864008D02*
X174618711Y-58864008D01*
X175237759Y-57864008D02*
X175332997Y-57864008D01*
X175332997Y-57864008D02*
X175428235Y-57911627D01*
X175428235Y-57911627D02*
X175475854Y-57959246D01*
X175475854Y-57959246D02*
X175523473Y-58054484D01*
X175523473Y-58054484D02*
X175571092Y-58244960D01*
X175571092Y-58244960D02*
X175571092Y-58483055D01*
X175571092Y-58483055D02*
X175523473Y-58673531D01*
X175523473Y-58673531D02*
X175475854Y-58768769D01*
X175475854Y-58768769D02*
X175428235Y-58816389D01*
X175428235Y-58816389D02*
X175332997Y-58864008D01*
X175332997Y-58864008D02*
X175237759Y-58864008D01*
X175237759Y-58864008D02*
X175142521Y-58816389D01*
X175142521Y-58816389D02*
X175094902Y-58768769D01*
X175094902Y-58768769D02*
X175047283Y-58673531D01*
X175047283Y-58673531D02*
X174999664Y-58483055D01*
X174999664Y-58483055D02*
X174999664Y-58244960D01*
X174999664Y-58244960D02*
X175047283Y-58054484D01*
X175047283Y-58054484D02*
X175094902Y-57959246D01*
X175094902Y-57959246D02*
X175142521Y-57911627D01*
X175142521Y-57911627D02*
X175237759Y-57864008D01*
X150142521Y-84468768D02*
X150094902Y-84516388D01*
X150094902Y-84516388D02*
X149952045Y-84564007D01*
X149952045Y-84564007D02*
X149856807Y-84564007D01*
X149856807Y-84564007D02*
X149713950Y-84516388D01*
X149713950Y-84516388D02*
X149618712Y-84421149D01*
X149618712Y-84421149D02*
X149571093Y-84325911D01*
X149571093Y-84325911D02*
X149523474Y-84135435D01*
X149523474Y-84135435D02*
X149523474Y-83992578D01*
X149523474Y-83992578D02*
X149571093Y-83802102D01*
X149571093Y-83802102D02*
X149618712Y-83706864D01*
X149618712Y-83706864D02*
X149713950Y-83611626D01*
X149713950Y-83611626D02*
X149856807Y-83564007D01*
X149856807Y-83564007D02*
X149952045Y-83564007D01*
X149952045Y-83564007D02*
X150094902Y-83611626D01*
X150094902Y-83611626D02*
X150142521Y-83659245D01*
X150999664Y-83564007D02*
X150809188Y-83564007D01*
X150809188Y-83564007D02*
X150713950Y-83611626D01*
X150713950Y-83611626D02*
X150666331Y-83659245D01*
X150666331Y-83659245D02*
X150571093Y-83802102D01*
X150571093Y-83802102D02*
X150523474Y-83992578D01*
X150523474Y-83992578D02*
X150523474Y-84373530D01*
X150523474Y-84373530D02*
X150571093Y-84468768D01*
X150571093Y-84468768D02*
X150618712Y-84516388D01*
X150618712Y-84516388D02*
X150713950Y-84564007D01*
X150713950Y-84564007D02*
X150904426Y-84564007D01*
X150904426Y-84564007D02*
X150999664Y-84516388D01*
X150999664Y-84516388D02*
X151047283Y-84468768D01*
X151047283Y-84468768D02*
X151094902Y-84373530D01*
X151094902Y-84373530D02*
X151094902Y-84135435D01*
X151094902Y-84135435D02*
X151047283Y-84040197D01*
X151047283Y-84040197D02*
X150999664Y-83992578D01*
X150999664Y-83992578D02*
X150904426Y-83944959D01*
X150904426Y-83944959D02*
X150713950Y-83944959D01*
X150713950Y-83944959D02*
X150618712Y-83992578D01*
X150618712Y-83992578D02*
X150571093Y-84040197D01*
X150571093Y-84040197D02*
X150523474Y-84135435D01*
X128942083Y-78511406D02*
X128942083Y-79320929D01*
X128942083Y-79320929D02*
X128989702Y-79416167D01*
X128989702Y-79416167D02*
X129037321Y-79463787D01*
X129037321Y-79463787D02*
X129132559Y-79511406D01*
X129132559Y-79511406D02*
X129323035Y-79511406D01*
X129323035Y-79511406D02*
X129418273Y-79463787D01*
X129418273Y-79463787D02*
X129465892Y-79416167D01*
X129465892Y-79416167D02*
X129513511Y-79320929D01*
X129513511Y-79320929D02*
X129513511Y-78511406D01*
X129942083Y-78606644D02*
X129989702Y-78559025D01*
X129989702Y-78559025D02*
X130084940Y-78511406D01*
X130084940Y-78511406D02*
X130323035Y-78511406D01*
X130323035Y-78511406D02*
X130418273Y-78559025D01*
X130418273Y-78559025D02*
X130465892Y-78606644D01*
X130465892Y-78606644D02*
X130513511Y-78701882D01*
X130513511Y-78701882D02*
X130513511Y-78797120D01*
X130513511Y-78797120D02*
X130465892Y-78939977D01*
X130465892Y-78939977D02*
X129894464Y-79511406D01*
X129894464Y-79511406D02*
X130513511Y-79511406D01*
X145323521Y-80698768D02*
X145275902Y-80746388D01*
X145275902Y-80746388D02*
X145133045Y-80794007D01*
X145133045Y-80794007D02*
X145037807Y-80794007D01*
X145037807Y-80794007D02*
X144894950Y-80746388D01*
X144894950Y-80746388D02*
X144799712Y-80651149D01*
X144799712Y-80651149D02*
X144752093Y-80555911D01*
X144752093Y-80555911D02*
X144704474Y-80365435D01*
X144704474Y-80365435D02*
X144704474Y-80222578D01*
X144704474Y-80222578D02*
X144752093Y-80032102D01*
X144752093Y-80032102D02*
X144799712Y-79936864D01*
X144799712Y-79936864D02*
X144894950Y-79841626D01*
X144894950Y-79841626D02*
X145037807Y-79794007D01*
X145037807Y-79794007D02*
X145133045Y-79794007D01*
X145133045Y-79794007D02*
X145275902Y-79841626D01*
X145275902Y-79841626D02*
X145323521Y-79889245D01*
X145656855Y-79794007D02*
X146323521Y-79794007D01*
X146323521Y-79794007D02*
X145894950Y-80794007D01*
X141132521Y-63014007D02*
X140799188Y-62537816D01*
X140561093Y-63014007D02*
X140561093Y-62014007D01*
X140561093Y-62014007D02*
X140942045Y-62014007D01*
X140942045Y-62014007D02*
X141037283Y-62061626D01*
X141037283Y-62061626D02*
X141084902Y-62109245D01*
X141084902Y-62109245D02*
X141132521Y-62204483D01*
X141132521Y-62204483D02*
X141132521Y-62347340D01*
X141132521Y-62347340D02*
X141084902Y-62442578D01*
X141084902Y-62442578D02*
X141037283Y-62490197D01*
X141037283Y-62490197D02*
X140942045Y-62537816D01*
X140942045Y-62537816D02*
X140561093Y-62537816D01*
X141513474Y-62109245D02*
X141561093Y-62061626D01*
X141561093Y-62061626D02*
X141656331Y-62014007D01*
X141656331Y-62014007D02*
X141894426Y-62014007D01*
X141894426Y-62014007D02*
X141989664Y-62061626D01*
X141989664Y-62061626D02*
X142037283Y-62109245D01*
X142037283Y-62109245D02*
X142084902Y-62204483D01*
X142084902Y-62204483D02*
X142084902Y-62299721D01*
X142084902Y-62299721D02*
X142037283Y-62442578D01*
X142037283Y-62442578D02*
X141465855Y-63014007D01*
X141465855Y-63014007D02*
X142084902Y-63014007D01*
X102107142Y-72909580D02*
X102059523Y-72957200D01*
X102059523Y-72957200D02*
X101916666Y-73004819D01*
X101916666Y-73004819D02*
X101821428Y-73004819D01*
X101821428Y-73004819D02*
X101678571Y-72957200D01*
X101678571Y-72957200D02*
X101583333Y-72861961D01*
X101583333Y-72861961D02*
X101535714Y-72766723D01*
X101535714Y-72766723D02*
X101488095Y-72576247D01*
X101488095Y-72576247D02*
X101488095Y-72433390D01*
X101488095Y-72433390D02*
X101535714Y-72242914D01*
X101535714Y-72242914D02*
X101583333Y-72147676D01*
X101583333Y-72147676D02*
X101678571Y-72052438D01*
X101678571Y-72052438D02*
X101821428Y-72004819D01*
X101821428Y-72004819D02*
X101916666Y-72004819D01*
X101916666Y-72004819D02*
X102059523Y-72052438D01*
X102059523Y-72052438D02*
X102107142Y-72100057D01*
X102488095Y-72100057D02*
X102535714Y-72052438D01*
X102535714Y-72052438D02*
X102630952Y-72004819D01*
X102630952Y-72004819D02*
X102869047Y-72004819D01*
X102869047Y-72004819D02*
X102964285Y-72052438D01*
X102964285Y-72052438D02*
X103011904Y-72100057D01*
X103011904Y-72100057D02*
X103059523Y-72195295D01*
X103059523Y-72195295D02*
X103059523Y-72290533D01*
X103059523Y-72290533D02*
X103011904Y-72433390D01*
X103011904Y-72433390D02*
X102440476Y-73004819D01*
X102440476Y-73004819D02*
X103059523Y-73004819D01*
X103964285Y-72004819D02*
X103488095Y-72004819D01*
X103488095Y-72004819D02*
X103440476Y-72481009D01*
X103440476Y-72481009D02*
X103488095Y-72433390D01*
X103488095Y-72433390D02*
X103583333Y-72385771D01*
X103583333Y-72385771D02*
X103821428Y-72385771D01*
X103821428Y-72385771D02*
X103916666Y-72433390D01*
X103916666Y-72433390D02*
X103964285Y-72481009D01*
X103964285Y-72481009D02*
X104011904Y-72576247D01*
X104011904Y-72576247D02*
X104011904Y-72814342D01*
X104011904Y-72814342D02*
X103964285Y-72909580D01*
X103964285Y-72909580D02*
X103916666Y-72957200D01*
X103916666Y-72957200D02*
X103821428Y-73004819D01*
X103821428Y-73004819D02*
X103583333Y-73004819D01*
X103583333Y-73004819D02*
X103488095Y-72957200D01*
X103488095Y-72957200D02*
X103440476Y-72909580D01*
X101357142Y-67309580D02*
X101309523Y-67357200D01*
X101309523Y-67357200D02*
X101166666Y-67404819D01*
X101166666Y-67404819D02*
X101071428Y-67404819D01*
X101071428Y-67404819D02*
X100928571Y-67357200D01*
X100928571Y-67357200D02*
X100833333Y-67261961D01*
X100833333Y-67261961D02*
X100785714Y-67166723D01*
X100785714Y-67166723D02*
X100738095Y-66976247D01*
X100738095Y-66976247D02*
X100738095Y-66833390D01*
X100738095Y-66833390D02*
X100785714Y-66642914D01*
X100785714Y-66642914D02*
X100833333Y-66547676D01*
X100833333Y-66547676D02*
X100928571Y-66452438D01*
X100928571Y-66452438D02*
X101071428Y-66404819D01*
X101071428Y-66404819D02*
X101166666Y-66404819D01*
X101166666Y-66404819D02*
X101309523Y-66452438D01*
X101309523Y-66452438D02*
X101357142Y-66500057D01*
X102309523Y-67404819D02*
X101738095Y-67404819D01*
X102023809Y-67404819D02*
X102023809Y-66404819D01*
X102023809Y-66404819D02*
X101928571Y-66547676D01*
X101928571Y-66547676D02*
X101833333Y-66642914D01*
X101833333Y-66642914D02*
X101738095Y-66690533D01*
X102880952Y-66833390D02*
X102785714Y-66785771D01*
X102785714Y-66785771D02*
X102738095Y-66738152D01*
X102738095Y-66738152D02*
X102690476Y-66642914D01*
X102690476Y-66642914D02*
X102690476Y-66595295D01*
X102690476Y-66595295D02*
X102738095Y-66500057D01*
X102738095Y-66500057D02*
X102785714Y-66452438D01*
X102785714Y-66452438D02*
X102880952Y-66404819D01*
X102880952Y-66404819D02*
X103071428Y-66404819D01*
X103071428Y-66404819D02*
X103166666Y-66452438D01*
X103166666Y-66452438D02*
X103214285Y-66500057D01*
X103214285Y-66500057D02*
X103261904Y-66595295D01*
X103261904Y-66595295D02*
X103261904Y-66642914D01*
X103261904Y-66642914D02*
X103214285Y-66738152D01*
X103214285Y-66738152D02*
X103166666Y-66785771D01*
X103166666Y-66785771D02*
X103071428Y-66833390D01*
X103071428Y-66833390D02*
X102880952Y-66833390D01*
X102880952Y-66833390D02*
X102785714Y-66881009D01*
X102785714Y-66881009D02*
X102738095Y-66928628D01*
X102738095Y-66928628D02*
X102690476Y-67023866D01*
X102690476Y-67023866D02*
X102690476Y-67214342D01*
X102690476Y-67214342D02*
X102738095Y-67309580D01*
X102738095Y-67309580D02*
X102785714Y-67357200D01*
X102785714Y-67357200D02*
X102880952Y-67404819D01*
X102880952Y-67404819D02*
X103071428Y-67404819D01*
X103071428Y-67404819D02*
X103166666Y-67357200D01*
X103166666Y-67357200D02*
X103214285Y-67309580D01*
X103214285Y-67309580D02*
X103261904Y-67214342D01*
X103261904Y-67214342D02*
X103261904Y-67023866D01*
X103261904Y-67023866D02*
X103214285Y-66928628D01*
X103214285Y-66928628D02*
X103166666Y-66881009D01*
X103166666Y-66881009D02*
X103071428Y-66833390D01*
X116516330Y-78118768D02*
X116468711Y-78166388D01*
X116468711Y-78166388D02*
X116325854Y-78214007D01*
X116325854Y-78214007D02*
X116230616Y-78214007D01*
X116230616Y-78214007D02*
X116087759Y-78166388D01*
X116087759Y-78166388D02*
X115992521Y-78071149D01*
X115992521Y-78071149D02*
X115944902Y-77975911D01*
X115944902Y-77975911D02*
X115897283Y-77785435D01*
X115897283Y-77785435D02*
X115897283Y-77642578D01*
X115897283Y-77642578D02*
X115944902Y-77452102D01*
X115944902Y-77452102D02*
X115992521Y-77356864D01*
X115992521Y-77356864D02*
X116087759Y-77261626D01*
X116087759Y-77261626D02*
X116230616Y-77214007D01*
X116230616Y-77214007D02*
X116325854Y-77214007D01*
X116325854Y-77214007D02*
X116468711Y-77261626D01*
X116468711Y-77261626D02*
X116516330Y-77309245D01*
X116897283Y-77309245D02*
X116944902Y-77261626D01*
X116944902Y-77261626D02*
X117040140Y-77214007D01*
X117040140Y-77214007D02*
X117278235Y-77214007D01*
X117278235Y-77214007D02*
X117373473Y-77261626D01*
X117373473Y-77261626D02*
X117421092Y-77309245D01*
X117421092Y-77309245D02*
X117468711Y-77404483D01*
X117468711Y-77404483D02*
X117468711Y-77499721D01*
X117468711Y-77499721D02*
X117421092Y-77642578D01*
X117421092Y-77642578D02*
X116849664Y-78214007D01*
X116849664Y-78214007D02*
X117468711Y-78214007D01*
X118421092Y-78214007D02*
X117849664Y-78214007D01*
X118135378Y-78214007D02*
X118135378Y-77214007D01*
X118135378Y-77214007D02*
X118040140Y-77356864D01*
X118040140Y-77356864D02*
X117944902Y-77452102D01*
X117944902Y-77452102D02*
X117849664Y-77499721D01*
X145106807Y-101004333D02*
X145821092Y-101004333D01*
X145821092Y-101004333D02*
X145963949Y-101051952D01*
X145963949Y-101051952D02*
X146059188Y-101147190D01*
X146059188Y-101147190D02*
X146106807Y-101290047D01*
X146106807Y-101290047D02*
X146106807Y-101385285D01*
X145106807Y-100623380D02*
X145106807Y-100004333D01*
X145106807Y-100004333D02*
X145487759Y-100337666D01*
X145487759Y-100337666D02*
X145487759Y-100194809D01*
X145487759Y-100194809D02*
X145535378Y-100099571D01*
X145535378Y-100099571D02*
X145582997Y-100051952D01*
X145582997Y-100051952D02*
X145678235Y-100004333D01*
X145678235Y-100004333D02*
X145916330Y-100004333D01*
X145916330Y-100004333D02*
X146011568Y-100051952D01*
X146011568Y-100051952D02*
X146059188Y-100099571D01*
X146059188Y-100099571D02*
X146106807Y-100194809D01*
X146106807Y-100194809D02*
X146106807Y-100480523D01*
X146106807Y-100480523D02*
X146059188Y-100575761D01*
X146059188Y-100575761D02*
X146011568Y-100623380D01*
X113616330Y-78068768D02*
X113568711Y-78116388D01*
X113568711Y-78116388D02*
X113425854Y-78164007D01*
X113425854Y-78164007D02*
X113330616Y-78164007D01*
X113330616Y-78164007D02*
X113187759Y-78116388D01*
X113187759Y-78116388D02*
X113092521Y-78021149D01*
X113092521Y-78021149D02*
X113044902Y-77925911D01*
X113044902Y-77925911D02*
X112997283Y-77735435D01*
X112997283Y-77735435D02*
X112997283Y-77592578D01*
X112997283Y-77592578D02*
X113044902Y-77402102D01*
X113044902Y-77402102D02*
X113092521Y-77306864D01*
X113092521Y-77306864D02*
X113187759Y-77211626D01*
X113187759Y-77211626D02*
X113330616Y-77164007D01*
X113330616Y-77164007D02*
X113425854Y-77164007D01*
X113425854Y-77164007D02*
X113568711Y-77211626D01*
X113568711Y-77211626D02*
X113616330Y-77259245D01*
X113997283Y-77259245D02*
X114044902Y-77211626D01*
X114044902Y-77211626D02*
X114140140Y-77164007D01*
X114140140Y-77164007D02*
X114378235Y-77164007D01*
X114378235Y-77164007D02*
X114473473Y-77211626D01*
X114473473Y-77211626D02*
X114521092Y-77259245D01*
X114521092Y-77259245D02*
X114568711Y-77354483D01*
X114568711Y-77354483D02*
X114568711Y-77449721D01*
X114568711Y-77449721D02*
X114521092Y-77592578D01*
X114521092Y-77592578D02*
X113949664Y-78164007D01*
X113949664Y-78164007D02*
X114568711Y-78164007D01*
X114949664Y-77259245D02*
X114997283Y-77211626D01*
X114997283Y-77211626D02*
X115092521Y-77164007D01*
X115092521Y-77164007D02*
X115330616Y-77164007D01*
X115330616Y-77164007D02*
X115425854Y-77211626D01*
X115425854Y-77211626D02*
X115473473Y-77259245D01*
X115473473Y-77259245D02*
X115521092Y-77354483D01*
X115521092Y-77354483D02*
X115521092Y-77449721D01*
X115521092Y-77449721D02*
X115473473Y-77592578D01*
X115473473Y-77592578D02*
X114902045Y-78164007D01*
X114902045Y-78164007D02*
X115521092Y-78164007D01*
X119684819Y-97308333D02*
X120399104Y-97308333D01*
X120399104Y-97308333D02*
X120541961Y-97355952D01*
X120541961Y-97355952D02*
X120637200Y-97451190D01*
X120637200Y-97451190D02*
X120684819Y-97594047D01*
X120684819Y-97594047D02*
X120684819Y-97689285D01*
X120113390Y-96689285D02*
X120065771Y-96784523D01*
X120065771Y-96784523D02*
X120018152Y-96832142D01*
X120018152Y-96832142D02*
X119922914Y-96879761D01*
X119922914Y-96879761D02*
X119875295Y-96879761D01*
X119875295Y-96879761D02*
X119780057Y-96832142D01*
X119780057Y-96832142D02*
X119732438Y-96784523D01*
X119732438Y-96784523D02*
X119684819Y-96689285D01*
X119684819Y-96689285D02*
X119684819Y-96498809D01*
X119684819Y-96498809D02*
X119732438Y-96403571D01*
X119732438Y-96403571D02*
X119780057Y-96355952D01*
X119780057Y-96355952D02*
X119875295Y-96308333D01*
X119875295Y-96308333D02*
X119922914Y-96308333D01*
X119922914Y-96308333D02*
X120018152Y-96355952D01*
X120018152Y-96355952D02*
X120065771Y-96403571D01*
X120065771Y-96403571D02*
X120113390Y-96498809D01*
X120113390Y-96498809D02*
X120113390Y-96689285D01*
X120113390Y-96689285D02*
X120161009Y-96784523D01*
X120161009Y-96784523D02*
X120208628Y-96832142D01*
X120208628Y-96832142D02*
X120303866Y-96879761D01*
X120303866Y-96879761D02*
X120494342Y-96879761D01*
X120494342Y-96879761D02*
X120589580Y-96832142D01*
X120589580Y-96832142D02*
X120637200Y-96784523D01*
X120637200Y-96784523D02*
X120684819Y-96689285D01*
X120684819Y-96689285D02*
X120684819Y-96498809D01*
X120684819Y-96498809D02*
X120637200Y-96403571D01*
X120637200Y-96403571D02*
X120589580Y-96355952D01*
X120589580Y-96355952D02*
X120494342Y-96308333D01*
X120494342Y-96308333D02*
X120303866Y-96308333D01*
X120303866Y-96308333D02*
X120208628Y-96355952D01*
X120208628Y-96355952D02*
X120161009Y-96403571D01*
X120161009Y-96403571D02*
X120113390Y-96498809D01*
X164874368Y-67824845D02*
X164921988Y-67872464D01*
X164921988Y-67872464D02*
X164969607Y-68015321D01*
X164969607Y-68015321D02*
X164969607Y-68110559D01*
X164969607Y-68110559D02*
X164921988Y-68253416D01*
X164921988Y-68253416D02*
X164826749Y-68348654D01*
X164826749Y-68348654D02*
X164731511Y-68396273D01*
X164731511Y-68396273D02*
X164541035Y-68443892D01*
X164541035Y-68443892D02*
X164398178Y-68443892D01*
X164398178Y-68443892D02*
X164207702Y-68396273D01*
X164207702Y-68396273D02*
X164112464Y-68348654D01*
X164112464Y-68348654D02*
X164017226Y-68253416D01*
X164017226Y-68253416D02*
X163969607Y-68110559D01*
X163969607Y-68110559D02*
X163969607Y-68015321D01*
X163969607Y-68015321D02*
X164017226Y-67872464D01*
X164017226Y-67872464D02*
X164064845Y-67824845D01*
X163969607Y-67491511D02*
X163969607Y-66872464D01*
X163969607Y-66872464D02*
X164350559Y-67205797D01*
X164350559Y-67205797D02*
X164350559Y-67062940D01*
X164350559Y-67062940D02*
X164398178Y-66967702D01*
X164398178Y-66967702D02*
X164445797Y-66920083D01*
X164445797Y-66920083D02*
X164541035Y-66872464D01*
X164541035Y-66872464D02*
X164779130Y-66872464D01*
X164779130Y-66872464D02*
X164874368Y-66920083D01*
X164874368Y-66920083D02*
X164921988Y-66967702D01*
X164921988Y-66967702D02*
X164969607Y-67062940D01*
X164969607Y-67062940D02*
X164969607Y-67348654D01*
X164969607Y-67348654D02*
X164921988Y-67443892D01*
X164921988Y-67443892D02*
X164874368Y-67491511D01*
X163969607Y-66539130D02*
X163969607Y-65920083D01*
X163969607Y-65920083D02*
X164350559Y-66253416D01*
X164350559Y-66253416D02*
X164350559Y-66110559D01*
X164350559Y-66110559D02*
X164398178Y-66015321D01*
X164398178Y-66015321D02*
X164445797Y-65967702D01*
X164445797Y-65967702D02*
X164541035Y-65920083D01*
X164541035Y-65920083D02*
X164779130Y-65920083D01*
X164779130Y-65920083D02*
X164874368Y-65967702D01*
X164874368Y-65967702D02*
X164921988Y-66015321D01*
X164921988Y-66015321D02*
X164969607Y-66110559D01*
X164969607Y-66110559D02*
X164969607Y-66396273D01*
X164969607Y-66396273D02*
X164921988Y-66491511D01*
X164921988Y-66491511D02*
X164874368Y-66539130D01*
X111968330Y-73225768D02*
X111920711Y-73273388D01*
X111920711Y-73273388D02*
X111777854Y-73321007D01*
X111777854Y-73321007D02*
X111682616Y-73321007D01*
X111682616Y-73321007D02*
X111539759Y-73273388D01*
X111539759Y-73273388D02*
X111444521Y-73178149D01*
X111444521Y-73178149D02*
X111396902Y-73082911D01*
X111396902Y-73082911D02*
X111349283Y-72892435D01*
X111349283Y-72892435D02*
X111349283Y-72749578D01*
X111349283Y-72749578D02*
X111396902Y-72559102D01*
X111396902Y-72559102D02*
X111444521Y-72463864D01*
X111444521Y-72463864D02*
X111539759Y-72368626D01*
X111539759Y-72368626D02*
X111682616Y-72321007D01*
X111682616Y-72321007D02*
X111777854Y-72321007D01*
X111777854Y-72321007D02*
X111920711Y-72368626D01*
X111920711Y-72368626D02*
X111968330Y-72416245D01*
X112349283Y-72416245D02*
X112396902Y-72368626D01*
X112396902Y-72368626D02*
X112492140Y-72321007D01*
X112492140Y-72321007D02*
X112730235Y-72321007D01*
X112730235Y-72321007D02*
X112825473Y-72368626D01*
X112825473Y-72368626D02*
X112873092Y-72416245D01*
X112873092Y-72416245D02*
X112920711Y-72511483D01*
X112920711Y-72511483D02*
X112920711Y-72606721D01*
X112920711Y-72606721D02*
X112873092Y-72749578D01*
X112873092Y-72749578D02*
X112301664Y-73321007D01*
X112301664Y-73321007D02*
X112920711Y-73321007D01*
X113254045Y-72321007D02*
X113873092Y-72321007D01*
X113873092Y-72321007D02*
X113539759Y-72701959D01*
X113539759Y-72701959D02*
X113682616Y-72701959D01*
X113682616Y-72701959D02*
X113777854Y-72749578D01*
X113777854Y-72749578D02*
X113825473Y-72797197D01*
X113825473Y-72797197D02*
X113873092Y-72892435D01*
X113873092Y-72892435D02*
X113873092Y-73130530D01*
X113873092Y-73130530D02*
X113825473Y-73225768D01*
X113825473Y-73225768D02*
X113777854Y-73273388D01*
X113777854Y-73273388D02*
X113682616Y-73321007D01*
X113682616Y-73321007D02*
X113396902Y-73321007D01*
X113396902Y-73321007D02*
X113301664Y-73273388D01*
X113301664Y-73273388D02*
X113254045Y-73225768D01*
X98607142Y-69459580D02*
X98559523Y-69507200D01*
X98559523Y-69507200D02*
X98416666Y-69554819D01*
X98416666Y-69554819D02*
X98321428Y-69554819D01*
X98321428Y-69554819D02*
X98178571Y-69507200D01*
X98178571Y-69507200D02*
X98083333Y-69411961D01*
X98083333Y-69411961D02*
X98035714Y-69316723D01*
X98035714Y-69316723D02*
X97988095Y-69126247D01*
X97988095Y-69126247D02*
X97988095Y-68983390D01*
X97988095Y-68983390D02*
X98035714Y-68792914D01*
X98035714Y-68792914D02*
X98083333Y-68697676D01*
X98083333Y-68697676D02*
X98178571Y-68602438D01*
X98178571Y-68602438D02*
X98321428Y-68554819D01*
X98321428Y-68554819D02*
X98416666Y-68554819D01*
X98416666Y-68554819D02*
X98559523Y-68602438D01*
X98559523Y-68602438D02*
X98607142Y-68650057D01*
X98988095Y-68650057D02*
X99035714Y-68602438D01*
X99035714Y-68602438D02*
X99130952Y-68554819D01*
X99130952Y-68554819D02*
X99369047Y-68554819D01*
X99369047Y-68554819D02*
X99464285Y-68602438D01*
X99464285Y-68602438D02*
X99511904Y-68650057D01*
X99511904Y-68650057D02*
X99559523Y-68745295D01*
X99559523Y-68745295D02*
X99559523Y-68840533D01*
X99559523Y-68840533D02*
X99511904Y-68983390D01*
X99511904Y-68983390D02*
X98940476Y-69554819D01*
X98940476Y-69554819D02*
X99559523Y-69554819D01*
X100035714Y-69554819D02*
X100226190Y-69554819D01*
X100226190Y-69554819D02*
X100321428Y-69507200D01*
X100321428Y-69507200D02*
X100369047Y-69459580D01*
X100369047Y-69459580D02*
X100464285Y-69316723D01*
X100464285Y-69316723D02*
X100511904Y-69126247D01*
X100511904Y-69126247D02*
X100511904Y-68745295D01*
X100511904Y-68745295D02*
X100464285Y-68650057D01*
X100464285Y-68650057D02*
X100416666Y-68602438D01*
X100416666Y-68602438D02*
X100321428Y-68554819D01*
X100321428Y-68554819D02*
X100130952Y-68554819D01*
X100130952Y-68554819D02*
X100035714Y-68602438D01*
X100035714Y-68602438D02*
X99988095Y-68650057D01*
X99988095Y-68650057D02*
X99940476Y-68745295D01*
X99940476Y-68745295D02*
X99940476Y-68983390D01*
X99940476Y-68983390D02*
X99988095Y-69078628D01*
X99988095Y-69078628D02*
X100035714Y-69126247D01*
X100035714Y-69126247D02*
X100130952Y-69173866D01*
X100130952Y-69173866D02*
X100321428Y-69173866D01*
X100321428Y-69173866D02*
X100416666Y-69126247D01*
X100416666Y-69126247D02*
X100464285Y-69078628D01*
X100464285Y-69078628D02*
X100511904Y-68983390D01*
X96407142Y-79759580D02*
X96359523Y-79807200D01*
X96359523Y-79807200D02*
X96216666Y-79854819D01*
X96216666Y-79854819D02*
X96121428Y-79854819D01*
X96121428Y-79854819D02*
X95978571Y-79807200D01*
X95978571Y-79807200D02*
X95883333Y-79711961D01*
X95883333Y-79711961D02*
X95835714Y-79616723D01*
X95835714Y-79616723D02*
X95788095Y-79426247D01*
X95788095Y-79426247D02*
X95788095Y-79283390D01*
X95788095Y-79283390D02*
X95835714Y-79092914D01*
X95835714Y-79092914D02*
X95883333Y-78997676D01*
X95883333Y-78997676D02*
X95978571Y-78902438D01*
X95978571Y-78902438D02*
X96121428Y-78854819D01*
X96121428Y-78854819D02*
X96216666Y-78854819D01*
X96216666Y-78854819D02*
X96359523Y-78902438D01*
X96359523Y-78902438D02*
X96407142Y-78950057D01*
X97359523Y-79854819D02*
X96788095Y-79854819D01*
X97073809Y-79854819D02*
X97073809Y-78854819D01*
X97073809Y-78854819D02*
X96978571Y-78997676D01*
X96978571Y-78997676D02*
X96883333Y-79092914D01*
X96883333Y-79092914D02*
X96788095Y-79140533D01*
X97835714Y-79854819D02*
X98026190Y-79854819D01*
X98026190Y-79854819D02*
X98121428Y-79807200D01*
X98121428Y-79807200D02*
X98169047Y-79759580D01*
X98169047Y-79759580D02*
X98264285Y-79616723D01*
X98264285Y-79616723D02*
X98311904Y-79426247D01*
X98311904Y-79426247D02*
X98311904Y-79045295D01*
X98311904Y-79045295D02*
X98264285Y-78950057D01*
X98264285Y-78950057D02*
X98216666Y-78902438D01*
X98216666Y-78902438D02*
X98121428Y-78854819D01*
X98121428Y-78854819D02*
X97930952Y-78854819D01*
X97930952Y-78854819D02*
X97835714Y-78902438D01*
X97835714Y-78902438D02*
X97788095Y-78950057D01*
X97788095Y-78950057D02*
X97740476Y-79045295D01*
X97740476Y-79045295D02*
X97740476Y-79283390D01*
X97740476Y-79283390D02*
X97788095Y-79378628D01*
X97788095Y-79378628D02*
X97835714Y-79426247D01*
X97835714Y-79426247D02*
X97930952Y-79473866D01*
X97930952Y-79473866D02*
X98121428Y-79473866D01*
X98121428Y-79473866D02*
X98216666Y-79426247D01*
X98216666Y-79426247D02*
X98264285Y-79378628D01*
X98264285Y-79378628D02*
X98311904Y-79283390D01*
X112810854Y-66214697D02*
X112477521Y-66214697D01*
X112477521Y-66738507D02*
X112477521Y-65738507D01*
X112477521Y-65738507D02*
X112953711Y-65738507D01*
X113667997Y-66214697D02*
X113810854Y-66262316D01*
X113810854Y-66262316D02*
X113858473Y-66309935D01*
X113858473Y-66309935D02*
X113906092Y-66405173D01*
X113906092Y-66405173D02*
X113906092Y-66548030D01*
X113906092Y-66548030D02*
X113858473Y-66643268D01*
X113858473Y-66643268D02*
X113810854Y-66690888D01*
X113810854Y-66690888D02*
X113715616Y-66738507D01*
X113715616Y-66738507D02*
X113334664Y-66738507D01*
X113334664Y-66738507D02*
X113334664Y-65738507D01*
X113334664Y-65738507D02*
X113667997Y-65738507D01*
X113667997Y-65738507D02*
X113763235Y-65786126D01*
X113763235Y-65786126D02*
X113810854Y-65833745D01*
X113810854Y-65833745D02*
X113858473Y-65928983D01*
X113858473Y-65928983D02*
X113858473Y-66024221D01*
X113858473Y-66024221D02*
X113810854Y-66119459D01*
X113810854Y-66119459D02*
X113763235Y-66167078D01*
X113763235Y-66167078D02*
X113667997Y-66214697D01*
X113667997Y-66214697D02*
X113334664Y-66214697D01*
X114239426Y-65738507D02*
X114858473Y-65738507D01*
X114858473Y-65738507D02*
X114525140Y-66119459D01*
X114525140Y-66119459D02*
X114667997Y-66119459D01*
X114667997Y-66119459D02*
X114763235Y-66167078D01*
X114763235Y-66167078D02*
X114810854Y-66214697D01*
X114810854Y-66214697D02*
X114858473Y-66309935D01*
X114858473Y-66309935D02*
X114858473Y-66548030D01*
X114858473Y-66548030D02*
X114810854Y-66643268D01*
X114810854Y-66643268D02*
X114763235Y-66690888D01*
X114763235Y-66690888D02*
X114667997Y-66738507D01*
X114667997Y-66738507D02*
X114382283Y-66738507D01*
X114382283Y-66738507D02*
X114287045Y-66690888D01*
X114287045Y-66690888D02*
X114239426Y-66643268D01*
X114081521Y-60474007D02*
X113748188Y-59997816D01*
X113510093Y-60474007D02*
X113510093Y-59474007D01*
X113510093Y-59474007D02*
X113891045Y-59474007D01*
X113891045Y-59474007D02*
X113986283Y-59521626D01*
X113986283Y-59521626D02*
X114033902Y-59569245D01*
X114033902Y-59569245D02*
X114081521Y-59664483D01*
X114081521Y-59664483D02*
X114081521Y-59807340D01*
X114081521Y-59807340D02*
X114033902Y-59902578D01*
X114033902Y-59902578D02*
X113986283Y-59950197D01*
X113986283Y-59950197D02*
X113891045Y-59997816D01*
X113891045Y-59997816D02*
X113510093Y-59997816D01*
X114557712Y-60474007D02*
X114748188Y-60474007D01*
X114748188Y-60474007D02*
X114843426Y-60426388D01*
X114843426Y-60426388D02*
X114891045Y-60378768D01*
X114891045Y-60378768D02*
X114986283Y-60235911D01*
X114986283Y-60235911D02*
X115033902Y-60045435D01*
X115033902Y-60045435D02*
X115033902Y-59664483D01*
X115033902Y-59664483D02*
X114986283Y-59569245D01*
X114986283Y-59569245D02*
X114938664Y-59521626D01*
X114938664Y-59521626D02*
X114843426Y-59474007D01*
X114843426Y-59474007D02*
X114652950Y-59474007D01*
X114652950Y-59474007D02*
X114557712Y-59521626D01*
X114557712Y-59521626D02*
X114510093Y-59569245D01*
X114510093Y-59569245D02*
X114462474Y-59664483D01*
X114462474Y-59664483D02*
X114462474Y-59902578D01*
X114462474Y-59902578D02*
X114510093Y-59997816D01*
X114510093Y-59997816D02*
X114557712Y-60045435D01*
X114557712Y-60045435D02*
X114652950Y-60093054D01*
X114652950Y-60093054D02*
X114843426Y-60093054D01*
X114843426Y-60093054D02*
X114938664Y-60045435D01*
X114938664Y-60045435D02*
X114986283Y-59997816D01*
X114986283Y-59997816D02*
X115033902Y-59902578D01*
X121966330Y-68068768D02*
X121918711Y-68116388D01*
X121918711Y-68116388D02*
X121775854Y-68164007D01*
X121775854Y-68164007D02*
X121680616Y-68164007D01*
X121680616Y-68164007D02*
X121537759Y-68116388D01*
X121537759Y-68116388D02*
X121442521Y-68021149D01*
X121442521Y-68021149D02*
X121394902Y-67925911D01*
X121394902Y-67925911D02*
X121347283Y-67735435D01*
X121347283Y-67735435D02*
X121347283Y-67592578D01*
X121347283Y-67592578D02*
X121394902Y-67402102D01*
X121394902Y-67402102D02*
X121442521Y-67306864D01*
X121442521Y-67306864D02*
X121537759Y-67211626D01*
X121537759Y-67211626D02*
X121680616Y-67164007D01*
X121680616Y-67164007D02*
X121775854Y-67164007D01*
X121775854Y-67164007D02*
X121918711Y-67211626D01*
X121918711Y-67211626D02*
X121966330Y-67259245D01*
X122918711Y-68164007D02*
X122347283Y-68164007D01*
X122632997Y-68164007D02*
X122632997Y-67164007D01*
X122632997Y-67164007D02*
X122537759Y-67306864D01*
X122537759Y-67306864D02*
X122442521Y-67402102D01*
X122442521Y-67402102D02*
X122347283Y-67449721D01*
X123775854Y-67164007D02*
X123585378Y-67164007D01*
X123585378Y-67164007D02*
X123490140Y-67211626D01*
X123490140Y-67211626D02*
X123442521Y-67259245D01*
X123442521Y-67259245D02*
X123347283Y-67402102D01*
X123347283Y-67402102D02*
X123299664Y-67592578D01*
X123299664Y-67592578D02*
X123299664Y-67973530D01*
X123299664Y-67973530D02*
X123347283Y-68068768D01*
X123347283Y-68068768D02*
X123394902Y-68116388D01*
X123394902Y-68116388D02*
X123490140Y-68164007D01*
X123490140Y-68164007D02*
X123680616Y-68164007D01*
X123680616Y-68164007D02*
X123775854Y-68116388D01*
X123775854Y-68116388D02*
X123823473Y-68068768D01*
X123823473Y-68068768D02*
X123871092Y-67973530D01*
X123871092Y-67973530D02*
X123871092Y-67735435D01*
X123871092Y-67735435D02*
X123823473Y-67640197D01*
X123823473Y-67640197D02*
X123775854Y-67592578D01*
X123775854Y-67592578D02*
X123680616Y-67544959D01*
X123680616Y-67544959D02*
X123490140Y-67544959D01*
X123490140Y-67544959D02*
X123394902Y-67592578D01*
X123394902Y-67592578D02*
X123347283Y-67640197D01*
X123347283Y-67640197D02*
X123299664Y-67735435D01*
X176564007Y-83147282D02*
X175564007Y-83147282D01*
X175564007Y-83147282D02*
X175564007Y-82909187D01*
X175564007Y-82909187D02*
X175611626Y-82766330D01*
X175611626Y-82766330D02*
X175706864Y-82671092D01*
X175706864Y-82671092D02*
X175802102Y-82623473D01*
X175802102Y-82623473D02*
X175992578Y-82575854D01*
X175992578Y-82575854D02*
X176135435Y-82575854D01*
X176135435Y-82575854D02*
X176325911Y-82623473D01*
X176325911Y-82623473D02*
X176421149Y-82671092D01*
X176421149Y-82671092D02*
X176516388Y-82766330D01*
X176516388Y-82766330D02*
X176564007Y-82909187D01*
X176564007Y-82909187D02*
X176564007Y-83147282D01*
X176564007Y-81623473D02*
X176564007Y-82194901D01*
X176564007Y-81909187D02*
X175564007Y-81909187D01*
X175564007Y-81909187D02*
X175706864Y-82004425D01*
X175706864Y-82004425D02*
X175802102Y-82099663D01*
X175802102Y-82099663D02*
X175849721Y-82194901D01*
D11*
X164228425Y-62778506D02*
X164228425Y-61508506D01*
X165558902Y-62657553D02*
X165498426Y-62718030D01*
X165498426Y-62718030D02*
X165316997Y-62778506D01*
X165316997Y-62778506D02*
X165196045Y-62778506D01*
X165196045Y-62778506D02*
X165014616Y-62718030D01*
X165014616Y-62718030D02*
X164893664Y-62597077D01*
X164893664Y-62597077D02*
X164833187Y-62476125D01*
X164833187Y-62476125D02*
X164772711Y-62234220D01*
X164772711Y-62234220D02*
X164772711Y-62052791D01*
X164772711Y-62052791D02*
X164833187Y-61810887D01*
X164833187Y-61810887D02*
X164893664Y-61689934D01*
X164893664Y-61689934D02*
X165014616Y-61568982D01*
X165014616Y-61568982D02*
X165196045Y-61508506D01*
X165196045Y-61508506D02*
X165316997Y-61508506D01*
X165316997Y-61508506D02*
X165498426Y-61568982D01*
X165498426Y-61568982D02*
X165558902Y-61629458D01*
X166042711Y-61629458D02*
X166103187Y-61568982D01*
X166103187Y-61568982D02*
X166224140Y-61508506D01*
X166224140Y-61508506D02*
X166526521Y-61508506D01*
X166526521Y-61508506D02*
X166647473Y-61568982D01*
X166647473Y-61568982D02*
X166707949Y-61629458D01*
X166707949Y-61629458D02*
X166768426Y-61750410D01*
X166768426Y-61750410D02*
X166768426Y-61871363D01*
X166768426Y-61871363D02*
X166707949Y-62052791D01*
X166707949Y-62052791D02*
X165982235Y-62778506D01*
X165982235Y-62778506D02*
X166768426Y-62778506D01*
D10*
X169966330Y-59168768D02*
X169918711Y-59216388D01*
X169918711Y-59216388D02*
X169775854Y-59264007D01*
X169775854Y-59264007D02*
X169680616Y-59264007D01*
X169680616Y-59264007D02*
X169537759Y-59216388D01*
X169537759Y-59216388D02*
X169442521Y-59121149D01*
X169442521Y-59121149D02*
X169394902Y-59025911D01*
X169394902Y-59025911D02*
X169347283Y-58835435D01*
X169347283Y-58835435D02*
X169347283Y-58692578D01*
X169347283Y-58692578D02*
X169394902Y-58502102D01*
X169394902Y-58502102D02*
X169442521Y-58406864D01*
X169442521Y-58406864D02*
X169537759Y-58311626D01*
X169537759Y-58311626D02*
X169680616Y-58264007D01*
X169680616Y-58264007D02*
X169775854Y-58264007D01*
X169775854Y-58264007D02*
X169918711Y-58311626D01*
X169918711Y-58311626D02*
X169966330Y-58359245D01*
X170347283Y-58359245D02*
X170394902Y-58311626D01*
X170394902Y-58311626D02*
X170490140Y-58264007D01*
X170490140Y-58264007D02*
X170728235Y-58264007D01*
X170728235Y-58264007D02*
X170823473Y-58311626D01*
X170823473Y-58311626D02*
X170871092Y-58359245D01*
X170871092Y-58359245D02*
X170918711Y-58454483D01*
X170918711Y-58454483D02*
X170918711Y-58549721D01*
X170918711Y-58549721D02*
X170871092Y-58692578D01*
X170871092Y-58692578D02*
X170299664Y-59264007D01*
X170299664Y-59264007D02*
X170918711Y-59264007D01*
X171775854Y-58264007D02*
X171585378Y-58264007D01*
X171585378Y-58264007D02*
X171490140Y-58311626D01*
X171490140Y-58311626D02*
X171442521Y-58359245D01*
X171442521Y-58359245D02*
X171347283Y-58502102D01*
X171347283Y-58502102D02*
X171299664Y-58692578D01*
X171299664Y-58692578D02*
X171299664Y-59073530D01*
X171299664Y-59073530D02*
X171347283Y-59168768D01*
X171347283Y-59168768D02*
X171394902Y-59216388D01*
X171394902Y-59216388D02*
X171490140Y-59264007D01*
X171490140Y-59264007D02*
X171680616Y-59264007D01*
X171680616Y-59264007D02*
X171775854Y-59216388D01*
X171775854Y-59216388D02*
X171823473Y-59168768D01*
X171823473Y-59168768D02*
X171871092Y-59073530D01*
X171871092Y-59073530D02*
X171871092Y-58835435D01*
X171871092Y-58835435D02*
X171823473Y-58740197D01*
X171823473Y-58740197D02*
X171775854Y-58692578D01*
X171775854Y-58692578D02*
X171680616Y-58644959D01*
X171680616Y-58644959D02*
X171490140Y-58644959D01*
X171490140Y-58644959D02*
X171394902Y-58692578D01*
X171394902Y-58692578D02*
X171347283Y-58740197D01*
X171347283Y-58740197D02*
X171299664Y-58835435D01*
X143105711Y-87633697D02*
X142772378Y-87633697D01*
X142772378Y-88157507D02*
X142772378Y-87157507D01*
X142772378Y-87157507D02*
X143248568Y-87157507D01*
X143962854Y-87633697D02*
X144105711Y-87681316D01*
X144105711Y-87681316D02*
X144153330Y-87728935D01*
X144153330Y-87728935D02*
X144200949Y-87824173D01*
X144200949Y-87824173D02*
X144200949Y-87967030D01*
X144200949Y-87967030D02*
X144153330Y-88062268D01*
X144153330Y-88062268D02*
X144105711Y-88109888D01*
X144105711Y-88109888D02*
X144010473Y-88157507D01*
X144010473Y-88157507D02*
X143629521Y-88157507D01*
X143629521Y-88157507D02*
X143629521Y-87157507D01*
X143629521Y-87157507D02*
X143962854Y-87157507D01*
X143962854Y-87157507D02*
X144058092Y-87205126D01*
X144058092Y-87205126D02*
X144105711Y-87252745D01*
X144105711Y-87252745D02*
X144153330Y-87347983D01*
X144153330Y-87347983D02*
X144153330Y-87443221D01*
X144153330Y-87443221D02*
X144105711Y-87538459D01*
X144105711Y-87538459D02*
X144058092Y-87586078D01*
X144058092Y-87586078D02*
X143962854Y-87633697D01*
X143962854Y-87633697D02*
X143629521Y-87633697D01*
X145058092Y-87490840D02*
X145058092Y-88157507D01*
X144819997Y-87109888D02*
X144581902Y-87824173D01*
X144581902Y-87824173D02*
X145200949Y-87824173D01*
X115137854Y-70957197D02*
X114804521Y-70957197D01*
X114804521Y-71481007D02*
X114804521Y-70481007D01*
X114804521Y-70481007D02*
X115280711Y-70481007D01*
X115994997Y-70957197D02*
X116137854Y-71004816D01*
X116137854Y-71004816D02*
X116185473Y-71052435D01*
X116185473Y-71052435D02*
X116233092Y-71147673D01*
X116233092Y-71147673D02*
X116233092Y-71290530D01*
X116233092Y-71290530D02*
X116185473Y-71385768D01*
X116185473Y-71385768D02*
X116137854Y-71433388D01*
X116137854Y-71433388D02*
X116042616Y-71481007D01*
X116042616Y-71481007D02*
X115661664Y-71481007D01*
X115661664Y-71481007D02*
X115661664Y-70481007D01*
X115661664Y-70481007D02*
X115994997Y-70481007D01*
X115994997Y-70481007D02*
X116090235Y-70528626D01*
X116090235Y-70528626D02*
X116137854Y-70576245D01*
X116137854Y-70576245D02*
X116185473Y-70671483D01*
X116185473Y-70671483D02*
X116185473Y-70766721D01*
X116185473Y-70766721D02*
X116137854Y-70861959D01*
X116137854Y-70861959D02*
X116090235Y-70909578D01*
X116090235Y-70909578D02*
X115994997Y-70957197D01*
X115994997Y-70957197D02*
X115661664Y-70957197D01*
X116614045Y-70576245D02*
X116661664Y-70528626D01*
X116661664Y-70528626D02*
X116756902Y-70481007D01*
X116756902Y-70481007D02*
X116994997Y-70481007D01*
X116994997Y-70481007D02*
X117090235Y-70528626D01*
X117090235Y-70528626D02*
X117137854Y-70576245D01*
X117137854Y-70576245D02*
X117185473Y-70671483D01*
X117185473Y-70671483D02*
X117185473Y-70766721D01*
X117185473Y-70766721D02*
X117137854Y-70909578D01*
X117137854Y-70909578D02*
X116566426Y-71481007D01*
X116566426Y-71481007D02*
X117185473Y-71481007D01*
X109166330Y-80164007D02*
X108832997Y-79687816D01*
X108594902Y-80164007D02*
X108594902Y-79164007D01*
X108594902Y-79164007D02*
X108975854Y-79164007D01*
X108975854Y-79164007D02*
X109071092Y-79211626D01*
X109071092Y-79211626D02*
X109118711Y-79259245D01*
X109118711Y-79259245D02*
X109166330Y-79354483D01*
X109166330Y-79354483D02*
X109166330Y-79497340D01*
X109166330Y-79497340D02*
X109118711Y-79592578D01*
X109118711Y-79592578D02*
X109071092Y-79640197D01*
X109071092Y-79640197D02*
X108975854Y-79687816D01*
X108975854Y-79687816D02*
X108594902Y-79687816D01*
X110118711Y-80164007D02*
X109547283Y-80164007D01*
X109832997Y-80164007D02*
X109832997Y-79164007D01*
X109832997Y-79164007D02*
X109737759Y-79306864D01*
X109737759Y-79306864D02*
X109642521Y-79402102D01*
X109642521Y-79402102D02*
X109547283Y-79449721D01*
X110452045Y-79164007D02*
X111071092Y-79164007D01*
X111071092Y-79164007D02*
X110737759Y-79544959D01*
X110737759Y-79544959D02*
X110880616Y-79544959D01*
X110880616Y-79544959D02*
X110975854Y-79592578D01*
X110975854Y-79592578D02*
X111023473Y-79640197D01*
X111023473Y-79640197D02*
X111071092Y-79735435D01*
X111071092Y-79735435D02*
X111071092Y-79973530D01*
X111071092Y-79973530D02*
X111023473Y-80068768D01*
X111023473Y-80068768D02*
X110975854Y-80116388D01*
X110975854Y-80116388D02*
X110880616Y-80164007D01*
X110880616Y-80164007D02*
X110594902Y-80164007D01*
X110594902Y-80164007D02*
X110499664Y-80116388D01*
X110499664Y-80116388D02*
X110452045Y-80068768D01*
X162266330Y-59168768D02*
X162218711Y-59216388D01*
X162218711Y-59216388D02*
X162075854Y-59264007D01*
X162075854Y-59264007D02*
X161980616Y-59264007D01*
X161980616Y-59264007D02*
X161837759Y-59216388D01*
X161837759Y-59216388D02*
X161742521Y-59121149D01*
X161742521Y-59121149D02*
X161694902Y-59025911D01*
X161694902Y-59025911D02*
X161647283Y-58835435D01*
X161647283Y-58835435D02*
X161647283Y-58692578D01*
X161647283Y-58692578D02*
X161694902Y-58502102D01*
X161694902Y-58502102D02*
X161742521Y-58406864D01*
X161742521Y-58406864D02*
X161837759Y-58311626D01*
X161837759Y-58311626D02*
X161980616Y-58264007D01*
X161980616Y-58264007D02*
X162075854Y-58264007D01*
X162075854Y-58264007D02*
X162218711Y-58311626D01*
X162218711Y-58311626D02*
X162266330Y-58359245D01*
X162647283Y-58359245D02*
X162694902Y-58311626D01*
X162694902Y-58311626D02*
X162790140Y-58264007D01*
X162790140Y-58264007D02*
X163028235Y-58264007D01*
X163028235Y-58264007D02*
X163123473Y-58311626D01*
X163123473Y-58311626D02*
X163171092Y-58359245D01*
X163171092Y-58359245D02*
X163218711Y-58454483D01*
X163218711Y-58454483D02*
X163218711Y-58549721D01*
X163218711Y-58549721D02*
X163171092Y-58692578D01*
X163171092Y-58692578D02*
X162599664Y-59264007D01*
X162599664Y-59264007D02*
X163218711Y-59264007D01*
X163552045Y-58264007D02*
X164218711Y-58264007D01*
X164218711Y-58264007D02*
X163790140Y-59264007D01*
X125162330Y-67490768D02*
X125114711Y-67538388D01*
X125114711Y-67538388D02*
X124971854Y-67586007D01*
X124971854Y-67586007D02*
X124876616Y-67586007D01*
X124876616Y-67586007D02*
X124733759Y-67538388D01*
X124733759Y-67538388D02*
X124638521Y-67443149D01*
X124638521Y-67443149D02*
X124590902Y-67347911D01*
X124590902Y-67347911D02*
X124543283Y-67157435D01*
X124543283Y-67157435D02*
X124543283Y-67014578D01*
X124543283Y-67014578D02*
X124590902Y-66824102D01*
X124590902Y-66824102D02*
X124638521Y-66728864D01*
X124638521Y-66728864D02*
X124733759Y-66633626D01*
X124733759Y-66633626D02*
X124876616Y-66586007D01*
X124876616Y-66586007D02*
X124971854Y-66586007D01*
X124971854Y-66586007D02*
X125114711Y-66633626D01*
X125114711Y-66633626D02*
X125162330Y-66681245D01*
X126114711Y-67586007D02*
X125543283Y-67586007D01*
X125828997Y-67586007D02*
X125828997Y-66586007D01*
X125828997Y-66586007D02*
X125733759Y-66728864D01*
X125733759Y-66728864D02*
X125638521Y-66824102D01*
X125638521Y-66824102D02*
X125543283Y-66871721D01*
X126733759Y-66586007D02*
X126828997Y-66586007D01*
X126828997Y-66586007D02*
X126924235Y-66633626D01*
X126924235Y-66633626D02*
X126971854Y-66681245D01*
X126971854Y-66681245D02*
X127019473Y-66776483D01*
X127019473Y-66776483D02*
X127067092Y-66966959D01*
X127067092Y-66966959D02*
X127067092Y-67205054D01*
X127067092Y-67205054D02*
X127019473Y-67395530D01*
X127019473Y-67395530D02*
X126971854Y-67490768D01*
X126971854Y-67490768D02*
X126924235Y-67538388D01*
X126924235Y-67538388D02*
X126828997Y-67586007D01*
X126828997Y-67586007D02*
X126733759Y-67586007D01*
X126733759Y-67586007D02*
X126638521Y-67538388D01*
X126638521Y-67538388D02*
X126590902Y-67490768D01*
X126590902Y-67490768D02*
X126543283Y-67395530D01*
X126543283Y-67395530D02*
X126495664Y-67205054D01*
X126495664Y-67205054D02*
X126495664Y-66966959D01*
X126495664Y-66966959D02*
X126543283Y-66776483D01*
X126543283Y-66776483D02*
X126590902Y-66681245D01*
X126590902Y-66681245D02*
X126638521Y-66633626D01*
X126638521Y-66633626D02*
X126733759Y-66586007D01*
X163167283Y-85189007D02*
X163167283Y-85998530D01*
X163167283Y-85998530D02*
X163214902Y-86093768D01*
X163214902Y-86093768D02*
X163262521Y-86141388D01*
X163262521Y-86141388D02*
X163357759Y-86189007D01*
X163357759Y-86189007D02*
X163548235Y-86189007D01*
X163548235Y-86189007D02*
X163643473Y-86141388D01*
X163643473Y-86141388D02*
X163691092Y-86093768D01*
X163691092Y-86093768D02*
X163738711Y-85998530D01*
X163738711Y-85998530D02*
X163738711Y-85189007D01*
X164738711Y-86189007D02*
X164167283Y-86189007D01*
X164452997Y-86189007D02*
X164452997Y-85189007D01*
X164452997Y-85189007D02*
X164357759Y-85331864D01*
X164357759Y-85331864D02*
X164262521Y-85427102D01*
X164262521Y-85427102D02*
X164167283Y-85474721D01*
X93354819Y-74916666D02*
X92878628Y-75249999D01*
X93354819Y-75488094D02*
X92354819Y-75488094D01*
X92354819Y-75488094D02*
X92354819Y-75107142D01*
X92354819Y-75107142D02*
X92402438Y-75011904D01*
X92402438Y-75011904D02*
X92450057Y-74964285D01*
X92450057Y-74964285D02*
X92545295Y-74916666D01*
X92545295Y-74916666D02*
X92688152Y-74916666D01*
X92688152Y-74916666D02*
X92783390Y-74964285D01*
X92783390Y-74964285D02*
X92831009Y-75011904D01*
X92831009Y-75011904D02*
X92878628Y-75107142D01*
X92878628Y-75107142D02*
X92878628Y-75488094D01*
X92354819Y-74059523D02*
X92354819Y-74249999D01*
X92354819Y-74249999D02*
X92402438Y-74345237D01*
X92402438Y-74345237D02*
X92450057Y-74392856D01*
X92450057Y-74392856D02*
X92592914Y-74488094D01*
X92592914Y-74488094D02*
X92783390Y-74535713D01*
X92783390Y-74535713D02*
X93164342Y-74535713D01*
X93164342Y-74535713D02*
X93259580Y-74488094D01*
X93259580Y-74488094D02*
X93307200Y-74440475D01*
X93307200Y-74440475D02*
X93354819Y-74345237D01*
X93354819Y-74345237D02*
X93354819Y-74154761D01*
X93354819Y-74154761D02*
X93307200Y-74059523D01*
X93307200Y-74059523D02*
X93259580Y-74011904D01*
X93259580Y-74011904D02*
X93164342Y-73964285D01*
X93164342Y-73964285D02*
X92926247Y-73964285D01*
X92926247Y-73964285D02*
X92831009Y-74011904D01*
X92831009Y-74011904D02*
X92783390Y-74059523D01*
X92783390Y-74059523D02*
X92735771Y-74154761D01*
X92735771Y-74154761D02*
X92735771Y-74345237D01*
X92735771Y-74345237D02*
X92783390Y-74440475D01*
X92783390Y-74440475D02*
X92831009Y-74488094D01*
X92831009Y-74488094D02*
X92926247Y-74535713D01*
X111287521Y-57584768D02*
X111239902Y-57632388D01*
X111239902Y-57632388D02*
X111097045Y-57680007D01*
X111097045Y-57680007D02*
X111001807Y-57680007D01*
X111001807Y-57680007D02*
X110858950Y-57632388D01*
X110858950Y-57632388D02*
X110763712Y-57537149D01*
X110763712Y-57537149D02*
X110716093Y-57441911D01*
X110716093Y-57441911D02*
X110668474Y-57251435D01*
X110668474Y-57251435D02*
X110668474Y-57108578D01*
X110668474Y-57108578D02*
X110716093Y-56918102D01*
X110716093Y-56918102D02*
X110763712Y-56822864D01*
X110763712Y-56822864D02*
X110858950Y-56727626D01*
X110858950Y-56727626D02*
X111001807Y-56680007D01*
X111001807Y-56680007D02*
X111097045Y-56680007D01*
X111097045Y-56680007D02*
X111239902Y-56727626D01*
X111239902Y-56727626D02*
X111287521Y-56775245D01*
X112192283Y-56680007D02*
X111716093Y-56680007D01*
X111716093Y-56680007D02*
X111668474Y-57156197D01*
X111668474Y-57156197D02*
X111716093Y-57108578D01*
X111716093Y-57108578D02*
X111811331Y-57060959D01*
X111811331Y-57060959D02*
X112049426Y-57060959D01*
X112049426Y-57060959D02*
X112144664Y-57108578D01*
X112144664Y-57108578D02*
X112192283Y-57156197D01*
X112192283Y-57156197D02*
X112239902Y-57251435D01*
X112239902Y-57251435D02*
X112239902Y-57489530D01*
X112239902Y-57489530D02*
X112192283Y-57584768D01*
X112192283Y-57584768D02*
X112144664Y-57632388D01*
X112144664Y-57632388D02*
X112049426Y-57680007D01*
X112049426Y-57680007D02*
X111811331Y-57680007D01*
X111811331Y-57680007D02*
X111716093Y-57632388D01*
X111716093Y-57632388D02*
X111668474Y-57584768D01*
X122208330Y-81952768D02*
X122160711Y-82000388D01*
X122160711Y-82000388D02*
X122017854Y-82048007D01*
X122017854Y-82048007D02*
X121922616Y-82048007D01*
X121922616Y-82048007D02*
X121779759Y-82000388D01*
X121779759Y-82000388D02*
X121684521Y-81905149D01*
X121684521Y-81905149D02*
X121636902Y-81809911D01*
X121636902Y-81809911D02*
X121589283Y-81619435D01*
X121589283Y-81619435D02*
X121589283Y-81476578D01*
X121589283Y-81476578D02*
X121636902Y-81286102D01*
X121636902Y-81286102D02*
X121684521Y-81190864D01*
X121684521Y-81190864D02*
X121779759Y-81095626D01*
X121779759Y-81095626D02*
X121922616Y-81048007D01*
X121922616Y-81048007D02*
X122017854Y-81048007D01*
X122017854Y-81048007D02*
X122160711Y-81095626D01*
X122160711Y-81095626D02*
X122208330Y-81143245D01*
X123160711Y-82048007D02*
X122589283Y-82048007D01*
X122874997Y-82048007D02*
X122874997Y-81048007D01*
X122874997Y-81048007D02*
X122779759Y-81190864D01*
X122779759Y-81190864D02*
X122684521Y-81286102D01*
X122684521Y-81286102D02*
X122589283Y-81333721D01*
X124065473Y-81048007D02*
X123589283Y-81048007D01*
X123589283Y-81048007D02*
X123541664Y-81524197D01*
X123541664Y-81524197D02*
X123589283Y-81476578D01*
X123589283Y-81476578D02*
X123684521Y-81428959D01*
X123684521Y-81428959D02*
X123922616Y-81428959D01*
X123922616Y-81428959D02*
X124017854Y-81476578D01*
X124017854Y-81476578D02*
X124065473Y-81524197D01*
X124065473Y-81524197D02*
X124113092Y-81619435D01*
X124113092Y-81619435D02*
X124113092Y-81857530D01*
X124113092Y-81857530D02*
X124065473Y-81952768D01*
X124065473Y-81952768D02*
X124017854Y-82000388D01*
X124017854Y-82000388D02*
X123922616Y-82048007D01*
X123922616Y-82048007D02*
X123684521Y-82048007D01*
X123684521Y-82048007D02*
X123589283Y-82000388D01*
X123589283Y-82000388D02*
X123541664Y-81952768D01*
X160442522Y-75168767D02*
X160394903Y-75216387D01*
X160394903Y-75216387D02*
X160252046Y-75264006D01*
X160252046Y-75264006D02*
X160156808Y-75264006D01*
X160156808Y-75264006D02*
X160013951Y-75216387D01*
X160013951Y-75216387D02*
X159918713Y-75121148D01*
X159918713Y-75121148D02*
X159871094Y-75025910D01*
X159871094Y-75025910D02*
X159823475Y-74835434D01*
X159823475Y-74835434D02*
X159823475Y-74692577D01*
X159823475Y-74692577D02*
X159871094Y-74502101D01*
X159871094Y-74502101D02*
X159918713Y-74406863D01*
X159918713Y-74406863D02*
X160013951Y-74311625D01*
X160013951Y-74311625D02*
X160156808Y-74264006D01*
X160156808Y-74264006D02*
X160252046Y-74264006D01*
X160252046Y-74264006D02*
X160394903Y-74311625D01*
X160394903Y-74311625D02*
X160442522Y-74359244D01*
X161394903Y-75264006D02*
X160823475Y-75264006D01*
X161109189Y-75264006D02*
X161109189Y-74264006D01*
X161109189Y-74264006D02*
X161013951Y-74406863D01*
X161013951Y-74406863D02*
X160918713Y-74502101D01*
X160918713Y-74502101D02*
X160823475Y-74549720D01*
X128742521Y-57176507D02*
X128409188Y-56700316D01*
X128171093Y-57176507D02*
X128171093Y-56176507D01*
X128171093Y-56176507D02*
X128552045Y-56176507D01*
X128552045Y-56176507D02*
X128647283Y-56224126D01*
X128647283Y-56224126D02*
X128694902Y-56271745D01*
X128694902Y-56271745D02*
X128742521Y-56366983D01*
X128742521Y-56366983D02*
X128742521Y-56509840D01*
X128742521Y-56509840D02*
X128694902Y-56605078D01*
X128694902Y-56605078D02*
X128647283Y-56652697D01*
X128647283Y-56652697D02*
X128552045Y-56700316D01*
X128552045Y-56700316D02*
X128171093Y-56700316D01*
X129075855Y-56176507D02*
X129694902Y-56176507D01*
X129694902Y-56176507D02*
X129361569Y-56557459D01*
X129361569Y-56557459D02*
X129504426Y-56557459D01*
X129504426Y-56557459D02*
X129599664Y-56605078D01*
X129599664Y-56605078D02*
X129647283Y-56652697D01*
X129647283Y-56652697D02*
X129694902Y-56747935D01*
X129694902Y-56747935D02*
X129694902Y-56986030D01*
X129694902Y-56986030D02*
X129647283Y-57081268D01*
X129647283Y-57081268D02*
X129599664Y-57128888D01*
X129599664Y-57128888D02*
X129504426Y-57176507D01*
X129504426Y-57176507D02*
X129218712Y-57176507D01*
X129218712Y-57176507D02*
X129123474Y-57128888D01*
X129123474Y-57128888D02*
X129075855Y-57081268D01*
X113448768Y-69802045D02*
X113496388Y-69849664D01*
X113496388Y-69849664D02*
X113544007Y-69992521D01*
X113544007Y-69992521D02*
X113544007Y-70087759D01*
X113544007Y-70087759D02*
X113496388Y-70230616D01*
X113496388Y-70230616D02*
X113401149Y-70325854D01*
X113401149Y-70325854D02*
X113305911Y-70373473D01*
X113305911Y-70373473D02*
X113115435Y-70421092D01*
X113115435Y-70421092D02*
X112972578Y-70421092D01*
X112972578Y-70421092D02*
X112782102Y-70373473D01*
X112782102Y-70373473D02*
X112686864Y-70325854D01*
X112686864Y-70325854D02*
X112591626Y-70230616D01*
X112591626Y-70230616D02*
X112544007Y-70087759D01*
X112544007Y-70087759D02*
X112544007Y-69992521D01*
X112544007Y-69992521D02*
X112591626Y-69849664D01*
X112591626Y-69849664D02*
X112639245Y-69802045D01*
X112544007Y-69468711D02*
X112544007Y-68849664D01*
X112544007Y-68849664D02*
X112924959Y-69182997D01*
X112924959Y-69182997D02*
X112924959Y-69040140D01*
X112924959Y-69040140D02*
X112972578Y-68944902D01*
X112972578Y-68944902D02*
X113020197Y-68897283D01*
X113020197Y-68897283D02*
X113115435Y-68849664D01*
X113115435Y-68849664D02*
X113353530Y-68849664D01*
X113353530Y-68849664D02*
X113448768Y-68897283D01*
X113448768Y-68897283D02*
X113496388Y-68944902D01*
X113496388Y-68944902D02*
X113544007Y-69040140D01*
X113544007Y-69040140D02*
X113544007Y-69325854D01*
X113544007Y-69325854D02*
X113496388Y-69421092D01*
X113496388Y-69421092D02*
X113448768Y-69468711D01*
X112544007Y-68230616D02*
X112544007Y-68135378D01*
X112544007Y-68135378D02*
X112591626Y-68040140D01*
X112591626Y-68040140D02*
X112639245Y-67992521D01*
X112639245Y-67992521D02*
X112734483Y-67944902D01*
X112734483Y-67944902D02*
X112924959Y-67897283D01*
X112924959Y-67897283D02*
X113163054Y-67897283D01*
X113163054Y-67897283D02*
X113353530Y-67944902D01*
X113353530Y-67944902D02*
X113448768Y-67992521D01*
X113448768Y-67992521D02*
X113496388Y-68040140D01*
X113496388Y-68040140D02*
X113544007Y-68135378D01*
X113544007Y-68135378D02*
X113544007Y-68230616D01*
X113544007Y-68230616D02*
X113496388Y-68325854D01*
X113496388Y-68325854D02*
X113448768Y-68373473D01*
X113448768Y-68373473D02*
X113353530Y-68421092D01*
X113353530Y-68421092D02*
X113163054Y-68468711D01*
X113163054Y-68468711D02*
X112924959Y-68468711D01*
X112924959Y-68468711D02*
X112734483Y-68421092D01*
X112734483Y-68421092D02*
X112639245Y-68373473D01*
X112639245Y-68373473D02*
X112591626Y-68325854D01*
X112591626Y-68325854D02*
X112544007Y-68230616D01*
X127968768Y-75902045D02*
X128016388Y-75949664D01*
X128016388Y-75949664D02*
X128064007Y-76092521D01*
X128064007Y-76092521D02*
X128064007Y-76187759D01*
X128064007Y-76187759D02*
X128016388Y-76330616D01*
X128016388Y-76330616D02*
X127921149Y-76425854D01*
X127921149Y-76425854D02*
X127825911Y-76473473D01*
X127825911Y-76473473D02*
X127635435Y-76521092D01*
X127635435Y-76521092D02*
X127492578Y-76521092D01*
X127492578Y-76521092D02*
X127302102Y-76473473D01*
X127302102Y-76473473D02*
X127206864Y-76425854D01*
X127206864Y-76425854D02*
X127111626Y-76330616D01*
X127111626Y-76330616D02*
X127064007Y-76187759D01*
X127064007Y-76187759D02*
X127064007Y-76092521D01*
X127064007Y-76092521D02*
X127111626Y-75949664D01*
X127111626Y-75949664D02*
X127159245Y-75902045D01*
X128064007Y-74949664D02*
X128064007Y-75521092D01*
X128064007Y-75235378D02*
X127064007Y-75235378D01*
X127064007Y-75235378D02*
X127206864Y-75330616D01*
X127206864Y-75330616D02*
X127302102Y-75425854D01*
X127302102Y-75425854D02*
X127349721Y-75521092D01*
X127064007Y-74616330D02*
X127064007Y-73949664D01*
X127064007Y-73949664D02*
X128064007Y-74378235D01*
X113616330Y-85214007D02*
X113282997Y-84737816D01*
X113044902Y-85214007D02*
X113044902Y-84214007D01*
X113044902Y-84214007D02*
X113425854Y-84214007D01*
X113425854Y-84214007D02*
X113521092Y-84261626D01*
X113521092Y-84261626D02*
X113568711Y-84309245D01*
X113568711Y-84309245D02*
X113616330Y-84404483D01*
X113616330Y-84404483D02*
X113616330Y-84547340D01*
X113616330Y-84547340D02*
X113568711Y-84642578D01*
X113568711Y-84642578D02*
X113521092Y-84690197D01*
X113521092Y-84690197D02*
X113425854Y-84737816D01*
X113425854Y-84737816D02*
X113044902Y-84737816D01*
X114568711Y-85214007D02*
X113997283Y-85214007D01*
X114282997Y-85214007D02*
X114282997Y-84214007D01*
X114282997Y-84214007D02*
X114187759Y-84356864D01*
X114187759Y-84356864D02*
X114092521Y-84452102D01*
X114092521Y-84452102D02*
X113997283Y-84499721D01*
X115521092Y-85214007D02*
X114949664Y-85214007D01*
X115235378Y-85214007D02*
X115235378Y-84214007D01*
X115235378Y-84214007D02*
X115140140Y-84356864D01*
X115140140Y-84356864D02*
X115044902Y-84452102D01*
X115044902Y-84452102D02*
X114949664Y-84499721D01*
X100059521Y-61775768D02*
X100011902Y-61823388D01*
X100011902Y-61823388D02*
X99869045Y-61871007D01*
X99869045Y-61871007D02*
X99773807Y-61871007D01*
X99773807Y-61871007D02*
X99630950Y-61823388D01*
X99630950Y-61823388D02*
X99535712Y-61728149D01*
X99535712Y-61728149D02*
X99488093Y-61632911D01*
X99488093Y-61632911D02*
X99440474Y-61442435D01*
X99440474Y-61442435D02*
X99440474Y-61299578D01*
X99440474Y-61299578D02*
X99488093Y-61109102D01*
X99488093Y-61109102D02*
X99535712Y-61013864D01*
X99535712Y-61013864D02*
X99630950Y-60918626D01*
X99630950Y-60918626D02*
X99773807Y-60871007D01*
X99773807Y-60871007D02*
X99869045Y-60871007D01*
X99869045Y-60871007D02*
X100011902Y-60918626D01*
X100011902Y-60918626D02*
X100059521Y-60966245D01*
X100916664Y-61204340D02*
X100916664Y-61871007D01*
X100678569Y-60823388D02*
X100440474Y-61537673D01*
X100440474Y-61537673D02*
X101059521Y-61537673D01*
D11*
X107269425Y-61283506D02*
X107269425Y-60013506D01*
X108599902Y-61162553D02*
X108539426Y-61223030D01*
X108539426Y-61223030D02*
X108357997Y-61283506D01*
X108357997Y-61283506D02*
X108237045Y-61283506D01*
X108237045Y-61283506D02*
X108055616Y-61223030D01*
X108055616Y-61223030D02*
X107934664Y-61102077D01*
X107934664Y-61102077D02*
X107874187Y-60981125D01*
X107874187Y-60981125D02*
X107813711Y-60739220D01*
X107813711Y-60739220D02*
X107813711Y-60557791D01*
X107813711Y-60557791D02*
X107874187Y-60315887D01*
X107874187Y-60315887D02*
X107934664Y-60194934D01*
X107934664Y-60194934D02*
X108055616Y-60073982D01*
X108055616Y-60073982D02*
X108237045Y-60013506D01*
X108237045Y-60013506D02*
X108357997Y-60013506D01*
X108357997Y-60013506D02*
X108539426Y-60073982D01*
X108539426Y-60073982D02*
X108599902Y-60134458D01*
X109809426Y-61283506D02*
X109083711Y-61283506D01*
X109446568Y-61283506D02*
X109446568Y-60013506D01*
X109446568Y-60013506D02*
X109325616Y-60194934D01*
X109325616Y-60194934D02*
X109204664Y-60315887D01*
X109204664Y-60315887D02*
X109083711Y-60376363D01*
D10*
X132210854Y-58045197D02*
X131877521Y-58045197D01*
X131877521Y-58569007D02*
X131877521Y-57569007D01*
X131877521Y-57569007D02*
X132353711Y-57569007D01*
X133067997Y-58045197D02*
X133210854Y-58092816D01*
X133210854Y-58092816D02*
X133258473Y-58140435D01*
X133258473Y-58140435D02*
X133306092Y-58235673D01*
X133306092Y-58235673D02*
X133306092Y-58378530D01*
X133306092Y-58378530D02*
X133258473Y-58473768D01*
X133258473Y-58473768D02*
X133210854Y-58521388D01*
X133210854Y-58521388D02*
X133115616Y-58569007D01*
X133115616Y-58569007D02*
X132734664Y-58569007D01*
X132734664Y-58569007D02*
X132734664Y-57569007D01*
X132734664Y-57569007D02*
X133067997Y-57569007D01*
X133067997Y-57569007D02*
X133163235Y-57616626D01*
X133163235Y-57616626D02*
X133210854Y-57664245D01*
X133210854Y-57664245D02*
X133258473Y-57759483D01*
X133258473Y-57759483D02*
X133258473Y-57854721D01*
X133258473Y-57854721D02*
X133210854Y-57949959D01*
X133210854Y-57949959D02*
X133163235Y-57997578D01*
X133163235Y-57997578D02*
X133067997Y-58045197D01*
X133067997Y-58045197D02*
X132734664Y-58045197D01*
X134258473Y-58569007D02*
X133687045Y-58569007D01*
X133972759Y-58569007D02*
X133972759Y-57569007D01*
X133972759Y-57569007D02*
X133877521Y-57711864D01*
X133877521Y-57711864D02*
X133782283Y-57807102D01*
X133782283Y-57807102D02*
X133687045Y-57854721D01*
X133417330Y-63934768D02*
X133369711Y-63982388D01*
X133369711Y-63982388D02*
X133226854Y-64030007D01*
X133226854Y-64030007D02*
X133131616Y-64030007D01*
X133131616Y-64030007D02*
X132988759Y-63982388D01*
X132988759Y-63982388D02*
X132893521Y-63887149D01*
X132893521Y-63887149D02*
X132845902Y-63791911D01*
X132845902Y-63791911D02*
X132798283Y-63601435D01*
X132798283Y-63601435D02*
X132798283Y-63458578D01*
X132798283Y-63458578D02*
X132845902Y-63268102D01*
X132845902Y-63268102D02*
X132893521Y-63172864D01*
X132893521Y-63172864D02*
X132988759Y-63077626D01*
X132988759Y-63077626D02*
X133131616Y-63030007D01*
X133131616Y-63030007D02*
X133226854Y-63030007D01*
X133226854Y-63030007D02*
X133369711Y-63077626D01*
X133369711Y-63077626D02*
X133417330Y-63125245D01*
X134369711Y-64030007D02*
X133798283Y-64030007D01*
X134083997Y-64030007D02*
X134083997Y-63030007D01*
X134083997Y-63030007D02*
X133988759Y-63172864D01*
X133988759Y-63172864D02*
X133893521Y-63268102D01*
X133893521Y-63268102D02*
X133798283Y-63315721D01*
X134703045Y-63030007D02*
X135322092Y-63030007D01*
X135322092Y-63030007D02*
X134988759Y-63410959D01*
X134988759Y-63410959D02*
X135131616Y-63410959D01*
X135131616Y-63410959D02*
X135226854Y-63458578D01*
X135226854Y-63458578D02*
X135274473Y-63506197D01*
X135274473Y-63506197D02*
X135322092Y-63601435D01*
X135322092Y-63601435D02*
X135322092Y-63839530D01*
X135322092Y-63839530D02*
X135274473Y-63934768D01*
X135274473Y-63934768D02*
X135226854Y-63982388D01*
X135226854Y-63982388D02*
X135131616Y-64030007D01*
X135131616Y-64030007D02*
X134845902Y-64030007D01*
X134845902Y-64030007D02*
X134750664Y-63982388D01*
X134750664Y-63982388D02*
X134703045Y-63934768D01*
X108416330Y-74814007D02*
X108082997Y-74337816D01*
X107844902Y-74814007D02*
X107844902Y-73814007D01*
X107844902Y-73814007D02*
X108225854Y-73814007D01*
X108225854Y-73814007D02*
X108321092Y-73861626D01*
X108321092Y-73861626D02*
X108368711Y-73909245D01*
X108368711Y-73909245D02*
X108416330Y-74004483D01*
X108416330Y-74004483D02*
X108416330Y-74147340D01*
X108416330Y-74147340D02*
X108368711Y-74242578D01*
X108368711Y-74242578D02*
X108321092Y-74290197D01*
X108321092Y-74290197D02*
X108225854Y-74337816D01*
X108225854Y-74337816D02*
X107844902Y-74337816D01*
X109368711Y-74814007D02*
X108797283Y-74814007D01*
X109082997Y-74814007D02*
X109082997Y-73814007D01*
X109082997Y-73814007D02*
X108987759Y-73956864D01*
X108987759Y-73956864D02*
X108892521Y-74052102D01*
X108892521Y-74052102D02*
X108797283Y-74099721D01*
X109749664Y-73909245D02*
X109797283Y-73861626D01*
X109797283Y-73861626D02*
X109892521Y-73814007D01*
X109892521Y-73814007D02*
X110130616Y-73814007D01*
X110130616Y-73814007D02*
X110225854Y-73861626D01*
X110225854Y-73861626D02*
X110273473Y-73909245D01*
X110273473Y-73909245D02*
X110321092Y-74004483D01*
X110321092Y-74004483D02*
X110321092Y-74099721D01*
X110321092Y-74099721D02*
X110273473Y-74242578D01*
X110273473Y-74242578D02*
X109702045Y-74814007D01*
X109702045Y-74814007D02*
X110321092Y-74814007D01*
X176564008Y-78875853D02*
X176087817Y-79209186D01*
X176564008Y-79447281D02*
X175564008Y-79447281D01*
X175564008Y-79447281D02*
X175564008Y-79066329D01*
X175564008Y-79066329D02*
X175611627Y-78971091D01*
X175611627Y-78971091D02*
X175659246Y-78923472D01*
X175659246Y-78923472D02*
X175754484Y-78875853D01*
X175754484Y-78875853D02*
X175897341Y-78875853D01*
X175897341Y-78875853D02*
X175992579Y-78923472D01*
X175992579Y-78923472D02*
X176040198Y-78971091D01*
X176040198Y-78971091D02*
X176087817Y-79066329D01*
X176087817Y-79066329D02*
X176087817Y-79447281D01*
X176564008Y-77923472D02*
X176564008Y-78494900D01*
X176564008Y-78209186D02*
X175564008Y-78209186D01*
X175564008Y-78209186D02*
X175706865Y-78304424D01*
X175706865Y-78304424D02*
X175802103Y-78399662D01*
X175802103Y-78399662D02*
X175849722Y-78494900D01*
X95454819Y-78566666D02*
X94978628Y-78899999D01*
X95454819Y-79138094D02*
X94454819Y-79138094D01*
X94454819Y-79138094D02*
X94454819Y-78757142D01*
X94454819Y-78757142D02*
X94502438Y-78661904D01*
X94502438Y-78661904D02*
X94550057Y-78614285D01*
X94550057Y-78614285D02*
X94645295Y-78566666D01*
X94645295Y-78566666D02*
X94788152Y-78566666D01*
X94788152Y-78566666D02*
X94883390Y-78614285D01*
X94883390Y-78614285D02*
X94931009Y-78661904D01*
X94931009Y-78661904D02*
X94978628Y-78757142D01*
X94978628Y-78757142D02*
X94978628Y-79138094D01*
X94883390Y-77995237D02*
X94835771Y-78090475D01*
X94835771Y-78090475D02*
X94788152Y-78138094D01*
X94788152Y-78138094D02*
X94692914Y-78185713D01*
X94692914Y-78185713D02*
X94645295Y-78185713D01*
X94645295Y-78185713D02*
X94550057Y-78138094D01*
X94550057Y-78138094D02*
X94502438Y-78090475D01*
X94502438Y-78090475D02*
X94454819Y-77995237D01*
X94454819Y-77995237D02*
X94454819Y-77804761D01*
X94454819Y-77804761D02*
X94502438Y-77709523D01*
X94502438Y-77709523D02*
X94550057Y-77661904D01*
X94550057Y-77661904D02*
X94645295Y-77614285D01*
X94645295Y-77614285D02*
X94692914Y-77614285D01*
X94692914Y-77614285D02*
X94788152Y-77661904D01*
X94788152Y-77661904D02*
X94835771Y-77709523D01*
X94835771Y-77709523D02*
X94883390Y-77804761D01*
X94883390Y-77804761D02*
X94883390Y-77995237D01*
X94883390Y-77995237D02*
X94931009Y-78090475D01*
X94931009Y-78090475D02*
X94978628Y-78138094D01*
X94978628Y-78138094D02*
X95073866Y-78185713D01*
X95073866Y-78185713D02*
X95264342Y-78185713D01*
X95264342Y-78185713D02*
X95359580Y-78138094D01*
X95359580Y-78138094D02*
X95407200Y-78090475D01*
X95407200Y-78090475D02*
X95454819Y-77995237D01*
X95454819Y-77995237D02*
X95454819Y-77804761D01*
X95454819Y-77804761D02*
X95407200Y-77709523D01*
X95407200Y-77709523D02*
X95359580Y-77661904D01*
X95359580Y-77661904D02*
X95264342Y-77614285D01*
X95264342Y-77614285D02*
X95073866Y-77614285D01*
X95073866Y-77614285D02*
X94978628Y-77661904D01*
X94978628Y-77661904D02*
X94931009Y-77709523D01*
X94931009Y-77709523D02*
X94883390Y-77804761D01*
X113616330Y-79864007D02*
X113282997Y-79387816D01*
X113044902Y-79864007D02*
X113044902Y-78864007D01*
X113044902Y-78864007D02*
X113425854Y-78864007D01*
X113425854Y-78864007D02*
X113521092Y-78911626D01*
X113521092Y-78911626D02*
X113568711Y-78959245D01*
X113568711Y-78959245D02*
X113616330Y-79054483D01*
X113616330Y-79054483D02*
X113616330Y-79197340D01*
X113616330Y-79197340D02*
X113568711Y-79292578D01*
X113568711Y-79292578D02*
X113521092Y-79340197D01*
X113521092Y-79340197D02*
X113425854Y-79387816D01*
X113425854Y-79387816D02*
X113044902Y-79387816D01*
X114568711Y-79864007D02*
X113997283Y-79864007D01*
X114282997Y-79864007D02*
X114282997Y-78864007D01*
X114282997Y-78864007D02*
X114187759Y-79006864D01*
X114187759Y-79006864D02*
X114092521Y-79102102D01*
X114092521Y-79102102D02*
X113997283Y-79149721D01*
X115187759Y-78864007D02*
X115282997Y-78864007D01*
X115282997Y-78864007D02*
X115378235Y-78911626D01*
X115378235Y-78911626D02*
X115425854Y-78959245D01*
X115425854Y-78959245D02*
X115473473Y-79054483D01*
X115473473Y-79054483D02*
X115521092Y-79244959D01*
X115521092Y-79244959D02*
X115521092Y-79483054D01*
X115521092Y-79483054D02*
X115473473Y-79673530D01*
X115473473Y-79673530D02*
X115425854Y-79768768D01*
X115425854Y-79768768D02*
X115378235Y-79816388D01*
X115378235Y-79816388D02*
X115282997Y-79864007D01*
X115282997Y-79864007D02*
X115187759Y-79864007D01*
X115187759Y-79864007D02*
X115092521Y-79816388D01*
X115092521Y-79816388D02*
X115044902Y-79768768D01*
X115044902Y-79768768D02*
X114997283Y-79673530D01*
X114997283Y-79673530D02*
X114949664Y-79483054D01*
X114949664Y-79483054D02*
X114949664Y-79244959D01*
X114949664Y-79244959D02*
X114997283Y-79054483D01*
X114997283Y-79054483D02*
X115044902Y-78959245D01*
X115044902Y-78959245D02*
X115092521Y-78911626D01*
X115092521Y-78911626D02*
X115187759Y-78864007D01*
X100059521Y-59616768D02*
X100011902Y-59664388D01*
X100011902Y-59664388D02*
X99869045Y-59712007D01*
X99869045Y-59712007D02*
X99773807Y-59712007D01*
X99773807Y-59712007D02*
X99630950Y-59664388D01*
X99630950Y-59664388D02*
X99535712Y-59569149D01*
X99535712Y-59569149D02*
X99488093Y-59473911D01*
X99488093Y-59473911D02*
X99440474Y-59283435D01*
X99440474Y-59283435D02*
X99440474Y-59140578D01*
X99440474Y-59140578D02*
X99488093Y-58950102D01*
X99488093Y-58950102D02*
X99535712Y-58854864D01*
X99535712Y-58854864D02*
X99630950Y-58759626D01*
X99630950Y-58759626D02*
X99773807Y-58712007D01*
X99773807Y-58712007D02*
X99869045Y-58712007D01*
X99869045Y-58712007D02*
X100011902Y-58759626D01*
X100011902Y-58759626D02*
X100059521Y-58807245D01*
X100392855Y-58712007D02*
X101011902Y-58712007D01*
X101011902Y-58712007D02*
X100678569Y-59092959D01*
X100678569Y-59092959D02*
X100821426Y-59092959D01*
X100821426Y-59092959D02*
X100916664Y-59140578D01*
X100916664Y-59140578D02*
X100964283Y-59188197D01*
X100964283Y-59188197D02*
X101011902Y-59283435D01*
X101011902Y-59283435D02*
X101011902Y-59521530D01*
X101011902Y-59521530D02*
X100964283Y-59616768D01*
X100964283Y-59616768D02*
X100916664Y-59664388D01*
X100916664Y-59664388D02*
X100821426Y-59712007D01*
X100821426Y-59712007D02*
X100535712Y-59712007D01*
X100535712Y-59712007D02*
X100440474Y-59664388D01*
X100440474Y-59664388D02*
X100392855Y-59616768D01*
X147043568Y-69710854D02*
X147091188Y-69758473D01*
X147091188Y-69758473D02*
X147138807Y-69901330D01*
X147138807Y-69901330D02*
X147138807Y-69996568D01*
X147138807Y-69996568D02*
X147091188Y-70139425D01*
X147091188Y-70139425D02*
X146995949Y-70234663D01*
X146995949Y-70234663D02*
X146900711Y-70282282D01*
X146900711Y-70282282D02*
X146710235Y-70329901D01*
X146710235Y-70329901D02*
X146567378Y-70329901D01*
X146567378Y-70329901D02*
X146376902Y-70282282D01*
X146376902Y-70282282D02*
X146281664Y-70234663D01*
X146281664Y-70234663D02*
X146186426Y-70139425D01*
X146186426Y-70139425D02*
X146138807Y-69996568D01*
X146138807Y-69996568D02*
X146138807Y-69901330D01*
X146138807Y-69901330D02*
X146186426Y-69758473D01*
X146186426Y-69758473D02*
X146234045Y-69710854D01*
X146567378Y-69139425D02*
X146519759Y-69234663D01*
X146519759Y-69234663D02*
X146472140Y-69282282D01*
X146472140Y-69282282D02*
X146376902Y-69329901D01*
X146376902Y-69329901D02*
X146329283Y-69329901D01*
X146329283Y-69329901D02*
X146234045Y-69282282D01*
X146234045Y-69282282D02*
X146186426Y-69234663D01*
X146186426Y-69234663D02*
X146138807Y-69139425D01*
X146138807Y-69139425D02*
X146138807Y-68948949D01*
X146138807Y-68948949D02*
X146186426Y-68853711D01*
X146186426Y-68853711D02*
X146234045Y-68806092D01*
X146234045Y-68806092D02*
X146329283Y-68758473D01*
X146329283Y-68758473D02*
X146376902Y-68758473D01*
X146376902Y-68758473D02*
X146472140Y-68806092D01*
X146472140Y-68806092D02*
X146519759Y-68853711D01*
X146519759Y-68853711D02*
X146567378Y-68948949D01*
X146567378Y-68948949D02*
X146567378Y-69139425D01*
X146567378Y-69139425D02*
X146614997Y-69234663D01*
X146614997Y-69234663D02*
X146662616Y-69282282D01*
X146662616Y-69282282D02*
X146757854Y-69329901D01*
X146757854Y-69329901D02*
X146948330Y-69329901D01*
X146948330Y-69329901D02*
X147043568Y-69282282D01*
X147043568Y-69282282D02*
X147091188Y-69234663D01*
X147091188Y-69234663D02*
X147138807Y-69139425D01*
X147138807Y-69139425D02*
X147138807Y-68948949D01*
X147138807Y-68948949D02*
X147091188Y-68853711D01*
X147091188Y-68853711D02*
X147043568Y-68806092D01*
X147043568Y-68806092D02*
X146948330Y-68758473D01*
X146948330Y-68758473D02*
X146757854Y-68758473D01*
X146757854Y-68758473D02*
X146662616Y-68806092D01*
X146662616Y-68806092D02*
X146614997Y-68853711D01*
X146614997Y-68853711D02*
X146567378Y-68948949D01*
X152566330Y-62468768D02*
X152518711Y-62516388D01*
X152518711Y-62516388D02*
X152375854Y-62564007D01*
X152375854Y-62564007D02*
X152280616Y-62564007D01*
X152280616Y-62564007D02*
X152137759Y-62516388D01*
X152137759Y-62516388D02*
X152042521Y-62421149D01*
X152042521Y-62421149D02*
X151994902Y-62325911D01*
X151994902Y-62325911D02*
X151947283Y-62135435D01*
X151947283Y-62135435D02*
X151947283Y-61992578D01*
X151947283Y-61992578D02*
X151994902Y-61802102D01*
X151994902Y-61802102D02*
X152042521Y-61706864D01*
X152042521Y-61706864D02*
X152137759Y-61611626D01*
X152137759Y-61611626D02*
X152280616Y-61564007D01*
X152280616Y-61564007D02*
X152375854Y-61564007D01*
X152375854Y-61564007D02*
X152518711Y-61611626D01*
X152518711Y-61611626D02*
X152566330Y-61659245D01*
X152947283Y-61659245D02*
X152994902Y-61611626D01*
X152994902Y-61611626D02*
X153090140Y-61564007D01*
X153090140Y-61564007D02*
X153328235Y-61564007D01*
X153328235Y-61564007D02*
X153423473Y-61611626D01*
X153423473Y-61611626D02*
X153471092Y-61659245D01*
X153471092Y-61659245D02*
X153518711Y-61754483D01*
X153518711Y-61754483D02*
X153518711Y-61849721D01*
X153518711Y-61849721D02*
X153471092Y-61992578D01*
X153471092Y-61992578D02*
X152899664Y-62564007D01*
X152899664Y-62564007D02*
X153518711Y-62564007D01*
X154375854Y-61897340D02*
X154375854Y-62564007D01*
X154137759Y-61516388D02*
X153899664Y-62230673D01*
X153899664Y-62230673D02*
X154518711Y-62230673D01*
D11*
X99269425Y-80833506D02*
X99269425Y-79563506D01*
X100599902Y-80712553D02*
X100539426Y-80773030D01*
X100539426Y-80773030D02*
X100357997Y-80833506D01*
X100357997Y-80833506D02*
X100237045Y-80833506D01*
X100237045Y-80833506D02*
X100055616Y-80773030D01*
X100055616Y-80773030D02*
X99934664Y-80652077D01*
X99934664Y-80652077D02*
X99874187Y-80531125D01*
X99874187Y-80531125D02*
X99813711Y-80289220D01*
X99813711Y-80289220D02*
X99813711Y-80107791D01*
X99813711Y-80107791D02*
X99874187Y-79865887D01*
X99874187Y-79865887D02*
X99934664Y-79744934D01*
X99934664Y-79744934D02*
X100055616Y-79623982D01*
X100055616Y-79623982D02*
X100237045Y-79563506D01*
X100237045Y-79563506D02*
X100357997Y-79563506D01*
X100357997Y-79563506D02*
X100539426Y-79623982D01*
X100539426Y-79623982D02*
X100599902Y-79684458D01*
X101688473Y-79986839D02*
X101688473Y-80833506D01*
X101386092Y-79503030D02*
X101083711Y-80410172D01*
X101083711Y-80410172D02*
X101869902Y-80410172D01*
D10*
X136211330Y-63807768D02*
X136163711Y-63855388D01*
X136163711Y-63855388D02*
X136020854Y-63903007D01*
X136020854Y-63903007D02*
X135925616Y-63903007D01*
X135925616Y-63903007D02*
X135782759Y-63855388D01*
X135782759Y-63855388D02*
X135687521Y-63760149D01*
X135687521Y-63760149D02*
X135639902Y-63664911D01*
X135639902Y-63664911D02*
X135592283Y-63474435D01*
X135592283Y-63474435D02*
X135592283Y-63331578D01*
X135592283Y-63331578D02*
X135639902Y-63141102D01*
X135639902Y-63141102D02*
X135687521Y-63045864D01*
X135687521Y-63045864D02*
X135782759Y-62950626D01*
X135782759Y-62950626D02*
X135925616Y-62903007D01*
X135925616Y-62903007D02*
X136020854Y-62903007D01*
X136020854Y-62903007D02*
X136163711Y-62950626D01*
X136163711Y-62950626D02*
X136211330Y-62998245D01*
X137163711Y-63903007D02*
X136592283Y-63903007D01*
X136877997Y-63903007D02*
X136877997Y-62903007D01*
X136877997Y-62903007D02*
X136782759Y-63045864D01*
X136782759Y-63045864D02*
X136687521Y-63141102D01*
X136687521Y-63141102D02*
X136592283Y-63188721D01*
X138020854Y-63236340D02*
X138020854Y-63903007D01*
X137782759Y-62855388D02*
X137544664Y-63569673D01*
X137544664Y-63569673D02*
X138163711Y-63569673D01*
D12*
%TO.C,Y1*%
X119084188Y-71424188D02*
X119084188Y-77674188D01*
X124134188Y-71424188D02*
X124134188Y-77674188D01*
X119084188Y-71424188D02*
G75*
G02*
X124134188Y-71424188I2525000J0D01*
G01*
X124134188Y-77674188D02*
G75*
G02*
X119084188Y-77674188I-2525000J0D01*
G01*
%TO.C,J5*%
X118693988Y-103001000D02*
X118693988Y-105661000D01*
X141613988Y-103001000D02*
X118693988Y-103001000D01*
X141613988Y-103001000D02*
X141613988Y-105661000D01*
X141613988Y-105661000D02*
X118693988Y-105661000D01*
X144213988Y-104331000D02*
X144213988Y-105661000D01*
X144213988Y-105661000D02*
X142883988Y-105661000D01*
%TO.C,C32*%
X106359188Y-68872436D02*
X106359188Y-69394940D01*
X107829188Y-68872436D02*
X107829188Y-69394940D01*
D10*
%TO.C,J2*%
X170504188Y-72384188D02*
X170504188Y-73109188D01*
X170504188Y-73109188D02*
X170929188Y-73109188D01*
X170929188Y-69509188D02*
X170929188Y-68509188D01*
X170929188Y-73109188D02*
X170929188Y-74109188D01*
X172679188Y-75459188D02*
X174079188Y-75459188D01*
X174079188Y-67159188D02*
X172679188Y-67159188D01*
X176479188Y-75459188D02*
X176629188Y-75459188D01*
X176629188Y-67159188D02*
X176479188Y-67159188D01*
X176629188Y-67459188D02*
X176629188Y-67159188D01*
X176629188Y-75159188D02*
X177079188Y-75159188D01*
X176629188Y-75459188D02*
X176629188Y-75159188D01*
X177079188Y-67459188D02*
X176629188Y-67459188D01*
D12*
%TO.C,R4*%
X98365000Y-64972936D02*
X98365000Y-65427064D01*
X99835000Y-64972936D02*
X99835000Y-65427064D01*
%TO.C,SW1*%
X129379188Y-53769188D02*
X119159188Y-53769188D01*
X119159188Y-51049188D01*
X129379188Y-51049188D01*
X129379188Y-53769188D01*
%TO.C,C2*%
X158024188Y-84297936D02*
X158024188Y-84820440D01*
X159494188Y-84297936D02*
X159494188Y-84820440D01*
%TO.C,C35*%
X93488748Y-71215000D02*
X94011252Y-71215000D01*
X93488748Y-72685000D02*
X94011252Y-72685000D01*
%TO.C,R7*%
X97022936Y-71215000D02*
X97477064Y-71215000D01*
X97022936Y-72685000D02*
X97477064Y-72685000D01*
%TO.C,C28*%
X147294793Y-85474188D02*
X147817297Y-85474188D01*
X147294793Y-86944188D02*
X147817297Y-86944188D01*
%TO.C,C11*%
X140565240Y-81421587D02*
X140042736Y-81421587D01*
X140565240Y-82891587D02*
X140042736Y-82891587D01*
%TO.C,C9*%
X134870440Y-81074188D02*
X134347936Y-81074188D01*
X134870440Y-82544188D02*
X134347936Y-82544188D01*
%TO.C,R14*%
X106436252Y-79474188D02*
X105982124Y-79474188D01*
X106436252Y-80944188D02*
X105982124Y-80944188D01*
%TO.C,C31*%
X108518188Y-68872436D02*
X108518188Y-69394940D01*
X109988188Y-68872436D02*
X109988188Y-69394940D01*
%TO.C,C12*%
X132891336Y-64621587D02*
X133413840Y-64621587D01*
X132891336Y-66091587D02*
X133413840Y-66091587D01*
%TO.C,J6*%
X128274788Y-90467988D02*
X128274788Y-89137988D01*
X129604788Y-90467988D02*
X128274788Y-90467988D01*
X130874788Y-87807988D02*
X136014788Y-87807988D01*
X130874788Y-90467988D02*
X130874788Y-87807988D01*
X130874788Y-90467988D02*
X136014788Y-90467988D01*
X136014788Y-90467988D02*
X136014788Y-87807988D01*
%TO.C,J7*%
X118695000Y-106670000D02*
X118695000Y-109330000D01*
X141615000Y-106670000D02*
X118695000Y-106670000D01*
X141615000Y-106670000D02*
X141615000Y-109330000D01*
X141615000Y-109330000D02*
X118695000Y-109330000D01*
X144215000Y-108000000D02*
X144215000Y-109330000D01*
X144215000Y-109330000D02*
X142885000Y-109330000D01*
%TO.C,R15*%
X102774188Y-80732124D02*
X102774188Y-81186252D01*
X104244188Y-80732124D02*
X104244188Y-81186252D01*
%TO.C,J4*%
X130779188Y-51079188D02*
X130779188Y-53739188D01*
X143539188Y-51079188D02*
X130779188Y-51079188D01*
X143539188Y-51079188D02*
X143539188Y-53739188D01*
X143539188Y-53739188D02*
X130779188Y-53739188D01*
X144809188Y-51079188D02*
X146139188Y-51079188D01*
X146139188Y-51079188D02*
X146139188Y-52409188D01*
%TO.C,R5*%
X152374188Y-69182124D02*
X152374188Y-69636252D01*
X153844188Y-69182124D02*
X153844188Y-69636252D01*
%TO.C,C20*%
X172229188Y-61541788D02*
X173469188Y-61541788D01*
X172229188Y-61581788D02*
X173469188Y-61581788D01*
X172230188Y-61501788D02*
X173469188Y-61501788D01*
X172232188Y-61461788D02*
X173469188Y-61461788D01*
X172235188Y-61421788D02*
X173469188Y-61421788D01*
X172238188Y-61381788D02*
X173469188Y-61381788D01*
X172242188Y-61341788D02*
X173469188Y-61341788D01*
X172247188Y-61301788D02*
X173469188Y-61301788D01*
X172253188Y-61261788D02*
X173469188Y-61261788D01*
X172259188Y-61221788D02*
X173469188Y-61221788D01*
X172267188Y-61181788D02*
X173469188Y-61181788D01*
X172275188Y-61141788D02*
X173469188Y-61141788D01*
X172284188Y-61101788D02*
X173469188Y-61101788D01*
X172293188Y-61061788D02*
X173469188Y-61061788D01*
X172304188Y-61021788D02*
X173469188Y-61021788D01*
X172315188Y-60981788D02*
X173469188Y-60981788D01*
X172327188Y-60941788D02*
X173469188Y-60941788D01*
X172341188Y-60901788D02*
X173469188Y-60901788D01*
X172355188Y-60860788D02*
X173469188Y-60860788D01*
X172369188Y-60820788D02*
X173469188Y-60820788D01*
X172385188Y-60780788D02*
X173469188Y-60780788D01*
X172402188Y-60740788D02*
X173469188Y-60740788D01*
X172420188Y-60700788D02*
X173469188Y-60700788D01*
X172439188Y-60660788D02*
X173469188Y-60660788D01*
X172458188Y-60620788D02*
X173469188Y-60620788D01*
X172479188Y-60580788D02*
X173469188Y-60580788D01*
X172501188Y-60540788D02*
X173469188Y-60540788D01*
X172524188Y-60500788D02*
X173469188Y-60500788D01*
X172549188Y-60460788D02*
X173469188Y-60460788D01*
X172574188Y-60420788D02*
X173469188Y-60420788D01*
X172601188Y-60380788D02*
X173469188Y-60380788D01*
X172629188Y-60340788D02*
X173469188Y-60340788D01*
X172659188Y-60300788D02*
X173469188Y-60300788D01*
X172690188Y-60260788D02*
X173469188Y-60260788D01*
X172722188Y-60220788D02*
X173469188Y-60220788D01*
X172757188Y-60180788D02*
X173469188Y-60180788D01*
X172793188Y-60140788D02*
X173469188Y-60140788D01*
X172831188Y-60100788D02*
X173469188Y-60100788D01*
X172871188Y-60060788D02*
X173469188Y-60060788D01*
X172913188Y-60020788D02*
X173469188Y-60020788D01*
X172914188Y-63651589D02*
X173314188Y-63651589D01*
X172958188Y-59980788D02*
X175660188Y-59980788D01*
X173005188Y-59940788D02*
X175613188Y-59940788D01*
X173055188Y-59900788D02*
X175563188Y-59900788D01*
X173109188Y-59860788D02*
X175509188Y-59860788D01*
X173114188Y-63851589D02*
X173114188Y-63451589D01*
X173167188Y-59820788D02*
X175451188Y-59820788D01*
X173229188Y-59780788D02*
X175389188Y-59780788D01*
X173296188Y-59740788D02*
X175322188Y-59740788D01*
X173369188Y-59700788D02*
X175249188Y-59700788D01*
X173450188Y-59660788D02*
X175168188Y-59660788D01*
X173541188Y-59620788D02*
X175077188Y-59620788D01*
X173645188Y-59580788D02*
X174973188Y-59580788D01*
X173772188Y-59540788D02*
X174846188Y-59540788D01*
X173939188Y-59500788D02*
X174679188Y-59500788D01*
X175149188Y-60020788D02*
X175705188Y-60020788D01*
X175149188Y-60060788D02*
X175747188Y-60060788D01*
X175149188Y-60100788D02*
X175787188Y-60100788D01*
X175149188Y-60140788D02*
X175825188Y-60140788D01*
X175149188Y-60180788D02*
X175861188Y-60180788D01*
X175149188Y-60220788D02*
X175896188Y-60220788D01*
X175149188Y-60260788D02*
X175928188Y-60260788D01*
X175149188Y-60300788D02*
X175959188Y-60300788D01*
X175149188Y-60340788D02*
X175989188Y-60340788D01*
X175149188Y-60380788D02*
X176017188Y-60380788D01*
X175149188Y-60420788D02*
X176044188Y-60420788D01*
X175149188Y-60460788D02*
X176069188Y-60460788D01*
X175149188Y-60500788D02*
X176094188Y-60500788D01*
X175149188Y-60540788D02*
X176117188Y-60540788D01*
X175149188Y-60580788D02*
X176139188Y-60580788D01*
X175149188Y-60620788D02*
X176160188Y-60620788D01*
X175149188Y-60660788D02*
X176179188Y-60660788D01*
X175149188Y-60700788D02*
X176198188Y-60700788D01*
X175149188Y-60740788D02*
X176216188Y-60740788D01*
X175149188Y-60780788D02*
X176233188Y-60780788D01*
X175149188Y-60820788D02*
X176249188Y-60820788D01*
X175149188Y-60860788D02*
X176263188Y-60860788D01*
X175149188Y-60901788D02*
X176277188Y-60901788D01*
X175149188Y-60941788D02*
X176291188Y-60941788D01*
X175149188Y-60981788D02*
X176303188Y-60981788D01*
X175149188Y-61021788D02*
X176314188Y-61021788D01*
X175149188Y-61061788D02*
X176325188Y-61061788D01*
X175149188Y-61101788D02*
X176334188Y-61101788D01*
X175149188Y-61141788D02*
X176343188Y-61141788D01*
X175149188Y-61181788D02*
X176351188Y-61181788D01*
X175149188Y-61221788D02*
X176359188Y-61221788D01*
X175149188Y-61261788D02*
X176365188Y-61261788D01*
X175149188Y-61301788D02*
X176371188Y-61301788D01*
X175149188Y-61341788D02*
X176376188Y-61341788D01*
X175149188Y-61381788D02*
X176380188Y-61381788D01*
X175149188Y-61421788D02*
X176383188Y-61421788D01*
X175149188Y-61461788D02*
X176386188Y-61461788D01*
X175149188Y-61501788D02*
X176388188Y-61501788D01*
X175149188Y-61541788D02*
X176389188Y-61541788D01*
X175149188Y-61581788D02*
X176389188Y-61581788D01*
X176429188Y-61581788D02*
G75*
G02*
X172189188Y-61581788I-2120000J0D01*
G01*
X172189188Y-61581788D02*
G75*
G02*
X176429188Y-61581788I2120000J0D01*
G01*
%TO.C,C6*%
X147294793Y-83411688D02*
X147817297Y-83411688D01*
X147294793Y-84881688D02*
X147817297Y-84881688D01*
%TO.C,U2*%
X131642588Y-68634188D02*
X131642588Y-69584188D01*
X131642588Y-78854188D02*
X131642588Y-77904188D01*
X132592588Y-68634188D02*
X131642588Y-68634188D01*
X132592588Y-78854188D02*
X131642588Y-78854188D01*
X140912588Y-68634188D02*
X141862588Y-68634188D01*
X140912588Y-78854188D02*
X141862588Y-78854188D01*
X141862588Y-68634188D02*
X141862588Y-69584188D01*
X141862588Y-78854188D02*
X141862588Y-77904188D01*
X131027588Y-69584188D02*
X130687588Y-69114188D01*
X131367588Y-69114188D01*
X131027588Y-69584188D01*
G36*
X131027588Y-69584188D02*
G01*
X130687588Y-69114188D01*
X131367588Y-69114188D01*
X131027588Y-69584188D01*
G37*
%TO.C,C7*%
X142723188Y-81489440D02*
X142723188Y-80966936D01*
X144193188Y-81489440D02*
X144193188Y-80966936D01*
%TO.C,R2*%
X138659188Y-62586124D02*
X138659188Y-63040252D01*
X140129188Y-62586124D02*
X140129188Y-63040252D01*
%TO.C,C25*%
X105297936Y-71724188D02*
X105820440Y-71724188D01*
X105297936Y-73194188D02*
X105820440Y-73194188D01*
%TO.C,C18*%
X101765000Y-69388748D02*
X101765000Y-69911252D01*
X103235000Y-69388748D02*
X103235000Y-69911252D01*
%TO.C,C21*%
X116379188Y-75042936D02*
X116379188Y-75565440D01*
X117849188Y-75042936D02*
X117849188Y-75565440D01*
%TO.C,J3*%
X118691988Y-99341000D02*
X118691988Y-102001000D01*
X141611988Y-99341000D02*
X118691988Y-99341000D01*
X141611988Y-99341000D02*
X141611988Y-102001000D01*
X141611988Y-102001000D02*
X118691988Y-102001000D01*
X144211988Y-100671000D02*
X144211988Y-102001000D01*
X144211988Y-102001000D02*
X142881988Y-102001000D01*
%TO.C,C22*%
X114180188Y-75047936D02*
X114180188Y-75570440D01*
X115650188Y-75047936D02*
X115650188Y-75570440D01*
%TO.C,J8*%
X121230000Y-98305000D02*
X121230000Y-96975000D01*
X122560000Y-98305000D02*
X121230000Y-98305000D01*
X123830000Y-95645000D02*
X128970000Y-95645000D01*
X123830000Y-98305000D02*
X123830000Y-95645000D01*
X123830000Y-98305000D02*
X128970000Y-98305000D01*
X128970000Y-98305000D02*
X128970000Y-95645000D01*
%TO.C,C33*%
X162016988Y-67138440D02*
X162016988Y-66615936D01*
X163486988Y-67138440D02*
X163486988Y-66615936D01*
%TO.C,C23*%
X111680188Y-75047936D02*
X111680188Y-75570440D01*
X113150188Y-75047936D02*
X113150188Y-75570440D01*
%TO.C,C29*%
X99665000Y-71388748D02*
X99665000Y-71911252D01*
X101135000Y-71388748D02*
X101135000Y-71911252D01*
%TO.C,C19*%
X97688748Y-76215000D02*
X98211252Y-76215000D01*
X97688748Y-77685000D02*
X98211252Y-77685000D01*
%TO.C,FB3*%
X109869566Y-65779688D02*
X110668810Y-65779688D01*
X109869566Y-66899688D02*
X110668810Y-66899688D01*
%TO.C,R9*%
X114475252Y-61062188D02*
X114021124Y-61062188D01*
X114475252Y-62532188D02*
X114021124Y-62532188D01*
%TO.C,C16*%
X124974188Y-70570440D02*
X124974188Y-70047936D01*
X126444188Y-70570440D02*
X126444188Y-70047936D01*
%TO.C,D1*%
X173149188Y-80886688D02*
X173149188Y-83571688D01*
X175069188Y-80886688D02*
X173149188Y-80886688D01*
X175069188Y-83571688D02*
X175069188Y-80886688D01*
D13*
%TO.C,IC2*%
X163868188Y-59754188D02*
X167068188Y-59754188D01*
X163868188Y-64654188D02*
X163868188Y-59754188D01*
X167068188Y-59754188D02*
X167068188Y-64654188D01*
X167068188Y-64654188D02*
X163868188Y-64654188D01*
X168918188Y-64784188D02*
X167418188Y-64784188D01*
D12*
%TO.C,C26*%
X169974188Y-61670440D02*
X169974188Y-61147936D01*
X171444188Y-61670440D02*
X171444188Y-61147936D01*
%TO.C,FB4*%
X144329045Y-85592810D02*
X144329045Y-84793566D01*
X145449045Y-85592810D02*
X145449045Y-84793566D01*
%TO.C,FB2*%
X115571566Y-72016188D02*
X116370810Y-72016188D01*
X115571566Y-73136188D02*
X116370810Y-73136188D01*
%TO.C,R13*%
X108782124Y-77324188D02*
X109236252Y-77324188D01*
X108782124Y-78794188D02*
X109236252Y-78794188D01*
%TO.C,C27*%
X159774188Y-60647936D02*
X159774188Y-61170440D01*
X161244188Y-60647936D02*
X161244188Y-61170440D01*
%TO.C,C10*%
X127968988Y-69217839D02*
X127968988Y-68695335D01*
X129438988Y-69217839D02*
X129438988Y-68695335D01*
%TO.C,U1*%
X160419188Y-78584188D02*
X160419188Y-82344188D01*
X160419188Y-82344188D02*
X161679188Y-82344188D01*
X167239188Y-78584188D02*
X167239188Y-82344188D01*
X167239188Y-82344188D02*
X165979188Y-82344188D01*
X167469188Y-77544188D02*
X167139188Y-77304188D01*
X167469188Y-77064188D01*
X167469188Y-77544188D01*
G36*
X167469188Y-77544188D02*
G01*
X167139188Y-77304188D01*
X167469188Y-77064188D01*
X167469188Y-77544188D01*
G37*
%TO.C,R6*%
X93815000Y-74977064D02*
X93815000Y-74522936D01*
X95285000Y-74977064D02*
X95285000Y-74522936D01*
%TO.C,C5*%
X110719188Y-59899440D02*
X110719188Y-59376936D01*
X112189188Y-59899440D02*
X112189188Y-59376936D01*
%TO.C,C15*%
X124816188Y-80331936D02*
X124816188Y-80854440D01*
X126286188Y-80331936D02*
X126286188Y-80854440D01*
%TO.C,C1*%
X163647936Y-74074188D02*
X164170440Y-74074188D01*
X163647936Y-75544188D02*
X164170440Y-75544188D01*
%TO.C,R3*%
X126074188Y-56594624D02*
X126074188Y-57048752D01*
X127544188Y-56594624D02*
X127544188Y-57048752D01*
%TO.C,C30*%
X110674188Y-68897936D02*
X110674188Y-69420440D01*
X112144188Y-68897936D02*
X112144188Y-69420440D01*
%TO.C,C17*%
X124974188Y-73747936D02*
X124974188Y-74270440D01*
X126444188Y-73747936D02*
X126444188Y-74270440D01*
%TO.C,R11*%
X114486252Y-82374188D02*
X114032124Y-82374188D01*
X114486252Y-83844188D02*
X114032124Y-83844188D01*
%TO.C,C4*%
X103220440Y-60681188D02*
X102697936Y-60681188D01*
X103220440Y-62151188D02*
X102697936Y-62151188D01*
%TO.C,J1*%
X155199188Y-91709188D02*
X155199188Y-94369188D01*
X162879188Y-91709188D02*
X155199188Y-91709188D01*
X162879188Y-91709188D02*
X162879188Y-94369188D01*
X162879188Y-94369188D02*
X155199188Y-94369188D01*
X164149188Y-91709188D02*
X165479188Y-91709188D01*
X165479188Y-91709188D02*
X165479188Y-93039188D01*
D13*
%TO.C,IC1*%
X106395188Y-61809188D02*
X107795188Y-61809188D01*
X108145188Y-61809188D02*
X110445188Y-61809188D01*
X108145188Y-64809188D02*
X108145188Y-61809188D01*
X110445188Y-61809188D02*
X110445188Y-64809188D01*
X110445188Y-64809188D02*
X108145188Y-64809188D01*
D12*
%TO.C,FB1*%
X132859566Y-59199188D02*
X133658810Y-59199188D01*
X132859566Y-60319188D02*
X133658810Y-60319188D01*
%TO.C,C13*%
X132897936Y-61124188D02*
X133420440Y-61124188D01*
X132897936Y-62594188D02*
X133420440Y-62594188D01*
%TO.C,R12*%
X108832124Y-75274188D02*
X109286252Y-75274188D01*
X108832124Y-76744188D02*
X109286252Y-76744188D01*
%TO.C,R1*%
X173394188Y-78998752D02*
X173394188Y-78544624D01*
X174864188Y-78998752D02*
X174864188Y-78544624D01*
%TO.C,R8*%
X97722936Y-73765000D02*
X98177064Y-73765000D01*
X97722936Y-75235000D02*
X98177064Y-75235000D01*
%TO.C,R10*%
X114032124Y-80324188D02*
X114486252Y-80324188D01*
X114032124Y-81794188D02*
X114486252Y-81794188D01*
%TO.C,C3*%
X103220440Y-58331188D02*
X102697936Y-58331188D01*
X103220440Y-59801188D02*
X102697936Y-59801188D01*
%TO.C,C8*%
X144268988Y-69282936D02*
X144268988Y-69805440D01*
X145738988Y-69282936D02*
X145738988Y-69805440D01*
%TO.C,C24*%
X154929188Y-61819188D02*
X156169188Y-61819188D01*
X154929188Y-61859188D02*
X156169188Y-61859188D01*
X154930188Y-61779188D02*
X156169188Y-61779188D01*
X154932188Y-61739188D02*
X156169188Y-61739188D01*
X154935188Y-61699188D02*
X156169188Y-61699188D01*
X154938188Y-61659188D02*
X156169188Y-61659188D01*
X154942188Y-61619188D02*
X156169188Y-61619188D01*
X154947188Y-61579188D02*
X156169188Y-61579188D01*
X154953188Y-61539188D02*
X156169188Y-61539188D01*
X154959188Y-61499188D02*
X156169188Y-61499188D01*
X154967188Y-61459188D02*
X156169188Y-61459188D01*
X154975188Y-61419188D02*
X156169188Y-61419188D01*
X154984188Y-61379188D02*
X156169188Y-61379188D01*
X154993188Y-61339188D02*
X156169188Y-61339188D01*
X155004188Y-61299188D02*
X156169188Y-61299188D01*
X155015188Y-61259188D02*
X156169188Y-61259188D01*
X155027188Y-61219188D02*
X156169188Y-61219188D01*
X155041188Y-61179188D02*
X156169188Y-61179188D01*
X155055188Y-61138188D02*
X156169188Y-61138188D01*
X155069188Y-61098188D02*
X156169188Y-61098188D01*
X155085188Y-61058188D02*
X156169188Y-61058188D01*
X155102188Y-61018188D02*
X156169188Y-61018188D01*
X155120188Y-60978188D02*
X156169188Y-60978188D01*
X155139188Y-60938188D02*
X156169188Y-60938188D01*
X155158188Y-60898188D02*
X156169188Y-60898188D01*
X155179188Y-60858188D02*
X156169188Y-60858188D01*
X155201188Y-60818188D02*
X156169188Y-60818188D01*
X155224188Y-60778188D02*
X156169188Y-60778188D01*
X155249188Y-60738188D02*
X156169188Y-60738188D01*
X155274188Y-60698188D02*
X156169188Y-60698188D01*
X155301188Y-60658188D02*
X156169188Y-60658188D01*
X155329188Y-60618188D02*
X156169188Y-60618188D01*
X155359188Y-60578188D02*
X156169188Y-60578188D01*
X155390188Y-60538188D02*
X156169188Y-60538188D01*
X155422188Y-60498188D02*
X156169188Y-60498188D01*
X155457188Y-60458188D02*
X156169188Y-60458188D01*
X155493188Y-60418188D02*
X156169188Y-60418188D01*
X155531188Y-60378188D02*
X156169188Y-60378188D01*
X155571188Y-60338188D02*
X156169188Y-60338188D01*
X155613188Y-60298188D02*
X156169188Y-60298188D01*
X155614188Y-63928989D02*
X156014188Y-63928989D01*
X155658188Y-60258188D02*
X158360188Y-60258188D01*
X155705188Y-60218188D02*
X158313188Y-60218188D01*
X155755188Y-60178188D02*
X158263188Y-60178188D01*
X155809188Y-60138188D02*
X158209188Y-60138188D01*
X155814188Y-64128989D02*
X155814188Y-63728989D01*
X155867188Y-60098188D02*
X158151188Y-60098188D01*
X155929188Y-60058188D02*
X158089188Y-60058188D01*
X155996188Y-60018188D02*
X158022188Y-60018188D01*
X156069188Y-59978188D02*
X157949188Y-59978188D01*
X156150188Y-59938188D02*
X157868188Y-59938188D01*
X156241188Y-59898188D02*
X157777188Y-59898188D01*
X156345188Y-59858188D02*
X157673188Y-59858188D01*
X156472188Y-59818188D02*
X157546188Y-59818188D01*
X156639188Y-59778188D02*
X157379188Y-59778188D01*
X157849188Y-60298188D02*
X158405188Y-60298188D01*
X157849188Y-60338188D02*
X158447188Y-60338188D01*
X157849188Y-60378188D02*
X158487188Y-60378188D01*
X157849188Y-60418188D02*
X158525188Y-60418188D01*
X157849188Y-60458188D02*
X158561188Y-60458188D01*
X157849188Y-60498188D02*
X158596188Y-60498188D01*
X157849188Y-60538188D02*
X158628188Y-60538188D01*
X157849188Y-60578188D02*
X158659188Y-60578188D01*
X157849188Y-60618188D02*
X158689188Y-60618188D01*
X157849188Y-60658188D02*
X158717188Y-60658188D01*
X157849188Y-60698188D02*
X158744188Y-60698188D01*
X157849188Y-60738188D02*
X158769188Y-60738188D01*
X157849188Y-60778188D02*
X158794188Y-60778188D01*
X157849188Y-60818188D02*
X158817188Y-60818188D01*
X157849188Y-60858188D02*
X158839188Y-60858188D01*
X157849188Y-60898188D02*
X158860188Y-60898188D01*
X157849188Y-60938188D02*
X158879188Y-60938188D01*
X157849188Y-60978188D02*
X158898188Y-60978188D01*
X157849188Y-61018188D02*
X158916188Y-61018188D01*
X157849188Y-61058188D02*
X158933188Y-61058188D01*
X157849188Y-61098188D02*
X158949188Y-61098188D01*
X157849188Y-61138188D02*
X158963188Y-61138188D01*
X157849188Y-61179188D02*
X158977188Y-61179188D01*
X157849188Y-61219188D02*
X158991188Y-61219188D01*
X157849188Y-61259188D02*
X159003188Y-61259188D01*
X157849188Y-61299188D02*
X159014188Y-61299188D01*
X157849188Y-61339188D02*
X159025188Y-61339188D01*
X157849188Y-61379188D02*
X159034188Y-61379188D01*
X157849188Y-61419188D02*
X159043188Y-61419188D01*
X157849188Y-61459188D02*
X159051188Y-61459188D01*
X157849188Y-61499188D02*
X159059188Y-61499188D01*
X157849188Y-61539188D02*
X159065188Y-61539188D01*
X157849188Y-61579188D02*
X159071188Y-61579188D01*
X157849188Y-61619188D02*
X159076188Y-61619188D01*
X157849188Y-61659188D02*
X159080188Y-61659188D01*
X157849188Y-61699188D02*
X159083188Y-61699188D01*
X157849188Y-61739188D02*
X159086188Y-61739188D01*
X157849188Y-61779188D02*
X159088188Y-61779188D01*
X157849188Y-61819188D02*
X159089188Y-61819188D01*
X157849188Y-61859188D02*
X159089188Y-61859188D01*
X159129188Y-61859188D02*
G75*
G02*
X154889188Y-61859188I-2120000J0D01*
G01*
X154889188Y-61859188D02*
G75*
G02*
X159129188Y-61859188I2120000J0D01*
G01*
D13*
%TO.C,IC4*%
X101873188Y-73959188D02*
X105073188Y-73959188D01*
X101873188Y-78859188D02*
X101873188Y-73959188D01*
X105073188Y-73959188D02*
X105073188Y-78859188D01*
X105073188Y-78859188D02*
X101873188Y-78859188D01*
X106923188Y-78989188D02*
X105423188Y-78989188D01*
D12*
%TO.C,C14*%
X135524188Y-60697936D02*
X135524188Y-61220440D01*
X136994188Y-60697936D02*
X136994188Y-61220440D01*
%TD*%
M02*
