%TF.GenerationSoftware,KiCad,Pcbnew,8.0.0*%
%TF.CreationDate,2024-10-11T15:27:58+02:00*%
%TF.ProjectId,imp_measure,696d705f-6d65-4617-9375-72652e6b6963,rev?*%
%TF.SameCoordinates,Original*%
%TF.FileFunction,Soldermask,Top*%
%TF.FilePolarity,Negative*%
%FSLAX46Y46*%
G04 Gerber Fmt 4.6, Leading zero omitted, Abs format (unit mm)*
G04 Created by KiCad (PCBNEW 8.0.0) date 2024-10-11 15:27:58*
%MOMM*%
%LPD*%
G01*
G04 APERTURE LIST*
G04 Aperture macros list*
%AMRoundRect*
0 Rectangle with rounded corners*
0 $1 Rounding radius*
0 $2 $3 $4 $5 $6 $7 $8 $9 X,Y pos of 4 corners*
0 Add a 4 corners polygon primitive as box body*
4,1,4,$2,$3,$4,$5,$6,$7,$8,$9,$2,$3,0*
0 Add four circle primitives for the rounded corners*
1,1,$1+$1,$2,$3*
1,1,$1+$1,$4,$5*
1,1,$1+$1,$6,$7*
1,1,$1+$1,$8,$9*
0 Add four rect primitives between the rounded corners*
20,1,$1+$1,$2,$3,$4,$5,0*
20,1,$1+$1,$4,$5,$6,$7,0*
20,1,$1+$1,$6,$7,$8,$9,0*
20,1,$1+$1,$8,$9,$2,$3,0*%
G04 Aperture macros list end*
%ADD10C,1.500000*%
%ADD11R,1.700000X1.700000*%
%ADD12O,1.700000X1.700000*%
%ADD13RoundRect,0.250000X-0.475000X0.250000X-0.475000X-0.250000X0.475000X-0.250000X0.475000X0.250000X0*%
%ADD14O,0.800000X0.800000*%
%ADD15R,1.300000X0.450000*%
%ADD16O,1.800000X1.150000*%
%ADD17O,2.000000X1.450000*%
%ADD18RoundRect,0.250000X-0.450000X0.262500X-0.450000X-0.262500X0.450000X-0.262500X0.450000X0.262500X0*%
%ADD19R,1.500000X1.500000*%
%ADD20C,1.600000*%
%ADD21RoundRect,0.250000X-0.250000X-0.475000X0.250000X-0.475000X0.250000X0.475000X-0.250000X0.475000X0*%
%ADD22RoundRect,0.250000X-0.262500X-0.450000X0.262500X-0.450000X0.262500X0.450000X-0.262500X0.450000X0*%
%ADD23RoundRect,0.250000X0.250000X0.475000X-0.250000X0.475000X-0.250000X-0.475000X0.250000X-0.475000X0*%
%ADD24RoundRect,0.250000X0.262500X0.450000X-0.262500X0.450000X-0.262500X-0.450000X0.262500X-0.450000X0*%
%ADD25R,1.200000X1.200000*%
%ADD26C,1.200000*%
%ADD27RoundRect,0.075000X-0.700000X-0.075000X0.700000X-0.075000X0.700000X0.075000X-0.700000X0.075000X0*%
%ADD28RoundRect,0.075000X-0.075000X-0.700000X0.075000X-0.700000X0.075000X0.700000X-0.075000X0.700000X0*%
%ADD29RoundRect,0.250000X0.475000X-0.250000X0.475000X0.250000X-0.475000X0.250000X-0.475000X-0.250000X0*%
%ADD30C,2.000000*%
%ADD31RoundRect,0.218750X-0.218750X-0.381250X0.218750X-0.381250X0.218750X0.381250X-0.218750X0.381250X0*%
%ADD32RoundRect,0.243750X-0.456250X0.243750X-0.456250X-0.243750X0.456250X-0.243750X0.456250X0.243750X0*%
%ADD33R,1.500000X0.650000*%
%ADD34RoundRect,0.218750X0.381250X-0.218750X0.381250X0.218750X-0.381250X0.218750X-0.381250X-0.218750X0*%
%ADD35RoundRect,0.375000X-0.375000X0.625000X-0.375000X-0.625000X0.375000X-0.625000X0.375000X0.625000X0*%
%ADD36RoundRect,0.500000X-1.400000X0.500000X-1.400000X-0.500000X1.400000X-0.500000X1.400000X0.500000X0*%
%ADD37RoundRect,0.250000X0.450000X-0.262500X0.450000X0.262500X-0.450000X0.262500X-0.450000X-0.262500X0*%
%ADD38R,1.400000X0.300000*%
G04 APERTURE END LIST*
D10*
%TO.C,Y1*%
X121609188Y-72109188D03*
X121609188Y-76989188D03*
%TD*%
D11*
%TO.C,J5*%
X142883988Y-104331000D03*
D12*
X140343988Y-104331000D03*
X137803988Y-104331000D03*
X135263988Y-104331000D03*
X132723988Y-104331000D03*
X130183988Y-104331000D03*
X127643988Y-104331000D03*
X125103988Y-104331000D03*
X122563988Y-104331000D03*
X120023988Y-104331000D03*
%TD*%
D13*
%TO.C,C32*%
X107094188Y-68183688D03*
X107094188Y-70083688D03*
%TD*%
D14*
%TO.C,J2*%
X172529188Y-73809188D03*
X172529188Y-68809188D03*
D15*
X171429188Y-72609188D03*
X171429188Y-71959188D03*
X171429188Y-71309188D03*
X171429188Y-70659188D03*
X171429188Y-70009188D03*
D16*
X175279188Y-75184188D03*
D17*
X171479188Y-75034188D03*
X171479188Y-67584188D03*
D16*
X175279188Y-67434188D03*
%TD*%
D18*
%TO.C,R4*%
X99100000Y-64287500D03*
X99100000Y-66112500D03*
%TD*%
D19*
%TO.C,SW1*%
X124269188Y-52409188D03*
D20*
X126809188Y-52409188D03*
X121729188Y-52409188D03*
%TD*%
D13*
%TO.C,C2*%
X158759188Y-83609188D03*
X158759188Y-85509188D03*
%TD*%
D21*
%TO.C,C35*%
X92800000Y-71950000D03*
X94700000Y-71950000D03*
%TD*%
D22*
%TO.C,R7*%
X96337500Y-71950000D03*
X98162500Y-71950000D03*
%TD*%
D21*
%TO.C,C28*%
X146606045Y-86209188D03*
X148506045Y-86209188D03*
%TD*%
D23*
%TO.C,C11*%
X141253988Y-82156587D03*
X139353988Y-82156587D03*
%TD*%
%TO.C,C9*%
X135559188Y-81809188D03*
X133659188Y-81809188D03*
%TD*%
D24*
%TO.C,R14*%
X107121688Y-80209188D03*
X105296688Y-80209188D03*
%TD*%
D13*
%TO.C,C31*%
X109253188Y-68183688D03*
X109253188Y-70083688D03*
%TD*%
D21*
%TO.C,C12*%
X132202588Y-65356587D03*
X134102588Y-65356587D03*
%TD*%
D11*
%TO.C,J6*%
X129604788Y-89137988D03*
D12*
X132144788Y-89137988D03*
X134684788Y-89137988D03*
%TD*%
D11*
%TO.C,J7*%
X142885000Y-108000000D03*
D12*
X140345000Y-108000000D03*
X137805000Y-108000000D03*
X135265000Y-108000000D03*
X132725000Y-108000000D03*
X130185000Y-108000000D03*
X127645000Y-108000000D03*
X125105000Y-108000000D03*
X122565000Y-108000000D03*
X120025000Y-108000000D03*
%TD*%
D18*
%TO.C,R15*%
X103509188Y-80046688D03*
X103509188Y-81871688D03*
%TD*%
D11*
%TO.C,J4*%
X144809188Y-52409188D03*
D12*
X142269188Y-52409188D03*
X139729188Y-52409188D03*
X137189188Y-52409188D03*
X134649188Y-52409188D03*
X132109188Y-52409188D03*
%TD*%
D18*
%TO.C,R5*%
X153109188Y-68496688D03*
X153109188Y-70321688D03*
%TD*%
D25*
%TO.C,C20*%
X174309188Y-62331788D03*
D26*
X174309188Y-60831788D03*
%TD*%
D21*
%TO.C,C6*%
X146606045Y-84146688D03*
X148506045Y-84146688D03*
%TD*%
D27*
%TO.C,U2*%
X131077588Y-69994188D03*
X131077588Y-70494188D03*
X131077588Y-70994188D03*
X131077588Y-71494188D03*
X131077588Y-71994188D03*
X131077588Y-72494188D03*
X131077588Y-72994188D03*
X131077588Y-73494188D03*
X131077588Y-73994188D03*
X131077588Y-74494188D03*
X131077588Y-74994188D03*
X131077588Y-75494188D03*
X131077588Y-75994188D03*
X131077588Y-76494188D03*
X131077588Y-76994188D03*
X131077588Y-77494188D03*
D28*
X133002588Y-79419188D03*
X133502588Y-79419188D03*
X134002588Y-79419188D03*
X134502588Y-79419188D03*
X135002588Y-79419188D03*
X135502588Y-79419188D03*
X136002588Y-79419188D03*
X136502588Y-79419188D03*
X137002588Y-79419188D03*
X137502588Y-79419188D03*
X138002588Y-79419188D03*
X138502588Y-79419188D03*
X139002588Y-79419188D03*
X139502588Y-79419188D03*
X140002588Y-79419188D03*
X140502588Y-79419188D03*
D27*
X142427588Y-77494188D03*
X142427588Y-76994188D03*
X142427588Y-76494188D03*
X142427588Y-75994188D03*
X142427588Y-75494188D03*
X142427588Y-74994188D03*
X142427588Y-74494188D03*
X142427588Y-73994188D03*
X142427588Y-73494188D03*
X142427588Y-72994188D03*
X142427588Y-72494188D03*
X142427588Y-71994188D03*
X142427588Y-71494188D03*
X142427588Y-70994188D03*
X142427588Y-70494188D03*
X142427588Y-69994188D03*
D28*
X140502588Y-68069188D03*
X140002588Y-68069188D03*
X139502588Y-68069188D03*
X139002588Y-68069188D03*
X138502588Y-68069188D03*
X138002588Y-68069188D03*
X137502588Y-68069188D03*
X137002588Y-68069188D03*
X136502588Y-68069188D03*
X136002588Y-68069188D03*
X135502588Y-68069188D03*
X135002588Y-68069188D03*
X134502588Y-68069188D03*
X134002588Y-68069188D03*
X133502588Y-68069188D03*
X133002588Y-68069188D03*
%TD*%
D29*
%TO.C,C7*%
X143458188Y-82178188D03*
X143458188Y-80278188D03*
%TD*%
D18*
%TO.C,R2*%
X139394188Y-61900688D03*
X139394188Y-63725688D03*
%TD*%
D21*
%TO.C,C25*%
X104609188Y-72459188D03*
X106509188Y-72459188D03*
%TD*%
D13*
%TO.C,C18*%
X102500000Y-68700000D03*
X102500000Y-70600000D03*
%TD*%
%TO.C,C21*%
X117114188Y-74354188D03*
X117114188Y-76254188D03*
%TD*%
D11*
%TO.C,J3*%
X142881988Y-100671000D03*
D12*
X140341988Y-100671000D03*
X137801988Y-100671000D03*
X135261988Y-100671000D03*
X132721988Y-100671000D03*
X130181988Y-100671000D03*
X127641988Y-100671000D03*
X125101988Y-100671000D03*
X122561988Y-100671000D03*
X120021988Y-100671000D03*
%TD*%
D13*
%TO.C,C22*%
X114915188Y-74359188D03*
X114915188Y-76259188D03*
%TD*%
D11*
%TO.C,J8*%
X122560000Y-96975000D03*
D12*
X125100000Y-96975000D03*
X127640000Y-96975000D03*
%TD*%
D29*
%TO.C,C33*%
X162751988Y-67827188D03*
X162751988Y-65927188D03*
%TD*%
D13*
%TO.C,C23*%
X112415188Y-74359188D03*
X112415188Y-76259188D03*
%TD*%
%TO.C,C29*%
X100400000Y-70700000D03*
X100400000Y-72600000D03*
%TD*%
D21*
%TO.C,C19*%
X97000000Y-76950000D03*
X98900000Y-76950000D03*
%TD*%
D30*
%TO.C,H3*%
X93000000Y-108000000D03*
%TD*%
D31*
%TO.C,FB3*%
X109206688Y-66339688D03*
X111331688Y-66339688D03*
%TD*%
D24*
%TO.C,R9*%
X115160688Y-61797188D03*
X113335688Y-61797188D03*
%TD*%
D29*
%TO.C,C16*%
X125709188Y-71259188D03*
X125709188Y-69359188D03*
%TD*%
D32*
%TO.C,D1*%
X174109188Y-81634188D03*
X174109188Y-83509188D03*
%TD*%
D30*
%TO.C,H1*%
X93200000Y-53100000D03*
%TD*%
D33*
%TO.C,IC2*%
X168168188Y-64109188D03*
X168168188Y-62839188D03*
X168168188Y-61569188D03*
X168168188Y-60299188D03*
X162768188Y-60299188D03*
X162768188Y-61569188D03*
X162768188Y-62839188D03*
X162768188Y-64109188D03*
%TD*%
D29*
%TO.C,C26*%
X170709188Y-62359188D03*
X170709188Y-60459188D03*
%TD*%
D34*
%TO.C,FB4*%
X144889045Y-86255688D03*
X144889045Y-84130688D03*
%TD*%
D31*
%TO.C,FB2*%
X114908688Y-72576188D03*
X117033688Y-72576188D03*
%TD*%
D22*
%TO.C,R13*%
X108096688Y-78059188D03*
X109921688Y-78059188D03*
%TD*%
D13*
%TO.C,C27*%
X160509188Y-59959188D03*
X160509188Y-61859188D03*
%TD*%
D29*
%TO.C,C10*%
X128703988Y-69906587D03*
X128703988Y-68006587D03*
%TD*%
D35*
%TO.C,U1*%
X166129188Y-77284188D03*
X163829188Y-77284188D03*
D36*
X163829188Y-83584188D03*
D35*
X161529188Y-77284188D03*
%TD*%
D37*
%TO.C,R6*%
X94550000Y-75662500D03*
X94550000Y-73837500D03*
%TD*%
D29*
%TO.C,C5*%
X111454188Y-60588188D03*
X111454188Y-58688188D03*
%TD*%
D13*
%TO.C,C15*%
X125551188Y-79643188D03*
X125551188Y-81543188D03*
%TD*%
D21*
%TO.C,C1*%
X162959188Y-74809188D03*
X164859188Y-74809188D03*
%TD*%
D18*
%TO.C,R3*%
X126809188Y-55909188D03*
X126809188Y-57734188D03*
%TD*%
D13*
%TO.C,C30*%
X111409188Y-68209188D03*
X111409188Y-70109188D03*
%TD*%
%TO.C,C17*%
X125709188Y-73059188D03*
X125709188Y-74959188D03*
%TD*%
D24*
%TO.C,R11*%
X115171688Y-83109188D03*
X113346688Y-83109188D03*
%TD*%
D30*
%TO.C,H4*%
X177000000Y-108000000D03*
%TD*%
%TO.C,H2*%
X177000000Y-53000000D03*
%TD*%
D23*
%TO.C,C4*%
X103909188Y-61416188D03*
X102009188Y-61416188D03*
%TD*%
D11*
%TO.C,J1*%
X164149188Y-93039188D03*
D12*
X161609188Y-93039188D03*
X159069188Y-93039188D03*
X156529188Y-93039188D03*
%TD*%
D38*
%TO.C,IC1*%
X107095188Y-62309188D03*
X107095188Y-62809188D03*
X107095188Y-63309188D03*
X107095188Y-63809188D03*
X107095188Y-64309188D03*
X111495188Y-64309188D03*
X111495188Y-63809188D03*
X111495188Y-63309188D03*
X111495188Y-62809188D03*
X111495188Y-62309188D03*
%TD*%
D31*
%TO.C,FB1*%
X132196688Y-59759188D03*
X134321688Y-59759188D03*
%TD*%
D21*
%TO.C,C13*%
X132209188Y-61859188D03*
X134109188Y-61859188D03*
%TD*%
D22*
%TO.C,R12*%
X108146688Y-76009188D03*
X109971688Y-76009188D03*
%TD*%
D37*
%TO.C,R1*%
X174129188Y-79684188D03*
X174129188Y-77859188D03*
%TD*%
D22*
%TO.C,R8*%
X97037500Y-74500000D03*
X98862500Y-74500000D03*
%TD*%
%TO.C,R10*%
X113346688Y-81059188D03*
X115171688Y-81059188D03*
%TD*%
D23*
%TO.C,C3*%
X103909188Y-59066188D03*
X102009188Y-59066188D03*
%TD*%
D13*
%TO.C,C8*%
X145003988Y-68594188D03*
X145003988Y-70494188D03*
%TD*%
D25*
%TO.C,C24*%
X157009188Y-62609188D03*
D26*
X157009188Y-61109188D03*
%TD*%
D33*
%TO.C,IC4*%
X106173188Y-78314188D03*
X106173188Y-77044188D03*
X106173188Y-75774188D03*
X106173188Y-74504188D03*
X100773188Y-74504188D03*
X100773188Y-75774188D03*
X100773188Y-77044188D03*
X100773188Y-78314188D03*
%TD*%
D13*
%TO.C,C14*%
X136259188Y-60009188D03*
X136259188Y-61909188D03*
%TD*%
M02*
