%TF.GenerationSoftware,KiCad,Pcbnew,8.0.0*%
%TF.CreationDate,2024-09-22T18:34:52+02:00*%
%TF.ProjectId,imp_measure,696d705f-6d65-4617-9375-72652e6b6963,rev?*%
%TF.SameCoordinates,Original*%
%TF.FileFunction,Paste,Top*%
%TF.FilePolarity,Positive*%
%FSLAX46Y46*%
G04 Gerber Fmt 4.6, Leading zero omitted, Abs format (unit mm)*
G04 Created by KiCad (PCBNEW 8.0.0) date 2024-09-22 18:34:52*
%MOMM*%
%LPD*%
G01*
G04 APERTURE LIST*
G04 Aperture macros list*
%AMRoundRect*
0 Rectangle with rounded corners*
0 $1 Rounding radius*
0 $2 $3 $4 $5 $6 $7 $8 $9 X,Y pos of 4 corners*
0 Add a 4 corners polygon primitive as box body*
4,1,4,$2,$3,$4,$5,$6,$7,$8,$9,$2,$3,0*
0 Add four circle primitives for the rounded corners*
1,1,$1+$1,$2,$3*
1,1,$1+$1,$4,$5*
1,1,$1+$1,$6,$7*
1,1,$1+$1,$8,$9*
0 Add four rect primitives between the rounded corners*
20,1,$1+$1,$2,$3,$4,$5,0*
20,1,$1+$1,$4,$5,$6,$7,0*
20,1,$1+$1,$6,$7,$8,$9,0*
20,1,$1+$1,$8,$9,$2,$3,0*%
G04 Aperture macros list end*
%ADD10RoundRect,0.250000X-0.262500X-0.450000X0.262500X-0.450000X0.262500X0.450000X-0.262500X0.450000X0*%
%ADD11RoundRect,0.250000X-0.450000X0.262500X-0.450000X-0.262500X0.450000X-0.262500X0.450000X0.262500X0*%
%ADD12RoundRect,0.250000X0.262500X0.450000X-0.262500X0.450000X-0.262500X-0.450000X0.262500X-0.450000X0*%
%ADD13RoundRect,0.250000X0.450000X-0.262500X0.450000X0.262500X-0.450000X0.262500X-0.450000X-0.262500X0*%
%ADD14RoundRect,0.250000X-0.475000X0.250000X-0.475000X-0.250000X0.475000X-0.250000X0.475000X0.250000X0*%
%ADD15R,1.300000X0.450000*%
%ADD16RoundRect,0.250000X-0.250000X-0.475000X0.250000X-0.475000X0.250000X0.475000X-0.250000X0.475000X0*%
%ADD17RoundRect,0.250000X0.250000X0.475000X-0.250000X0.475000X-0.250000X-0.475000X0.250000X-0.475000X0*%
%ADD18RoundRect,0.075000X-0.700000X-0.075000X0.700000X-0.075000X0.700000X0.075000X-0.700000X0.075000X0*%
%ADD19RoundRect,0.075000X-0.075000X-0.700000X0.075000X-0.700000X0.075000X0.700000X-0.075000X0.700000X0*%
%ADD20RoundRect,0.250000X0.475000X-0.250000X0.475000X0.250000X-0.475000X0.250000X-0.475000X-0.250000X0*%
%ADD21RoundRect,0.218750X-0.218750X-0.381250X0.218750X-0.381250X0.218750X0.381250X-0.218750X0.381250X0*%
%ADD22RoundRect,0.243750X-0.456250X0.243750X-0.456250X-0.243750X0.456250X-0.243750X0.456250X0.243750X0*%
%ADD23R,1.525000X0.700000*%
%ADD24RoundRect,0.218750X0.381250X-0.218750X0.381250X0.218750X-0.381250X0.218750X-0.381250X-0.218750X0*%
%ADD25RoundRect,0.375000X-0.375000X0.625000X-0.375000X-0.625000X0.375000X-0.625000X0.375000X0.625000X0*%
%ADD26RoundRect,0.500000X-1.400000X0.500000X-1.400000X-0.500000X1.400000X-0.500000X1.400000X0.500000X0*%
%ADD27R,1.400000X0.300000*%
G04 APERTURE END LIST*
D10*
%TO.C,R7*%
X100377500Y-79248000D03*
X102202500Y-79248000D03*
%TD*%
D11*
%TO.C,R5*%
X160400000Y-75787500D03*
X160400000Y-77612500D03*
%TD*%
%TO.C,R2*%
X146685000Y-69191500D03*
X146685000Y-71016500D03*
%TD*%
D12*
%TO.C,R9*%
X122451500Y-69088000D03*
X120626500Y-69088000D03*
%TD*%
D10*
%TO.C,R6*%
X107743500Y-79756000D03*
X109568500Y-79756000D03*
%TD*%
D11*
%TO.C,R3*%
X134100000Y-63200000D03*
X134100000Y-65025000D03*
%TD*%
%TO.C,R8*%
X105862000Y-79167500D03*
X105862000Y-80992500D03*
%TD*%
D13*
%TO.C,R1*%
X181420000Y-86975000D03*
X181420000Y-85150000D03*
%TD*%
D11*
%TO.C,R4*%
X103364000Y-71775000D03*
X103364000Y-73600000D03*
%TD*%
D14*
%TO.C,C32*%
X118240000Y-90666500D03*
X118240000Y-92566500D03*
%TD*%
D15*
%TO.C,J2*%
X178720000Y-79900000D03*
X178720000Y-79250000D03*
X178720000Y-78600000D03*
X178720000Y-77950000D03*
X178720000Y-77300000D03*
%TD*%
D14*
%TO.C,C2*%
X166050000Y-90900000D03*
X166050000Y-92800000D03*
%TD*%
D16*
%TO.C,C28*%
X153896857Y-93500000D03*
X155796857Y-93500000D03*
%TD*%
D17*
%TO.C,C11*%
X148544800Y-89447399D03*
X146644800Y-89447399D03*
%TD*%
%TO.C,C9*%
X142850000Y-89100000D03*
X140950000Y-89100000D03*
%TD*%
D14*
%TO.C,C31*%
X120399000Y-90666500D03*
X120399000Y-92566500D03*
%TD*%
D16*
%TO.C,C12*%
X139493400Y-72647399D03*
X141393400Y-72647399D03*
%TD*%
%TO.C,C6*%
X153896857Y-91437500D03*
X155796857Y-91437500D03*
%TD*%
D18*
%TO.C,U2*%
X138368400Y-77285000D03*
X138368400Y-77785000D03*
X138368400Y-78285000D03*
X138368400Y-78785000D03*
X138368400Y-79285000D03*
X138368400Y-79785000D03*
X138368400Y-80285000D03*
X138368400Y-80785000D03*
X138368400Y-81285000D03*
X138368400Y-81785000D03*
X138368400Y-82285000D03*
X138368400Y-82785000D03*
X138368400Y-83285000D03*
X138368400Y-83785000D03*
X138368400Y-84285000D03*
X138368400Y-84785000D03*
D19*
X140293400Y-86710000D03*
X140793400Y-86710000D03*
X141293400Y-86710000D03*
X141793400Y-86710000D03*
X142293400Y-86710000D03*
X142793400Y-86710000D03*
X143293400Y-86710000D03*
X143793400Y-86710000D03*
X144293400Y-86710000D03*
X144793400Y-86710000D03*
X145293400Y-86710000D03*
X145793400Y-86710000D03*
X146293400Y-86710000D03*
X146793400Y-86710000D03*
X147293400Y-86710000D03*
X147793400Y-86710000D03*
D18*
X149718400Y-84785000D03*
X149718400Y-84285000D03*
X149718400Y-83785000D03*
X149718400Y-83285000D03*
X149718400Y-82785000D03*
X149718400Y-82285000D03*
X149718400Y-81785000D03*
X149718400Y-81285000D03*
X149718400Y-80785000D03*
X149718400Y-80285000D03*
X149718400Y-79785000D03*
X149718400Y-79285000D03*
X149718400Y-78785000D03*
X149718400Y-78285000D03*
X149718400Y-77785000D03*
X149718400Y-77285000D03*
D19*
X147793400Y-75360000D03*
X147293400Y-75360000D03*
X146793400Y-75360000D03*
X146293400Y-75360000D03*
X145793400Y-75360000D03*
X145293400Y-75360000D03*
X144793400Y-75360000D03*
X144293400Y-75360000D03*
X143793400Y-75360000D03*
X143293400Y-75360000D03*
X142793400Y-75360000D03*
X142293400Y-75360000D03*
X141793400Y-75360000D03*
X141293400Y-75360000D03*
X140793400Y-75360000D03*
X140293400Y-75360000D03*
%TD*%
D20*
%TO.C,C7*%
X150749000Y-89469000D03*
X150749000Y-87569000D03*
%TD*%
D16*
%TO.C,C25*%
X111516000Y-87630000D03*
X113416000Y-87630000D03*
%TD*%
D14*
%TO.C,C18*%
X105862000Y-82616000D03*
X105862000Y-84516000D03*
%TD*%
%TO.C,C21*%
X123103000Y-81788000D03*
X123103000Y-83688000D03*
%TD*%
%TO.C,C22*%
X120904000Y-81793000D03*
X120904000Y-83693000D03*
%TD*%
%TO.C,C23*%
X118404000Y-81793000D03*
X118404000Y-83693000D03*
%TD*%
D17*
%TO.C,C19*%
X104780000Y-76962000D03*
X102880000Y-76962000D03*
%TD*%
D21*
%TO.C,FB3*%
X120352500Y-88822500D03*
X122477500Y-88822500D03*
%TD*%
D20*
%TO.C,C16*%
X133000000Y-78550000D03*
X133000000Y-76650000D03*
%TD*%
D22*
%TO.C,D1*%
X181400000Y-88925000D03*
X181400000Y-90800000D03*
%TD*%
D23*
%TO.C,IC2*%
X175471000Y-71400000D03*
X175471000Y-70130000D03*
X175471000Y-68860000D03*
X175471000Y-67590000D03*
X170047000Y-67590000D03*
X170047000Y-68860000D03*
X170047000Y-70130000D03*
X170047000Y-71400000D03*
%TD*%
D20*
%TO.C,C26*%
X178000000Y-69650000D03*
X178000000Y-67750000D03*
%TD*%
D24*
%TO.C,FB4*%
X152179857Y-93546500D03*
X152179857Y-91421500D03*
%TD*%
D21*
%TO.C,FB2*%
X120897500Y-80010000D03*
X123022500Y-80010000D03*
%TD*%
D14*
%TO.C,C27*%
X167800000Y-67250000D03*
X167800000Y-69150000D03*
%TD*%
D20*
%TO.C,C10*%
X135994800Y-77197399D03*
X135994800Y-75297399D03*
%TD*%
D25*
%TO.C,U1*%
X173420000Y-84575000D03*
X171120000Y-84575000D03*
D26*
X171120000Y-90875000D03*
D25*
X168820000Y-84575000D03*
%TD*%
D20*
%TO.C,C5*%
X118745000Y-67879000D03*
X118745000Y-65979000D03*
%TD*%
D14*
%TO.C,C15*%
X132842000Y-86934000D03*
X132842000Y-88834000D03*
%TD*%
D16*
%TO.C,C1*%
X170250000Y-82100000D03*
X172150000Y-82100000D03*
%TD*%
D14*
%TO.C,C30*%
X122555000Y-90692000D03*
X122555000Y-92592000D03*
%TD*%
%TO.C,C17*%
X133000000Y-80350000D03*
X133000000Y-82250000D03*
%TD*%
D17*
%TO.C,C4*%
X111200000Y-68707000D03*
X109300000Y-68707000D03*
%TD*%
D27*
%TO.C,IC1*%
X114386000Y-69600000D03*
X114386000Y-70100000D03*
X114386000Y-70600000D03*
X114386000Y-71100000D03*
X114386000Y-71600000D03*
X118786000Y-71600000D03*
X118786000Y-71100000D03*
X118786000Y-70600000D03*
X118786000Y-70100000D03*
X118786000Y-69600000D03*
%TD*%
D21*
%TO.C,FB1*%
X139487500Y-67050000D03*
X141612500Y-67050000D03*
%TD*%
D16*
%TO.C,C13*%
X139500000Y-69150000D03*
X141400000Y-69150000D03*
%TD*%
D17*
%TO.C,C3*%
X111200000Y-66357000D03*
X109300000Y-66357000D03*
%TD*%
D14*
%TO.C,C8*%
X152294800Y-75885000D03*
X152294800Y-77785000D03*
%TD*%
D23*
%TO.C,IC4*%
X113476000Y-85605000D03*
X113476000Y-84335000D03*
X113476000Y-83065000D03*
X113476000Y-81795000D03*
X108052000Y-81795000D03*
X108052000Y-83065000D03*
X108052000Y-84335000D03*
X108052000Y-85605000D03*
%TD*%
D14*
%TO.C,C14*%
X143550000Y-67300000D03*
X143550000Y-69200000D03*
%TD*%
M02*
