%TF.GenerationSoftware,KiCad,Pcbnew,8.0.0*%
%TF.CreationDate,2024-09-24T20:53:31+02:00*%
%TF.ProjectId,imp_measure,696d705f-6d65-4617-9375-72652e6b6963,rev?*%
%TF.SameCoordinates,Original*%
%TF.FileFunction,Copper,L2,Bot*%
%TF.FilePolarity,Positive*%
%FSLAX46Y46*%
G04 Gerber Fmt 4.6, Leading zero omitted, Abs format (unit mm)*
G04 Created by KiCad (PCBNEW 8.0.0) date 2024-09-24 20:53:31*
%MOMM*%
%LPD*%
G01*
G04 APERTURE LIST*
%TA.AperFunction,ComponentPad*%
%ADD10C,1.500000*%
%TD*%
%TA.AperFunction,ComponentPad*%
%ADD11R,1.700000X1.700000*%
%TD*%
%TA.AperFunction,ComponentPad*%
%ADD12O,1.700000X1.700000*%
%TD*%
%TA.AperFunction,ComponentPad*%
%ADD13O,1.800000X1.150000*%
%TD*%
%TA.AperFunction,ComponentPad*%
%ADD14O,2.000000X1.450000*%
%TD*%
%TA.AperFunction,ComponentPad*%
%ADD15R,1.500000X1.500000*%
%TD*%
%TA.AperFunction,ComponentPad*%
%ADD16C,1.600000*%
%TD*%
%TA.AperFunction,ComponentPad*%
%ADD17R,1.200000X1.200000*%
%TD*%
%TA.AperFunction,ComponentPad*%
%ADD18C,1.200000*%
%TD*%
%TA.AperFunction,ViaPad*%
%ADD19C,0.600000*%
%TD*%
%TA.AperFunction,Conductor*%
%ADD20C,0.500000*%
%TD*%
%TA.AperFunction,Conductor*%
%ADD21C,0.300000*%
%TD*%
%TA.AperFunction,Conductor*%
%ADD22C,0.200000*%
%TD*%
G04 APERTURE END LIST*
D10*
%TO.P,Y1,1,1*%
%TO.N,/RCC_OSC_IN*%
X128900000Y-79400000D03*
%TO.P,Y1,2,2*%
%TO.N,/RCC_OSC_OUT*%
X128900000Y-84280000D03*
%TD*%
D11*
%TO.P,J5,1,Pin_1*%
%TO.N,+3.3V_F*%
X127264000Y-97790000D03*
D12*
%TO.P,J5,2,Pin_2*%
%TO.N,/DAC_OUT*%
X129804000Y-97790000D03*
%TO.P,J5,3,Pin_3*%
%TO.N,/DAC_OUT_FILTERED*%
X132344000Y-97790000D03*
%TO.P,J5,4,Pin_4*%
%TO.N,GND*%
X134884000Y-97790000D03*
%TD*%
D13*
%TO.P,J2,6,Shield*%
%TO.N,unconnected-(J2-Shield-Pad6)_1*%
X182570000Y-82475000D03*
D14*
%TO.N,unconnected-(J2-Shield-Pad6)_2*%
X178770000Y-82325000D03*
%TO.N,unconnected-(J2-Shield-Pad6)*%
X178770000Y-74875000D03*
D13*
%TO.N,unconnected-(J2-Shield-Pad6)_0*%
X182570000Y-74725000D03*
%TD*%
D15*
%TO.P,SW1,1,A*%
%TO.N,GND*%
X131560000Y-59700000D03*
D16*
%TO.P,SW1,2,B*%
%TO.N,Net-(SW1-B)*%
X134100000Y-59700000D03*
%TO.P,SW1,3,C*%
%TO.N,+3.3V*%
X129020000Y-59700000D03*
%TD*%
D11*
%TO.P,J4,1,Pin_1*%
%TO.N,/SYS_JTDO_SWO*%
X152100000Y-59700000D03*
D12*
%TO.P,J4,2,Pin_2*%
%TO.N,/NRST*%
X149560000Y-59700000D03*
%TO.P,J4,3,Pin_3*%
%TO.N,/SYS_JTMS_SWDIO*%
X147020000Y-59700000D03*
%TO.P,J4,4,Pin_4*%
%TO.N,GND*%
X144480000Y-59700000D03*
%TO.P,J4,5,Pin_5*%
%TO.N,/SYS_JTCK_SWCLK*%
X141940000Y-59700000D03*
%TO.P,J4,6,Pin_6*%
%TO.N,+3.3V*%
X139400000Y-59700000D03*
%TD*%
D17*
%TO.P,C20,1*%
%TO.N,Net-(IC2-CAP+)*%
X181600000Y-69622600D03*
D18*
%TO.P,C20,2*%
%TO.N,Net-(IC2-CAP-)*%
X181600000Y-68122600D03*
%TD*%
D11*
%TO.P,J3,1,Pin_1*%
%TO.N,+3.3V_F*%
X147808000Y-97790000D03*
D12*
%TO.P,J3,2,Pin_2*%
%TO.N,/ADC1_IN5*%
X145268000Y-97790000D03*
%TO.P,J3,3,Pin_3*%
%TO.N,/ADC1_IN4*%
X142728000Y-97790000D03*
%TO.P,J3,4,Pin_4*%
%TO.N,GND*%
X140188000Y-97790000D03*
%TD*%
D11*
%TO.P,J1,1,Pin_1*%
%TO.N,+3.3V*%
X160889000Y-98044000D03*
D12*
%TO.P,J1,2,Pin_2*%
%TO.N,/USART2_TX*%
X158349000Y-98044000D03*
%TO.P,J1,3,Pin_3*%
%TO.N,/USART2_RX*%
X155809000Y-98044000D03*
%TO.P,J1,4,Pin_4*%
%TO.N,GND*%
X153269000Y-98044000D03*
%TD*%
D17*
%TO.P,C24,1*%
%TO.N,GND*%
X164300000Y-69900000D03*
D18*
%TO.P,C24,2*%
%TO.N,VBUS_M*%
X164300000Y-68400000D03*
%TD*%
D19*
%TO.N,GND*%
X170078400Y-76657200D03*
X150749000Y-86233000D03*
X175650000Y-77300000D03*
X113538000Y-62738000D03*
X133604000Y-91694000D03*
X146812000Y-93726000D03*
X122936000Y-64516000D03*
X124206000Y-79248000D03*
X130810000Y-69850000D03*
X173500000Y-82500000D03*
X98552000Y-73406000D03*
X124206000Y-75692000D03*
X98552000Y-77470000D03*
X99314000Y-84074000D03*
X103632000Y-91186000D03*
X173900000Y-86200000D03*
X148082000Y-92456000D03*
X148300000Y-77600000D03*
X123952000Y-86614000D03*
X99314000Y-80772000D03*
X102362000Y-88646000D03*
X98552000Y-75438000D03*
X112268000Y-97536000D03*
X135382000Y-87376000D03*
X127000000Y-91948000D03*
X109728000Y-97536000D03*
X146300000Y-85400000D03*
X127000000Y-69850000D03*
X133004533Y-83511555D03*
X139954000Y-83058000D03*
X121412000Y-63246000D03*
X98552000Y-71628000D03*
X117348000Y-97536000D03*
X117094000Y-62738000D03*
X144526000Y-93726000D03*
X99314000Y-82550000D03*
X123698000Y-65024000D03*
X99060000Y-69596000D03*
X123952000Y-69850000D03*
X131064000Y-91694000D03*
X135636000Y-85598000D03*
X99314000Y-90424000D03*
X103364000Y-75050000D03*
X104140000Y-96520000D03*
X102362000Y-85598000D03*
X172900000Y-86200000D03*
X109664000Y-81788000D03*
X132993100Y-75264849D03*
X104902000Y-68072000D03*
X99314000Y-86106000D03*
X99314000Y-88138000D03*
X114554000Y-97536000D03*
X102870000Y-68580000D03*
X114935000Y-83058000D03*
X136144000Y-83312000D03*
X136652000Y-82550000D03*
X115570000Y-62738000D03*
X118872000Y-62738000D03*
X111760000Y-62738000D03*
X124206000Y-77470000D03*
X157100000Y-93500000D03*
X172800000Y-65900000D03*
X116459000Y-92329000D03*
X101600000Y-94742000D03*
X149860000Y-92456000D03*
X109700000Y-64100000D03*
X120142000Y-97536000D03*
X124714000Y-65532000D03*
X135636000Y-84328000D03*
X132890733Y-90227349D03*
X136398000Y-69850000D03*
X118411992Y-85005402D03*
X135382000Y-89154000D03*
X179850000Y-85150000D03*
X125476000Y-92710000D03*
X99822000Y-92964000D03*
X166050000Y-94350000D03*
X107696000Y-62992000D03*
X123952000Y-87884000D03*
X98552000Y-79502000D03*
X130302000Y-73152000D03*
X142000000Y-84200000D03*
X173500000Y-81600000D03*
X131572000Y-72898000D03*
X129032000Y-91948000D03*
X109728000Y-62738000D03*
X105664000Y-66294000D03*
X135128000Y-90678000D03*
X120777000Y-65659000D03*
X143510000Y-94488000D03*
X100838000Y-68580000D03*
X123952000Y-96520000D03*
X112100000Y-70900000D03*
X122682000Y-97536000D03*
X106172000Y-64262000D03*
X106426000Y-97536000D03*
X120396000Y-62738000D03*
%TO.N,VBUS*%
X166700000Y-80300000D03*
X124900000Y-88900000D03*
X114900000Y-66500000D03*
X166700000Y-74600000D03*
X156200000Y-63600000D03*
%TO.N,+3.3V*%
X149606000Y-67310000D03*
X156400000Y-75800000D03*
X146177000Y-67310000D03*
X143400000Y-84800000D03*
X141700000Y-79200000D03*
X159900000Y-89450000D03*
X155956000Y-67818000D03*
%TO.N,/NRST*%
X152908000Y-70231000D03*
X146304000Y-77724000D03*
%TO.N,VBUS_M*%
X128800000Y-72600000D03*
%TO.N,/SPI1_NSS*%
X143764000Y-73660000D03*
X138000000Y-71100000D03*
X145161000Y-71120000D03*
%TO.N,/SPI1_SCK*%
X143100000Y-77200000D03*
X133300000Y-72200000D03*
%TO.N,/SPI1_MOSI*%
X142000000Y-77200000D03*
X133300000Y-70200000D03*
%TO.N,/USART2_RX*%
X145200000Y-82150000D03*
%TO.N,/USART2_TX*%
X144400000Y-81500000D03*
%TO.N,/SYS_JTDO_SWO*%
X145288000Y-73787000D03*
X154300000Y-68600000D03*
%TD*%
D20*
%TO.N,VBUS*%
X166700000Y-80300000D02*
X166700000Y-80000000D01*
X127300000Y-66500000D02*
X126100000Y-66500000D01*
X126100000Y-66500000D02*
X114900000Y-66500000D01*
X125300000Y-66500000D02*
X125300000Y-88500000D01*
X166700000Y-80000000D02*
X166700000Y-74600000D01*
X125300000Y-88500000D02*
X124900000Y-88900000D01*
X126100000Y-66500000D02*
X125300000Y-66500000D01*
X156200000Y-63600000D02*
X156100000Y-63700000D01*
X130100000Y-63700000D02*
X127300000Y-66500000D01*
X156100000Y-63700000D02*
X130100000Y-63700000D01*
%TO.N,+3.3V*%
X156400000Y-84010000D02*
X156400000Y-75800000D01*
D21*
X142900000Y-79200000D02*
X141700000Y-79200000D01*
D20*
X159893000Y-89457000D02*
X159893000Y-94996000D01*
X149606000Y-67310000D02*
X146177000Y-67310000D01*
D21*
X143400000Y-79700000D02*
X142900000Y-79200000D01*
D20*
X149616000Y-67300000D02*
X149606000Y-67310000D01*
X155438000Y-67300000D02*
X149616000Y-67300000D01*
X159900000Y-89450000D02*
X159893000Y-89457000D01*
X160889000Y-96032000D02*
X160889000Y-98044000D01*
X159900000Y-89450000D02*
X159900000Y-87510000D01*
D21*
X143400000Y-84800000D02*
X143400000Y-79700000D01*
D20*
X155956000Y-67818000D02*
X155438000Y-67300000D01*
X159893000Y-94996000D02*
X160909000Y-96012000D01*
X160909000Y-96012000D02*
X160889000Y-96032000D01*
X159900000Y-87510000D02*
X156400000Y-84010000D01*
D21*
%TO.N,/NRST*%
X152908000Y-71120000D02*
X146304000Y-77724000D01*
X152908000Y-70231000D02*
X152908000Y-71120000D01*
D20*
%TO.N,VBUS_M*%
X135100000Y-66700000D02*
X136200000Y-65600000D01*
X128800000Y-72600000D02*
X128800000Y-68300000D01*
X157700000Y-65600000D02*
X160500000Y-68400000D01*
X128800000Y-68300000D02*
X130400000Y-66700000D01*
X160500000Y-68400000D02*
X164300000Y-68400000D01*
X136200000Y-65600000D02*
X157700000Y-65600000D01*
X130400000Y-66700000D02*
X135100000Y-66700000D01*
D21*
%TO.N,/SPI1_NSS*%
X138000000Y-71100000D02*
X141700000Y-71100000D01*
X145141000Y-71100000D02*
X145161000Y-71120000D01*
X141700000Y-71100000D02*
X143764000Y-71100000D01*
X143764000Y-71100000D02*
X143764000Y-73660000D01*
X141700000Y-71100000D02*
X145141000Y-71100000D01*
%TO.N,/SPI1_SCK*%
X139400000Y-78300000D02*
X142000000Y-78300000D01*
X133300000Y-72200000D02*
X139400000Y-78300000D01*
X142000000Y-78300000D02*
X143100000Y-77200000D01*
%TO.N,/SPI1_MOSI*%
X137900000Y-73600000D02*
X137900000Y-75300000D01*
X133300000Y-70200000D02*
X134500000Y-70200000D01*
X140200000Y-77600000D02*
X141600000Y-77600000D01*
X134500000Y-70200000D02*
X137900000Y-73600000D01*
X137900000Y-75300000D02*
X140200000Y-77600000D01*
X141600000Y-77600000D02*
X142000000Y-77200000D01*
%TO.N,/USART2_RX*%
X145250000Y-82200000D02*
X150200000Y-82200000D01*
X155809000Y-89909000D02*
X155809000Y-98044000D01*
X145200000Y-82150000D02*
X145250000Y-82200000D01*
X154051000Y-86051000D02*
X154051000Y-88151000D01*
X150200000Y-82200000D02*
X154051000Y-86051000D01*
X154051000Y-88151000D02*
X155809000Y-89909000D01*
%TO.N,/USART2_TX*%
X154900000Y-87717000D02*
X158349000Y-91166000D01*
X144400000Y-81500000D02*
X150715000Y-81500000D01*
X154900000Y-85685000D02*
X154900000Y-87717000D01*
X150715000Y-81500000D02*
X154900000Y-85685000D01*
X158349000Y-91166000D02*
X158349000Y-98044000D01*
D22*
%TO.N,/SYS_JTDO_SWO*%
X154300000Y-68600000D02*
X153800000Y-69100000D01*
X153800000Y-69100000D02*
X152300000Y-69100000D01*
X146675000Y-72400000D02*
X145288000Y-73787000D01*
X152300000Y-69100000D02*
X149000000Y-72400000D01*
X149000000Y-72400000D02*
X146675000Y-72400000D01*
D20*
%TO.N,+3.3V_F*%
X147808000Y-96500000D02*
X146939000Y-95631000D01*
X146939000Y-95631000D02*
X128016000Y-95631000D01*
X127264000Y-96383000D02*
X127264000Y-97790000D01*
X147808000Y-97790000D02*
X147808000Y-96500000D01*
X128016000Y-95631000D02*
X127264000Y-96383000D01*
%TD*%
%TA.AperFunction,Conductor*%
%TO.N,GND*%
G36*
X156483000Y-89944283D02*
G01*
X156513859Y-89967962D01*
X157854859Y-91308962D01*
X157893423Y-91375757D01*
X157898500Y-91414321D01*
X157898500Y-96886760D01*
X157878538Y-96961260D01*
X157827939Y-97013442D01*
X157652698Y-97121947D01*
X157652697Y-97121948D01*
X157495127Y-97265593D01*
X157366636Y-97435740D01*
X157271594Y-97626612D01*
X157271593Y-97626614D01*
X157222312Y-97799820D01*
X157182724Y-97866013D01*
X157115343Y-97903544D01*
X157038224Y-97902356D01*
X156972031Y-97862768D01*
X156935688Y-97799820D01*
X156886406Y-97626614D01*
X156886405Y-97626612D01*
X156886405Y-97626611D01*
X156791366Y-97435745D01*
X156791364Y-97435743D01*
X156791363Y-97435740D01*
X156662872Y-97265593D01*
X156505302Y-97121948D01*
X156505301Y-97121947D01*
X156330061Y-97013442D01*
X156277229Y-96957250D01*
X156259500Y-96886760D01*
X156259500Y-90073321D01*
X156279462Y-89998821D01*
X156334000Y-89944283D01*
X156408500Y-89924321D01*
X156483000Y-89944283D01*
G37*
%TD.AperFunction*%
%TA.AperFunction,Conductor*%
G36*
X184001125Y-57300017D02*
G01*
X184004181Y-57300063D01*
X184155299Y-57302344D01*
X184170977Y-57303410D01*
X184478195Y-57340713D01*
X184495886Y-57343956D01*
X184795246Y-57417742D01*
X184812415Y-57423092D01*
X185100695Y-57532422D01*
X185117103Y-57539806D01*
X185390105Y-57683089D01*
X185405502Y-57692397D01*
X185659249Y-57867545D01*
X185673405Y-57878635D01*
X185904191Y-58083094D01*
X185916905Y-58095808D01*
X186121362Y-58326592D01*
X186132454Y-58340750D01*
X186307602Y-58594497D01*
X186316910Y-58609894D01*
X186460193Y-58882896D01*
X186467577Y-58899304D01*
X186576905Y-59187579D01*
X186582258Y-59204757D01*
X186656042Y-59504110D01*
X186659286Y-59521808D01*
X186696587Y-59829005D01*
X186697656Y-59844716D01*
X186699983Y-59998873D01*
X186700000Y-60001122D01*
X186700000Y-97498877D01*
X186699983Y-97501126D01*
X186697656Y-97655283D01*
X186696587Y-97670994D01*
X186659286Y-97978191D01*
X186656042Y-97995889D01*
X186582258Y-98295242D01*
X186576905Y-98312420D01*
X186467577Y-98600695D01*
X186460193Y-98617103D01*
X186316910Y-98890105D01*
X186307602Y-98905502D01*
X186132454Y-99159249D01*
X186121357Y-99173414D01*
X185916909Y-99404187D01*
X185904187Y-99416909D01*
X185673414Y-99621357D01*
X185659249Y-99632454D01*
X185405502Y-99807602D01*
X185390105Y-99816910D01*
X185117103Y-99960193D01*
X185100695Y-99967577D01*
X184812420Y-100076905D01*
X184795242Y-100082258D01*
X184495889Y-100156042D01*
X184478191Y-100159286D01*
X184170994Y-100196587D01*
X184155283Y-100197656D01*
X184001126Y-100199983D01*
X183998877Y-100200000D01*
X99878512Y-100200000D01*
X99876263Y-100199983D01*
X99844604Y-100199505D01*
X99828893Y-100198436D01*
X99521474Y-100161108D01*
X99503776Y-100157864D01*
X99204206Y-100084027D01*
X99187028Y-100078674D01*
X98898543Y-99969266D01*
X98882135Y-99961882D01*
X98608936Y-99818495D01*
X98593539Y-99809187D01*
X98339607Y-99633912D01*
X98325457Y-99622827D01*
X98094498Y-99418215D01*
X98081784Y-99405501D01*
X97877170Y-99174539D01*
X97866087Y-99160392D01*
X97690812Y-98906460D01*
X97681504Y-98891063D01*
X97538117Y-98617864D01*
X97530733Y-98601456D01*
X97421323Y-98312966D01*
X97415972Y-98295793D01*
X97415836Y-98295242D01*
X97342134Y-97996220D01*
X97338891Y-97978525D01*
X97301561Y-97671089D01*
X97300495Y-97655407D01*
X97300017Y-97623733D01*
X97300000Y-97621488D01*
X97300000Y-97598417D01*
X98749500Y-97598417D01*
X98780291Y-97792826D01*
X98841116Y-97980025D01*
X98841119Y-97980030D01*
X98841121Y-97980036D01*
X98889461Y-98074908D01*
X98930476Y-98155405D01*
X99046172Y-98314646D01*
X99185354Y-98453828D01*
X99344595Y-98569524D01*
X99488791Y-98642995D01*
X99506972Y-98652259D01*
X99519975Y-98658884D01*
X99707174Y-98719709D01*
X99901583Y-98750500D01*
X99901588Y-98750500D01*
X100098412Y-98750500D01*
X100098417Y-98750500D01*
X100292826Y-98719709D01*
X100400061Y-98684866D01*
X126113500Y-98684866D01*
X126116414Y-98709989D01*
X126116415Y-98709992D01*
X126161793Y-98812764D01*
X126161794Y-98812765D01*
X126241235Y-98892206D01*
X126344009Y-98937585D01*
X126369135Y-98940500D01*
X128158864Y-98940499D01*
X128158866Y-98940499D01*
X128173005Y-98938859D01*
X128183991Y-98937585D01*
X128286765Y-98892206D01*
X128366206Y-98812765D01*
X128411585Y-98709991D01*
X128414500Y-98684865D01*
X128414499Y-98178632D01*
X128434461Y-98104135D01*
X128488999Y-98049597D01*
X128563499Y-98029635D01*
X128637999Y-98049597D01*
X128692537Y-98104135D01*
X128706811Y-98137858D01*
X128726594Y-98207387D01*
X128821636Y-98398259D01*
X128950127Y-98568406D01*
X128950128Y-98568407D01*
X129105441Y-98709994D01*
X129107697Y-98712051D01*
X129107698Y-98712052D01*
X129288977Y-98824296D01*
X129288983Y-98824299D01*
X129376189Y-98858082D01*
X129487802Y-98901321D01*
X129697390Y-98940500D01*
X129697393Y-98940500D01*
X129910607Y-98940500D01*
X129910610Y-98940500D01*
X130120198Y-98901321D01*
X130319019Y-98824298D01*
X130500302Y-98712052D01*
X130657872Y-98568407D01*
X130786366Y-98398255D01*
X130881405Y-98207389D01*
X130930688Y-98034177D01*
X130970276Y-97967986D01*
X131037657Y-97930455D01*
X131114776Y-97931643D01*
X131180969Y-97971231D01*
X131217312Y-98034179D01*
X131266593Y-98207385D01*
X131266594Y-98207387D01*
X131361636Y-98398259D01*
X131490127Y-98568406D01*
X131490128Y-98568407D01*
X131645441Y-98709994D01*
X131647697Y-98712051D01*
X131647698Y-98712052D01*
X131828977Y-98824296D01*
X131828983Y-98824299D01*
X131916189Y-98858082D01*
X132027802Y-98901321D01*
X132237390Y-98940500D01*
X132237393Y-98940500D01*
X132450607Y-98940500D01*
X132450610Y-98940500D01*
X132660198Y-98901321D01*
X132859019Y-98824298D01*
X133040302Y-98712052D01*
X133197872Y-98568407D01*
X133326366Y-98398255D01*
X133421405Y-98207389D01*
X133479756Y-98002310D01*
X133499167Y-97792826D01*
X133499429Y-97790004D01*
X133499429Y-97789995D01*
X133482936Y-97612013D01*
X133479756Y-97577690D01*
X133421405Y-97372611D01*
X133326366Y-97181745D01*
X133326364Y-97181743D01*
X133326363Y-97181740D01*
X133197872Y-97011593D01*
X133040302Y-96867948D01*
X133040301Y-96867947D01*
X132859022Y-96755703D01*
X132859016Y-96755700D01*
X132660204Y-96678681D01*
X132660200Y-96678680D01*
X132660198Y-96678679D01*
X132618280Y-96670843D01*
X132450614Y-96639500D01*
X132450610Y-96639500D01*
X132237390Y-96639500D01*
X132237385Y-96639500D01*
X132027802Y-96678679D01*
X132027795Y-96678681D01*
X131828983Y-96755700D01*
X131828977Y-96755703D01*
X131647698Y-96867947D01*
X131647697Y-96867948D01*
X131490127Y-97011593D01*
X131361636Y-97181740D01*
X131266594Y-97372612D01*
X131266593Y-97372614D01*
X131217312Y-97545820D01*
X131177724Y-97612013D01*
X131110343Y-97649544D01*
X131033224Y-97648356D01*
X130967031Y-97608768D01*
X130930688Y-97545820D01*
X130881406Y-97372614D01*
X130881405Y-97372612D01*
X130881405Y-97372611D01*
X130786366Y-97181745D01*
X130786364Y-97181743D01*
X130786363Y-97181740D01*
X130657872Y-97011593D01*
X130500302Y-96867948D01*
X130500301Y-96867947D01*
X130319022Y-96755703D01*
X130319016Y-96755700D01*
X130120204Y-96678681D01*
X130120200Y-96678680D01*
X130120198Y-96678679D01*
X130078280Y-96670843D01*
X129910614Y-96639500D01*
X129910610Y-96639500D01*
X129697390Y-96639500D01*
X129697385Y-96639500D01*
X129487802Y-96678679D01*
X129487795Y-96678681D01*
X129288983Y-96755700D01*
X129288977Y-96755703D01*
X129107698Y-96867947D01*
X129107697Y-96867948D01*
X128950127Y-97011593D01*
X128821636Y-97181740D01*
X128726594Y-97372612D01*
X128706811Y-97442143D01*
X128667222Y-97508335D01*
X128599841Y-97545866D01*
X128522722Y-97544678D01*
X128456530Y-97505089D01*
X128418999Y-97437708D01*
X128414499Y-97401366D01*
X128414499Y-96895133D01*
X128411585Y-96870010D01*
X128411584Y-96870008D01*
X128366206Y-96767235D01*
X128286765Y-96687794D01*
X128286764Y-96687793D01*
X128183994Y-96642416D01*
X128183991Y-96642415D01*
X128183982Y-96642414D01*
X128158865Y-96639500D01*
X128158859Y-96639500D01*
X128145742Y-96639500D01*
X128071242Y-96619538D01*
X128016704Y-96565000D01*
X127996742Y-96490500D01*
X128016704Y-96416000D01*
X128040383Y-96385141D01*
X128200383Y-96225141D01*
X128267178Y-96186577D01*
X128305742Y-96181500D01*
X146649257Y-96181500D01*
X146723757Y-96201462D01*
X146754616Y-96225141D01*
X146931132Y-96401657D01*
X146969696Y-96468452D01*
X146969696Y-96545580D01*
X146931132Y-96612375D01*
X146885958Y-96643320D01*
X146785234Y-96687794D01*
X146705793Y-96767235D01*
X146660416Y-96870005D01*
X146660415Y-96870008D01*
X146660415Y-96870009D01*
X146657500Y-96895135D01*
X146657500Y-96895136D01*
X146657500Y-96895140D01*
X146657500Y-97401364D01*
X146637538Y-97475864D01*
X146583000Y-97530402D01*
X146508500Y-97550364D01*
X146434000Y-97530402D01*
X146379462Y-97475864D01*
X146365188Y-97442140D01*
X146345406Y-97372614D01*
X146345405Y-97372612D01*
X146345405Y-97372611D01*
X146250366Y-97181745D01*
X146250364Y-97181743D01*
X146250363Y-97181740D01*
X146121872Y-97011593D01*
X145964302Y-96867948D01*
X145964301Y-96867947D01*
X145783022Y-96755703D01*
X145783016Y-96755700D01*
X145584204Y-96678681D01*
X145584200Y-96678680D01*
X145584198Y-96678679D01*
X145542280Y-96670843D01*
X145374614Y-96639500D01*
X145374610Y-96639500D01*
X145161390Y-96639500D01*
X145161385Y-96639500D01*
X144951802Y-96678679D01*
X144951795Y-96678681D01*
X144752983Y-96755700D01*
X144752977Y-96755703D01*
X144571698Y-96867947D01*
X144571697Y-96867948D01*
X144414127Y-97011593D01*
X144285636Y-97181740D01*
X144190594Y-97372612D01*
X144190593Y-97372614D01*
X144141312Y-97545820D01*
X144101724Y-97612013D01*
X144034343Y-97649544D01*
X143957224Y-97648356D01*
X143891031Y-97608768D01*
X143854688Y-97545820D01*
X143805406Y-97372614D01*
X143805405Y-97372612D01*
X143805405Y-97372611D01*
X143710366Y-97181745D01*
X143710364Y-97181743D01*
X143710363Y-97181740D01*
X143581872Y-97011593D01*
X143424302Y-96867948D01*
X143424301Y-96867947D01*
X143243022Y-96755703D01*
X143243016Y-96755700D01*
X143044204Y-96678681D01*
X143044200Y-96678680D01*
X143044198Y-96678679D01*
X143002280Y-96670843D01*
X142834614Y-96639500D01*
X142834610Y-96639500D01*
X142621390Y-96639500D01*
X142621385Y-96639500D01*
X142411802Y-96678679D01*
X142411795Y-96678681D01*
X142212983Y-96755700D01*
X142212977Y-96755703D01*
X142031698Y-96867947D01*
X142031697Y-96867948D01*
X141874127Y-97011593D01*
X141745636Y-97181740D01*
X141650594Y-97372612D01*
X141650593Y-97372614D01*
X141592243Y-97577694D01*
X141572571Y-97789995D01*
X141572571Y-97790004D01*
X141592243Y-98002305D01*
X141650593Y-98207385D01*
X141650594Y-98207387D01*
X141745636Y-98398259D01*
X141874127Y-98568406D01*
X141874128Y-98568407D01*
X142029441Y-98709994D01*
X142031697Y-98712051D01*
X142031698Y-98712052D01*
X142212977Y-98824296D01*
X142212983Y-98824299D01*
X142300189Y-98858082D01*
X142411802Y-98901321D01*
X142621390Y-98940500D01*
X142621393Y-98940500D01*
X142834607Y-98940500D01*
X142834610Y-98940500D01*
X143044198Y-98901321D01*
X143243019Y-98824298D01*
X143424302Y-98712052D01*
X143581872Y-98568407D01*
X143710366Y-98398255D01*
X143805405Y-98207389D01*
X143854688Y-98034177D01*
X143894276Y-97967986D01*
X143961657Y-97930455D01*
X144038776Y-97931643D01*
X144104969Y-97971231D01*
X144141312Y-98034179D01*
X144190593Y-98207385D01*
X144190594Y-98207387D01*
X144285636Y-98398259D01*
X144414127Y-98568406D01*
X144414128Y-98568407D01*
X144569441Y-98709994D01*
X144571697Y-98712051D01*
X144571698Y-98712052D01*
X144752977Y-98824296D01*
X144752983Y-98824299D01*
X144840189Y-98858082D01*
X144951802Y-98901321D01*
X145161390Y-98940500D01*
X145161393Y-98940500D01*
X145374607Y-98940500D01*
X145374610Y-98940500D01*
X145584198Y-98901321D01*
X145783019Y-98824298D01*
X145964302Y-98712052D01*
X146121872Y-98568407D01*
X146250366Y-98398255D01*
X146345405Y-98207389D01*
X146365188Y-98137857D01*
X146404775Y-98071665D01*
X146472155Y-98034134D01*
X146549274Y-98035321D01*
X146615468Y-98074908D01*
X146652999Y-98142288D01*
X146657500Y-98178633D01*
X146657500Y-98684866D01*
X146660414Y-98709989D01*
X146660415Y-98709992D01*
X146705793Y-98812764D01*
X146705794Y-98812765D01*
X146785235Y-98892206D01*
X146888009Y-98937585D01*
X146913135Y-98940500D01*
X148702864Y-98940499D01*
X148702866Y-98940499D01*
X148717005Y-98938859D01*
X148727991Y-98937585D01*
X148830765Y-98892206D01*
X148910206Y-98812765D01*
X148955585Y-98709991D01*
X148958500Y-98684865D01*
X148958499Y-96895136D01*
X148958309Y-96893501D01*
X148955585Y-96870010D01*
X148955584Y-96870008D01*
X148910206Y-96767235D01*
X148830765Y-96687794D01*
X148830764Y-96687793D01*
X148727994Y-96642416D01*
X148727991Y-96642415D01*
X148727982Y-96642414D01*
X148702865Y-96639500D01*
X148702859Y-96639500D01*
X148507500Y-96639500D01*
X148433000Y-96619538D01*
X148378462Y-96565000D01*
X148358500Y-96490500D01*
X148358500Y-96427525D01*
X148358499Y-96427523D01*
X148355411Y-96416000D01*
X148320984Y-96287515D01*
X148320983Y-96287514D01*
X148320983Y-96287512D01*
X148248511Y-96161988D01*
X148248506Y-96161982D01*
X148146015Y-96059490D01*
X148146015Y-96059491D01*
X147277015Y-95190490D01*
X147151485Y-95118016D01*
X147011475Y-95080500D01*
X127943525Y-95080500D01*
X127803514Y-95118016D01*
X127677985Y-95190490D01*
X126823489Y-96044985D01*
X126800691Y-96084474D01*
X126766334Y-96143984D01*
X126751016Y-96170515D01*
X126748815Y-96178731D01*
X126713500Y-96310523D01*
X126713500Y-96490500D01*
X126693538Y-96565000D01*
X126639000Y-96619538D01*
X126564501Y-96639500D01*
X126369133Y-96639500D01*
X126344010Y-96642414D01*
X126344007Y-96642415D01*
X126241235Y-96687793D01*
X126161793Y-96767235D01*
X126116416Y-96870005D01*
X126116415Y-96870008D01*
X126116415Y-96870009D01*
X126113500Y-96895135D01*
X126113500Y-96895136D01*
X126113500Y-96895140D01*
X126113500Y-98684866D01*
X100400061Y-98684866D01*
X100480025Y-98658884D01*
X100655405Y-98569524D01*
X100814646Y-98453828D01*
X100953828Y-98314646D01*
X101069524Y-98155405D01*
X101158884Y-97980025D01*
X101219709Y-97792826D01*
X101250500Y-97598417D01*
X101250500Y-97401583D01*
X101219709Y-97207174D01*
X101158884Y-97019975D01*
X101069524Y-96844595D01*
X100953828Y-96685354D01*
X100814646Y-96546172D01*
X100655405Y-96430476D01*
X100598844Y-96401657D01*
X100480036Y-96341121D01*
X100480030Y-96341119D01*
X100480025Y-96341116D01*
X100292826Y-96280291D01*
X100098417Y-96249500D01*
X99901583Y-96249500D01*
X99707174Y-96280291D01*
X99519975Y-96341116D01*
X99519972Y-96341117D01*
X99519963Y-96341121D01*
X99344598Y-96430474D01*
X99344593Y-96430477D01*
X99185363Y-96546165D01*
X99185352Y-96546174D01*
X99046174Y-96685352D01*
X99046165Y-96685363D01*
X98930477Y-96844593D01*
X98930474Y-96844598D01*
X98841121Y-97019963D01*
X98841114Y-97019981D01*
X98788555Y-97181740D01*
X98780291Y-97207174D01*
X98749500Y-97401583D01*
X98749500Y-97598417D01*
X97300000Y-97598417D01*
X97300000Y-66500002D01*
X114294318Y-66500002D01*
X114314954Y-66656757D01*
X114375463Y-66802840D01*
X114435988Y-66881717D01*
X114471718Y-66928282D01*
X114597159Y-67024536D01*
X114743238Y-67085044D01*
X114743241Y-67085044D01*
X114743243Y-67085045D01*
X114743240Y-67085045D01*
X114899997Y-67105682D01*
X114900000Y-67105682D01*
X114900003Y-67105682D01*
X115056759Y-67085045D01*
X115056761Y-67085044D01*
X115056762Y-67085044D01*
X115091966Y-67070462D01*
X115112777Y-67061842D01*
X115169796Y-67050500D01*
X124600500Y-67050500D01*
X124675000Y-67070462D01*
X124729538Y-67125000D01*
X124749500Y-67199500D01*
X124749500Y-88210256D01*
X124729538Y-88284756D01*
X124705847Y-88315627D01*
X124701499Y-88319974D01*
X124653176Y-88352259D01*
X124597161Y-88375462D01*
X124597154Y-88375466D01*
X124471719Y-88471716D01*
X124471717Y-88471718D01*
X124375463Y-88597159D01*
X124314954Y-88743242D01*
X124294318Y-88899997D01*
X124294318Y-88900002D01*
X124314954Y-89056757D01*
X124375463Y-89202840D01*
X124375464Y-89202841D01*
X124471718Y-89328282D01*
X124597159Y-89424536D01*
X124743238Y-89485044D01*
X124743241Y-89485044D01*
X124743243Y-89485045D01*
X124743240Y-89485045D01*
X124899997Y-89505682D01*
X124900000Y-89505682D01*
X124900003Y-89505682D01*
X125056757Y-89485045D01*
X125056758Y-89485044D01*
X125056762Y-89485044D01*
X125202841Y-89424536D01*
X125328282Y-89328282D01*
X125424536Y-89202841D01*
X125447737Y-89146826D01*
X125480032Y-89098491D01*
X125740510Y-88838015D01*
X125812984Y-88712485D01*
X125828672Y-88653937D01*
X125850500Y-88572475D01*
X125850500Y-84280000D01*
X127844417Y-84280000D01*
X127864700Y-84485937D01*
X127924768Y-84683955D01*
X128022310Y-84866442D01*
X128022313Y-84866446D01*
X128022315Y-84866450D01*
X128153590Y-85026410D01*
X128313550Y-85157685D01*
X128313555Y-85157687D01*
X128313557Y-85157689D01*
X128496044Y-85255231D01*
X128496046Y-85255232D01*
X128694063Y-85315299D01*
X128694066Y-85315300D01*
X128900000Y-85335583D01*
X129105934Y-85315300D01*
X129303954Y-85255232D01*
X129486450Y-85157685D01*
X129646410Y-85026410D01*
X129777685Y-84866450D01*
X129875232Y-84683954D01*
X129935300Y-84485934D01*
X129955583Y-84280000D01*
X129935300Y-84074066D01*
X129875232Y-83876046D01*
X129824950Y-83781975D01*
X129777689Y-83693557D01*
X129777687Y-83693555D01*
X129777685Y-83693550D01*
X129646410Y-83533590D01*
X129486450Y-83402315D01*
X129486446Y-83402313D01*
X129486442Y-83402310D01*
X129303955Y-83304768D01*
X129105936Y-83244700D01*
X129105937Y-83244700D01*
X128900000Y-83224417D01*
X128694062Y-83244700D01*
X128496044Y-83304768D01*
X128313557Y-83402310D01*
X128313547Y-83402317D01*
X128153590Y-83533589D01*
X128153589Y-83533590D01*
X128022317Y-83693547D01*
X128022310Y-83693557D01*
X127924768Y-83876044D01*
X127864700Y-84074062D01*
X127844417Y-84280000D01*
X125850500Y-84280000D01*
X125850500Y-79400000D01*
X127844417Y-79400000D01*
X127864700Y-79605937D01*
X127924768Y-79803955D01*
X128022310Y-79986442D01*
X128022313Y-79986446D01*
X128022315Y-79986450D01*
X128153590Y-80146410D01*
X128313550Y-80277685D01*
X128313555Y-80277687D01*
X128313557Y-80277689D01*
X128496044Y-80375231D01*
X128496046Y-80375232D01*
X128694063Y-80435299D01*
X128694066Y-80435300D01*
X128900000Y-80455583D01*
X129105934Y-80435300D01*
X129303954Y-80375232D01*
X129486450Y-80277685D01*
X129646410Y-80146410D01*
X129777685Y-79986450D01*
X129875232Y-79803954D01*
X129935300Y-79605934D01*
X129955583Y-79400000D01*
X129935300Y-79194066D01*
X129875232Y-78996046D01*
X129823627Y-78899500D01*
X129777689Y-78813557D01*
X129777687Y-78813555D01*
X129777685Y-78813550D01*
X129646410Y-78653590D01*
X129486450Y-78522315D01*
X129486446Y-78522313D01*
X129486442Y-78522310D01*
X129303955Y-78424768D01*
X129105936Y-78364700D01*
X129105937Y-78364700D01*
X128900000Y-78344417D01*
X128694062Y-78364700D01*
X128496044Y-78424768D01*
X128313557Y-78522310D01*
X128313547Y-78522317D01*
X128153590Y-78653589D01*
X128153589Y-78653590D01*
X128022317Y-78813547D01*
X128022310Y-78813557D01*
X127924768Y-78996044D01*
X127864700Y-79194062D01*
X127844417Y-79400000D01*
X125850500Y-79400000D01*
X125850500Y-72600002D01*
X128194318Y-72600002D01*
X128214954Y-72756757D01*
X128275463Y-72902840D01*
X128275464Y-72902841D01*
X128371718Y-73028282D01*
X128497159Y-73124536D01*
X128643238Y-73185044D01*
X128643241Y-73185044D01*
X128643243Y-73185045D01*
X128643240Y-73185045D01*
X128799997Y-73205682D01*
X128800000Y-73205682D01*
X128800003Y-73205682D01*
X128956757Y-73185045D01*
X128956758Y-73185044D01*
X128956762Y-73185044D01*
X129102841Y-73124536D01*
X129228282Y-73028282D01*
X129324536Y-72902841D01*
X129385044Y-72756762D01*
X129389821Y-72720481D01*
X129405682Y-72600002D01*
X129405682Y-72599997D01*
X129385045Y-72443244D01*
X129385044Y-72443243D01*
X129385044Y-72443238D01*
X129361840Y-72387219D01*
X129350500Y-72330203D01*
X129350500Y-72200002D01*
X132694318Y-72200002D01*
X132714954Y-72356757D01*
X132775463Y-72502840D01*
X132850017Y-72600000D01*
X132871718Y-72628282D01*
X132997159Y-72724536D01*
X133143238Y-72785044D01*
X133213669Y-72794316D01*
X133284924Y-72823830D01*
X133299578Y-72836681D01*
X139123386Y-78660490D01*
X139226113Y-78719799D01*
X139250317Y-78726283D01*
X139250324Y-78726287D01*
X139250325Y-78726286D01*
X139262462Y-78729538D01*
X139340691Y-78750500D01*
X141013218Y-78750500D01*
X141087718Y-78770462D01*
X141142256Y-78825000D01*
X141162218Y-78899500D01*
X141150876Y-78956520D01*
X141114954Y-79043242D01*
X141094318Y-79199997D01*
X141094318Y-79200002D01*
X141114954Y-79356757D01*
X141175463Y-79502840D01*
X141193323Y-79526115D01*
X141271718Y-79628282D01*
X141397159Y-79724536D01*
X141543238Y-79785044D01*
X141543241Y-79785044D01*
X141543243Y-79785045D01*
X141543240Y-79785045D01*
X141699997Y-79805682D01*
X141700000Y-79805682D01*
X141700003Y-79805682D01*
X141856757Y-79785045D01*
X141856758Y-79785044D01*
X141856762Y-79785044D01*
X142002841Y-79724536D01*
X142059201Y-79681289D01*
X142130457Y-79651775D01*
X142149905Y-79650500D01*
X142651679Y-79650500D01*
X142726179Y-79670462D01*
X142757038Y-79694141D01*
X142905859Y-79842962D01*
X142944423Y-79909757D01*
X142949500Y-79948321D01*
X142949500Y-84350094D01*
X142929538Y-84424594D01*
X142918710Y-84440799D01*
X142875463Y-84497159D01*
X142814954Y-84643242D01*
X142794318Y-84799997D01*
X142794318Y-84800002D01*
X142814954Y-84956757D01*
X142875463Y-85102840D01*
X142875464Y-85102841D01*
X142971718Y-85228282D01*
X143097159Y-85324536D01*
X143243238Y-85385044D01*
X143243241Y-85385044D01*
X143243243Y-85385045D01*
X143243240Y-85385045D01*
X143399997Y-85405682D01*
X143400000Y-85405682D01*
X143400003Y-85405682D01*
X143556757Y-85385045D01*
X143556758Y-85385044D01*
X143556762Y-85385044D01*
X143702841Y-85324536D01*
X143828282Y-85228282D01*
X143924536Y-85102841D01*
X143985044Y-84956762D01*
X143996934Y-84866452D01*
X144005682Y-84800002D01*
X144005682Y-84799997D01*
X143985045Y-84643242D01*
X143985044Y-84643240D01*
X143985044Y-84643238D01*
X143924536Y-84497159D01*
X143881290Y-84440799D01*
X143851775Y-84369541D01*
X143850500Y-84350094D01*
X143850500Y-82137409D01*
X143870462Y-82062909D01*
X143925000Y-82008371D01*
X143999500Y-81988409D01*
X144074000Y-82008371D01*
X144090197Y-82019194D01*
X144097159Y-82024536D01*
X144243238Y-82085044D01*
X144243241Y-82085044D01*
X144243243Y-82085045D01*
X144243240Y-82085045D01*
X144399997Y-82105682D01*
X144400000Y-82105682D01*
X144400001Y-82105682D01*
X144437546Y-82100739D01*
X144514014Y-82110806D01*
X144575204Y-82157758D01*
X144604720Y-82229015D01*
X144604720Y-82229016D01*
X144614954Y-82306757D01*
X144675463Y-82452840D01*
X144675464Y-82452841D01*
X144771718Y-82578282D01*
X144897159Y-82674536D01*
X145043238Y-82735044D01*
X145043241Y-82735044D01*
X145043243Y-82735045D01*
X145043240Y-82735045D01*
X145199997Y-82755682D01*
X145200000Y-82755682D01*
X145200003Y-82755682D01*
X145356759Y-82735045D01*
X145356761Y-82735044D01*
X145356762Y-82735044D01*
X145502841Y-82674536D01*
X145502846Y-82674531D01*
X145509889Y-82670466D01*
X145584388Y-82650500D01*
X149951679Y-82650500D01*
X150026179Y-82670462D01*
X150057038Y-82694141D01*
X153556859Y-86193962D01*
X153595423Y-86260757D01*
X153600500Y-86299321D01*
X153600500Y-88210312D01*
X153623010Y-88294317D01*
X153631202Y-88324890D01*
X153690506Y-88427607D01*
X153690509Y-88427611D01*
X153690511Y-88427614D01*
X155314860Y-90051963D01*
X155353423Y-90118756D01*
X155358500Y-90157320D01*
X155358500Y-96886760D01*
X155338538Y-96961260D01*
X155287939Y-97013442D01*
X155112698Y-97121947D01*
X155112697Y-97121948D01*
X154955127Y-97265593D01*
X154826636Y-97435740D01*
X154731594Y-97626612D01*
X154731593Y-97626614D01*
X154673243Y-97831694D01*
X154653571Y-98043995D01*
X154653571Y-98044004D01*
X154673243Y-98256305D01*
X154673243Y-98256307D01*
X154673244Y-98256310D01*
X154689842Y-98314646D01*
X154731593Y-98461385D01*
X154731594Y-98461387D01*
X154826636Y-98652259D01*
X154955127Y-98822406D01*
X154955128Y-98822407D01*
X155110441Y-98963994D01*
X155112697Y-98966051D01*
X155112698Y-98966052D01*
X155293977Y-99078296D01*
X155293983Y-99078299D01*
X155381189Y-99112082D01*
X155492802Y-99155321D01*
X155702390Y-99194500D01*
X155702393Y-99194500D01*
X155915607Y-99194500D01*
X155915610Y-99194500D01*
X156125198Y-99155321D01*
X156324019Y-99078298D01*
X156505302Y-98966052D01*
X156662872Y-98822407D01*
X156791366Y-98652255D01*
X156886405Y-98461389D01*
X156935688Y-98288177D01*
X156975276Y-98221986D01*
X157042657Y-98184455D01*
X157119776Y-98185643D01*
X157185969Y-98225231D01*
X157222311Y-98288177D01*
X157229842Y-98314646D01*
X157271593Y-98461385D01*
X157271594Y-98461387D01*
X157366636Y-98652259D01*
X157495127Y-98822406D01*
X157495128Y-98822407D01*
X157650441Y-98963994D01*
X157652697Y-98966051D01*
X157652698Y-98966052D01*
X157833977Y-99078296D01*
X157833983Y-99078299D01*
X157921189Y-99112082D01*
X158032802Y-99155321D01*
X158242390Y-99194500D01*
X158242393Y-99194500D01*
X158455607Y-99194500D01*
X158455610Y-99194500D01*
X158665198Y-99155321D01*
X158864019Y-99078298D01*
X159045302Y-98966052D01*
X159202872Y-98822407D01*
X159331366Y-98652255D01*
X159426405Y-98461389D01*
X159446188Y-98391857D01*
X159485775Y-98325665D01*
X159553155Y-98288134D01*
X159630274Y-98289321D01*
X159696468Y-98328908D01*
X159733999Y-98396288D01*
X159738500Y-98432633D01*
X159738500Y-98938866D01*
X159741414Y-98963989D01*
X159741415Y-98963992D01*
X159786793Y-99066764D01*
X159786794Y-99066765D01*
X159866235Y-99146206D01*
X159969009Y-99191585D01*
X159994135Y-99194500D01*
X161783864Y-99194499D01*
X161783866Y-99194499D01*
X161796427Y-99193042D01*
X161808991Y-99191585D01*
X161911765Y-99146206D01*
X161991206Y-99066765D01*
X162036585Y-98963991D01*
X162039500Y-98938865D01*
X162039499Y-97598417D01*
X182749500Y-97598417D01*
X182780291Y-97792826D01*
X182841116Y-97980025D01*
X182841119Y-97980030D01*
X182841121Y-97980036D01*
X182889461Y-98074908D01*
X182930476Y-98155405D01*
X183046172Y-98314646D01*
X183185354Y-98453828D01*
X183344595Y-98569524D01*
X183488791Y-98642995D01*
X183506972Y-98652259D01*
X183519975Y-98658884D01*
X183707174Y-98719709D01*
X183901583Y-98750500D01*
X183901588Y-98750500D01*
X184098412Y-98750500D01*
X184098417Y-98750500D01*
X184292826Y-98719709D01*
X184480025Y-98658884D01*
X184655405Y-98569524D01*
X184814646Y-98453828D01*
X184953828Y-98314646D01*
X185069524Y-98155405D01*
X185158884Y-97980025D01*
X185219709Y-97792826D01*
X185250500Y-97598417D01*
X185250500Y-97401583D01*
X185219709Y-97207174D01*
X185158884Y-97019975D01*
X185069524Y-96844595D01*
X184953828Y-96685354D01*
X184814646Y-96546172D01*
X184655405Y-96430476D01*
X184598844Y-96401657D01*
X184480036Y-96341121D01*
X184480030Y-96341119D01*
X184480025Y-96341116D01*
X184292826Y-96280291D01*
X184098417Y-96249500D01*
X183901583Y-96249500D01*
X183707174Y-96280291D01*
X183519975Y-96341116D01*
X183519972Y-96341117D01*
X183519963Y-96341121D01*
X183344598Y-96430474D01*
X183344593Y-96430477D01*
X183185363Y-96546165D01*
X183185352Y-96546174D01*
X183046174Y-96685352D01*
X183046165Y-96685363D01*
X182930477Y-96844593D01*
X182930474Y-96844598D01*
X182841121Y-97019963D01*
X182841114Y-97019981D01*
X182788555Y-97181740D01*
X182780291Y-97207174D01*
X182749500Y-97401583D01*
X182749500Y-97598417D01*
X162039499Y-97598417D01*
X162039499Y-97149136D01*
X162036585Y-97124009D01*
X161991206Y-97021235D01*
X161911765Y-96941794D01*
X161911764Y-96941793D01*
X161808994Y-96896416D01*
X161808991Y-96896415D01*
X161808982Y-96896414D01*
X161783865Y-96893500D01*
X161783859Y-96893500D01*
X161588500Y-96893500D01*
X161514000Y-96873538D01*
X161459462Y-96819000D01*
X161439500Y-96744500D01*
X161439500Y-96178731D01*
X161444577Y-96140166D01*
X161459500Y-96084474D01*
X161459500Y-95939526D01*
X161421984Y-95799515D01*
X161349510Y-95673985D01*
X160487141Y-94811616D01*
X160448577Y-94744821D01*
X160443500Y-94706257D01*
X160443500Y-89736695D01*
X160454842Y-89679675D01*
X160459063Y-89669485D01*
X160485044Y-89606762D01*
X160485045Y-89606756D01*
X160505682Y-89450002D01*
X160505682Y-89449997D01*
X160485045Y-89293244D01*
X160485044Y-89293243D01*
X160485044Y-89293238D01*
X160461840Y-89237219D01*
X160450500Y-89180203D01*
X160450500Y-87437525D01*
X160450499Y-87437523D01*
X160412984Y-87297515D01*
X160395078Y-87266501D01*
X160340510Y-87171985D01*
X156994141Y-83825616D01*
X156955577Y-83758821D01*
X156950500Y-83720257D01*
X156950500Y-82426003D01*
X177469500Y-82426003D01*
X177508908Y-82624124D01*
X177586211Y-82810751D01*
X177586216Y-82810761D01*
X177675935Y-82945034D01*
X177698442Y-82978718D01*
X177841282Y-83121558D01*
X177891393Y-83155041D01*
X178009238Y-83233783D01*
X178009248Y-83233788D01*
X178050459Y-83250858D01*
X178195873Y-83311091D01*
X178393997Y-83350500D01*
X179146003Y-83350500D01*
X179344127Y-83311091D01*
X179530756Y-83233786D01*
X179530758Y-83233784D01*
X179530761Y-83233783D01*
X179564895Y-83210974D01*
X179698718Y-83121558D01*
X179841558Y-82978718D01*
X179953786Y-82810756D01*
X180031091Y-82624127D01*
X180043602Y-82561229D01*
X181369500Y-82561229D01*
X181403144Y-82730371D01*
X181403145Y-82730375D01*
X181469138Y-82889697D01*
X181469140Y-82889701D01*
X181469142Y-82889705D01*
X181564955Y-83033099D01*
X181686901Y-83155045D01*
X181830295Y-83250858D01*
X181989626Y-83316855D01*
X182158771Y-83350500D01*
X182981229Y-83350500D01*
X183150374Y-83316855D01*
X183309705Y-83250858D01*
X183453099Y-83155045D01*
X183575045Y-83033099D01*
X183670858Y-82889705D01*
X183736855Y-82730374D01*
X183770500Y-82561229D01*
X183770500Y-82388771D01*
X183736855Y-82219626D01*
X183670858Y-82060295D01*
X183575045Y-81916901D01*
X183453099Y-81794955D01*
X183309705Y-81699142D01*
X183309701Y-81699140D01*
X183309697Y-81699138D01*
X183150375Y-81633145D01*
X183150371Y-81633144D01*
X182981229Y-81599500D01*
X182158771Y-81599500D01*
X181989628Y-81633144D01*
X181989624Y-81633145D01*
X181830302Y-81699138D01*
X181830295Y-81699142D01*
X181686897Y-81794958D01*
X181564958Y-81916897D01*
X181564955Y-81916900D01*
X181564955Y-81916901D01*
X181492142Y-82025873D01*
X181469142Y-82060295D01*
X181469138Y-82060302D01*
X181403145Y-82219624D01*
X181403144Y-82219628D01*
X181369500Y-82388770D01*
X181369500Y-82561229D01*
X180043602Y-82561229D01*
X180070500Y-82426003D01*
X180070500Y-82223997D01*
X180069630Y-82219624D01*
X180031092Y-82025877D01*
X180031091Y-82025875D01*
X180031091Y-82025873D01*
X179999617Y-81949889D01*
X179989551Y-81873426D01*
X180019066Y-81802168D01*
X180068032Y-81760940D01*
X180070221Y-81759790D01*
X180070225Y-81759790D01*
X180220852Y-81680734D01*
X180348183Y-81567929D01*
X180444818Y-81427930D01*
X180505140Y-81268872D01*
X180525645Y-81100000D01*
X180505140Y-80931128D01*
X180486522Y-80882037D01*
X180444818Y-80772070D01*
X180414592Y-80728281D01*
X180348183Y-80632071D01*
X180348180Y-80632068D01*
X180348179Y-80632067D01*
X180220853Y-80519267D01*
X180220854Y-80519267D01*
X180070224Y-80440209D01*
X179905056Y-80399500D01*
X179734944Y-80399500D01*
X179569775Y-80440209D01*
X179419145Y-80519267D01*
X179291820Y-80632067D01*
X179291817Y-80632071D01*
X179195181Y-80772070D01*
X179134860Y-80931125D01*
X179114355Y-81100002D01*
X179118306Y-81132538D01*
X179107471Y-81208901D01*
X179059905Y-81269616D01*
X178988355Y-81298413D01*
X178970393Y-81299500D01*
X178393997Y-81299500D01*
X178195875Y-81338908D01*
X178009248Y-81416211D01*
X178009238Y-81416216D01*
X177841283Y-81528441D01*
X177841278Y-81528445D01*
X177698445Y-81671278D01*
X177698441Y-81671283D01*
X177586216Y-81839238D01*
X177586211Y-81839248D01*
X177508908Y-82025875D01*
X177469500Y-82223996D01*
X177469500Y-82426003D01*
X156950500Y-82426003D01*
X156950500Y-80300002D01*
X166094318Y-80300002D01*
X166114954Y-80456757D01*
X166175463Y-80602840D01*
X166175464Y-80602841D01*
X166271718Y-80728282D01*
X166397159Y-80824536D01*
X166543238Y-80885044D01*
X166543241Y-80885044D01*
X166543243Y-80885045D01*
X166543240Y-80885045D01*
X166699997Y-80905682D01*
X166700000Y-80905682D01*
X166700003Y-80905682D01*
X166856757Y-80885045D01*
X166856758Y-80885044D01*
X166856762Y-80885044D01*
X167002841Y-80824536D01*
X167128282Y-80728282D01*
X167224536Y-80602841D01*
X167285044Y-80456762D01*
X167285200Y-80455583D01*
X167305682Y-80300002D01*
X167305682Y-80299997D01*
X167285045Y-80143244D01*
X167285044Y-80143243D01*
X167285044Y-80143238D01*
X167261840Y-80087219D01*
X167250500Y-80030203D01*
X167250500Y-74976003D01*
X177469500Y-74976003D01*
X177505509Y-75157038D01*
X177508909Y-75174127D01*
X177524918Y-75212777D01*
X177586211Y-75360751D01*
X177586216Y-75360761D01*
X177661805Y-75473887D01*
X177698442Y-75528718D01*
X177841282Y-75671558D01*
X177908193Y-75716266D01*
X178009238Y-75783783D01*
X178009248Y-75783788D01*
X178063907Y-75806428D01*
X178195873Y-75861091D01*
X178393997Y-75900500D01*
X178970393Y-75900500D01*
X179044893Y-75920462D01*
X179099431Y-75975000D01*
X179119393Y-76049500D01*
X179118306Y-76067462D01*
X179114355Y-76099997D01*
X179134860Y-76268874D01*
X179195181Y-76427929D01*
X179195182Y-76427930D01*
X179291817Y-76567929D01*
X179413199Y-76675464D01*
X179419146Y-76680732D01*
X179419148Y-76680734D01*
X179569775Y-76759790D01*
X179734944Y-76800500D01*
X179905056Y-76800500D01*
X180070225Y-76759790D01*
X180220852Y-76680734D01*
X180348183Y-76567929D01*
X180444818Y-76427930D01*
X180505140Y-76268872D01*
X180525645Y-76100000D01*
X180505140Y-75931128D01*
X180493524Y-75900500D01*
X180444818Y-75772070D01*
X180348183Y-75632071D01*
X180348180Y-75632068D01*
X180348179Y-75632067D01*
X180246318Y-75541827D01*
X180220853Y-75519267D01*
X180220854Y-75519267D01*
X180068032Y-75439059D01*
X180011342Y-75386761D01*
X179988397Y-75313125D01*
X179999618Y-75250107D01*
X180031091Y-75174127D01*
X180070500Y-74976003D01*
X180070500Y-74811229D01*
X181369500Y-74811229D01*
X181403144Y-74980371D01*
X181403145Y-74980375D01*
X181469138Y-75139697D01*
X181469140Y-75139701D01*
X181469142Y-75139705D01*
X181564955Y-75283099D01*
X181686901Y-75405045D01*
X181830295Y-75500858D01*
X181830301Y-75500860D01*
X181830302Y-75500861D01*
X181874736Y-75519266D01*
X181989626Y-75566855D01*
X182158771Y-75600500D01*
X182981229Y-75600500D01*
X183150374Y-75566855D01*
X183309705Y-75500858D01*
X183453099Y-75405045D01*
X183575045Y-75283099D01*
X183670858Y-75139705D01*
X183736855Y-74980374D01*
X183770500Y-74811229D01*
X183770500Y-74638771D01*
X183736855Y-74469626D01*
X183670858Y-74310295D01*
X183575045Y-74166901D01*
X183453099Y-74044955D01*
X183309705Y-73949142D01*
X183309701Y-73949140D01*
X183309697Y-73949138D01*
X183150375Y-73883145D01*
X183150371Y-73883144D01*
X182981229Y-73849500D01*
X182158771Y-73849500D01*
X181989628Y-73883144D01*
X181989624Y-73883145D01*
X181830302Y-73949138D01*
X181830295Y-73949142D01*
X181762685Y-73994318D01*
X181686897Y-74044958D01*
X181564958Y-74166897D01*
X181564955Y-74166900D01*
X181564955Y-74166901D01*
X181512741Y-74245045D01*
X181469142Y-74310295D01*
X181469138Y-74310302D01*
X181403145Y-74469624D01*
X181403144Y-74469628D01*
X181369500Y-74638770D01*
X181369500Y-74811229D01*
X180070500Y-74811229D01*
X180070500Y-74773997D01*
X180031091Y-74575873D01*
X179953786Y-74389244D01*
X179953783Y-74389238D01*
X179871225Y-74265682D01*
X179841558Y-74221282D01*
X179698718Y-74078442D01*
X179665034Y-74055935D01*
X179530761Y-73966216D01*
X179530751Y-73966211D01*
X179382777Y-73904918D01*
X179344127Y-73888909D01*
X179344125Y-73888908D01*
X179344124Y-73888908D01*
X179146003Y-73849500D01*
X178393997Y-73849500D01*
X178195875Y-73888908D01*
X178009248Y-73966211D01*
X178009238Y-73966216D01*
X177841283Y-74078441D01*
X177841278Y-74078445D01*
X177698445Y-74221278D01*
X177698441Y-74221283D01*
X177586216Y-74389238D01*
X177586211Y-74389248D01*
X177508908Y-74575875D01*
X177469500Y-74773996D01*
X177469500Y-74976003D01*
X167250500Y-74976003D01*
X167250500Y-74869795D01*
X167261842Y-74812775D01*
X167285044Y-74756762D01*
X167305682Y-74600000D01*
X167302506Y-74575873D01*
X167285045Y-74443242D01*
X167285044Y-74443240D01*
X167285044Y-74443238D01*
X167224536Y-74297159D01*
X167128282Y-74171718D01*
X167122005Y-74166901D01*
X167002840Y-74075463D01*
X166922944Y-74042369D01*
X166856762Y-74014956D01*
X166856760Y-74014955D01*
X166856756Y-74014954D01*
X166856759Y-74014954D01*
X166700003Y-73994318D01*
X166699997Y-73994318D01*
X166543242Y-74014954D01*
X166397159Y-74075463D01*
X166271718Y-74171717D01*
X166271717Y-74171718D01*
X166175463Y-74297159D01*
X166114954Y-74443242D01*
X166094318Y-74599997D01*
X166094318Y-74600002D01*
X166114954Y-74756757D01*
X166114955Y-74756761D01*
X166114956Y-74756762D01*
X166137517Y-74811229D01*
X166138158Y-74812775D01*
X166149500Y-74869795D01*
X166149500Y-80030203D01*
X166138159Y-80087219D01*
X166114956Y-80143238D01*
X166114954Y-80143244D01*
X166094318Y-80299997D01*
X166094318Y-80300002D01*
X156950500Y-80300002D01*
X156950500Y-76069795D01*
X156961842Y-76012775D01*
X156985044Y-75956762D01*
X156992465Y-75900398D01*
X157005682Y-75800002D01*
X157005682Y-75799997D01*
X156985045Y-75643242D01*
X156985044Y-75643240D01*
X156985044Y-75643238D01*
X156924536Y-75497159D01*
X156828282Y-75371718D01*
X156813990Y-75360751D01*
X156702840Y-75275463D01*
X156622944Y-75242369D01*
X156556762Y-75214956D01*
X156556760Y-75214955D01*
X156556756Y-75214954D01*
X156556759Y-75214954D01*
X156400003Y-75194318D01*
X156399997Y-75194318D01*
X156243242Y-75214954D01*
X156097159Y-75275463D01*
X155971718Y-75371717D01*
X155971717Y-75371718D01*
X155875463Y-75497159D01*
X155814954Y-75643242D01*
X155794318Y-75799997D01*
X155794318Y-75800002D01*
X155814954Y-75956757D01*
X155814955Y-75956761D01*
X155814956Y-75956762D01*
X155822510Y-75975000D01*
X155838158Y-76012775D01*
X155849500Y-76069795D01*
X155849500Y-83937526D01*
X155849500Y-84082474D01*
X155887016Y-84222485D01*
X155887017Y-84222486D01*
X155959490Y-84348015D01*
X159305859Y-87694384D01*
X159344423Y-87761179D01*
X159349500Y-87799743D01*
X159349500Y-89180203D01*
X159338159Y-89237219D01*
X159314956Y-89293238D01*
X159314954Y-89293244D01*
X159294318Y-89449997D01*
X159294318Y-89450002D01*
X159314954Y-89606756D01*
X159314954Y-89606757D01*
X159314955Y-89606761D01*
X159314956Y-89606762D01*
X159331158Y-89645877D01*
X159342500Y-89702896D01*
X159342500Y-95068475D01*
X159380016Y-95208485D01*
X159380017Y-95208486D01*
X159452490Y-95334015D01*
X160294859Y-96176384D01*
X160333423Y-96243179D01*
X160338500Y-96281743D01*
X160338500Y-96744500D01*
X160318538Y-96819000D01*
X160264000Y-96873538D01*
X160189501Y-96893500D01*
X159994133Y-96893500D01*
X159969010Y-96896414D01*
X159969007Y-96896415D01*
X159866235Y-96941793D01*
X159786793Y-97021235D01*
X159741416Y-97124005D01*
X159741415Y-97124008D01*
X159741415Y-97124009D01*
X159738500Y-97149135D01*
X159738500Y-97149136D01*
X159738500Y-97149140D01*
X159738500Y-97655364D01*
X159718538Y-97729864D01*
X159664000Y-97784402D01*
X159589500Y-97804364D01*
X159515000Y-97784402D01*
X159460462Y-97729864D01*
X159446188Y-97696140D01*
X159426406Y-97626614D01*
X159426405Y-97626612D01*
X159426405Y-97626611D01*
X159331366Y-97435745D01*
X159331364Y-97435743D01*
X159331363Y-97435740D01*
X159202872Y-97265593D01*
X159045302Y-97121948D01*
X159045301Y-97121947D01*
X158870061Y-97013442D01*
X158817229Y-96957250D01*
X158799500Y-96886760D01*
X158799500Y-91106691D01*
X158768799Y-90992114D01*
X158709490Y-90889386D01*
X155394141Y-87574037D01*
X155355577Y-87507242D01*
X155350500Y-87468678D01*
X155350500Y-85625691D01*
X155350499Y-85625689D01*
X155319799Y-85511115D01*
X155319799Y-85511113D01*
X155319798Y-85511112D01*
X155260490Y-85408386D01*
X154200119Y-84348015D01*
X150991614Y-81139511D01*
X150991611Y-81139509D01*
X150991607Y-81139506D01*
X150888888Y-81080201D01*
X150888887Y-81080200D01*
X150862421Y-81073109D01*
X150857229Y-81071718D01*
X150857226Y-81071716D01*
X150857226Y-81071717D01*
X150774309Y-81049500D01*
X144849905Y-81049500D01*
X144775405Y-81029538D01*
X144759204Y-81018712D01*
X144723554Y-80991357D01*
X144702840Y-80975463D01*
X144622944Y-80942369D01*
X144556762Y-80914956D01*
X144556760Y-80914955D01*
X144556756Y-80914954D01*
X144556759Y-80914954D01*
X144400003Y-80894318D01*
X144399997Y-80894318D01*
X144243242Y-80914954D01*
X144097160Y-80975463D01*
X144090204Y-80980801D01*
X144018947Y-81010315D01*
X143942479Y-81000247D01*
X143881289Y-80953294D01*
X143851775Y-80882037D01*
X143850500Y-80862590D01*
X143850500Y-79640691D01*
X143850499Y-79640689D01*
X143847174Y-79628281D01*
X143819799Y-79526114D01*
X143819799Y-79526113D01*
X143760490Y-79423386D01*
X143176614Y-78839511D01*
X143176611Y-78839509D01*
X143176607Y-78839506D01*
X143073888Y-78780201D01*
X143073887Y-78780200D01*
X143047421Y-78773109D01*
X143042229Y-78771718D01*
X143042226Y-78771716D01*
X143042226Y-78771717D01*
X142959309Y-78749500D01*
X142547320Y-78749500D01*
X142472820Y-78729538D01*
X142418282Y-78675000D01*
X142398320Y-78600500D01*
X142418282Y-78526000D01*
X142441958Y-78495144D01*
X143100421Y-77836680D01*
X143167214Y-77798118D01*
X143186316Y-77794318D01*
X143256762Y-77785044D01*
X143402841Y-77724536D01*
X143528282Y-77628282D01*
X143624536Y-77502841D01*
X143685044Y-77356762D01*
X143705682Y-77200000D01*
X143705682Y-77199997D01*
X143685045Y-77043242D01*
X143685044Y-77043240D01*
X143685044Y-77043238D01*
X143624536Y-76897159D01*
X143528282Y-76771718D01*
X143409707Y-76680732D01*
X143402840Y-76675463D01*
X143322944Y-76642369D01*
X143256762Y-76614956D01*
X143256760Y-76614955D01*
X143256756Y-76614954D01*
X143256759Y-76614954D01*
X143100003Y-76594318D01*
X143099997Y-76594318D01*
X142943242Y-76614954D01*
X142797159Y-76675463D01*
X142671718Y-76771717D01*
X142671714Y-76771721D01*
X142668208Y-76776291D01*
X142607018Y-76823243D01*
X142530549Y-76833309D01*
X142459293Y-76803792D01*
X142431792Y-76776291D01*
X142428285Y-76771721D01*
X142428281Y-76771717D01*
X142302840Y-76675463D01*
X142222944Y-76642369D01*
X142156762Y-76614956D01*
X142156760Y-76614955D01*
X142156756Y-76614954D01*
X142156759Y-76614954D01*
X142000003Y-76594318D01*
X141999997Y-76594318D01*
X141843242Y-76614954D01*
X141697159Y-76675463D01*
X141571718Y-76771717D01*
X141571717Y-76771718D01*
X141475463Y-76897159D01*
X141411219Y-77052261D01*
X141408988Y-77051337D01*
X141377514Y-77105856D01*
X141310720Y-77144422D01*
X141272152Y-77149500D01*
X140448321Y-77149500D01*
X140373821Y-77129538D01*
X140342962Y-77105859D01*
X138394141Y-75157038D01*
X138355577Y-75090243D01*
X138350500Y-75051679D01*
X138350500Y-73540694D01*
X138350500Y-73540691D01*
X138326286Y-73450326D01*
X138326286Y-73450325D01*
X138326286Y-73450324D01*
X138326283Y-73450316D01*
X138319800Y-73426115D01*
X138260491Y-73323389D01*
X138260490Y-73323388D01*
X138260489Y-73323386D01*
X136037105Y-71100002D01*
X137394318Y-71100002D01*
X137414954Y-71256757D01*
X137475463Y-71402840D01*
X137490810Y-71422840D01*
X137571718Y-71528282D01*
X137697159Y-71624536D01*
X137843238Y-71685044D01*
X137843241Y-71685044D01*
X137843243Y-71685045D01*
X137843240Y-71685045D01*
X137999997Y-71705682D01*
X138000000Y-71705682D01*
X138000003Y-71705682D01*
X138156757Y-71685045D01*
X138156758Y-71685044D01*
X138156762Y-71685044D01*
X138302841Y-71624536D01*
X138359201Y-71581289D01*
X138430457Y-71551775D01*
X138449905Y-71550500D01*
X141640691Y-71550500D01*
X143164500Y-71550500D01*
X143239000Y-71570462D01*
X143293538Y-71625000D01*
X143313500Y-71699500D01*
X143313500Y-73210094D01*
X143293538Y-73284594D01*
X143282710Y-73300799D01*
X143239463Y-73357159D01*
X143178954Y-73503242D01*
X143158318Y-73659997D01*
X143158318Y-73660002D01*
X143178954Y-73816757D01*
X143239463Y-73962840D01*
X143328168Y-74078442D01*
X143335718Y-74088282D01*
X143461159Y-74184536D01*
X143607238Y-74245044D01*
X143607241Y-74245044D01*
X143607243Y-74245045D01*
X143607240Y-74245045D01*
X143763997Y-74265682D01*
X143764000Y-74265682D01*
X143764003Y-74265682D01*
X143920757Y-74245045D01*
X143920758Y-74245044D01*
X143920762Y-74245044D01*
X144066841Y-74184536D01*
X144192282Y-74088282D01*
X144288536Y-73962841D01*
X144349044Y-73816762D01*
X144349967Y-73809757D01*
X144352963Y-73787002D01*
X144682318Y-73787002D01*
X144702954Y-73943757D01*
X144702955Y-73943761D01*
X144702956Y-73943762D01*
X144709501Y-73959563D01*
X144763463Y-74089840D01*
X144763464Y-74089841D01*
X144859718Y-74215282D01*
X144985159Y-74311536D01*
X145131238Y-74372044D01*
X145131241Y-74372044D01*
X145131243Y-74372045D01*
X145131240Y-74372045D01*
X145287997Y-74392682D01*
X145288000Y-74392682D01*
X145288003Y-74392682D01*
X145444757Y-74372045D01*
X145444758Y-74372044D01*
X145444762Y-74372044D01*
X145590841Y-74311536D01*
X145716282Y-74215282D01*
X145812536Y-74089841D01*
X145873044Y-73943762D01*
X145880266Y-73888909D01*
X145893037Y-73791899D01*
X145922552Y-73720642D01*
X145935395Y-73705996D01*
X146797252Y-72844141D01*
X146864047Y-72805577D01*
X146902611Y-72800500D01*
X149052725Y-72800500D01*
X149052727Y-72800500D01*
X149154588Y-72773207D01*
X149245913Y-72720480D01*
X152097906Y-69868485D01*
X152164699Y-69829923D01*
X152241827Y-69829923D01*
X152308622Y-69868487D01*
X152347186Y-69935282D01*
X152347186Y-70012410D01*
X152340922Y-70030864D01*
X152322954Y-70074242D01*
X152302318Y-70230997D01*
X152302318Y-70231002D01*
X152322954Y-70387759D01*
X152383462Y-70533840D01*
X152383463Y-70533841D01*
X152426708Y-70590197D01*
X152456225Y-70661453D01*
X152457500Y-70680904D01*
X152457500Y-70871678D01*
X152437538Y-70946178D01*
X152413859Y-70977037D01*
X146303578Y-77087317D01*
X146236783Y-77125881D01*
X146217669Y-77129683D01*
X146147237Y-77138956D01*
X146001159Y-77199463D01*
X145875718Y-77295717D01*
X145875717Y-77295718D01*
X145779463Y-77421159D01*
X145718954Y-77567242D01*
X145698318Y-77723997D01*
X145698318Y-77724002D01*
X145718954Y-77880757D01*
X145779463Y-78026840D01*
X145779464Y-78026841D01*
X145875718Y-78152282D01*
X146001159Y-78248536D01*
X146147238Y-78309044D01*
X146147241Y-78309044D01*
X146147243Y-78309045D01*
X146147240Y-78309045D01*
X146303997Y-78329682D01*
X146304000Y-78329682D01*
X146304003Y-78329682D01*
X146460757Y-78309045D01*
X146460758Y-78309044D01*
X146460762Y-78309044D01*
X146606841Y-78248536D01*
X146732282Y-78152282D01*
X146828536Y-78026841D01*
X146889044Y-77880762D01*
X146898316Y-77810328D01*
X146927830Y-77739074D01*
X146940674Y-77724427D01*
X153268489Y-71396614D01*
X153327798Y-71293887D01*
X153327799Y-71293886D01*
X153358500Y-71179309D01*
X153358500Y-70680904D01*
X153378462Y-70606404D01*
X153389292Y-70590197D01*
X153432536Y-70533841D01*
X153432537Y-70533840D01*
X153493045Y-70387759D01*
X153513682Y-70231002D01*
X153513682Y-70230997D01*
X153493045Y-70074242D01*
X153493044Y-70074240D01*
X153493044Y-70074238D01*
X153432536Y-69928159D01*
X153336282Y-69802718D01*
X153336280Y-69802716D01*
X153290659Y-69767710D01*
X153243706Y-69706520D01*
X153233639Y-69630052D01*
X153263154Y-69558795D01*
X153324344Y-69511842D01*
X153381364Y-69500500D01*
X153852725Y-69500500D01*
X153852727Y-69500500D01*
X153954588Y-69473207D01*
X154045913Y-69420480D01*
X154218988Y-69247403D01*
X154285782Y-69208839D01*
X154304899Y-69205037D01*
X154456757Y-69185045D01*
X154456758Y-69185044D01*
X154456762Y-69185044D01*
X154602841Y-69124536D01*
X154728282Y-69028282D01*
X154824536Y-68902841D01*
X154885044Y-68756762D01*
X154888990Y-68726794D01*
X154905682Y-68600002D01*
X154905682Y-68599997D01*
X154885045Y-68443242D01*
X154885044Y-68443240D01*
X154885044Y-68443238D01*
X154824536Y-68297159D01*
X154728282Y-68171718D01*
X154657896Y-68117709D01*
X154610944Y-68056520D01*
X154600877Y-67980052D01*
X154630392Y-67908795D01*
X154691582Y-67861842D01*
X154748602Y-67850500D01*
X155148257Y-67850500D01*
X155222757Y-67870462D01*
X155253616Y-67894141D01*
X155375962Y-68016487D01*
X155408260Y-68064824D01*
X155431463Y-68120840D01*
X155431466Y-68120845D01*
X155513325Y-68227525D01*
X155527718Y-68246282D01*
X155653159Y-68342536D01*
X155799238Y-68403044D01*
X155799241Y-68403044D01*
X155799243Y-68403045D01*
X155799240Y-68403045D01*
X155955997Y-68423682D01*
X155956000Y-68423682D01*
X155956003Y-68423682D01*
X156112757Y-68403045D01*
X156112758Y-68403044D01*
X156112762Y-68403044D01*
X156258841Y-68342536D01*
X156384282Y-68246282D01*
X156480536Y-68120841D01*
X156541044Y-67974762D01*
X156547596Y-67925000D01*
X156561682Y-67818002D01*
X156561682Y-67817997D01*
X156541045Y-67661242D01*
X156541044Y-67661240D01*
X156541044Y-67661238D01*
X156480536Y-67515159D01*
X156384282Y-67389718D01*
X156384280Y-67389716D01*
X156258845Y-67293466D01*
X156258840Y-67293463D01*
X156202824Y-67270260D01*
X156154487Y-67237962D01*
X155776015Y-66859490D01*
X155650484Y-66787015D01*
X155644693Y-66785463D01*
X155644693Y-66785464D01*
X155510475Y-66749500D01*
X149851654Y-66749500D01*
X149794634Y-66738158D01*
X149762761Y-66724955D01*
X149762756Y-66724954D01*
X149606003Y-66704318D01*
X149605997Y-66704318D01*
X149449240Y-66724954D01*
X149393223Y-66748158D01*
X149336204Y-66759500D01*
X146446796Y-66759500D01*
X146389777Y-66748158D01*
X146333759Y-66724954D01*
X146177003Y-66704318D01*
X146176997Y-66704318D01*
X146020242Y-66724954D01*
X145874159Y-66785463D01*
X145748718Y-66881717D01*
X145748717Y-66881718D01*
X145652463Y-67007159D01*
X145591954Y-67153242D01*
X145571318Y-67309997D01*
X145571318Y-67310002D01*
X145591954Y-67466757D01*
X145652463Y-67612840D01*
X145654771Y-67615847D01*
X145748718Y-67738282D01*
X145874159Y-67834536D01*
X146020238Y-67895044D01*
X146020241Y-67895044D01*
X146020243Y-67895045D01*
X146020240Y-67895045D01*
X146176997Y-67915682D01*
X146177000Y-67915682D01*
X146177003Y-67915682D01*
X146333759Y-67895045D01*
X146333761Y-67895044D01*
X146333762Y-67895044D01*
X146357178Y-67885344D01*
X146389777Y-67871842D01*
X146446796Y-67860500D01*
X149336204Y-67860500D01*
X149393223Y-67871842D01*
X149449240Y-67895045D01*
X149605997Y-67915682D01*
X149606000Y-67915682D01*
X149606003Y-67915682D01*
X149762759Y-67895045D01*
X149762761Y-67895044D01*
X149762762Y-67895044D01*
X149818777Y-67871842D01*
X149842920Y-67861842D01*
X149899939Y-67850500D01*
X153851398Y-67850500D01*
X153925898Y-67870462D01*
X153980436Y-67925000D01*
X154000398Y-67999500D01*
X153980436Y-68074000D01*
X153942103Y-68117709D01*
X153938017Y-68120845D01*
X153871718Y-68171717D01*
X153871717Y-68171718D01*
X153775463Y-68297159D01*
X153714954Y-68443242D01*
X153698274Y-68569948D01*
X153668759Y-68641205D01*
X153607569Y-68688158D01*
X153550549Y-68699500D01*
X152361872Y-68699500D01*
X152361856Y-68699499D01*
X152352727Y-68699499D01*
X152247273Y-68699499D01*
X152247272Y-68699499D01*
X152145411Y-68726793D01*
X152145409Y-68726794D01*
X152121655Y-68740509D01*
X152121654Y-68740510D01*
X152054090Y-68779517D01*
X148877748Y-71955859D01*
X148810953Y-71994423D01*
X148772389Y-71999500D01*
X146622270Y-71999500D01*
X146520408Y-72026794D01*
X146429093Y-72079515D01*
X146429089Y-72079518D01*
X145369009Y-73139596D01*
X145302214Y-73178160D01*
X145283099Y-73181962D01*
X145131241Y-73201954D01*
X144985159Y-73262463D01*
X144859718Y-73358717D01*
X144859717Y-73358718D01*
X144763463Y-73484159D01*
X144702954Y-73630242D01*
X144682318Y-73786997D01*
X144682318Y-73787002D01*
X144352963Y-73787002D01*
X144369682Y-73660002D01*
X144369682Y-73659997D01*
X144349045Y-73503242D01*
X144349044Y-73503240D01*
X144349044Y-73503238D01*
X144288536Y-73357159D01*
X144245290Y-73300799D01*
X144215775Y-73229541D01*
X144214500Y-73210094D01*
X144214500Y-71699500D01*
X144234462Y-71625000D01*
X144289000Y-71570462D01*
X144363500Y-71550500D01*
X144685029Y-71550500D01*
X144759529Y-71570462D01*
X144775734Y-71581290D01*
X144858157Y-71644535D01*
X144858158Y-71644535D01*
X144858159Y-71644536D01*
X145004238Y-71705044D01*
X145004241Y-71705044D01*
X145004243Y-71705045D01*
X145004240Y-71705045D01*
X145160997Y-71725682D01*
X145161000Y-71725682D01*
X145161003Y-71725682D01*
X145317757Y-71705045D01*
X145317758Y-71705044D01*
X145317762Y-71705044D01*
X145463841Y-71644536D01*
X145589282Y-71548282D01*
X145685536Y-71422841D01*
X145746044Y-71276762D01*
X145766682Y-71120000D01*
X145766682Y-71119997D01*
X145746045Y-70963242D01*
X145746044Y-70963240D01*
X145746044Y-70963238D01*
X145685536Y-70817159D01*
X145589282Y-70691718D01*
X145563218Y-70671718D01*
X145463840Y-70595463D01*
X145383944Y-70562369D01*
X145317762Y-70534956D01*
X145317760Y-70534955D01*
X145317756Y-70534954D01*
X145317759Y-70534954D01*
X145161003Y-70514318D01*
X145160997Y-70514318D01*
X145004242Y-70534954D01*
X144858157Y-70595464D01*
X144827863Y-70618710D01*
X144756605Y-70648225D01*
X144737158Y-70649500D01*
X138449905Y-70649500D01*
X138375405Y-70629538D01*
X138359204Y-70618712D01*
X138302841Y-70575464D01*
X138302840Y-70575463D01*
X138176423Y-70523100D01*
X138156762Y-70514956D01*
X138156760Y-70514955D01*
X138156756Y-70514954D01*
X138156759Y-70514954D01*
X138000003Y-70494318D01*
X137999997Y-70494318D01*
X137843242Y-70514954D01*
X137697159Y-70575463D01*
X137571718Y-70671717D01*
X137571717Y-70671718D01*
X137475463Y-70797159D01*
X137414954Y-70943242D01*
X137394318Y-71099997D01*
X137394318Y-71100002D01*
X136037105Y-71100002D01*
X134776614Y-69839511D01*
X134776611Y-69839509D01*
X134776607Y-69839506D01*
X134673888Y-69780201D01*
X134673887Y-69780200D01*
X134647421Y-69773109D01*
X134642229Y-69771718D01*
X134642226Y-69771716D01*
X134642226Y-69771717D01*
X134559309Y-69749500D01*
X133749905Y-69749500D01*
X133675405Y-69729538D01*
X133659204Y-69718712D01*
X133602841Y-69675464D01*
X133602840Y-69675463D01*
X133522944Y-69642369D01*
X133456762Y-69614956D01*
X133456760Y-69614955D01*
X133456756Y-69614954D01*
X133456759Y-69614954D01*
X133300003Y-69594318D01*
X133299997Y-69594318D01*
X133143242Y-69614954D01*
X132997159Y-69675463D01*
X132871718Y-69771717D01*
X132871717Y-69771718D01*
X132775463Y-69897159D01*
X132714954Y-70043242D01*
X132694318Y-70199997D01*
X132694318Y-70200002D01*
X132714954Y-70356757D01*
X132775463Y-70502840D01*
X132831189Y-70575463D01*
X132871718Y-70628282D01*
X132997159Y-70724536D01*
X133143238Y-70785044D01*
X133143241Y-70785044D01*
X133143243Y-70785045D01*
X133143240Y-70785045D01*
X133299997Y-70805682D01*
X133300000Y-70805682D01*
X133300003Y-70805682D01*
X133456757Y-70785045D01*
X133456758Y-70785044D01*
X133456762Y-70785044D01*
X133602841Y-70724536D01*
X133659201Y-70681289D01*
X133730457Y-70651775D01*
X133749905Y-70650500D01*
X134251679Y-70650500D01*
X134326179Y-70670462D01*
X134357038Y-70694141D01*
X137405859Y-73742962D01*
X137444423Y-73809757D01*
X137449500Y-73848321D01*
X137449500Y-75352678D01*
X137429538Y-75427178D01*
X137375000Y-75481716D01*
X137300500Y-75501678D01*
X137226000Y-75481716D01*
X137195141Y-75458037D01*
X133936682Y-72199579D01*
X133898118Y-72132784D01*
X133894317Y-72113678D01*
X133885044Y-72043238D01*
X133824536Y-71897159D01*
X133728282Y-71771718D01*
X133634166Y-71699500D01*
X133602840Y-71675463D01*
X133481010Y-71625000D01*
X133456762Y-71614956D01*
X133456760Y-71614955D01*
X133456756Y-71614954D01*
X133456759Y-71614954D01*
X133300003Y-71594318D01*
X133299997Y-71594318D01*
X133143242Y-71614954D01*
X132997159Y-71675463D01*
X132871718Y-71771717D01*
X132871717Y-71771718D01*
X132775463Y-71897159D01*
X132714954Y-72043242D01*
X132694318Y-72199997D01*
X132694318Y-72200002D01*
X129350500Y-72200002D01*
X129350500Y-68589743D01*
X129370462Y-68515243D01*
X129394141Y-68484384D01*
X130584384Y-67294141D01*
X130651179Y-67255577D01*
X130689743Y-67250500D01*
X135172475Y-67250500D01*
X135312485Y-67212984D01*
X135313639Y-67212318D01*
X135438015Y-67140510D01*
X136384384Y-66194141D01*
X136451179Y-66155577D01*
X136489743Y-66150500D01*
X157410257Y-66150500D01*
X157484757Y-66170462D01*
X157515616Y-66194141D01*
X160161985Y-68840510D01*
X160269947Y-68902841D01*
X160287515Y-68912984D01*
X160427525Y-68950500D01*
X160427526Y-68950500D01*
X160572474Y-68950500D01*
X163517591Y-68950500D01*
X163592091Y-68970462D01*
X163628319Y-68999799D01*
X163653964Y-69028281D01*
X163694129Y-69072888D01*
X163847270Y-69184151D01*
X163847271Y-69184151D01*
X163847272Y-69184152D01*
X163849278Y-69185045D01*
X164020197Y-69261144D01*
X164161315Y-69291139D01*
X164205352Y-69300500D01*
X164205354Y-69300500D01*
X164394648Y-69300500D01*
X164434004Y-69292134D01*
X164579803Y-69261144D01*
X164752730Y-69184151D01*
X164905871Y-69072888D01*
X164991543Y-68977740D01*
X165032530Y-68932220D01*
X165032531Y-68932218D01*
X165032533Y-68932216D01*
X165127179Y-68768284D01*
X165185674Y-68588256D01*
X165205460Y-68400000D01*
X165185674Y-68211744D01*
X165156709Y-68122600D01*
X180694540Y-68122600D01*
X180714325Y-68310854D01*
X180757340Y-68443238D01*
X180772821Y-68490884D01*
X180772822Y-68490887D01*
X180772824Y-68490890D01*
X180837879Y-68603570D01*
X180857841Y-68678070D01*
X180837878Y-68752570D01*
X180814201Y-68783427D01*
X180747793Y-68849835D01*
X180702416Y-68952605D01*
X180702415Y-68952608D01*
X180702415Y-68952609D01*
X180699500Y-68977735D01*
X180699500Y-68977736D01*
X180699500Y-68977740D01*
X180699500Y-70267466D01*
X180702414Y-70292589D01*
X180702415Y-70292592D01*
X180747793Y-70395364D01*
X180747794Y-70395365D01*
X180827235Y-70474806D01*
X180930009Y-70520185D01*
X180955135Y-70523100D01*
X182244864Y-70523099D01*
X182244866Y-70523099D01*
X182257427Y-70521642D01*
X182269991Y-70520185D01*
X182372765Y-70474806D01*
X182452206Y-70395365D01*
X182497585Y-70292591D01*
X182500500Y-70267465D01*
X182500499Y-68977736D01*
X182499655Y-68970462D01*
X182497585Y-68952610D01*
X182497584Y-68952608D01*
X182452206Y-68849835D01*
X182385798Y-68783427D01*
X182347234Y-68716632D01*
X182347234Y-68639504D01*
X182362116Y-68603576D01*
X182427179Y-68490884D01*
X182485674Y-68310856D01*
X182505460Y-68122600D01*
X182485674Y-67934344D01*
X182427179Y-67754316D01*
X182332533Y-67590384D01*
X182332532Y-67590383D01*
X182332530Y-67590379D01*
X182205872Y-67449713D01*
X182052727Y-67338447D01*
X181879805Y-67261457D01*
X181879803Y-67261456D01*
X181773360Y-67238831D01*
X181694648Y-67222100D01*
X181694646Y-67222100D01*
X181505354Y-67222100D01*
X181505352Y-67222100D01*
X181405392Y-67243347D01*
X181320197Y-67261456D01*
X181320195Y-67261456D01*
X181320194Y-67261457D01*
X181147272Y-67338447D01*
X180994127Y-67449713D01*
X180867469Y-67590379D01*
X180772822Y-67754314D01*
X180772819Y-67754321D01*
X180714325Y-67934345D01*
X180694540Y-68122600D01*
X165156709Y-68122600D01*
X165127179Y-68031716D01*
X165032533Y-67867784D01*
X165032532Y-67867783D01*
X165032530Y-67867779D01*
X164905872Y-67727113D01*
X164752727Y-67615847D01*
X164579805Y-67538857D01*
X164579803Y-67538856D01*
X164473360Y-67516231D01*
X164394648Y-67499500D01*
X164394646Y-67499500D01*
X164205354Y-67499500D01*
X164205352Y-67499500D01*
X164105392Y-67520747D01*
X164020197Y-67538856D01*
X164020195Y-67538856D01*
X164020194Y-67538857D01*
X163847272Y-67615847D01*
X163694127Y-67727113D01*
X163628319Y-67800201D01*
X163563634Y-67842208D01*
X163517591Y-67849500D01*
X160789743Y-67849500D01*
X160715243Y-67829538D01*
X160684384Y-67805859D01*
X158038015Y-65159490D01*
X157912485Y-65087016D01*
X157772475Y-65049500D01*
X136127525Y-65049500D01*
X135987515Y-65087016D01*
X135987513Y-65087016D01*
X135987513Y-65087017D01*
X135861984Y-65159490D01*
X134915616Y-66105859D01*
X134848821Y-66144423D01*
X134810257Y-66149500D01*
X130327525Y-66149500D01*
X130187515Y-66187016D01*
X130187513Y-66187016D01*
X130187513Y-66187017D01*
X130061984Y-66259490D01*
X128359489Y-67961985D01*
X128319232Y-68031714D01*
X128312403Y-68043543D01*
X128304911Y-68056520D01*
X128287016Y-68087513D01*
X128249500Y-68227524D01*
X128249500Y-72330203D01*
X128238159Y-72387219D01*
X128214956Y-72443238D01*
X128214954Y-72443244D01*
X128194318Y-72599997D01*
X128194318Y-72600002D01*
X125850500Y-72600002D01*
X125850500Y-67199500D01*
X125870462Y-67125000D01*
X125925000Y-67070462D01*
X125999500Y-67050500D01*
X127372475Y-67050500D01*
X127512485Y-67012984D01*
X127522574Y-67007159D01*
X127638015Y-66940510D01*
X130284384Y-64294141D01*
X130351179Y-64255577D01*
X130389743Y-64250500D01*
X156172475Y-64250500D01*
X156312485Y-64212984D01*
X156362877Y-64183889D01*
X156380340Y-64175276D01*
X156502841Y-64124536D01*
X156628282Y-64028282D01*
X156724536Y-63902841D01*
X156785044Y-63756762D01*
X156805682Y-63600000D01*
X156785044Y-63443238D01*
X156724536Y-63297159D01*
X156628282Y-63171718D01*
X156597666Y-63148225D01*
X156502840Y-63075463D01*
X156422944Y-63042369D01*
X156356762Y-63014956D01*
X156356760Y-63014955D01*
X156356756Y-63014954D01*
X156356759Y-63014954D01*
X156200003Y-62994318D01*
X156199997Y-62994318D01*
X156043242Y-63014954D01*
X155897159Y-63075463D01*
X155856913Y-63106345D01*
X155840798Y-63118710D01*
X155769543Y-63148225D01*
X155750095Y-63149500D01*
X130027524Y-63149500D01*
X129891325Y-63185994D01*
X129891326Y-63185995D01*
X129887516Y-63187015D01*
X129887513Y-63187016D01*
X129761985Y-63259489D01*
X127115616Y-65905859D01*
X127048821Y-65944423D01*
X127010257Y-65949500D01*
X115169796Y-65949500D01*
X115112777Y-65938158D01*
X115056759Y-65914954D01*
X114900003Y-65894318D01*
X114899997Y-65894318D01*
X114743242Y-65914954D01*
X114597159Y-65975463D01*
X114471718Y-66071717D01*
X114471717Y-66071718D01*
X114375463Y-66197159D01*
X114314954Y-66343242D01*
X114294318Y-66499997D01*
X114294318Y-66500002D01*
X97300000Y-66500002D01*
X97300000Y-60098417D01*
X98749500Y-60098417D01*
X98780291Y-60292826D01*
X98841116Y-60480025D01*
X98841119Y-60480030D01*
X98841121Y-60480036D01*
X98899630Y-60594866D01*
X98930476Y-60655405D01*
X99046172Y-60814646D01*
X99185354Y-60953828D01*
X99344595Y-61069524D01*
X99519975Y-61158884D01*
X99707174Y-61219709D01*
X99901583Y-61250500D01*
X99901588Y-61250500D01*
X100098412Y-61250500D01*
X100098417Y-61250500D01*
X100292826Y-61219709D01*
X100480025Y-61158884D01*
X100655405Y-61069524D01*
X100814646Y-60953828D01*
X100953828Y-60814646D01*
X101069524Y-60655405D01*
X101158884Y-60480025D01*
X101219709Y-60292826D01*
X101250500Y-60098417D01*
X101250500Y-59901583D01*
X101219709Y-59707174D01*
X101217379Y-59700004D01*
X127914785Y-59700004D01*
X127933602Y-59903078D01*
X127933602Y-59903080D01*
X127933603Y-59903083D01*
X127945283Y-59944134D01*
X127989416Y-60099245D01*
X127989417Y-60099247D01*
X127989418Y-60099250D01*
X128080327Y-60281821D01*
X128080328Y-60281823D01*
X128100289Y-60308255D01*
X128203236Y-60444579D01*
X128353958Y-60581980D01*
X128353963Y-60581984D01*
X128527356Y-60689344D01*
X128527367Y-60689350D01*
X128613620Y-60722764D01*
X128717544Y-60763024D01*
X128918024Y-60800500D01*
X128918027Y-60800500D01*
X129121973Y-60800500D01*
X129121976Y-60800500D01*
X129322456Y-60763024D01*
X129512637Y-60689348D01*
X129686041Y-60581981D01*
X129836764Y-60444579D01*
X129959673Y-60281821D01*
X130050582Y-60099250D01*
X130106397Y-59903083D01*
X130116851Y-59790259D01*
X130125215Y-59700004D01*
X132994785Y-59700004D01*
X133013602Y-59903078D01*
X133013602Y-59903080D01*
X133013603Y-59903083D01*
X133025283Y-59944134D01*
X133069416Y-60099245D01*
X133069417Y-60099247D01*
X133069418Y-60099250D01*
X133160327Y-60281821D01*
X133160328Y-60281823D01*
X133180289Y-60308255D01*
X133283236Y-60444579D01*
X133433958Y-60581980D01*
X133433963Y-60581984D01*
X133607356Y-60689344D01*
X133607367Y-60689350D01*
X133693620Y-60722764D01*
X133797544Y-60763024D01*
X133998024Y-60800500D01*
X133998027Y-60800500D01*
X134201973Y-60800500D01*
X134201976Y-60800500D01*
X134402456Y-60763024D01*
X134592637Y-60689348D01*
X134766041Y-60581981D01*
X134916764Y-60444579D01*
X135039673Y-60281821D01*
X135130582Y-60099250D01*
X135186397Y-59903083D01*
X135196851Y-59790259D01*
X135205215Y-59700004D01*
X138244571Y-59700004D01*
X138264243Y-59912305D01*
X138322593Y-60117385D01*
X138322594Y-60117387D01*
X138417636Y-60308259D01*
X138520582Y-60444579D01*
X138546128Y-60478407D01*
X138701441Y-60619994D01*
X138703697Y-60622051D01*
X138703698Y-60622052D01*
X138884977Y-60734296D01*
X138884983Y-60734299D01*
X138959124Y-60763021D01*
X139083802Y-60811321D01*
X139293390Y-60850500D01*
X139293393Y-60850500D01*
X139506607Y-60850500D01*
X139506610Y-60850500D01*
X139716198Y-60811321D01*
X139915019Y-60734298D01*
X140096302Y-60622052D01*
X140253872Y-60478407D01*
X140382366Y-60308255D01*
X140477405Y-60117389D01*
X140526688Y-59944177D01*
X140566276Y-59877986D01*
X140633657Y-59840455D01*
X140710776Y-59841643D01*
X140776969Y-59881231D01*
X140813312Y-59944179D01*
X140862593Y-60117385D01*
X140862594Y-60117387D01*
X140957636Y-60308259D01*
X141060582Y-60444579D01*
X141086128Y-60478407D01*
X141241441Y-60619994D01*
X141243697Y-60622051D01*
X141243698Y-60622052D01*
X141424977Y-60734296D01*
X141424983Y-60734299D01*
X141499124Y-60763021D01*
X141623802Y-60811321D01*
X141833390Y-60850500D01*
X141833393Y-60850500D01*
X142046607Y-60850500D01*
X142046610Y-60850500D01*
X142256198Y-60811321D01*
X142455019Y-60734298D01*
X142636302Y-60622052D01*
X142793872Y-60478407D01*
X142922366Y-60308255D01*
X143017405Y-60117389D01*
X143075756Y-59912310D01*
X143086685Y-59794360D01*
X143095429Y-59700004D01*
X145864571Y-59700004D01*
X145884243Y-59912305D01*
X145942593Y-60117385D01*
X145942594Y-60117387D01*
X146037636Y-60308259D01*
X146140582Y-60444579D01*
X146166128Y-60478407D01*
X146321441Y-60619994D01*
X146323697Y-60622051D01*
X146323698Y-60622052D01*
X146504977Y-60734296D01*
X146504983Y-60734299D01*
X146579124Y-60763021D01*
X146703802Y-60811321D01*
X146913390Y-60850500D01*
X146913393Y-60850500D01*
X147126607Y-60850500D01*
X147126610Y-60850500D01*
X147336198Y-60811321D01*
X147535019Y-60734298D01*
X147716302Y-60622052D01*
X147873872Y-60478407D01*
X148002366Y-60308255D01*
X148097405Y-60117389D01*
X148146688Y-59944177D01*
X148186276Y-59877986D01*
X148253657Y-59840455D01*
X148330776Y-59841643D01*
X148396969Y-59881231D01*
X148433312Y-59944179D01*
X148482593Y-60117385D01*
X148482594Y-60117387D01*
X148577636Y-60308259D01*
X148680582Y-60444579D01*
X148706128Y-60478407D01*
X148861441Y-60619994D01*
X148863697Y-60622051D01*
X148863698Y-60622052D01*
X149044977Y-60734296D01*
X149044983Y-60734299D01*
X149119124Y-60763021D01*
X149243802Y-60811321D01*
X149453390Y-60850500D01*
X149453393Y-60850500D01*
X149666607Y-60850500D01*
X149666610Y-60850500D01*
X149876198Y-60811321D01*
X150075019Y-60734298D01*
X150256302Y-60622052D01*
X150413872Y-60478407D01*
X150542366Y-60308255D01*
X150637405Y-60117389D01*
X150657188Y-60047857D01*
X150696775Y-59981665D01*
X150764155Y-59944134D01*
X150841274Y-59945321D01*
X150907468Y-59984908D01*
X150944999Y-60052288D01*
X150949500Y-60088633D01*
X150949500Y-60594866D01*
X150952414Y-60619989D01*
X150952415Y-60619992D01*
X150997793Y-60722764D01*
X150997794Y-60722765D01*
X151077235Y-60802206D01*
X151180009Y-60847585D01*
X151205135Y-60850500D01*
X152994864Y-60850499D01*
X152994866Y-60850499D01*
X153007427Y-60849042D01*
X153019991Y-60847585D01*
X153122765Y-60802206D01*
X153202206Y-60722765D01*
X153247585Y-60619991D01*
X153250500Y-60594865D01*
X153250500Y-60098417D01*
X182749500Y-60098417D01*
X182780291Y-60292826D01*
X182841116Y-60480025D01*
X182841119Y-60480030D01*
X182841121Y-60480036D01*
X182899630Y-60594866D01*
X182930476Y-60655405D01*
X183046172Y-60814646D01*
X183185354Y-60953828D01*
X183344595Y-61069524D01*
X183519975Y-61158884D01*
X183707174Y-61219709D01*
X183901583Y-61250500D01*
X183901588Y-61250500D01*
X184098412Y-61250500D01*
X184098417Y-61250500D01*
X184292826Y-61219709D01*
X184480025Y-61158884D01*
X184655405Y-61069524D01*
X184814646Y-60953828D01*
X184953828Y-60814646D01*
X185069524Y-60655405D01*
X185158884Y-60480025D01*
X185219709Y-60292826D01*
X185250500Y-60098417D01*
X185250500Y-59901583D01*
X185219709Y-59707174D01*
X185158884Y-59519975D01*
X185147137Y-59496921D01*
X185128511Y-59460364D01*
X185069524Y-59344595D01*
X184953828Y-59185354D01*
X184814646Y-59046172D01*
X184655405Y-58930476D01*
X184594226Y-58899304D01*
X184480036Y-58841121D01*
X184480030Y-58841119D01*
X184480025Y-58841116D01*
X184292826Y-58780291D01*
X184098417Y-58749500D01*
X183901583Y-58749500D01*
X183707174Y-58780291D01*
X183519975Y-58841116D01*
X183519972Y-58841117D01*
X183519963Y-58841121D01*
X183344598Y-58930474D01*
X183344593Y-58930477D01*
X183185363Y-59046165D01*
X183185352Y-59046174D01*
X183046174Y-59185352D01*
X183046165Y-59185363D01*
X182930477Y-59344593D01*
X182930474Y-59344598D01*
X182841121Y-59519963D01*
X182841117Y-59519972D01*
X182841116Y-59519975D01*
X182780291Y-59707174D01*
X182749500Y-59901583D01*
X182749500Y-60098417D01*
X153250500Y-60098417D01*
X153250499Y-58805136D01*
X153247585Y-58780009D01*
X153202206Y-58677235D01*
X153122765Y-58597794D01*
X153122764Y-58597793D01*
X153019994Y-58552416D01*
X153019991Y-58552415D01*
X153019982Y-58552414D01*
X152994865Y-58549500D01*
X152994859Y-58549500D01*
X151205133Y-58549500D01*
X151180010Y-58552414D01*
X151180007Y-58552415D01*
X151077235Y-58597793D01*
X150997793Y-58677235D01*
X150952416Y-58780005D01*
X150952415Y-58780008D01*
X150952415Y-58780009D01*
X150949500Y-58805135D01*
X150949500Y-58805136D01*
X150949500Y-58805140D01*
X150949500Y-59311364D01*
X150929538Y-59385864D01*
X150875000Y-59440402D01*
X150800500Y-59460364D01*
X150726000Y-59440402D01*
X150671462Y-59385864D01*
X150657188Y-59352140D01*
X150637406Y-59282614D01*
X150637405Y-59282612D01*
X150637405Y-59282611D01*
X150542366Y-59091745D01*
X150542364Y-59091743D01*
X150542363Y-59091740D01*
X150413872Y-58921593D01*
X150256302Y-58777948D01*
X150256301Y-58777947D01*
X150075022Y-58665703D01*
X150075016Y-58665700D01*
X149876204Y-58588681D01*
X149876200Y-58588680D01*
X149876198Y-58588679D01*
X149834280Y-58580843D01*
X149666614Y-58549500D01*
X149666610Y-58549500D01*
X149453390Y-58549500D01*
X149453385Y-58549500D01*
X149243802Y-58588679D01*
X149243795Y-58588681D01*
X149044983Y-58665700D01*
X149044977Y-58665703D01*
X148863698Y-58777947D01*
X148863697Y-58777948D01*
X148706127Y-58921593D01*
X148577636Y-59091740D01*
X148482594Y-59282612D01*
X148482593Y-59282614D01*
X148433312Y-59455820D01*
X148393724Y-59522013D01*
X148326343Y-59559544D01*
X148249224Y-59558356D01*
X148183031Y-59518768D01*
X148146688Y-59455820D01*
X148097406Y-59282614D01*
X148097405Y-59282612D01*
X148097405Y-59282611D01*
X148002366Y-59091745D01*
X148002364Y-59091743D01*
X148002363Y-59091740D01*
X147873872Y-58921593D01*
X147716302Y-58777948D01*
X147716301Y-58777947D01*
X147535022Y-58665703D01*
X147535016Y-58665700D01*
X147336204Y-58588681D01*
X147336200Y-58588680D01*
X147336198Y-58588679D01*
X147294280Y-58580843D01*
X147126614Y-58549500D01*
X147126610Y-58549500D01*
X146913390Y-58549500D01*
X146913385Y-58549500D01*
X146703802Y-58588679D01*
X146703795Y-58588681D01*
X146504983Y-58665700D01*
X146504977Y-58665703D01*
X146323698Y-58777947D01*
X146323697Y-58777948D01*
X146166127Y-58921593D01*
X146037636Y-59091740D01*
X145942594Y-59282612D01*
X145942593Y-59282614D01*
X145884243Y-59487694D01*
X145864571Y-59699995D01*
X145864571Y-59700004D01*
X143095429Y-59700004D01*
X143095429Y-59699995D01*
X143078748Y-59519981D01*
X143075756Y-59487690D01*
X143017405Y-59282611D01*
X142922366Y-59091745D01*
X142922364Y-59091743D01*
X142922363Y-59091740D01*
X142793872Y-58921593D01*
X142636302Y-58777948D01*
X142636301Y-58777947D01*
X142455022Y-58665703D01*
X142455016Y-58665700D01*
X142256204Y-58588681D01*
X142256200Y-58588680D01*
X142256198Y-58588679D01*
X142214280Y-58580843D01*
X142046614Y-58549500D01*
X142046610Y-58549500D01*
X141833390Y-58549500D01*
X141833385Y-58549500D01*
X141623802Y-58588679D01*
X141623795Y-58588681D01*
X141424983Y-58665700D01*
X141424977Y-58665703D01*
X141243698Y-58777947D01*
X141243697Y-58777948D01*
X141086127Y-58921593D01*
X140957636Y-59091740D01*
X140862594Y-59282612D01*
X140862593Y-59282614D01*
X140813312Y-59455820D01*
X140773724Y-59522013D01*
X140706343Y-59559544D01*
X140629224Y-59558356D01*
X140563031Y-59518768D01*
X140526688Y-59455820D01*
X140477406Y-59282614D01*
X140477405Y-59282612D01*
X140477405Y-59282611D01*
X140382366Y-59091745D01*
X140382364Y-59091743D01*
X140382363Y-59091740D01*
X140253872Y-58921593D01*
X140096302Y-58777948D01*
X140096301Y-58777947D01*
X139915022Y-58665703D01*
X139915016Y-58665700D01*
X139716204Y-58588681D01*
X139716200Y-58588680D01*
X139716198Y-58588679D01*
X139674280Y-58580843D01*
X139506614Y-58549500D01*
X139506610Y-58549500D01*
X139293390Y-58549500D01*
X139293385Y-58549500D01*
X139083802Y-58588679D01*
X139083795Y-58588681D01*
X138884983Y-58665700D01*
X138884977Y-58665703D01*
X138703698Y-58777947D01*
X138703697Y-58777948D01*
X138546127Y-58921593D01*
X138417636Y-59091740D01*
X138322594Y-59282612D01*
X138322593Y-59282614D01*
X138264243Y-59487694D01*
X138244571Y-59699995D01*
X138244571Y-59700004D01*
X135205215Y-59700004D01*
X135205215Y-59699995D01*
X135188534Y-59519981D01*
X135186397Y-59496917D01*
X135130582Y-59300750D01*
X135039673Y-59118179D01*
X134916764Y-58955421D01*
X134766041Y-58818019D01*
X134766036Y-58818015D01*
X134592643Y-58710655D01*
X134592632Y-58710649D01*
X134402462Y-58636978D01*
X134402458Y-58636977D01*
X134402456Y-58636976D01*
X134362360Y-58629480D01*
X134201980Y-58599500D01*
X134201976Y-58599500D01*
X133998024Y-58599500D01*
X133998019Y-58599500D01*
X133797544Y-58636976D01*
X133797537Y-58636978D01*
X133607367Y-58710649D01*
X133607356Y-58710655D01*
X133433963Y-58818015D01*
X133433958Y-58818019D01*
X133283234Y-58955423D01*
X133160328Y-59118176D01*
X133069416Y-59300754D01*
X133013602Y-59496921D01*
X132994785Y-59699995D01*
X132994785Y-59700004D01*
X130125215Y-59700004D01*
X130125215Y-59699995D01*
X130108534Y-59519981D01*
X130106397Y-59496917D01*
X130050582Y-59300750D01*
X129959673Y-59118179D01*
X129836764Y-58955421D01*
X129686041Y-58818019D01*
X129686036Y-58818015D01*
X129512643Y-58710655D01*
X129512632Y-58710649D01*
X129322462Y-58636978D01*
X129322458Y-58636977D01*
X129322456Y-58636976D01*
X129282360Y-58629480D01*
X129121980Y-58599500D01*
X129121976Y-58599500D01*
X128918024Y-58599500D01*
X128918019Y-58599500D01*
X128717544Y-58636976D01*
X128717537Y-58636978D01*
X128527367Y-58710649D01*
X128527356Y-58710655D01*
X128353963Y-58818015D01*
X128353958Y-58818019D01*
X128203234Y-58955423D01*
X128080328Y-59118176D01*
X127989416Y-59300754D01*
X127933602Y-59496921D01*
X127914785Y-59699995D01*
X127914785Y-59700004D01*
X101217379Y-59700004D01*
X101158884Y-59519975D01*
X101147137Y-59496921D01*
X101128511Y-59460364D01*
X101069524Y-59344595D01*
X100953828Y-59185354D01*
X100814646Y-59046172D01*
X100655405Y-58930476D01*
X100594226Y-58899304D01*
X100480036Y-58841121D01*
X100480030Y-58841119D01*
X100480025Y-58841116D01*
X100292826Y-58780291D01*
X100098417Y-58749500D01*
X99901583Y-58749500D01*
X99707174Y-58780291D01*
X99519975Y-58841116D01*
X99519972Y-58841117D01*
X99519963Y-58841121D01*
X99344598Y-58930474D01*
X99344593Y-58930477D01*
X99185363Y-59046165D01*
X99185352Y-59046174D01*
X99046174Y-59185352D01*
X99046165Y-59185363D01*
X98930477Y-59344593D01*
X98930474Y-59344598D01*
X98841121Y-59519963D01*
X98841117Y-59519972D01*
X98841116Y-59519975D01*
X98780291Y-59707174D01*
X98749500Y-59901583D01*
X98749500Y-60098417D01*
X97300000Y-60098417D01*
X97300000Y-60001122D01*
X97300017Y-59998874D01*
X97300825Y-59945321D01*
X97302344Y-59844699D01*
X97303410Y-59829023D01*
X97340714Y-59521802D01*
X97343957Y-59504110D01*
X97345729Y-59496921D01*
X97417743Y-59204748D01*
X97423090Y-59187589D01*
X97532425Y-58899296D01*
X97539802Y-58882904D01*
X97683090Y-58609891D01*
X97692397Y-58594497D01*
X97867545Y-58340750D01*
X97878628Y-58326602D01*
X98083102Y-58095799D01*
X98095799Y-58083102D01*
X98326602Y-57878628D01*
X98340750Y-57867545D01*
X98594497Y-57692397D01*
X98609894Y-57683089D01*
X98882904Y-57539802D01*
X98899296Y-57532425D01*
X99187589Y-57423090D01*
X99204748Y-57417743D01*
X99504116Y-57343955D01*
X99521802Y-57340714D01*
X99829023Y-57303410D01*
X99844699Y-57302344D01*
X99995867Y-57300062D01*
X99998875Y-57300017D01*
X100001123Y-57300000D01*
X183998877Y-57300000D01*
X184001125Y-57300017D01*
G37*
%TD.AperFunction*%
%TD*%
M02*
